<svg xmlns="http://www.w3.org/2000/svg" width="121" height="120" viewBox="0 0 121 120">
  <g id="Grupo_113835" data-name="Grupo 113835" transform="translate(-216.034 -1131.001)">
    <ellipse id="Elipse_4796" data-name="Elipse 4796" cx="60.5" cy="60" rx="60.5" ry="60" transform="translate(216.034 1131.001)" fill="#ffb30b"/>
    <g id="Grupo_113711" data-name="Grupo 113711" transform="translate(246.853 1157.041)">
      <g id="Grupo_113662" data-name="Grupo 113662" transform="translate(0 44.594)">
        <g id="Grupo_113658" data-name="Grupo 113658" transform="translate(0 2.922)">
          <g id="Grupo_113657" data-name="Grupo 113657">
            <g id="Grupo_113656" data-name="Grupo 113656">
              <path id="Trazado_118349" data-name="Trazado 118349" d="M2020.888,1686.449c-14.14,0-29.169-2.162-29.169-6.169v-14.437h.862v14.437c0,2.51,11.626,5.307,28.307,5.307s28.307-2.8,28.307-5.307v-14.437h.862v14.437C2050.056,1684.287,2035.028,1686.449,2020.888,1686.449Z" transform="translate(-1991.719 -1665.843)" fill="#00003e"/>
            </g>
          </g>
        </g>
        <g id="Grupo_113661" data-name="Grupo 113661">
          <g id="Grupo_113660" data-name="Grupo 113660">
            <g id="Grupo_113659" data-name="Grupo 113659">
              <path id="Trazado_118350" data-name="Trazado 118350" d="M2020.888,1666.722c-14.14,0-29.169-2.162-29.169-6.169,0-1.015.951-1.947,2.828-2.77l.347.789c-1.491.654-2.312,1.357-2.312,1.981,0,2.51,11.626,5.307,28.307,5.307s28.307-2.8,28.307-5.307c0-.672-.942-1.427-2.652-2.124l.325-.8c2.116.862,3.188,1.845,3.188,2.922C2050.056,1664.559,2035.028,1666.722,2020.888,1666.722Z" transform="translate(-1991.719 -1657.631)" fill="#00003e"/>
            </g>
          </g>
        </g>
      </g>
      <g id="Grupo_113669" data-name="Grupo 113669" transform="translate(0 25.98)">
        <g id="Grupo_113665" data-name="Grupo 113665" transform="translate(0 2.351)">
          <g id="Grupo_113664" data-name="Grupo 113664">
            <g id="Grupo_113663" data-name="Grupo 113663">
              <path id="Trazado_118351" data-name="Trazado 118351" d="M2020.888,1632.527c-14.14,0-29.169-2.162-29.169-6.169v-14.437h.862v14.437c0,2.51,11.626,5.307,28.307,5.307s28.307-2.8,28.307-5.307v-14.437h.862v14.437C2050.056,1630.365,2035.028,1632.527,2020.888,1632.527Z" transform="translate(-1991.719 -1611.921)" fill="#00003e"/>
            </g>
          </g>
        </g>
        <g id="Grupo_113668" data-name="Grupo 113668" transform="translate(0 0)">
          <g id="Grupo_113667" data-name="Grupo 113667">
            <g id="Grupo_113666" data-name="Grupo 113666">
              <path id="Trazado_118352" data-name="Trazado 118352" d="M2020.888,1613.833c-14.14,0-29.169-2.163-29.169-6.169,0-.831.635-1.606,1.886-2.306l.421.753c-.945.528-1.444,1.065-1.444,1.553,0,2.51,11.626,5.307,28.307,5.307s28.307-2.8,28.307-5.307c0-.5-.525-1.052-1.519-1.594l.413-.758c1.306.712,1.969,1.5,1.969,2.351C2050.056,1611.67,2035.028,1613.833,2020.888,1613.833Z" transform="translate(-1991.719 -1605.312)" fill="#00003e"/>
            </g>
          </g>
        </g>
      </g>
      <g id="Grupo_113674" data-name="Grupo 113674" transform="translate(21.483 39.959)">
        <g id="Grupo_113671" data-name="Grupo 113671">
          <g id="Grupo_113670" data-name="Grupo 113670">
            <path id="Trazado_118353" data-name="Trazado 118353" d="M2053.922,1648.241a1.819,1.819,0,1,1,1.819-1.819A1.821,1.821,0,0,1,2053.922,1648.241Zm0-2.776a.957.957,0,1,0,.957.957A.958.958,0,0,0,2053.922,1645.465Z" transform="translate(-2052.103 -1644.603)" fill="#00003e"/>
          </g>
        </g>
        <g id="Grupo_113673" data-name="Grupo 113673" transform="translate(5.867)">
          <g id="Grupo_113672" data-name="Grupo 113672">
            <path id="Trazado_118354" data-name="Trazado 118354" d="M2070.414,1648.241a1.819,1.819,0,1,1,1.819-1.819A1.82,1.82,0,0,1,2070.414,1648.241Zm0-2.776a.957.957,0,1,0,.957.957A.958.958,0,0,0,2070.414,1645.465Z" transform="translate(-2068.595 -1644.603)" fill="#00003e"/>
          </g>
        </g>
      </g>
      <g id="Grupo_113679" data-name="Grupo 113679" transform="translate(27.35 58.633)">
        <g id="Grupo_113676" data-name="Grupo 113676">
          <g id="Grupo_113675" data-name="Grupo 113675">
            <path id="Trazado_118355" data-name="Trazado 118355" d="M2070.414,1700.732a1.819,1.819,0,1,1,1.819-1.819A1.82,1.82,0,0,1,2070.414,1700.732Zm0-2.776a.957.957,0,1,0,.957.957A.958.958,0,0,0,2070.414,1697.956Z" transform="translate(-2068.595 -1697.094)" fill="#00003e"/>
          </g>
        </g>
        <g id="Grupo_113678" data-name="Grupo 113678" transform="translate(5.867)">
          <g id="Grupo_113677" data-name="Grupo 113677">
            <path id="Trazado_118356" data-name="Trazado 118356" d="M2086.9,1700.732a1.819,1.819,0,1,1,1.819-1.819A1.821,1.821,0,0,1,2086.9,1700.732Zm0-2.776a.957.957,0,1,0,.957.957A.958.958,0,0,0,2086.9,1697.956Z" transform="translate(-2085.086 -1697.094)" fill="#00003e"/>
          </g>
        </g>
      </g>
      <g id="Grupo_113682" data-name="Grupo 113682" transform="translate(0 9.697)">
        <g id="Grupo_113681" data-name="Grupo 113681" transform="translate(0 0)">
          <g id="Grupo_113680" data-name="Grupo 113680">
            <path id="Trazado_118357" data-name="Trazado 118357" d="M2020.888,1580.147c-14.14,0-29.169-2.162-29.169-6.169v-14.437h.862v14.437c0,2.51,11.626,5.307,28.307,5.307s28.307-2.8,28.307-5.307v-14.437h.862v14.437C2050.056,1577.985,2035.028,1580.147,2020.888,1580.147Z" transform="translate(-1991.719 -1559.541)" fill="#00003e"/>
          </g>
        </g>
      </g>
      <g id="Grupo_113687" data-name="Grupo 113687" transform="translate(0 4.635)">
        <g id="Grupo_113686" data-name="Grupo 113686" transform="translate(0 0)">
          <g id="Grupo_113685" data-name="Grupo 113685">
            <g id="Grupo_113684" data-name="Grupo 113684">
              <g id="Grupo_113683" data-name="Grupo 113683">
                <path id="Trazado_118358" data-name="Trazado 118358" d="M2020.888,1556.545c-14.14,0-29.169-2.163-29.169-6.169,0-2.813,7.411-4.348,11.828-5.012l.128.852c-8.189,1.232-11.094,3.011-11.094,4.16,0,2.51,11.626,5.307,28.307,5.307s28.307-2.8,28.307-5.307c0-1.171-2.991-2.976-11.423-4.208l.125-.854c4.542.664,12.16,2.2,12.16,5.061C2050.056,1554.382,2035.028,1556.545,2020.888,1556.545Z" transform="translate(-1991.719 -1545.314)" fill="#00003e"/>
              </g>
            </g>
          </g>
        </g>
      </g>
      <g id="Grupo_113692" data-name="Grupo 113692" transform="translate(21.483 20.764)">
        <g id="Grupo_113689" data-name="Grupo 113689">
          <g id="Grupo_113688" data-name="Grupo 113688">
            <path id="Trazado_118359" data-name="Trazado 118359" d="M2053.922,1594.288a1.819,1.819,0,1,1,1.819-1.819A1.821,1.821,0,0,1,2053.922,1594.288Zm0-2.776a.957.957,0,1,0,.957.957A.958.958,0,0,0,2053.922,1591.512Z" transform="translate(-2052.103 -1590.65)" fill="#00003e"/>
          </g>
        </g>
        <g id="Grupo_113691" data-name="Grupo 113691" transform="translate(11.734)">
          <g id="Grupo_113690" data-name="Grupo 113690">
            <path id="Trazado_118360" data-name="Trazado 118360" d="M2086.9,1594.288a1.819,1.819,0,1,1,1.819-1.819A1.821,1.821,0,0,1,2086.9,1594.288Zm0-2.776a.957.957,0,1,0,.957.957A.958.958,0,0,0,2086.9,1591.512Z" transform="translate(-2085.086 -1590.65)" fill="#00003e"/>
          </g>
        </g>
      </g>
      <g id="Grupo_113694" data-name="Grupo 113694" transform="translate(8.301 6.2)">
        <g id="Grupo_113693" data-name="Grupo 113693">
          <path id="Trazado_118361" data-name="Trazado 118361" d="M2035.919,1556.623c-10.371,0-20.868-1.484-20.868-4.321,0-.965,1.109-1.772,3.39-2.467l.251.825c-2.049.625-2.779,1.258-2.779,1.643,0,1.444,7.611,3.459,20.006,3.459s20.006-2.014,20.006-3.459c0-.418-.836-1.1-3.181-1.76l.234-.83c2.563.721,3.809,1.568,3.809,2.59C2056.787,1555.139,2046.29,1556.623,2035.919,1556.623Z" transform="translate(-2015.051 -1549.712)" fill="#00003e"/>
        </g>
      </g>
      <g id="Grupo_113697" data-name="Grupo 113697" transform="translate(11.792 3.906)">
        <g id="Grupo_113696" data-name="Grupo 113696" transform="translate(0 0)">
          <g id="Grupo_113695" data-name="Grupo 113695">
            <path id="Trazado_118362" data-name="Trazado 118362" d="M2041.882,1552.47c-12.716,0-16.61-1.728-16.769-1.8l-.251-.115v-7.288h.862v6.715c1.035.362,5.425,1.627,16.158,1.627,10.844,0,15.722-1.282,16.873-1.641v-6.7h.862v7.306l-.275.107C2059.155,1550.752,2054.585,1552.47,2041.882,1552.47Z" transform="translate(-2024.863 -1543.265)" fill="#00003e"/>
          </g>
        </g>
      </g>
      <g id="Grupo_113702" data-name="Grupo 113702" transform="translate(11.792 0)">
        <g id="Grupo_113701" data-name="Grupo 113701">
          <g id="Grupo_113700" data-name="Grupo 113700">
            <g id="Grupo_113699" data-name="Grupo 113699">
              <g id="Grupo_113698" data-name="Grupo 113698">
                <path id="Trazado_118363" data-name="Trazado 118363" d="M2042.24,1539.915c-6.985,0-17.377-1.016-17.377-3.814s10.392-3.815,17.377-3.815,17.377,1.016,17.377,3.815S2049.225,1539.915,2042.24,1539.915Zm0-6.767c-10.232,0-16.515,1.72-16.515,2.953s6.283,2.952,16.515,2.952,16.515-1.72,16.515-2.952S2052.473,1533.148,2042.24,1533.148Z" transform="translate(-2024.863 -1532.286)" fill="#00003e"/>
              </g>
            </g>
          </g>
        </g>
      </g>
      <g id="Grupo_113704" data-name="Grupo 113704" transform="translate(20.379 57.53)">
        <g id="Grupo_113703" data-name="Grupo 113703">
          <path id="Trazado_118364" data-name="Trazado 118364" d="M2051.924,1699.837a2.923,2.923,0,1,1,2.922-2.923A2.927,2.927,0,0,1,2051.924,1699.837Zm0-4.983a2.061,2.061,0,1,0,2.06,2.061A2.063,2.063,0,0,0,2051.924,1694.854Z" transform="translate(-2049.001 -1693.992)" fill="#00003e"/>
        </g>
      </g>
      <g id="Grupo_113706" data-name="Grupo 113706" transform="translate(32.113 38.855)">
        <g id="Grupo_113705" data-name="Grupo 113705">
          <path id="Trazado_118365" data-name="Trazado 118365" d="M2084.906,1647.345a2.922,2.922,0,1,1,2.923-2.922A2.926,2.926,0,0,1,2084.906,1647.345Zm0-4.982a2.06,2.06,0,1,0,2.06,2.061A2.063,2.063,0,0,0,2084.906,1642.363Z" transform="translate(-2081.984 -1641.501)" fill="#00003e"/>
        </g>
      </g>
      <g id="Grupo_113708" data-name="Grupo 113708" transform="translate(26.246 19.66)">
        <g id="Grupo_113707" data-name="Grupo 113707" transform="translate(0 0)">
          <path id="Trazado_118366" data-name="Trazado 118366" d="M2068.415,1593.392a2.922,2.922,0,1,1,2.922-2.922A2.926,2.926,0,0,1,2068.415,1593.392Zm0-4.982a2.06,2.06,0,1,0,2.06,2.061A2.063,2.063,0,0,0,2068.415,1588.41Z" transform="translate(-2065.493 -1587.548)" fill="#00003e"/>
        </g>
      </g>
    </g>
  </g>
</svg>
