<svg xmlns="http://www.w3.org/2000/svg" width="85" height="84.909" viewBox="0 0 85 84.909">
  <g id="Grupo_113838" data-name="Grupo 113838" transform="translate(-180 -2296)">
    <path id="Trazado_118481" data-name="Trazado 118481" d="M85.679,76.647H11.723a4.231,4.231,0,0,1-4.231-4.231V12.224a4.231,4.231,0,0,1,4.231-4.231H85.679a4.231,4.231,0,0,1,4.231,4.231V72.416A4.231,4.231,0,0,1,85.679,76.647Zm0,0" transform="translate(173.752 2289.251)" fill="#ffcf66"/>
    <path id="Trazado_118482" data-name="Trazado 118482" d="M456.723,12.227V72.419a4.231,4.231,0,0,1-4.231,4.231h-5.169a4.231,4.231,0,0,0,4.231-4.231V12.227A4.231,4.231,0,0,0,447.324,8h5.169A4.231,4.231,0,0,1,456.723,12.227Zm0,0" transform="translate(-193.061 2289.248)" fill="#ffb30b"/>
    <path id="Trazado_118483" data-name="Trazado 118483" d="M89.911,360.129H7.493v5.963a4.231,4.231,0,0,0,4.231,4.231H85.681a4.231,4.231,0,0,0,4.231-4.231Zm0,0" transform="translate(173.751 1995.575)" fill="#d2e1f1"/>
    <path id="Trazado_118484" data-name="Trazado 118484" d="M456.723,360.129v5.963a4.231,4.231,0,0,1-4.231,4.231h-5.169a4.231,4.231,0,0,0,4.231-4.231v-5.963Zm0,0" transform="translate(-193.061 1995.575)" fill="#d2e1f1"/>
    <path id="Trazado_118485" data-name="Trazado 118485" d="M90.468,22.426H8.047v-10.2a4.231,4.231,0,0,1,4.231-4.231H86.237a4.231,4.231,0,0,1,4.231,4.231Zm0,0" transform="translate(173.289 2289.251)" fill="#d2e1f1"/>
    <path id="Trazado_118486" data-name="Trazado 118486" d="M456.819,12.226v10.2h-5.263v-10.2A4.23,4.23,0,0,0,447.324,8h5.263A4.231,4.231,0,0,1,456.819,12.226Zm0,0" transform="translate(-193.061 2289.248)" fill="#b0c0d2"/>
    <path id="Trazado_118487" data-name="Trazado 118487" d="M186.277,421.531h23.056v6.949H186.277Zm0,0" transform="translate(24.648 1944.367)" fill="#b0c0d2"/>
    <path id="Trazado_118488" data-name="Trazado 118488" d="M175.107,470.208h-38a.83.83,0,0,1-.829-.829v-2.687a3.3,3.3,0,0,1,3.3-3.3h33.056a3.3,3.3,0,0,1,3.3,3.3v2.687a.829.829,0,0,1-.829.829Zm0,0" transform="translate(66.344 1909.457)" fill="#b0c0d2"/>
    <path id="Trazado_118489" data-name="Trazado 118489" d="M339.7,466.694v2.689a.83.83,0,0,1-.829.829h-2.927v-3.518a3.3,3.3,0,0,0-3.3-3.3H336.4A3.3,3.3,0,0,1,339.7,466.694Zm0,0" transform="translate(-97.423 1909.453)" fill="#727997"/>
    <path id="Trazado_118490" data-name="Trazado 118490" d="M295.477,275.613h26.938v5.106H295.477Zm0,0" transform="translate(-66.423 2066.06)" fill="#8beffc"/>
    <path id="Trazado_118491" data-name="Trazado 118491" d="M295.477,357.273h26.938v5.106H295.477Zm0,0" transform="translate(-66.423 1997.957)" fill="#8beffc"/>
    <path id="Trazado_118492" data-name="Trazado 118492" d="M438.551,275.613h3.185v5.106h-3.185Zm0,0" transform="translate(-185.744 2066.06)" fill="#00b6cf"/>
    <path id="Trazado_118493" data-name="Trazado 118493" d="M438.551,357.273h3.185v5.106h-3.185Zm0,0" transform="translate(-185.744 1997.957)" fill="#00b6cf"/>
    <g id="Grupo_113806" data-name="Grupo 113806" transform="translate(225.621 2333.222)">
      <path id="Trazado_118494" data-name="Trazado 118494" d="M307.4,233.158H276a1.2,1.2,0,0,1-1.2-1.2V225.91a1.2,1.2,0,0,1,1.2-1.2h31.4a1.2,1.2,0,0,1,1.2,1.2v6.046A1.2,1.2,0,0,1,307.4,233.158Zm0,0" transform="translate(-274.797 -224.707)" fill="#00defc"/>
      <path id="Trazado_118495" data-name="Trazado 118495" d="M307.4,314.818H276a1.2,1.2,0,0,1-1.2-1.2V307.57a1.2,1.2,0,0,1,1.2-1.2h31.4a1.2,1.2,0,0,1,1.2,1.2v6.046A1.2,1.2,0,0,1,307.4,314.818Zm0,0" transform="translate(-274.797 -292.81)" fill="#00defc"/>
      <path id="Trazado_118496" data-name="Trazado 118496" d="M307.4,396.479H276a1.2,1.2,0,0,1-1.2-1.2v-6.046a1.2,1.2,0,0,1,1.2-1.2h31.4a1.2,1.2,0,0,1,1.2,1.2v6.046A1.2,1.2,0,0,1,307.4,396.479Zm0,0" transform="translate(-274.797 -360.914)" fill="#00defc"/>
    </g>
    <path id="Trazado_118497" data-name="Trazado 118497" d="M458.359,225.913v6.046a1.2,1.2,0,0,1-1.2,1.2h-2.79a1.2,1.2,0,0,0,1.2-1.2v-6.046a1.2,1.2,0,0,0-1.2-1.2h2.79A1.2,1.2,0,0,1,458.359,225.913Zm0,0" transform="translate(-198.935 2108.512)" fill="#00b6cf"/>
    <path id="Trazado_118498" data-name="Trazado 118498" d="M458.359,307.569v6.046a1.2,1.2,0,0,1-1.2,1.2h-2.79a1.2,1.2,0,0,0,1.2-1.2v-6.046a1.2,1.2,0,0,0-1.2-1.2h2.79A1.2,1.2,0,0,1,458.359,307.569Zm0,0" transform="translate(-198.935 2040.412)" fill="#00b6cf"/>
    <path id="Trazado_118499" data-name="Trazado 118499" d="M458.359,389.234v6.045a1.2,1.2,0,0,1-1.2,1.2h-2.79a1.2,1.2,0,0,0,1.2-1.2v-6.045a1.2,1.2,0,0,0-1.2-1.2h2.79A1.2,1.2,0,0,1,458.359,389.234Zm0,0" transform="translate(-198.935 1972.305)" fill="#00b6cf"/>
    <path id="Trazado_118500" data-name="Trazado 118500" d="M45.579,39.16a2.407,2.407,0,1,1-2.407-2.407A2.407,2.407,0,0,1,45.579,39.16Zm0,0" transform="translate(146.002 2265.264)" fill="#084a93"/>
    <path id="Trazado_118501" data-name="Trazado 118501" d="M101.564,39.16a2.407,2.407,0,1,1-2.407-2.407A2.407,2.407,0,0,1,101.564,39.16Zm0,0" transform="translate(99.313 2265.264)" fill="#ffcf66"/>
    <path id="Trazado_118502" data-name="Trazado 118502" d="M157.551,39.16a2.407,2.407,0,1,1-2.407-2.407A2.407,2.407,0,0,1,157.551,39.16Zm0,0" transform="translate(52.619 2265.264)" fill="#00defc"/>
    <path id="Trazado_118503" data-name="Trazado 118503" d="M49.331,39.165a2.405,2.405,0,0,1-4.065,1.74,2.4,2.4,0,0,0,1.6-4.145.553.553,0,0,1,.056,0,2.4,2.4,0,0,1,2.405,2.407Zm0,0" transform="translate(142.25 2265.261)" fill="#052f5e"/>
    <path id="Trazado_118504" data-name="Trazado 118504" d="M105.313,39.165a2.406,2.406,0,0,1-4.067,1.74,2.4,2.4,0,0,0,1.606-4.145.51.51,0,0,1,.054,0,2.406,2.406,0,0,1,2.407,2.407Zm0,0" transform="translate(95.563 2265.261)" fill="#ffb30b"/>
    <path id="Trazado_118505" data-name="Trazado 118505" d="M161.3,39.165a2.407,2.407,0,0,1-4.067,1.74,2.4,2.4,0,0,0,1.6-4.145.553.553,0,0,1,.056,0,2.407,2.407,0,0,1,2.407,2.407Zm0,0" transform="translate(48.87 2265.261)" fill="#00b6cf"/>
    <path id="Trazado_118506" data-name="Trazado 118506" d="M37.538,137.194a1.244,1.244,0,1,0,1.759-1.759l-3.021-3.021,3.021-3.02a1.244,1.244,0,0,0-1.759-1.759l-3.9,3.9a1.244,1.244,0,0,0,0,1.759Zm0,0" transform="translate(152.25 2189.775)"/>
    <path id="Trazado_118507" data-name="Trazado 118507" d="M116.316,132.411l-3.021,3.021a1.244,1.244,0,1,0,1.759,1.759l3.9-3.9a1.243,1.243,0,0,0,0-1.759l-3.9-3.9a1.244,1.244,0,0,0-1.759,1.759Zm0,0" transform="translate(85.818 2189.778)"/>
    <path id="Trazado_118508" data-name="Trazado 118508" d="M77.207,137.468a1.244,1.244,0,0,0,1.613-.7l3.064-7.8a1.244,1.244,0,1,0-2.315-.91l-3.065,7.8A1.244,1.244,0,0,0,77.207,137.468Zm0,0" transform="translate(116.27 2189.779)"/>
    <path id="Trazado_118509" data-name="Trazado 118509" d="M38.759,220.7H47.14a1.244,1.244,0,0,0,0-2.488H38.759a1.244,1.244,0,0,0,0,2.488Zm0,0" transform="translate(148.713 2113.929)"/>
    <path id="Trazado_118510" data-name="Trazado 118510" d="M131.49,218.215H116.756a1.244,1.244,0,0,0,0,2.488H131.49a1.244,1.244,0,1,0,0-2.488Zm0,0" transform="translate(83.665 2113.929)"/>
    <path id="Trazado_118511" data-name="Trazado 118511" d="M38.759,252.309h3.57a1.244,1.244,0,0,0,0-2.488h-3.57a1.244,1.244,0,0,0,0,2.488Zm0,0" transform="translate(148.713 2087.57)"/>
    <path id="Trazado_118512" data-name="Trazado 118512" d="M178.092,249.82a1.244,1.244,0,0,0,0,2.488h2.174a1.244,1.244,0,1,0,0-2.488Zm0,0" transform="translate(32.512 2087.57)"/>
    <path id="Trazado_118513" data-name="Trazado 118513" d="M98.478,251.065a1.244,1.244,0,0,0-1.244-1.244H86.556a1.244,1.244,0,0,0,0,2.488H97.234A1.244,1.244,0,0,0,98.478,251.065Zm0,0" transform="translate(108.851 2087.57)"/>
    <path id="Trazado_118514" data-name="Trazado 118514" d="M213.7,251.065a1.244,1.244,0,0,0,1.244,1.244h4.072a1.244,1.244,0,1,0,0-2.488h-4.072A1.244,1.244,0,0,0,213.7,251.065Zm0,0" transform="translate(1.775 2087.57)"/>
    <path id="Trazado_118515" data-name="Trazado 118515" d="M166.643,151.766h4.3a1.244,1.244,0,1,0,0-2.488h-4.3a1.244,1.244,0,1,0,0,2.488Zm0,0" transform="translate(42.06 2171.422)"/>
    <path id="Trazado_118516" data-name="Trazado 118516" d="M221.49,151.766H247.7a1.244,1.244,0,0,0,0-2.488H221.49a1.244,1.244,0,1,0,0,2.488Zm0,0" transform="translate(-3.681 2171.422)"/>
    <path id="Trazado_118517" data-name="Trazado 118517" d="M302.043,182.246H291.427a1.244,1.244,0,0,0,0,2.488h10.616a1.244,1.244,0,0,0,0-2.488Zm0,0" transform="translate(-62.008 2143.926)"/>
    <path id="Trazado_118518" data-name="Trazado 118518" d="M249.119,182.246H245.47a1.244,1.244,0,0,0,0,2.488h3.649a1.244,1.244,0,0,0,0-2.488Zm0,0" transform="translate(-23.681 2143.926)"/>
    <path id="Trazado_118519" data-name="Trazado 118519" d="M166.643,184.734h8.94a1.244,1.244,0,0,0,0-2.488h-8.94a1.244,1.244,0,1,0,0,2.488Zm0,0" transform="translate(42.06 2143.927)"/>
    <path id="Trazado_118520" data-name="Trazado 118520" d="M108.871,281.16h-8.38a1.244,1.244,0,1,0,0,2.488h8.38a1.244,1.244,0,0,0,0-2.488Zm0,0" transform="translate(97.23 2061.434)"/>
    <path id="Trazado_118521" data-name="Trazado 118521" d="M45.2,281.16H38.759a1.244,1.244,0,0,0,0,2.488H45.2a1.244,1.244,0,0,0,0-2.488Zm0,0" transform="translate(148.713 2061.434)"/>
    <path id="Trazado_118522" data-name="Trazado 118522" d="M187.481,281.16H176.533a1.244,1.244,0,0,0,0,2.488h10.947a1.244,1.244,0,1,0,0-2.488Zm0,0" transform="translate(33.812 2061.434)"/>
    <path id="Trazado_118523" data-name="Trazado 118523" d="M301.577,242.668h-5.986a1.244,1.244,0,0,0,0,2.488h5.986a1.244,1.244,0,0,0,0-2.488Zm0,0" transform="translate(-65.48 2093.535)"/>
    <path id="Trazado_118524" data-name="Trazado 118524" d="M394.221,245.156h8.451a1.244,1.244,0,1,0,0-2.488h-8.451a1.244,1.244,0,0,0,0,2.488Zm0,0" transform="translate(-147.736 2093.535)"/>
    <path id="Trazado_118525" data-name="Trazado 118525" d="M359.037,242.668H357.1a1.244,1.244,0,1,0,0,2.488h1.936a1.244,1.244,0,0,0,0-2.488Zm0,0" transform="translate(-116.778 2093.535)"/>
    <path id="Trazado_118526" data-name="Trazado 118526" d="M295.592,326.816h5.986a1.244,1.244,0,0,0,0-2.488h-5.986a1.244,1.244,0,0,0,0,2.488Zm0,0" transform="translate(-65.481 2025.432)"/>
    <path id="Trazado_118527" data-name="Trazado 118527" d="M394.221,326.816h8.451a1.244,1.244,0,1,0,0-2.488h-8.451a1.244,1.244,0,1,0,0,2.488Zm0,0" transform="translate(-147.736 2025.432)"/>
    <path id="Trazado_118528" data-name="Trazado 118528" d="M357.1,326.816h1.936a1.244,1.244,0,1,0,0-2.488H357.1a1.244,1.244,0,0,0,0,2.488Zm0,0" transform="translate(-116.781 2025.432)"/>
    <path id="Trazado_118529" data-name="Trazado 118529" d="M301.577,405.988h-5.986a1.244,1.244,0,1,0,0,2.488h5.986a1.244,1.244,0,1,0,0-2.488Zm0,0" transform="translate(-65.48 1957.329)"/>
    <path id="Trazado_118530" data-name="Trazado 118530" d="M402.671,405.988H394.22a1.244,1.244,0,1,0,0,2.488h8.451a1.244,1.244,0,1,0,0-2.488Zm0,0" transform="translate(-147.736 1957.329)"/>
    <path id="Trazado_118531" data-name="Trazado 118531" d="M359.037,405.988H357.1a1.244,1.244,0,1,0,0,2.488h1.936a1.244,1.244,0,1,0,0-2.488Zm0,0" transform="translate(-116.778 1957.329)"/>
    <path id="Trazado_118532" data-name="Trazado 118532" d="M79.525.5H5.475A5.482,5.482,0,0,0,0,5.975V66.167a5.481,5.481,0,0,0,5.475,5.475h4.682a1.244,1.244,0,1,0,0-2.488H5.475a2.99,2.99,0,0,1-2.987-2.987V61.448H47.81v2.144h-.986a2.449,2.449,0,0,0-2.447,2.447v3.115H17.72a1.244,1.244,0,1,0,0,2.488H29.681V76.1H25.925a4.549,4.549,0,0,0-4.544,4.544v2.687a2.075,2.075,0,0,0,2.073,2.073h38a2.075,2.075,0,0,0,2.073-2.073V80.648A4.549,4.549,0,0,0,58.98,76.1H55.224V74.531h23a2.449,2.449,0,0,0,2.446-2.447V71.5a5.483,5.483,0,0,0,4.237-5.331L85,5.975A5.48,5.48,0,0,0,79.525.5ZM46.865,58.486V52.523H78.181v5.963ZM50.3,50.035V47.418h24.45v2.617Zm24.45,10.939v2.618H50.3V60.974ZM32.168,71.642H44.377v.443a2.449,2.449,0,0,0,2.447,2.446h5.913V76.1H32.168Zm26.812,6.95a2.058,2.058,0,0,1,2.056,2.056v2.273H23.868V80.648a2.059,2.059,0,0,1,2.056-2.056Zm19.2-6.549H46.865V66.08H78.18Zm4.237-5.875a2.988,2.988,0,0,1-1.749,2.715V66.038a2.449,2.449,0,0,0-2.447-2.446h-.986V61.448h5.182Zm0-7.207h-1.79c.025-.141.041-6.479.041-6.479a2.45,2.45,0,0,0-2.447-2.447h-.986V47.418h.986a2.45,2.45,0,0,0,2.447-2.447V38.925a2.45,2.45,0,0,0-2.447-2.447H71.2a1.244,1.244,0,0,0,0,2.488H78.18v5.963H46.865V38.966h16.59a1.244,1.244,0,0,0,0-2.488H46.823a2.45,2.45,0,0,0-2.447,2.447v6.046a2.45,2.45,0,0,0,2.447,2.447h.986v2.617h-.986a2.45,2.45,0,0,0-2.447,2.447s.016,6.338.041,6.479H2.488V17.422h79.93Zm0-44.027H2.579V5.975A2.99,2.99,0,0,1,5.566,2.988H79.431a2.99,2.99,0,0,1,2.987,2.987Zm0,0" transform="translate(180 2295.5)"/>
    <path id="Trazado_118533" data-name="Trazado 118533" d="M36.924,29.262a3.651,3.651,0,1,0,3.651,3.65A3.654,3.654,0,0,0,36.924,29.262Zm0,4.813a1.163,1.163,0,1,1,1.163-1.163A1.164,1.164,0,0,1,36.924,34.075Zm0,0" transform="translate(152.25 2271.513)"/>
    <path id="Trazado_118534" data-name="Trazado 118534" d="M92.909,29.262a3.651,3.651,0,1,0,3.65,3.65A3.655,3.655,0,0,0,92.909,29.262Zm0,4.813a1.163,1.163,0,1,1,1.163-1.163A1.164,1.164,0,0,1,92.909,34.075Zm0,0" transform="translate(105.561 2271.513)"/>
    <path id="Trazado_118535" data-name="Trazado 118535" d="M148.9,29.262a3.651,3.651,0,1,0,3.651,3.65A3.654,3.654,0,0,0,148.9,29.262Zm0,4.813a1.163,1.163,0,1,1,1.163-1.163A1.164,1.164,0,0,1,148.9,34.075Zm0,0" transform="translate(58.868 2271.513)"/>
  </g>
</svg>
