<svg xmlns="http://www.w3.org/2000/svg" width="977.142" height="644" viewBox="0 0 977.142 644">
  <g id="Grupo_113844" data-name="Grupo 113844" transform="translate(-311.334 -388)">
    <g id="Grupo_111367" data-name="Grupo 111367" transform="translate(-3875.98 -1111.342)">
      <path id="Trazado_116030" data-name="Trazado 116030" d="M4579.447,1499.342h156.612c2.04,0,3.694,2.4,3.694,5.349v35.3c0,2.954-1.654,5.349-3.694,5.349H4579.447c-2.04,0-3.694-2.393-3.694-5.347v-35.3C4575.753,1501.737,4577.407,1499.342,4579.447,1499.342Z" fill="#084a93"/>
      <g id="Bases_de_datos" data-name="Bases de datos" style="isolation: isolate">
        <text id="Bases_de_datos-2" data-name="Bases de datos" transform="translate(4596.159 1528.342)" fill="#fff" font-size="18" font-family="Roboto-Bold, Roboto" font-weight="700" style="isolation: isolate"><tspan x="0" y="0">Bases de datos</tspan></text>
      </g>
    </g>
    <path id="Trazado_116256" data-name="Trazado 116256" d="M4872.835,1654.342h83.96c1.668,0,3.02,2.239,3.02,5v33c0,2.761-1.352,5-3.02,5h-83.96c-1.668,0-3.02-2.239-3.02-5v-33C4869.815,1656.581,4871.167,1654.342,4872.835,1654.342Z" transform="translate(-3875.98 -1111.342)" fill="#9aeae2"/>
    <g id="NoSQL" transform="translate(-3875.98 -1111.342)" style="isolation: isolate">
      <text id="NoSQL-2" data-name="NoSQL" transform="translate(4889.636 1681.342)" fill="#12263f" font-size="16" font-family="Roboto-Bold, Roboto" font-weight="700" style="isolation: isolate"><tspan x="0" y="0">NoSQL</tspan></text>
    </g>
    <g id="Grupo_111380" data-name="Grupo 111380" transform="translate(-3875.98 -1111.342)">
      <g id="Rectángulo_40686" data-name="Rectángulo 40686">
        <rect id="Rectángulo_293559" data-name="Rectángulo 293559" width="36" height="29" rx="5" transform="translate(4640.753 1596.342)" fill="none"/>
        <rect id="Rectángulo_293560" data-name="Rectángulo 293560" width="35" height="28" rx="4.5" transform="translate(4641.253 1596.842)" fill="none" stroke="#707070" stroke-width="1"/>
      </g>
      <g id="es" style="isolation: isolate">
        <text id="es-2" data-name="es" transform="translate(4650.382 1616.342)" fill="#12263f" font-size="16" font-family="Roboto-Regular, Roboto" style="isolation: isolate"><tspan x="0" y="0">es</tspan></text>
      </g>
    </g>
    <g id="Grupo_111365" data-name="Grupo 111365" transform="translate(-3875.98 -1111.342)" opacity="0.85">
      <path id="Trazado_116256-2" data-name="Trazado 116256-2" d="M4374.393,1654.342h65.3c1.3,0,2.351,2.239,2.351,5v33c0,2.761-1.052,5-2.349,5h-65.3c-1.3,0-2.349-2.239-2.349-5v-33C4372.044,1656.581,4373.1,1654.342,4374.393,1654.342Z" fill="#75e3d9"/>
      <g id="SQL" style="isolation: isolate">
        <text id="SQL-2" data-name="SQL" transform="translate(4392.024 1681.342)" fill="#12263f" font-size="16" font-family="Roboto-Bold, Roboto" font-weight="700" style="isolation: isolate"><tspan x="0" y="0">SQL</tspan></text>
      </g>
    </g>
    <path id="Rectángulo_40686-2" data-name="Rectángulo 40686-2" d="M5,0H180a5,5,0,0,1,5,5V56a5,5,0,0,1-5,5H5a5,5,0,0,1-5-5V5A5,5,0,0,1,5,0Z" transform="translate(438.563 664)" fill="#b9ddfc"/>
    <g id="Lenguaje_de_consulta_estructurado" data-name="Lenguaje de consulta estructurado" transform="translate(-3875.98 -1111.342)" style="isolation: isolate">
      <text id="Lenguaje_de_consulta_" data-name="Lenguaje de consulta " transform="translate(4328.341 1799.342)" fill="#12263f" font-size="16" font-family="Roboto-Regular, Roboto" style="isolation: isolate"><tspan x="0" y="0">Lenguaje de consulta </tspan></text>
      <text id="estructurado" transform="translate(4358.919 1823.342)" fill="#12263f" font-size="16" font-family="Roboto-Regular, Roboto" style="isolation: isolate"><tspan x="0" y="0">estructurado</tspan></text>
    </g>
    <path id="Rectángulo_40686-3" data-name="Rectángulo 40686-3" d="M5,0H180a5,5,0,0,1,5,5V56a5,5,0,0,1-5,5H5a5,5,0,0,1-5-5V5A5,5,0,0,1,5,0Z" transform="translate(946.334 664)" fill="#b9ddfc"/>
    <g id="Paradigma_para_La_administración_de_BD" data-name="Paradigma para La administración de BD" transform="translate(-3875.98 -1111.342)" style="isolation: isolate">
      <text id="Paradigma_para_La_" data-name="Paradigma para La " transform="translate(4846.756 1799.342)" fill="#12263f" font-size="16" font-family="Roboto-Regular, Roboto" style="isolation: isolate"><tspan x="0" y="0">Paradigma para La </tspan></text>
      <text id="administración_de_BD" data-name="administración de BD" transform="translate(4837.709 1823.342)" fill="#12263f" font-size="16" font-family="Roboto-Regular, Roboto" style="isolation: isolate"><tspan x="0" y="0">administración de BD</tspan></text>
    </g>
    <g id="Rectángulo_40686-4" data-name="Rectángulo 40686-4" transform="translate(-3875.98 -1111.342)">
      <rect id="Rectángulo_293561" data-name="Rectángulo 293561" width="62" height="29" rx="5" transform="translate(4376.044 1722.342)" fill="none"/>
      <rect id="Rectángulo_293562" data-name="Rectángulo 293562" width="61" height="28" rx="4.5" transform="translate(4376.544 1722.842)" fill="none" stroke="#707070" stroke-width="1"/>
    </g>
    <g id="es-2-2" data-name="es-2" transform="translate(-3875.98 -1111.342)" style="isolation: isolate">
      <text id="es-3" data-name="es" transform="translate(4398.672 1742.342)" fill="#12263f" font-size="16" font-family="Roboto-Regular, Roboto" style="isolation: isolate"><tspan x="0" y="0">es</tspan></text>
    </g>
    <g id="Rectángulo_40686-5" data-name="Rectángulo 40686-5" transform="translate(-3875.98 -1111.342)">
      <rect id="Rectángulo_293563" data-name="Rectángulo 293563" width="62" height="29" rx="5" transform="translate(4883.815 1722.342)" fill="none"/>
      <rect id="Rectángulo_293564" data-name="Rectángulo 293564" width="61" height="28" rx="4.5" transform="translate(4884.315 1722.842)" fill="none" stroke="#707070" stroke-width="1"/>
    </g>
    <g id="es-3-2" data-name="es-3" transform="translate(-3875.98 -1111.342)" style="isolation: isolate">
      <text id="es-4" data-name="es" transform="translate(4906.444 1742.342)" fill="#12263f" font-size="16" font-family="Roboto-Regular, Roboto" style="isolation: isolate"><tspan x="0" y="0">es</tspan></text>
    </g>
    <g id="Grupo_113543" data-name="Grupo 113543" transform="translate(-3875.98 -1111.342)">
      <rect id="Rectángulo_40686-2-2" data-name="Rectángulo 40686-2" width="185" height="158" rx="5" transform="translate(4187.315 1920)" fill="#b9ddfc"/>
      <rect id="Rectángulo_40686-2-3" data-name="Rectángulo 40686-2" width="215" height="158" rx="5" transform="translate(4411.773 1920)" fill="#b9ddfc"/>
      <g id="Lenguaje_de_consulta_estructurado-2" data-name="Lenguaje de consulta estructurado" style="isolation: isolate">
        <text id="ORACLE_SQL_Mysql_MariaDB_" data-name="ORACLE

SQL

Mysql

MariaDB
" transform="translate(4279.815 1947.342)" fill="#12263f" font-size="16" font-family="Roboto-Regular, Roboto" style="isolation: isolate"><tspan x="-29.703" y="0">ORACLE</tspan><tspan x="0" y="19.2"></tspan><tspan x="-14.551" y="38.4">SQL</tspan><tspan x="0" y="57.6"></tspan><tspan x="-21.383" y="76.8">Mysql</tspan><tspan x="0" y="96"></tspan><tspan x="-30.563" y="115.2">MariaDB</tspan><tspan font-family="Roboto-Regular"><tspan x="0" y="134.4"></tspan></tspan></text>
      </g>
      <g id="Lenguaje_de_consulta_estructurado-3" data-name="Lenguaje de consulta estructurado" style="isolation: isolate">
        <text id="Conformadas_por_tablas._Relacionales_entre_tablas._Solvencia_y_consistencia_en_el_almacenamiento_y_consulta_de_datos." data-name="Conformadas por tablas.

Relacionales entre tablas.

Solvencia y consistencia
en el almacenamiento y
consulta de datos." transform="translate(4428.941 1947.342)" fill="#12263f" font-size="16" font-family="Roboto-Regular, Roboto" style="isolation: isolate"><tspan x="0" y="0">Conformadas por tablas.</tspan><tspan x="0" y="19.2"></tspan><tspan x="0" y="38.4">Relacionales entre tablas.</tspan><tspan x="0" y="57.6"></tspan><tspan x="0" y="76.8">Solvencia y consistencia</tspan><tspan x="0" y="96">en el almacenamiento y</tspan><tspan x="0" y="115.2">consulta de datos.</tspan></text>
      </g>
      <g id="Rectángulo_40686-4-2" data-name="Rectángulo 40686-4">
        <rect id="Rectángulo_293565" data-name="Rectángulo 293565" width="142" height="29" rx="5" transform="translate(4208.815 1870.342)" fill="none"/>
        <rect id="Rectángulo_293566" data-name="Rectángulo 293566" width="141" height="28" rx="4.5" transform="translate(4209.315 1870.842)" fill="none" stroke="#707070" stroke-width="1"/>
      </g>
      <g id="es-2-3" data-name="es-2" style="isolation: isolate">
        <text id="los_gestores_son" data-name="los gestores son" transform="translate(4279.815 1890.342)" fill="#12263f" font-size="16" font-family="Roboto-Regular, Roboto" style="isolation: isolate"><tspan x="-58.711" y="0">los gestores son</tspan></text>
      </g>
      <g id="Rectángulo_40686-4-3" data-name="Rectángulo 40686-4">
        <rect id="Rectángulo_293567" data-name="Rectángulo 293567" width="172" height="29" rx="5" transform="translate(4433.273 1870.342)" fill="none"/>
        <rect id="Rectángulo_293568" data-name="Rectángulo 293568" width="171" height="28" rx="4.5" transform="translate(4433.773 1870.842)" fill="none" stroke="#707070" stroke-width="1"/>
      </g>
      <g id="es-2-4" data-name="es-2" style="isolation: isolate">
        <text id="sus_características" data-name="sus características" transform="translate(4519.273 1890.342)" fill="#12263f" font-size="16" font-family="Roboto-Regular, Roboto" style="isolation: isolate"><tspan x="-67.148" y="0">sus características</tspan></text>
      </g>
    </g>
    <g id="Grupo_113544" data-name="Grupo 113544" transform="translate(-3875.98 -1111.342)">
      <rect id="Rectángulo_40686-2-4" data-name="Rectángulo 40686-2" width="185" height="128" rx="5" transform="translate(4695.315 1920)" fill="#b9ddfc"/>
      <rect id="Rectángulo_40686-2-5" data-name="Rectángulo 40686-2" width="255" height="223.342" rx="5" transform="translate(4909.457 1920)" fill="#b9ddfc"/>
      <g id="Lenguaje_de_consulta_estructurado-4" data-name="Lenguaje de consulta estructurado" style="isolation: isolate">
        <text id="MongoDB_Redis_Cassandra" data-name="MongoDB

Redis

Cassandra" transform="translate(4787.815 1947.342)" fill="#12263f" font-size="16" font-family="Roboto-Regular, Roboto" style="isolation: isolate"><tspan x="-35.238" y="0">MongoDB</tspan><tspan x="0" y="19.2"></tspan><tspan x="-19.742" y="38.4">Redis</tspan><tspan x="0" y="57.6"></tspan><tspan x="-37.988" y="76.8">Cassandra</tspan></text>
      </g>
      <g id="Lenguaje_de_consulta_estructurado-5" data-name="Lenguaje de consulta estructurado" style="isolation: isolate">
        <text id="Los_datos_no_se_almacenan_en_tablas._Arquitectura_distribuida._Eficiencia_en_el_procesamiento_de_datos._Su_almacenamiento_se_hace_en_documentos._" data-name="Los datos no se almacenan
en tablas.

Arquitectura distribuida.

Eficiencia en el procesamiento
de datos.

Su almacenamiento se hace en 
documentos.
" transform="translate(4927.89 1947.342)" fill="#12263f" font-size="16" font-family="Roboto-Regular, Roboto" style="isolation: isolate"><tspan x="0" y="0">Los datos no se almacenan</tspan><tspan x="0" y="19.2">en tablas.</tspan><tspan x="0" y="38.4"></tspan><tspan x="0" y="57.6">Arquitectura distribuida.</tspan><tspan x="0" y="76.8"></tspan><tspan x="0" y="96">Eficiencia en el procesamiento</tspan><tspan x="0" y="115.2">de datos.</tspan><tspan x="0" y="134.4"></tspan><tspan x="0" y="153.6">Su almacenamiento se hace en </tspan><tspan x="0" y="172.8">documentos.</tspan><tspan font-family="Roboto-Regular"><tspan x="0" y="192"></tspan></tspan></text>
      </g>
      <g id="Rectángulo_40686-4-4" data-name="Rectángulo 40686-4">
        <rect id="Rectángulo_293569" data-name="Rectángulo 293569" width="142" height="29" rx="5" transform="translate(4716.815 1870.342)" fill="none"/>
        <rect id="Rectángulo_293570" data-name="Rectángulo 293570" width="141" height="28" rx="4.5" transform="translate(4717.315 1870.842)" fill="none" stroke="#707070" stroke-width="1"/>
      </g>
      <g id="es-2-5" data-name="es-2" style="isolation: isolate">
        <text id="los_gestores_son-2" data-name="los gestores son" transform="translate(4787.815 1890.342)" fill="#12263f" font-size="16" font-family="Roboto-Regular, Roboto" style="isolation: isolate"><tspan x="-58.711" y="0">los gestores son</tspan></text>
      </g>
      <g id="Rectángulo_40686-4-5" data-name="Rectángulo 40686-4">
        <rect id="Rectángulo_293571" data-name="Rectángulo 293571" width="172" height="29" rx="5" transform="translate(4950.957 1870.342)" fill="none"/>
        <rect id="Rectángulo_293572" data-name="Rectángulo 293572" width="171" height="28" rx="4.5" transform="translate(4951.457 1870.842)" fill="none" stroke="#707070" stroke-width="1"/>
      </g>
      <g id="es-2-6" data-name="es-2" style="isolation: isolate">
        <text id="sus_características-2" data-name="sus características" transform="translate(5036.956 1890.342)" fill="#12263f" font-size="16" font-family="Roboto-Regular, Roboto" style="isolation: isolate"><tspan x="-67.148" y="0">sus características</tspan></text>
      </g>
    </g>
    <path id="Trazado_118619" data-name="Trazado 118619" d="M0,0V51" transform="translate(782.772 433.998)" fill="none" stroke="#707070" stroke-width="2"/>
    <path id="Trazado_117905" data-name="Trazado 117905" d="M4640.753,1610.842H4407.044v43.5" transform="translate(-3875.98 -1111.342)" fill="none" stroke="#707070" stroke-width="2"/>
    <path id="Trazado_117906" data-name="Trazado 117906" d="M4676.753,1610.842h238.063v43.5" transform="translate(-3875.98 -1111.342)" fill="none" stroke="#707070" stroke-width="2"/>
    <path id="Trazado_118620" data-name="Trazado 118620" d="M0,0V25" transform="translate(1038.834 586)" fill="none" stroke="#707070" stroke-width="2"/>
    <path id="Trazado_118621" data-name="Trazado 118621" d="M0,0V24" transform="translate(1038.834 640)" fill="none" stroke="#707070" stroke-width="2"/>
    <path id="Trazado_117907" data-name="Trazado 117907" d="M4914.815,1836.342v13.515h-127v20.485" transform="translate(-3875.98 -1111.342)" fill="none" stroke="#707070" stroke-width="2"/>
    <path id="Trazado_118622" data-name="Trazado 118622" d="M0,0V20.658" transform="translate(911.834 788)" fill="none" stroke="#707070" stroke-width="2"/>
    <path id="Trazado_117908" data-name="Trazado 117908" d="M4914.815,1849.857h122.141v20.985" transform="translate(-3875.98 -1111.342)" fill="none" stroke="#707070" stroke-width="2"/>
    <path id="Trazado_118623" data-name="Trazado 118623" d="M0,0V20.658" transform="translate(1160.976 788)" fill="none" stroke="#707070" stroke-width="2"/>
    <path id="Trazado_117909" data-name="Trazado 117909" d="M4407.044,1836.342v17h112.229v17" transform="translate(-3875.98 -1111.342)" fill="none" stroke="#707070" stroke-width="2"/>
    <path id="Trazado_118624" data-name="Trazado 118624" d="M0,0V20.658" transform="translate(643.292 788)" fill="none" stroke="#707070" stroke-width="2"/>
    <path id="Trazado_117910" data-name="Trazado 117910" d="M4407.044,1853.342H4279.815v17.5" transform="translate(-3875.98 -1111.342)" fill="none" stroke="#707070" stroke-width="2"/>
    <path id="Trazado_118625" data-name="Trazado 118625" d="M0,0V20.658" transform="translate(403.834 788)" fill="none" stroke="#707070" stroke-width="2"/>
    <path id="Trazado_118626" data-name="Trazado 118626" d="M0,0V25.5" transform="translate(531.063 586)" fill="none" stroke="#707070" stroke-width="2"/>
    <path id="Trazado_118627" data-name="Trazado 118627" d="M0,0V24" transform="translate(531.063 640)" fill="none" stroke="#707070" stroke-width="2"/>
  </g>
</svg>
