<svg xmlns="http://www.w3.org/2000/svg" xmlns:xlink="http://www.w3.org/1999/xlink" width="190" height="255" viewBox="0 0 190 255">
  <defs>
    <clipPath id="clip-path">
      <rect id="Rectángulo_293605" data-name="Rectángulo 293605" width="190" height="255" transform="translate(180.034 398)" fill="#fff" stroke="#707070" stroke-width="1"/>
    </clipPath>
  </defs>
  <g id="Enmascarar_grupo_55" data-name="Enmascarar grupo 55" transform="translate(-180.034 -398)" clip-path="url(#clip-path)">
    <g id="Grupo_113796" data-name="Grupo 113796" transform="translate(-1626.14 -585.976)">
      <g id="Grupo_113727" data-name="Grupo 113727" transform="translate(1937.187 1105.486)">
        <g id="Grupo_113715" data-name="Grupo 113715">
          <rect id="Rectángulo_293583" data-name="Rectángulo 293583" width="58.704" height="78.995" fill="#084a93"/>
          <rect id="Rectángulo_293584" data-name="Rectángulo 293584" width="58.704" height="78.995" fill="#fff" opacity="0.7"/>
        </g>
        <rect id="Rectángulo_293585" data-name="Rectángulo 293585" width="51.034" height="20.563" transform="translate(3.835 3.835)" fill="#fff" opacity="0.7"/>
        <rect id="Rectángulo_293586" data-name="Rectángulo 293586" width="51.034" height="20.563" transform="translate(3.835 29.216)" fill="#fff" opacity="0.7"/>
        <path id="Trazado_118367" data-name="Trazado 118367" d="M1961.641,1091.239l-4.762-5.8L1951,1092.6l-5.875-8.445-6.238,6.239-6.122-3.442-5.567,9.244-5.568-9.245-6.319,3.569-4.7-2.657v2.2l4.7,2.658,5.638-3.185,6.248,10.375,6.25-10.376,5.766,3.242,5.647-5.646,6.013,8.644,6.006-7.32,4.762,5.8Z" transform="translate(-1906.772 -1076.31)" fill="#084a93"/>
        <path id="Trazado_118368" data-name="Trazado 118368" d="M1961.641,1091.239l-4.762-5.8L1951,1092.6l-5.875-8.445-6.238,6.239-6.122-3.442-5.567,9.244-5.568-9.245-6.319,3.569-4.7-2.657v2.2l4.7,2.658,5.638-3.185,6.248,10.375,6.25-10.376,5.766,3.242,5.647-5.646,6.013,8.644,6.006-7.32,4.762,5.8Z" transform="translate(-1906.772 -1076.31)" fill="#fff" opacity="0.5"/>
        <path id="Trazado_118369" data-name="Trazado 118369" d="M1961.641,1106.366l-4.8,2.709-6.319-3.568-5.568,9.244-5.566-9.243-6.121,3.442-6.239-6.24-5.874,8.444-5.88-7.166-4.669,5.691v3.022l4.669-5.69,6.006,7.319,6.013-8.644,5.646,5.648,5.766-3.242,6.249,10.376,6.249-10.375,5.638,3.183,4.8-2.708Z" transform="translate(-1906.772 -1070.907)" fill="#084a93"/>
        <path id="Trazado_118370" data-name="Trazado 118370" d="M1961.641,1106.366l-4.8,2.709-6.319-3.568-5.568,9.244-5.566-9.243-6.121,3.442-6.239-6.24-5.874,8.444-5.88-7.166-4.669,5.691v3.022l4.669-5.69,6.006,7.319,6.013-8.644,5.646,5.648,5.766-3.242,6.249,10.376,6.249-10.375,5.638,3.183,4.8-2.708Z" transform="translate(-1906.772 -1070.907)" fill="#fff" opacity="0.5"/>
        <g id="Grupo_113726" data-name="Grupo 113726" transform="translate(23.985 53.638)">
          <g id="Grupo_113720" data-name="Grupo 113720">
            <g id="Grupo_113716" data-name="Grupo 113716">
              <path id="Trazado_118371" data-name="Trazado 118371" d="M1927.139,1121.538h29.241a.959.959,0,0,0,0-1.918h-29.241a.959.959,0,0,0,0,1.918Z" transform="translate(-1926.213 -1119.62)" fill="#1a2e35"/>
            </g>
            <g id="Grupo_113717" data-name="Grupo 113717" transform="translate(0 5.219)">
              <path id="Trazado_118372" data-name="Trazado 118372" d="M1927.139,1125.579h25.406a.959.959,0,0,0,0-1.918h-25.406a.959.959,0,0,0,0,1.918Z" transform="translate(-1926.213 -1123.662)" fill="#1a2e35"/>
            </g>
            <g id="Grupo_113718" data-name="Grupo 113718" transform="translate(0 10.44)">
              <path id="Trazado_118373" data-name="Trazado 118373" d="M1927.139,1129.623h25.406a.959.959,0,0,0,0-1.917h-25.406a.959.959,0,0,0,0,1.917Z" transform="translate(-1926.213 -1127.705)" fill="#1a2e35"/>
            </g>
            <g id="Grupo_113719" data-name="Grupo 113719" transform="translate(0 15.659)">
              <path id="Trazado_118374" data-name="Trazado 118374" d="M1927.139,1133.665h26.685a.959.959,0,0,0,0-1.918h-26.685a.959.959,0,0,0,0,1.918Z" transform="translate(-1926.213 -1131.747)" fill="#1a2e35"/>
            </g>
          </g>
          <g id="Grupo_113725" data-name="Grupo 113725" opacity="0.4">
            <g id="Grupo_113721" data-name="Grupo 113721">
              <path id="Trazado_118375" data-name="Trazado 118375" d="M1927.139,1121.538h29.241a.959.959,0,0,0,0-1.918h-29.241a.959.959,0,0,0,0,1.918Z" transform="translate(-1926.213 -1119.62)" fill="#fff"/>
            </g>
            <g id="Grupo_113722" data-name="Grupo 113722" transform="translate(0 5.219)">
              <path id="Trazado_118376" data-name="Trazado 118376" d="M1927.139,1125.579h25.406a.959.959,0,0,0,0-1.918h-25.406a.959.959,0,0,0,0,1.918Z" transform="translate(-1926.213 -1123.662)" fill="#fff"/>
            </g>
            <g id="Grupo_113723" data-name="Grupo 113723" transform="translate(0 10.44)">
              <path id="Trazado_118377" data-name="Trazado 118377" d="M1927.139,1129.623h25.406a.959.959,0,0,0,0-1.917h-25.406a.959.959,0,0,0,0,1.917Z" transform="translate(-1926.213 -1127.705)" fill="#fff"/>
            </g>
            <g id="Grupo_113724" data-name="Grupo 113724" transform="translate(0 15.659)">
              <path id="Trazado_118378" data-name="Trazado 118378" d="M1927.139,1133.665h26.685a.959.959,0,0,0,0-1.918h-26.685a.959.959,0,0,0,0,1.918Z" transform="translate(-1926.213 -1131.747)" fill="#fff"/>
            </g>
          </g>
        </g>
      </g>
      <g id="Grupo_113750" data-name="Grupo 113750" transform="translate(1939.522 983.976)">
        <g id="Grupo_113728" data-name="Grupo 113728">
          <rect id="Rectángulo_293587" data-name="Rectángulo 293587" width="53.367" height="71.813" fill="#084a93"/>
          <rect id="Rectángulo_293588" data-name="Rectángulo 293588" width="53.367" height="71.813" fill="#fff" opacity="0.6"/>
        </g>
        <rect id="Rectángulo_293589" data-name="Rectángulo 293589" width="46.394" height="18.694" transform="translate(3.486 3.486)" fill="#fff" opacity="0.7"/>
        <g id="Grupo_113747" data-name="Grupo 113747" transform="translate(21.944 26.053)">
          <g id="Grupo_113729" data-name="Grupo 113729">
            <path id="Trazado_118379" data-name="Trazado 118379" d="M1927.282,1005.9h26.583a.872.872,0,0,0,0-1.743h-26.583a.872.872,0,0,0,0,1.743Z" transform="translate(-1926.44 -1004.153)" fill="#1a2e35"/>
          </g>
          <g id="Grupo_113730" data-name="Grupo 113730" transform="translate(0 4.745)">
            <path id="Trazado_118380" data-name="Trazado 118380" d="M1927.282,1009.571h23.1a.872.872,0,0,0,0-1.743h-23.1a.872.872,0,0,0,0,1.743Z" transform="translate(-1926.44 -1007.828)" fill="#1a2e35"/>
          </g>
          <g id="Grupo_113731" data-name="Grupo 113731" transform="translate(0 9.491)">
            <path id="Trazado_118381" data-name="Trazado 118381" d="M1927.282,1013.246h23.1a.872.872,0,0,0,0-1.743h-23.1a.872.872,0,0,0,0,1.743Z" transform="translate(-1926.44 -1011.503)" fill="#1a2e35"/>
          </g>
          <g id="Grupo_113732" data-name="Grupo 113732" transform="translate(0 14.236)">
            <path id="Trazado_118382" data-name="Trazado 118382" d="M1927.282,1016.921h24.259a.872.872,0,0,0,0-1.743h-24.259a.872.872,0,0,0,0,1.743Z" transform="translate(-1926.44 -1015.178)" fill="#1a2e35"/>
          </g>
          <g id="Grupo_113733" data-name="Grupo 113733" transform="translate(0 18.981)">
            <path id="Trazado_118383" data-name="Trazado 118383" d="M1927.282,1020.6h19.61a.872.872,0,0,0,0-1.743h-19.61a.872.872,0,0,0,0,1.743Z" transform="translate(-1926.44 -1018.853)" fill="#1a2e35"/>
          </g>
          <g id="Grupo_113734" data-name="Grupo 113734" transform="translate(0 23.726)">
            <path id="Trazado_118384" data-name="Trazado 118384" d="M1927.282,1024.271h26.583a.872.872,0,0,0,0-1.743h-26.583a.872.872,0,0,0,0,1.743Z" transform="translate(-1926.44 -1022.528)" fill="#1a2e35"/>
          </g>
          <g id="Grupo_113735" data-name="Grupo 113735" transform="translate(0 28.472)">
            <path id="Trazado_118385" data-name="Trazado 118385" d="M1927.282,1027.946h23.1a.872.872,0,0,0,0-1.743h-23.1a.872.872,0,0,0,0,1.743Z" transform="translate(-1926.44 -1026.203)" fill="#1a2e35"/>
          </g>
          <g id="Grupo_113736" data-name="Grupo 113736" transform="translate(0 33.217)">
            <path id="Trazado_118386" data-name="Trazado 118386" d="M1927.282,1031.621h23.1a.872.872,0,0,0,0-1.743h-23.1a.872.872,0,0,0,0,1.743Z" transform="translate(-1926.44 -1029.878)" fill="#1a2e35"/>
          </g>
          <g id="Grupo_113737" data-name="Grupo 113737" transform="translate(0 37.962)">
            <path id="Trazado_118387" data-name="Trazado 118387" d="M1927.282,1035.3h24.259a.872.872,0,0,0,0-1.743h-24.259a.872.872,0,0,0,0,1.743Z" transform="translate(-1926.44 -1033.553)" fill="#1a2e35"/>
          </g>
          <g id="Grupo_113738" data-name="Grupo 113738" opacity="0.4">
            <path id="Trazado_118388" data-name="Trazado 118388" d="M1927.282,1005.9h26.583a.872.872,0,0,0,0-1.743h-26.583a.872.872,0,0,0,0,1.743Z" transform="translate(-1926.44 -1004.153)" fill="#fff"/>
          </g>
          <g id="Grupo_113739" data-name="Grupo 113739" transform="translate(0 4.745)" opacity="0.4">
            <path id="Trazado_118389" data-name="Trazado 118389" d="M1927.282,1009.571h23.1a.872.872,0,0,0,0-1.743h-23.1a.872.872,0,0,0,0,1.743Z" transform="translate(-1926.44 -1007.828)" fill="#fff"/>
          </g>
          <g id="Grupo_113740" data-name="Grupo 113740" transform="translate(0 9.491)" opacity="0.4">
            <path id="Trazado_118390" data-name="Trazado 118390" d="M1927.282,1013.246h23.1a.872.872,0,0,0,0-1.743h-23.1a.872.872,0,0,0,0,1.743Z" transform="translate(-1926.44 -1011.503)" fill="#fff"/>
          </g>
          <g id="Grupo_113741" data-name="Grupo 113741" transform="translate(0 14.236)" opacity="0.4">
            <path id="Trazado_118391" data-name="Trazado 118391" d="M1927.282,1016.921h24.259a.872.872,0,0,0,0-1.743h-24.259a.872.872,0,0,0,0,1.743Z" transform="translate(-1926.44 -1015.178)" fill="#fff"/>
          </g>
          <g id="Grupo_113742" data-name="Grupo 113742" transform="translate(0 18.981)" opacity="0.4">
            <path id="Trazado_118392" data-name="Trazado 118392" d="M1927.282,1020.6h19.61a.872.872,0,0,0,0-1.743h-19.61a.872.872,0,0,0,0,1.743Z" transform="translate(-1926.44 -1018.853)" fill="#fff"/>
          </g>
          <g id="Grupo_113743" data-name="Grupo 113743" transform="translate(0 23.726)" opacity="0.4">
            <path id="Trazado_118393" data-name="Trazado 118393" d="M1927.282,1024.271h26.583a.872.872,0,0,0,0-1.743h-26.583a.872.872,0,0,0,0,1.743Z" transform="translate(-1926.44 -1022.528)" fill="#fff"/>
          </g>
          <g id="Grupo_113744" data-name="Grupo 113744" transform="translate(0 28.472)" opacity="0.4">
            <path id="Trazado_118394" data-name="Trazado 118394" d="M1927.282,1027.946h23.1a.872.872,0,0,0,0-1.743h-23.1a.872.872,0,0,0,0,1.743Z" transform="translate(-1926.44 -1026.203)" fill="#fff"/>
          </g>
          <g id="Grupo_113745" data-name="Grupo 113745" transform="translate(0 33.217)" opacity="0.4">
            <path id="Trazado_118395" data-name="Trazado 118395" d="M1927.282,1031.621h23.1a.872.872,0,0,0,0-1.743h-23.1a.872.872,0,0,0,0,1.743Z" transform="translate(-1926.44 -1029.878)" fill="#fff"/>
          </g>
          <g id="Grupo_113746" data-name="Grupo 113746" transform="translate(0 37.962)" opacity="0.4">
            <path id="Trazado_118396" data-name="Trazado 118396" d="M1927.282,1035.3h24.259a.872.872,0,0,0,0-1.743h-24.259a.872.872,0,0,0,0,1.743Z" transform="translate(-1926.44 -1033.553)" fill="#fff"/>
          </g>
        </g>
        <g id="Grupo_113748" data-name="Grupo 113748" transform="translate(3.486 26.925)">
          <rect id="Rectángulo_293590" data-name="Rectángulo 293590" width="13.077" height="13.077" fill="#084a93"/>
          <rect id="Rectángulo_293591" data-name="Rectángulo 293591" width="13.077" height="13.077" fill="#fff" opacity="0.3"/>
        </g>
        <g id="Grupo_113749" data-name="Grupo 113749" transform="translate(14.293 6.325)">
          <rect id="Rectángulo_293592" data-name="Rectángulo 293592" width="3.54" height="7.08" transform="translate(0 7.08)" fill="#084a93"/>
          <rect id="Rectángulo_293593" data-name="Rectángulo 293593" width="3.54" height="10.62" transform="translate(7.08 3.54)" fill="#084a93"/>
          <rect id="Rectángulo_293594" data-name="Rectángulo 293594" width="3.54" height="8.85" transform="translate(14.16 5.31)" fill="#084a93"/>
          <rect id="Rectángulo_293595" data-name="Rectángulo 293595" width="3.54" height="14.16" transform="translate(21.241)" fill="#084a93"/>
        </g>
      </g>
      <g id="Grupo_113785" data-name="Grupo 113785" transform="translate(1913.387 1043.64)">
        <g id="Grupo_113751" data-name="Grupo 113751">
          <rect id="Rectángulo_293596" data-name="Rectángulo 293596" width="53.367" height="71.813" fill="#084a93"/>
          <rect id="Rectángulo_293597" data-name="Rectángulo 293597" width="53.367" height="71.813" fill="#fff" opacity="0.8"/>
        </g>
        <g id="Grupo_113780" data-name="Grupo 113780" transform="translate(21.944 5.954)">
          <g id="Grupo_113765" data-name="Grupo 113765">
            <g id="Grupo_113752" data-name="Grupo 113752">
              <path id="Trazado_118397" data-name="Trazado 118397" d="M1907.042,1036.537h26.583a.872.872,0,0,0,0-1.743h-26.583a.872.872,0,0,0,0,1.743Z" transform="translate(-1906.2 -1034.794)" fill="#1a2e35"/>
            </g>
            <g id="Grupo_113753" data-name="Grupo 113753" transform="translate(0 4.745)">
              <path id="Trazado_118398" data-name="Trazado 118398" d="M1907.042,1040.212h23.1a.872.872,0,0,0,0-1.743h-23.1a.872.872,0,0,0,0,1.743Z" transform="translate(-1906.2 -1038.469)" fill="#1a2e35"/>
            </g>
            <g id="Grupo_113754" data-name="Grupo 113754" transform="translate(0 9.491)">
              <path id="Trazado_118399" data-name="Trazado 118399" d="M1907.042,1043.887h23.1a.872.872,0,0,0,0-1.743h-23.1a.872.872,0,0,0,0,1.743Z" transform="translate(-1906.2 -1042.144)" fill="#1a2e35"/>
            </g>
            <g id="Grupo_113755" data-name="Grupo 113755" transform="translate(0 14.236)">
              <path id="Trazado_118400" data-name="Trazado 118400" d="M1907.042,1047.562H1931.3a.872.872,0,0,0,0-1.743h-24.258a.872.872,0,0,0,0,1.743Z" transform="translate(-1906.2 -1045.819)" fill="#1a2e35"/>
            </g>
            <g id="Grupo_113756" data-name="Grupo 113756" transform="translate(0 18.981)">
              <path id="Trazado_118401" data-name="Trazado 118401" d="M1907.042,1051.237h19.61a.872.872,0,0,0,0-1.743h-19.61a.872.872,0,0,0,0,1.743Z" transform="translate(-1906.2 -1049.494)" fill="#1a2e35"/>
            </g>
            <g id="Grupo_113757" data-name="Grupo 113757" transform="translate(0 23.726)">
              <path id="Trazado_118402" data-name="Trazado 118402" d="M1907.042,1054.912h26.583a.872.872,0,0,0,0-1.743h-26.583a.872.872,0,0,0,0,1.743Z" transform="translate(-1906.2 -1053.169)" fill="#1a2e35"/>
            </g>
            <g id="Grupo_113758" data-name="Grupo 113758" transform="translate(0 28.472)">
              <path id="Trazado_118403" data-name="Trazado 118403" d="M1907.042,1058.587h23.1a.872.872,0,0,0,0-1.743h-23.1a.872.872,0,0,0,0,1.743Z" transform="translate(-1906.2 -1056.844)" fill="#1a2e35"/>
            </g>
            <g id="Grupo_113759" data-name="Grupo 113759" transform="translate(0 33.217)">
              <path id="Trazado_118404" data-name="Trazado 118404" d="M1907.042,1062.262h23.1a.872.872,0,0,0,0-1.743h-23.1a.872.872,0,0,0,0,1.743Z" transform="translate(-1906.2 -1060.519)" fill="#1a2e35"/>
            </g>
            <g id="Grupo_113760" data-name="Grupo 113760" transform="translate(0 42.711)">
              <path id="Trazado_118405" data-name="Trazado 118405" d="M1907.042,1069.615h19.61a.872.872,0,0,0,0-1.743h-19.61a.872.872,0,0,0,0,1.743Z" transform="translate(-1906.2 -1067.872)" fill="#1a2e35"/>
            </g>
            <g id="Grupo_113761" data-name="Grupo 113761" transform="translate(0 47.457)">
              <path id="Trazado_118406" data-name="Trazado 118406" d="M1907.042,1073.29h26.583a.872.872,0,0,0,0-1.743h-26.583a.872.872,0,0,0,0,1.743Z" transform="translate(-1906.2 -1071.547)" fill="#1a2e35"/>
            </g>
            <g id="Grupo_113762" data-name="Grupo 113762" transform="translate(0 52.202)">
              <path id="Trazado_118407" data-name="Trazado 118407" d="M1907.042,1076.965h23.1a.872.872,0,0,0,0-1.743h-23.1a.872.872,0,0,0,0,1.743Z" transform="translate(-1906.2 -1075.222)" fill="#1a2e35"/>
            </g>
            <g id="Grupo_113763" data-name="Grupo 113763" transform="translate(0 56.947)">
              <path id="Trazado_118408" data-name="Trazado 118408" d="M1907.042,1080.64h23.1a.872.872,0,0,0,0-1.743h-23.1a.872.872,0,0,0,0,1.743Z" transform="translate(-1906.2 -1078.897)" fill="#1a2e35"/>
            </g>
            <g id="Grupo_113764" data-name="Grupo 113764" transform="translate(0 37.962)">
              <path id="Trazado_118409" data-name="Trazado 118409" d="M1907.042,1065.937H1931.3a.872.872,0,0,0,0-1.743h-24.258a.872.872,0,0,0,0,1.743Z" transform="translate(-1906.2 -1064.194)" fill="#1a2e35"/>
            </g>
          </g>
          <g id="Grupo_113779" data-name="Grupo 113779" opacity="0.4">
            <g id="Grupo_113766" data-name="Grupo 113766">
              <path id="Trazado_118410" data-name="Trazado 118410" d="M1907.042,1036.537h26.583a.872.872,0,0,0,0-1.743h-26.583a.872.872,0,0,0,0,1.743Z" transform="translate(-1906.2 -1034.794)" fill="#fff"/>
            </g>
            <g id="Grupo_113767" data-name="Grupo 113767" transform="translate(0 4.745)">
              <path id="Trazado_118411" data-name="Trazado 118411" d="M1907.042,1040.212h23.1a.872.872,0,0,0,0-1.743h-23.1a.872.872,0,0,0,0,1.743Z" transform="translate(-1906.2 -1038.469)" fill="#fff"/>
            </g>
            <g id="Grupo_113768" data-name="Grupo 113768" transform="translate(0 9.491)">
              <path id="Trazado_118412" data-name="Trazado 118412" d="M1907.042,1043.887h23.1a.872.872,0,0,0,0-1.743h-23.1a.872.872,0,0,0,0,1.743Z" transform="translate(-1906.2 -1042.144)" fill="#fff"/>
            </g>
            <g id="Grupo_113769" data-name="Grupo 113769" transform="translate(0 14.236)">
              <path id="Trazado_118413" data-name="Trazado 118413" d="M1907.042,1047.562H1931.3a.872.872,0,0,0,0-1.743h-24.258a.872.872,0,0,0,0,1.743Z" transform="translate(-1906.2 -1045.819)" fill="#fff"/>
            </g>
            <g id="Grupo_113770" data-name="Grupo 113770" transform="translate(0 18.981)">
              <path id="Trazado_118414" data-name="Trazado 118414" d="M1907.042,1051.237h19.61a.872.872,0,0,0,0-1.743h-19.61a.872.872,0,0,0,0,1.743Z" transform="translate(-1906.2 -1049.494)" fill="#fff"/>
            </g>
            <g id="Grupo_113771" data-name="Grupo 113771" transform="translate(0 23.726)">
              <path id="Trazado_118415" data-name="Trazado 118415" d="M1907.042,1054.912h26.583a.872.872,0,0,0,0-1.743h-26.583a.872.872,0,0,0,0,1.743Z" transform="translate(-1906.2 -1053.169)" fill="#fff"/>
            </g>
            <g id="Grupo_113772" data-name="Grupo 113772" transform="translate(0 28.472)">
              <path id="Trazado_118416" data-name="Trazado 118416" d="M1907.042,1058.587h23.1a.872.872,0,0,0,0-1.743h-23.1a.872.872,0,0,0,0,1.743Z" transform="translate(-1906.2 -1056.844)" fill="#fff"/>
            </g>
            <g id="Grupo_113773" data-name="Grupo 113773" transform="translate(0 33.217)">
              <path id="Trazado_118417" data-name="Trazado 118417" d="M1907.042,1062.262h23.1a.872.872,0,0,0,0-1.743h-23.1a.872.872,0,0,0,0,1.743Z" transform="translate(-1906.2 -1060.519)" fill="#fff"/>
            </g>
            <g id="Grupo_113774" data-name="Grupo 113774" transform="translate(0 42.711)">
              <path id="Trazado_118418" data-name="Trazado 118418" d="M1907.042,1069.615h19.61a.872.872,0,0,0,0-1.743h-19.61a.872.872,0,0,0,0,1.743Z" transform="translate(-1906.2 -1067.872)" fill="#fff"/>
            </g>
            <g id="Grupo_113775" data-name="Grupo 113775" transform="translate(0 47.457)">
              <path id="Trazado_118419" data-name="Trazado 118419" d="M1907.042,1073.29h26.583a.872.872,0,0,0,0-1.743h-26.583a.872.872,0,0,0,0,1.743Z" transform="translate(-1906.2 -1071.547)" fill="#fff"/>
            </g>
            <g id="Grupo_113776" data-name="Grupo 113776" transform="translate(0 52.202)">
              <path id="Trazado_118420" data-name="Trazado 118420" d="M1907.042,1076.965h23.1a.872.872,0,0,0,0-1.743h-23.1a.872.872,0,0,0,0,1.743Z" transform="translate(-1906.2 -1075.222)" fill="#fff"/>
            </g>
            <g id="Grupo_113777" data-name="Grupo 113777" transform="translate(0 56.947)">
              <path id="Trazado_118421" data-name="Trazado 118421" d="M1907.042,1080.64h23.1a.872.872,0,0,0,0-1.743h-23.1a.872.872,0,0,0,0,1.743Z" transform="translate(-1906.2 -1078.897)" fill="#fff"/>
            </g>
            <g id="Grupo_113778" data-name="Grupo 113778" transform="translate(0 37.962)">
              <path id="Trazado_118422" data-name="Trazado 118422" d="M1907.042,1065.937H1931.3a.872.872,0,0,0,0-1.743h-24.258a.872.872,0,0,0,0,1.743Z" transform="translate(-1906.2 -1064.194)" fill="#fff"/>
            </g>
          </g>
        </g>
        <g id="Grupo_113781" data-name="Grupo 113781" transform="translate(3.737 27.283)">
          <path id="Trazado_118423" data-name="Trazado 118423" d="M1896.553,1055.236l-2.106-2.106a7.992,7.992,0,0,0-2.347,5.667h2.979A5.026,5.026,0,0,1,1896.553,1055.236Z" transform="translate(-1892.1 -1050.782)" fill="#084a93"/>
          <path id="Trazado_118424" data-name="Trazado 118424" d="M1900.115,1062.553a5.035,5.035,0,0,1-5.036-5.034H1892.1a8.014,8.014,0,0,0,8.015,8.013Z" transform="translate(-1892.1 -1049.504)" fill="#084a93"/>
          <path id="Trazado_118425" data-name="Trazado 118425" d="M1900.115,1062.553a5.035,5.035,0,0,1-5.036-5.034H1892.1a8.014,8.014,0,0,0,8.015,8.013Z" transform="translate(-1892.1 -1049.504)" fill="#fff" opacity="0.3"/>
          <path id="Trazado_118426" data-name="Trazado 118426" d="M1896.024,1055.765a5.026,5.026,0,0,1,3.561-1.474v-2.979a7.99,7.99,0,0,0-5.667,2.347Z" transform="translate(-1891.571 -1051.312)" fill="#084a93"/>
          <path id="Trazado_118427" data-name="Trazado 118427" d="M1896.024,1055.765a5.026,5.026,0,0,1,3.561-1.474v-2.979a7.99,7.99,0,0,0-5.667,2.347Z" transform="translate(-1891.571 -1051.312)" opacity="0.5"/>
          <path id="Trazado_118428" data-name="Trazado 118428" d="M1903.342,1059.327a5.035,5.035,0,0,1-5.035,5.035v2.979a8.014,8.014,0,0,0,0-16.028v2.979A5.036,5.036,0,0,1,1903.342,1059.327Z" transform="translate(-1890.292 -1051.312)" fill="#084a93"/>
          <path id="Trazado_118429" data-name="Trazado 118429" d="M1901.064,1061.079l2.106,2.106a7.989,7.989,0,0,0,2.347-5.666h-2.979A5.024,5.024,0,0,1,1901.064,1061.079Z" transform="translate(-1889.489 -1049.504)" opacity="0.2"/>
        </g>
        <g id="Grupo_113784" data-name="Grupo 113784" transform="translate(3.737 5.034)">
          <g id="Grupo_113782" data-name="Grupo 113782">
            <path id="Trazado_118430" data-name="Trazado 118430" d="M1896.024,1043.044l-2.106,2.107a7.991,7.991,0,0,0,5.667,2.348v-2.979A5.021,5.021,0,0,1,1896.024,1043.044Z" transform="translate(-1891.571 -1031.471)" fill="#084a93"/>
            <path id="Trazado_118431" data-name="Trazado 118431" d="M1903.342,1040.287a5.036,5.036,0,0,1-5.035,5.036v2.979a8.014,8.014,0,0,0,8.013-8.015Z" transform="translate(-1890.292 -1032.274)" fill="#084a93"/>
            <path id="Trazado_118432" data-name="Trazado 118432" d="M1903.342,1040.287a5.036,5.036,0,0,1-5.035,5.036v2.979a8.014,8.014,0,0,0,8.013-8.015Z" transform="translate(-1890.292 -1032.274)" fill="#fff" opacity="0.3"/>
            <path id="Trazado_118433" data-name="Trazado 118433" d="M1896.553,1043.847a5.02,5.02,0,0,1-1.474-3.56H1892.1a7.991,7.991,0,0,0,2.347,5.667Z" transform="translate(-1892.1 -1032.274)" fill="#084a93"/>
            <path id="Trazado_118434" data-name="Trazado 118434" d="M1896.553,1043.847a5.02,5.02,0,0,1-1.474-3.56H1892.1a7.991,7.991,0,0,0,2.347,5.667Z" transform="translate(-1892.1 -1032.274)" opacity="0.5"/>
            <path id="Trazado_118435" data-name="Trazado 118435" d="M1900.115,1037.06a5.035,5.035,0,0,1,5.035,5.035h2.979a8.014,8.014,0,0,0-16.028,0h2.979A5.036,5.036,0,0,1,1900.115,1037.06Z" transform="translate(-1892.1 -1034.081)" fill="#084a93"/>
            <path id="Trazado_118436" data-name="Trazado 118436" d="M1901.867,1038.535l2.106-2.106a7.989,7.989,0,0,0-5.666-2.347v2.979A5.018,5.018,0,0,1,1901.867,1038.535Z" transform="translate(-1890.292 -1034.081)" opacity="0.2"/>
          </g>
          <g id="Grupo_113783" data-name="Grupo 113783" transform="translate(0 44.5)">
            <path id="Trazado_118437" data-name="Trazado 118437" d="M1901.064,1072.468l2.106-2.107a7.993,7.993,0,0,1,2.347,5.667h-2.979A5.019,5.019,0,0,0,1901.064,1072.468Z" transform="translate(-1889.489 -1068.015)" fill="#084a93"/>
            <path id="Trazado_118438" data-name="Trazado 118438" d="M1898.307,1079.785a5.035,5.035,0,0,0,5.035-5.034h2.979a8.013,8.013,0,0,1-8.013,8.013Z" transform="translate(-1890.292 -1066.737)" fill="#084a93"/>
            <path id="Trazado_118439" data-name="Trazado 118439" d="M1898.307,1079.785a5.035,5.035,0,0,0,5.035-5.034h2.979a8.013,8.013,0,0,1-8.013,8.013Z" transform="translate(-1890.292 -1066.737)" fill="#fff" opacity="0.3"/>
            <path id="Trazado_118440" data-name="Trazado 118440" d="M1901.867,1073a5.018,5.018,0,0,0-3.56-1.475v-2.979a7.987,7.987,0,0,1,5.666,2.346Z" transform="translate(-1890.292 -1068.544)" fill="#084a93"/>
            <path id="Trazado_118441" data-name="Trazado 118441" d="M1901.867,1073a5.018,5.018,0,0,0-3.56-1.475v-2.979a7.987,7.987,0,0,1,5.666,2.346Z" transform="translate(-1890.292 -1068.544)" opacity="0.5"/>
            <path id="Trazado_118442" data-name="Trazado 118442" d="M1895.079,1076.557a5.035,5.035,0,0,0,5.036,5.034v2.979a8.013,8.013,0,1,1,0-16.027v2.979A5.035,5.035,0,0,0,1895.079,1076.557Z" transform="translate(-1892.1 -1068.544)" fill="#084a93"/>
            <path id="Trazado_118443" data-name="Trazado 118443" d="M1896.553,1078.31l-2.106,2.106a7.987,7.987,0,0,1-2.347-5.666h2.979A5.02,5.02,0,0,0,1896.553,1078.31Z" transform="translate(-1892.1 -1066.737)" opacity="0.2"/>
          </g>
        </g>
      </g>
      <g id="Grupo_113795" data-name="Grupo 113795" transform="translate(1806.174 1038.959)">
        <path id="Trazado_118444" data-name="Trazado 118444" d="M1850.386,1061.188c-1.844,2.607,2.224,10.9,2.224,10.9l-18.324,2.219,3.584-19.975S1852.563,1058.111,1850.386,1061.188Z" transform="translate(-1797.987 -1018.469)" fill="#e67b62"/>
        <path id="Trazado_118445" data-name="Trazado 118445" d="M1848.25,1064.614a5.2,5.2,0,0,1,.289-3.737c1.353-1.912-3.811-4.1-7.913-5.475C1841.6,1057.344,1844.337,1062.256,1848.25,1064.614Z" transform="translate(-1796.14 -1018.157)" opacity="0.2"/>
        <g id="Grupo_113786" data-name="Grupo 113786" transform="translate(84.731 315.65)">
          <path id="Trazado_118446" data-name="Trazado 118446" d="M1883.61,1271.014l1.953,18.645-8.6,1.614-5.168-18Z" transform="translate(-1871.794 -1271.014)" fill="#e67b62"/>
          <path id="Trazado_118447" data-name="Trazado 118447" d="M1884.781,1283.005l-10.109,2.025a.831.831,0,0,0-.668.8l-.179,8.591a1.377,1.377,0,0,0,1.632,1.4c3.632-.794,6.832-1.642,11.371-2.545,5.355-1.072,4.124-.159,10.437-1.33,3.8-.71,3.633-5.161,1.982-5.05-7.544.548-8.754-1.521-12.122-3.587A3.313,3.313,0,0,0,1884.781,1283.005Z" transform="translate(-1871.203 -1267.549)" fill="#1a2e35"/>
          <path id="Trazado_118448" data-name="Trazado 118448" d="M1875.208,1285.165l9.749-1.286-1.348-12.866-11.816,2.262Z" transform="translate(-1871.794 -1271.014)" opacity="0.2"/>
        </g>
        <g id="Grupo_113787" data-name="Grupo 113787" transform="translate(3.755 311.21)">
          <path id="Trazado_118449" data-name="Trazado 118449" d="M1826.521,1268.237l-5.854,23.113-8.256-1.161,2.193-22.613Z" transform="translate(-1808.112 -1267.575)" fill="#e67b62"/>
          <path id="Trazado_118450" data-name="Trazado 118450" d="M1822.729,1283.9l-10.285-.723a.828.828,0,0,0-.854.589l-2.448,8.237a1.381,1.381,0,0,0,1.2,1.778c3.712.2,7.023.226,11.639.558,5.446.385,4.018.939,10.417,1.481,3.856.323,4.87-4.013,3.249-4.345-7.421-1.469-8.039-3.785-10.739-6.669A3.324,3.324,0,0,0,1822.729,1283.9Z" transform="translate(-1809.082 -1263.032)" fill="#1a2e35"/>
          <path id="Trazado_118451" data-name="Trazado 118451" d="M1812.806,1284.819l9.022,1.383,4.314-17.035c-3.956-.422-10.433-1.07-11.7-1.2Z" transform="translate(-1807.997 -1267.46)" opacity="0.2"/>
        </g>
        <path id="Trazado_118452" data-name="Trazado 118452" d="M1835.469,1131.079s-2.847,8.262-3.26,28.375c-.248,12.018-1.422,31.043-2.328,44.409-.265,3.911-.506,7.337-.695,9.962a31.437,31.437,0,0,1-2.3,9.68c-.881,2.143-1.985,5.08-3.122,8.743a138.659,138.659,0,0,0-4.945,22.743c-3.009,22.53-6.466,66.173-6.466,66.173l11.15,1.446,27.444-101.713,29.25-89.9Z" transform="translate(-1804.375 -996.141)" fill="#1a2e35"/>
        <path id="Trazado_118453" data-name="Trazado 118453" d="M1855.957,1172.8l-1.182-8.854-9.572-8.091-3.218-1.584a107.4,107.4,0,0,1,5.585,43.44Z" transform="translate(-1795.744 -989.364)" opacity="0.2"/>
        <path id="Trazado_118454" data-name="Trazado 118454" d="M1881.957,1132.157l13.418,188.913L1884.018,1323s-15.193-52.277-17.761-81.177a74.736,74.736,0,0,1-.333-9.226,36.251,36.251,0,0,0-1.539-11.624l-1.595-5.395-8.952-30.294a51.627,51.627,0,0,0-8.862-17.494c-4.655-5.872-10.414-17.252-8.024-36.184l42.032-2.912Z" transform="translate(-1797.373 -996.811)" fill="#1a2e35"/>
        <g id="Grupo_113790" data-name="Grupo 113790" transform="translate(0 63.151)">
          <g id="Grupo_113788" data-name="Grupo 113788" transform="translate(38.627 57.143)">
            <path id="Trazado_118455" data-name="Trazado 118455" d="M1839.685,1122.4s6.526-1.336,8.713-1.131c1.831.173,6.987,2.293,6.987,2.293a3.007,3.007,0,0,1,1.105,5.065s-3.586,4.6-5.377,4.974c-3.574.757-13.829-4.728-13.829-4.728Z" transform="translate(-1835.741 -1119.274)" fill="#e67b62"/>
            <path id="Trazado_118456" data-name="Trazado 118456" d="M1839.714,1119.719l-3.625,11.689,3.478.289,3.189-10.213Z" transform="translate(-1836.089 -1119.719)" fill="#1a2e35"/>
            <path id="Trazado_118457" data-name="Trazado 118457" d="M1839.714,1119.719l-3.625,11.689,3.478.289,3.189-10.213Z" transform="translate(-1836.089 -1119.719)" fill="#fff" opacity="0.2"/>
          </g>
          <path id="Trazado_118458" data-name="Trazado 118458" d="M1826.968,1076.93a3.776,3.776,0,0,0-6.417.752c-4.066,8.7-14.337,31.775-14.377,42.976-.049,13.966,41,22.232,41,22.232l2.479-8.026-28.246-17.352,8.126-19.144S1831.553,1083.214,1826.968,1076.93Z" transform="translate(-1806.174 -1075.465)" fill="#084a93"/>
          <path id="Trazado_118459" data-name="Trazado 118459" d="M1826.968,1076.93a3.776,3.776,0,0,0-6.417.752c-4.066,8.7-14.337,31.775-14.377,42.976-.049,13.966,41,22.232,41,22.232l2.479-8.026-28.246-17.352,8.126-19.144S1831.553,1083.214,1826.968,1076.93Z" transform="translate(-1806.174 -1075.465)" opacity="0.1"/>
          <g id="Grupo_113789" data-name="Grupo 113789" transform="translate(14.661 2.852)" opacity="0.4">
            <path id="Trazado_118460" data-name="Trazado 118460" d="M1824.5,1077.674l-4.425.608-2.545,1.824,3.035,30.963,5.663-13.344S1827.981,1084.547,1824.5,1077.674Z" transform="translate(-1817.528 -1077.674)"/>
            <path id="Trazado_118461" data-name="Trazado 118461" d="M1832.194,1116.766l-11.725-7.2,1.706,17.4c2.449.921,4.9,1.738,7.223,2.455Z" transform="translate(-1816.672 -1068.387)"/>
          </g>
        </g>
        <path id="Trazado_118462" data-name="Trazado 118462" d="M1886.867,1150.356s-20.208,6.614-53.311,1.26l-15.863-66.876a11.624,11.624,0,0,1,5.829-12.693c6.813-3.76,20.287-7.306,46.874-5.838a14.825,14.825,0,0,1,13.606,11.4Z" transform="translate(-1802.904 -1015.109)" fill="#084a93"/>
        <g id="Grupo_113791" data-name="Grupo 113791" transform="translate(30.882 46.547)">
          <path id="Trazado_118463" data-name="Trazado 118463" d="M1830.091,1069.983l2.022-4.743s7.958-4.021,21.476-2.127l3.21,3.716S1841.672,1067.2,1830.091,1069.983Z" transform="translate(-1830.091 -1062.606)" fill="#1a2e35"/>
        </g>
        <path id="Trazado_118464" data-name="Trazado 118464" d="M1854.594,1041.69c.184.754-.067,1.458-.572,1.573s-1.1-.43-1.261-1.167.068-1.458.577-1.564S1854.4,1040.94,1854.594,1041.69Z" transform="translate(-1792.621 -1022.492)" fill="#1a2e35"/>
        <path id="Trazado_118465" data-name="Trazado 118465" d="M1853.642,1043.191l5.162,5.045a5.489,5.489,0,0,1-4.663,1.473Z" transform="translate(-1792.35 -1021.713)" fill="#d54c38"/>
        <path id="Trazado_118466" data-name="Trazado 118466" d="M1830.906,1047.813c1.976,10.121,2.589,14.452,8.544,19.064,8.752,4.379,21.261,2.448,22.416-8.03,1.043-9.428-2.355-24.358-13.119-27.268a14.324,14.324,0,0,0-17.635,9.786A13.7,13.7,0,0,0,1830.906,1047.813Z" transform="translate(-1799.055 -1025.245)" fill="#e67b62"/>
        <path id="Trazado_118467" data-name="Trazado 118467" d="M1851.318,1040.14a.417.417,0,0,0,.346-.177,3.163,3.163,0,0,1,2.524-1.468.4.4,0,0,0,.413-.392.431.431,0,0,0-.414-.419,3.935,3.935,0,0,0-3.215,1.815.409.409,0,0,0,.117.568h0A.465.465,0,0,0,1851.318,1040.14Z" transform="translate(-1793.147 -1023.317)" fill="#1a2e35"/>
        <path id="Trazado_118468" data-name="Trazado 118468" d="M1874.875,1114.922l-1.352-24.495-8.755-11.589-4.793-4.438-3.693,2.587S1856.793,1090.487,1874.875,1114.922Z" transform="translate(-1791.581 -1012.624)" opacity="0.4"/>
        <path id="Trazado_118469" data-name="Trazado 118469" d="M1877.771,1082.184c4.849,8.908,6.729,14.175,8.39,16.388a1,1,0,0,0,.948.389l28.344-4.116a1.007,1.007,0,0,1,1.1.686l2.283,7.019a1.008,1.008,0,0,1-.634,1.265l-26.573,9.005a13.828,13.828,0,0,1-14.148-2.48,75.2,75.2,0,0,1-18.063-23.725c-2.04-4.032-6.778-11.491,1-18.05C1866.875,1063.122,1874.553,1076.272,1877.771,1082.184Z" transform="translate(-1791.63 -1014.7)" fill="#084a93"/>
        <path id="Trazado_118470" data-name="Trazado 118470" d="M1877.771,1082.184c4.849,8.908,6.729,14.175,8.39,16.388a1,1,0,0,0,.948.389l28.344-4.116a1.007,1.007,0,0,1,1.1.686l2.283,7.019a1.008,1.008,0,0,1-.634,1.265l-26.573,9.005a13.828,13.828,0,0,1-14.148-2.48,75.2,75.2,0,0,1-18.063-23.725c-2.04-4.032-6.778-11.491,1-18.05C1866.875,1063.122,1874.553,1076.272,1877.771,1082.184Z" transform="translate(-1791.63 -1014.7)" fill="#fff" opacity="0.1"/>
        <path id="Trazado_118471" data-name="Trazado 118471" d="M1902.755,1091.956l5.844-6.863a5.008,5.008,0,0,1,2.416-1.564l13.746-4a1.006,1.006,0,0,1,1.18.511h0a1.007,1.007,0,0,1-.516,1.387l-5.682,2.326a1.01,1.01,0,0,0-.623,1.015l.281,3.436a5.012,5.012,0,0,1-2.92,4.97l-4.133,1.881c-.16.062-.319.125-.479.189l-7.091,2.384a1.006,1.006,0,0,1-1.3-.728l-.936-4.067A1,1,0,0,1,1902.755,1091.956Z" transform="translate(-1778.116 -1011.141)" fill="#e67b62"/>
        <g id="Grupo_113792" data-name="Grupo 113792" transform="translate(122.868 78.524)">
          <path id="Trazado_118472" data-name="Trazado 118472" d="M1901.4,1088.953l3.5,8.839a1.006,1.006,0,0,0,1.378.533l1.162-.567a1.007,1.007,0,0,0,.5-1.275l-3.34-8.474a1.007,1.007,0,0,0-1.089-.626l-1.325.2A1.006,1.006,0,0,0,1901.4,1088.953Z" transform="translate(-1901.329 -1087.371)" fill="#1a2e35"/>
        </g>
        <g id="Grupo_113793" data-name="Grupo 113793" transform="translate(84.421 321.14)">
          <path id="Trazado_118473" data-name="Trazado 118473" d="M1871.554,1277.628l1.762,4.668,13.387-2.07-.373-4.961Z" transform="translate(-1871.554 -1275.265)" fill="#084a93"/>
          <path id="Trazado_118474" data-name="Trazado 118474" d="M1871.554,1277.628l1.762,4.668,13.387-2.07-.373-4.961Z" transform="translate(-1871.554 -1275.265)" opacity="0.2"/>
        </g>
        <g id="Grupo_113794" data-name="Grupo 113794" transform="translate(6.575 321.622)">
          <path id="Trazado_118475" data-name="Trazado 118475" d="M1811.476,1275.639l-.21,4.9,13.426,1.795,1.044-4.865Z" transform="translate(-1811.266 -1275.639)" fill="#084a93"/>
          <path id="Trazado_118476" data-name="Trazado 118476" d="M1811.476,1275.639l-.21,4.9,13.426,1.795,1.044-4.865Z" transform="translate(-1811.266 -1275.639)" opacity="0.2"/>
        </g>
        <path id="Trazado_118477" data-name="Trazado 118477" d="M1838.734,1068.494s1.5-2.129,6.022.334c0,0,6.415-7.18,6.614-13.908,0,0,4.739-.877,4.343-3.938s-2.654-7.068-2.177-9.843,5.085-10.064,1.17-13.3-4.377.618-6.593,1.034-15.607.895-17.318,10.373a13.012,13.012,0,0,0-.894,16.1C1835.757,1064.4,1838.734,1068.494,1838.734,1068.494Z" transform="translate(-1799.96 -1026.558)" fill="#1a2e35"/>
        <path id="Trazado_118478" data-name="Trazado 118478" d="M1846.148,1045.1l11.715-6.508s2.947,7.665,1.534,8.051-3.27-5.632-3.27-5.632l-8.341,3.978Z" transform="translate(-1794.532 -1023.054)" fill="#084a93"/>
        <path id="Trazado_118479" data-name="Trazado 118479" d="M1854.1,1040.739l.888-.527s2.42,5.418,1.755,5.894S1854.1,1040.739,1854.1,1040.739Z" transform="translate(-1792.215 -1022.581)" fill="#fff" opacity="0.7"/>
        <path id="Trazado_118480" data-name="Trazado 118480" d="M1848.713,1043.975a7.97,7.97,0,0,1,3.414,5.09c.514,2.748-2.07,3.87-4.587,2.9-2.28-.879-5.265-3.369-4.637-6.033S1846.515,1042.543,1848.713,1043.975Z" transform="translate(-1795.502 -1021.695)" fill="#e67b62"/>
      </g>
    </g>
  </g>
</svg>
