<svg xmlns="http://www.w3.org/2000/svg" width="263.416" height="346.147" viewBox="0 0 263.416 346.147">
  <g id="Grupo_113825" data-name="Grupo 113825" transform="translate(-1042 -554.063)">
    <g id="Grupo_112279" data-name="Grupo 112279" transform="translate(1088.389 561.672)">
      <g id="Grupo_112275" data-name="Grupo 112275">
        <g id="Grupo_112258" data-name="Grupo 112258" transform="translate(54.594 116.486)">
          <path id="Rectángulo_40874" data-name="Rectángulo 40874" d="M0,0H32.22a2.648,2.648,0,0,1,2.648,2.648v3.5A2.648,2.648,0,0,1,32.22,8.8H0a0,0,0,0,1,0,0V0A0,0,0,0,1,0,0Z" transform="translate(64.64 40.525)" fill="#1a2e35"/>
          <rect id="Rectángulo_40875" data-name="Rectángulo 40875" width="73.279" height="8.797" rx="2.465" transform="translate(0 40.525)"/>
          <rect id="Rectángulo_40876" data-name="Rectángulo 40876" width="73.279" height="8.797" rx="2.465" transform="translate(0 40.525)" fill="#fff" opacity="0.5"/>
          <g id="Grupo_112257" data-name="Grupo 112257" transform="translate(31.833)">
            <path id="Trazado_117175" data-name="Trazado 117175" d="M1072.179,1517.343h16.944l-10.849-40.525h-6.1Z" transform="translate(-1048.629 -1476.817)" fill="#1a2e35"/>
            <path id="Trazado_117176" data-name="Trazado 117176" d="M1082.5,1517.343h-34.584l-3.443-40.525h27.178Z" transform="translate(-1044.478 -1476.817)"/>
            <path id="Trazado_117177" data-name="Trazado 117177" d="M1082.5,1517.343h-34.584l-3.443-40.525h27.178Z" transform="translate(-1044.478 -1476.817)" fill="#fff" opacity="0.3"/>
          </g>
        </g>
        <path id="Trazado_117178" data-name="Trazado 117178" d="M1186.756,1339.8h-15.72l-12.171,139.109h15.721a6.634,6.634,0,0,0,6.48-5.959l11.128-127.192A5.373,5.373,0,0,0,1186.756,1339.8Z" transform="translate(-975.189 -1339.804)" fill="#1a2e35"/>
        <g id="Grupo_112259" data-name="Grupo 112259">
          <path id="Trazado_117179" data-name="Trazado 117179" d="M1138.59,1478.913H948.282a5.373,5.373,0,0,1-5.438-5.959l11.128-127.192a6.634,6.634,0,0,1,6.48-5.959h190.309a5.373,5.373,0,0,1,5.438,5.959l-11.128,127.192A6.633,6.633,0,0,1,1138.59,1478.913Z" transform="translate(-942.821 -1339.804)" fill="#1a2e35"/>
        </g>
        <path id="Trazado_117180" data-name="Trazado 117180" d="M1138.59,1478.913H948.282a5.373,5.373,0,0,1-5.438-5.959l11.128-127.192a6.634,6.634,0,0,1,6.48-5.959h190.309a5.373,5.373,0,0,1,5.438,5.959l-11.128,127.192A6.633,6.633,0,0,1,1138.59,1478.913Z" transform="translate(-942.821 -1339.804)" fill="#fff" opacity="0.7"/>
        <path id="Trazado_117181" data-name="Trazado 117181" d="M1135.034,1463.885H957.726a4.662,4.662,0,0,1-4.718-5.17l9.246-105.681a5.756,5.756,0,0,1,5.622-5.17h177.308a4.662,4.662,0,0,1,4.718,5.17l-9.246,105.681A5.756,5.756,0,0,1,1135.034,1463.885Z" transform="translate(-944.344 -1341.011)" fill="#fafafa" opacity="0.9"/>
        <g id="Grupo_112260" data-name="Grupo 112260" transform="translate(130.718 18.261)">
          <path id="Trazado_117182" data-name="Trazado 117182" d="M1111.424,1389.571h-6.2l1.085-12.405h6.2Z" transform="translate(-1097.87 -1363.663)" fill="#084a93"/>
          <path id="Trazado_117183" data-name="Trazado 117183" d="M1111.424,1389.571h-6.2l1.085-12.405h6.2Z" transform="translate(-1097.87 -1363.663)" opacity="0.2"/>
          <path id="Trazado_117184" data-name="Trazado 117184" d="M1126.015,1388.478h-6.2l1.628-18.608h6.2Z" transform="translate(-1100.057 -1362.57)" fill="#084a93"/>
          <path id="Trazado_117185" data-name="Trazado 117185" d="M1140.607,1389.025h-6.2l1.357-15.506h6.2Z" transform="translate(-1102.243 -1363.117)" fill="#084a93"/>
          <path id="Trazado_117186" data-name="Trazado 117186" d="M1155.2,1387.385H1149l2.171-24.81h6.2Z" transform="translate(-1104.429 -1361.477)" fill="#084a93"/>
          <path id="Trazado_117187" data-name="Trazado 117187" d="M1155.2,1387.385H1149l2.171-24.81h6.2Z" transform="translate(-1104.429 -1361.477)" opacity="0.4"/>
          <path id="Trazado_117188" data-name="Trazado 117188" d="M1153.546,1386.046h-54.577q1.035-11.832,2.07-23.665c.129-1.468-2.163-1.46-2.29,0q-1.085,12.4-2.171,24.81a1.156,1.156,0,0,0,1.145,1.145h55.823A1.146,1.146,0,0,0,1153.546,1386.046Z" transform="translate(-1096.575 -1361.284)" fill="#084a93"/>
          <path id="Trazado_117189" data-name="Trazado 117189" d="M1153.546,1386.046h-54.577q1.035-11.832,2.07-23.665c.129-1.468-2.163-1.46-2.29,0q-1.085,12.4-2.171,24.81a1.156,1.156,0,0,0,1.145,1.145h55.823A1.146,1.146,0,0,0,1153.546,1386.046Z" transform="translate(-1096.575 -1361.284)" fill="#fff" opacity="0.5"/>
        </g>
        <g id="Grupo_112262" data-name="Grupo 112262" transform="translate(34.581 17.028)">
          <path id="Trazado_117190" data-name="Trazado 117190" d="M991.447,1383.859l-4.043,3.718a12.9,12.9,0,0,0,9.638,4.142l.461-5.257A8.1,8.1,0,0,1,991.447,1383.859Z" transform="translate(-984.082 -1363.433)" fill="#084a93"/>
          <path id="Trazado_117191" data-name="Trazado 117191" d="M991.447,1383.859l-4.043,3.718a12.9,12.9,0,0,0,9.638,4.142l.461-5.257A8.1,8.1,0,0,1,991.447,1383.859Z" transform="translate(-984.082 -1363.433)" opacity="0.5"/>
          <path id="Trazado_117192" data-name="Trazado 117192" d="M1008.865,1376.469a9.892,9.892,0,0,1-9.663,8.885l-.461,5.257a15.746,15.746,0,0,0,15.381-14.143Z" transform="translate(-985.78 -1362.325)" fill="#084a93"/>
          <path id="Trazado_117193" data-name="Trazado 117193" d="M1008.865,1376.469a9.892,9.892,0,0,1-9.663,8.885l-.461,5.257a15.746,15.746,0,0,0,15.381-14.143Z" transform="translate(-985.78 -1362.325)" opacity="0.1"/>
          <path id="Trazado_117194" data-name="Trazado 117194" d="M990.862,1382.752a8.166,8.166,0,0,1-2.053-6.283h-5.258a13,13,0,0,0,3.267,10Z" transform="translate(-983.496 -1362.325)" fill="#084a93"/>
          <path id="Trazado_117195" data-name="Trazado 117195" d="M998.482,1365.091a8.012,8.012,0,0,1,8.109,8.886h5.258a12.753,12.753,0,0,0-12.907-14.144,15.746,15.746,0,0,0-15.381,14.144h5.258A9.892,9.892,0,0,1,998.482,1365.091Z" transform="translate(-983.506 -1359.833)" fill="#084a93"/>
          <g id="Grupo_112261" data-name="Grupo 112261" transform="translate(0.055)">
            <path id="Trazado_117196" data-name="Trazado 117196" d="M998.482,1365.091a8.012,8.012,0,0,1,8.109,8.886h5.258a12.753,12.753,0,0,0-12.907-14.144,15.746,15.746,0,0,0-15.381,14.144h5.258A9.892,9.892,0,0,1,998.482,1365.091Z" transform="translate(-983.561 -1359.833)" fill="#fff" opacity="0.2"/>
          </g>
          <path id="Trazado_117197" data-name="Trazado 117197" d="M1007.167,1367.693l4.043-3.718a12.894,12.894,0,0,0-9.639-4.142l-.46,5.258A8.1,8.1,0,0,1,1007.167,1367.693Z" transform="translate(-986.135 -1359.833)" fill="#fff" opacity="0.6"/>
        </g>
        <g id="Grupo_112264" data-name="Grupo 112264" transform="translate(73.975 17.028)">
          <path id="Trazado_117198" data-name="Trazado 117198" d="M1037.783,1383.859l-4.043,3.718a12.894,12.894,0,0,0,9.638,4.142l.46-5.257A8.1,8.1,0,0,1,1037.783,1383.859Z" transform="translate(-1030.418 -1363.433)" fill="#084a93"/>
          <path id="Trazado_117199" data-name="Trazado 117199" d="M1037.783,1383.859l-4.043,3.718a12.894,12.894,0,0,0,9.638,4.142l.46-5.257A8.1,8.1,0,0,1,1037.783,1383.859Z" transform="translate(-1030.418 -1363.433)" opacity="0.5"/>
          <path id="Trazado_117200" data-name="Trazado 117200" d="M1055.2,1376.469a9.892,9.892,0,0,1-9.663,8.885l-.46,5.257a15.745,15.745,0,0,0,15.38-14.143Z" transform="translate(-1032.116 -1362.325)" fill="#084a93"/>
          <path id="Trazado_117201" data-name="Trazado 117201" d="M1055.2,1376.469a9.892,9.892,0,0,1-9.663,8.885l-.46,5.257a15.745,15.745,0,0,0,15.38-14.143Z" transform="translate(-1032.116 -1362.325)" opacity="0.1"/>
          <path id="Trazado_117202" data-name="Trazado 117202" d="M1037.2,1382.752a8.162,8.162,0,0,1-2.052-6.283h-5.258a13,13,0,0,0,3.267,10Z" transform="translate(-1029.832 -1362.325)" fill="#084a93"/>
          <path id="Trazado_117203" data-name="Trazado 117203" d="M1044.818,1365.091a8.012,8.012,0,0,1,8.108,8.886h5.257a12.753,12.753,0,0,0-12.906-14.144,15.745,15.745,0,0,0-15.381,14.144h5.258A9.891,9.891,0,0,1,1044.818,1365.091Z" transform="translate(-1029.842 -1359.833)" fill="#084a93"/>
          <g id="Grupo_112263" data-name="Grupo 112263" transform="translate(0.055)">
            <path id="Trazado_117204" data-name="Trazado 117204" d="M1044.818,1365.091a8.012,8.012,0,0,1,8.108,8.886h5.257a12.753,12.753,0,0,0-12.906-14.144,15.745,15.745,0,0,0-15.381,14.144h5.258A9.891,9.891,0,0,1,1044.818,1365.091Z" transform="translate(-1029.897 -1359.833)" fill="#fff" opacity="0.2"/>
          </g>
          <path id="Trazado_117205" data-name="Trazado 117205" d="M1053.5,1367.693l4.043-3.718a12.9,12.9,0,0,0-9.638-4.142l-.46,5.258A8.1,8.1,0,0,1,1053.5,1367.693Z" transform="translate(-1032.471 -1359.833)" fill="#fff" opacity="0.6"/>
        </g>
        <g id="Grupo_112272" data-name="Grupo 112272" transform="translate(131.142 82.784)">
          <g id="Grupo_112268" data-name="Grupo 112268">
            <g id="Grupo_112265" data-name="Grupo 112265" transform="translate(1.973)">
              <path id="Trazado_117206" data-name="Trazado 117206" d="M1106.8,1444.578H1099.4l.648-7.4h7.407Zm-5.655-1.606h4.184l.366-4.19h-4.184Z" transform="translate(-1099.395 -1437.176)" fill="#084a93"/>
            </g>
            <g id="Grupo_112266" data-name="Grupo 112266" transform="translate(0.987 11.274)">
              <path id="Trazado_117207" data-name="Trazado 117207" d="M1105.642,1457.838h-7.407l.647-7.4h7.408Zm-5.655-1.605h4.184l.366-4.191h-4.184Z" transform="translate(-1098.235 -1450.437)" fill="#084a93"/>
            </g>
            <g id="Grupo_112267" data-name="Grupo 112267" transform="translate(0 22.548)">
              <path id="Trazado_117208" data-name="Trazado 117208" d="M1104.482,1471.1h-7.408l.648-7.4h7.407Zm-5.655-1.605h4.185l.366-4.19h-4.184Z" transform="translate(-1097.074 -1463.698)" fill="#084a93"/>
            </g>
          </g>
          <g id="Grupo_112269" data-name="Grupo 112269" transform="translate(12.861 2.063)">
            <path id="Trazado_117209" data-name="Trazado 117209" d="M1113.857,1443.215a1.629,1.629,0,0,1-1.649-1.807,2.011,2.011,0,0,1,1.964-1.807h24.775a1.63,1.63,0,0,1,1.649,1.807,2.012,2.012,0,0,1-1.965,1.807Z" transform="translate(-1112.202 -1439.602)" fill="#084a93"/>
            <path id="Trazado_117210" data-name="Trazado 117210" d="M1113.857,1443.215a1.629,1.629,0,0,1-1.649-1.807,2.011,2.011,0,0,1,1.964-1.807h24.775a1.63,1.63,0,0,1,1.649,1.807,2.012,2.012,0,0,1-1.965,1.807Z" transform="translate(-1112.202 -1439.602)" fill="#fff" opacity="0.7"/>
          </g>
          <g id="Grupo_112270" data-name="Grupo 112270" transform="translate(10.903 24.443)">
            <path id="Trazado_117211" data-name="Trazado 117211" d="M1111.554,1469.538a1.628,1.628,0,0,1-1.648-1.807,2.011,2.011,0,0,1,1.964-1.806h20.76a1.628,1.628,0,0,1,1.648,1.806,2.01,2.01,0,0,1-1.964,1.807Z" transform="translate(-1109.899 -1465.926)" fill="#084a93"/>
            <path id="Trazado_117212" data-name="Trazado 117212" d="M1111.554,1469.538a1.628,1.628,0,0,1-1.648-1.807,2.011,2.011,0,0,1,1.964-1.806h20.76a1.628,1.628,0,0,1,1.648,1.806,2.01,2.01,0,0,1-1.964,1.807Z" transform="translate(-1109.899 -1465.926)" fill="#fff" opacity="0.4"/>
          </g>
          <g id="Grupo_112271" data-name="Grupo 112271" transform="translate(11.89 13.168)">
            <path id="Trazado_117213" data-name="Trazado 117213" d="M1112.714,1456.277a1.628,1.628,0,0,1-1.648-1.806,2.011,2.011,0,0,1,1.965-1.807h19.154a1.629,1.629,0,0,1,1.649,1.807,2.011,2.011,0,0,1-1.965,1.806Z" transform="translate(-1111.059 -1452.665)" fill="#084a93"/>
            <path id="Trazado_117214" data-name="Trazado 117214" d="M1112.714,1456.277a1.628,1.628,0,0,1-1.648-1.806,2.011,2.011,0,0,1,1.965-1.807h19.154a1.629,1.629,0,0,1,1.649,1.807,2.011,2.011,0,0,1-1.965,1.806Z" transform="translate(-1111.059 -1452.665)" fill="#fff" opacity="0.2"/>
          </g>
        </g>
        <g id="Grupo_112274" data-name="Grupo 112274" transform="translate(61.155 85.372)">
          <path id="Trazado_117215" data-name="Trazado 117215" d="M1074.509,1456.812l-5.6-7.646a1.175,1.175,0,0,0-1.819-.235l-5.937,6.54-4.669-7.678a1.174,1.174,0,0,0-1.819-.235c-2.048,1.884-4.055,3.832-6.152,5.661-.626-.341-1.232-.732-1.842-1.093l-3.388-2a1.184,1.184,0,0,0-1.585.415q-3,4.347-6,8.694l-4.475-8.694a1.176,1.176,0,0,0-1.584-.415l-2.861,1.54a34.853,34.853,0,0,0-3.1,1.729,22.837,22.837,0,0,0-2.489-1.487l-3-1.782a1.159,1.159,0,0,0-1.169,2c1.662.987,4.627,3.725,6.583,3.722,1.776,0,4.294-1.881,6.16-3.09l4.791,9.306a1.171,1.171,0,0,0,2,0l6.479-9.394,5.042,2.982a1.186,1.186,0,0,0,1.4-.181l5.746-5.284,4.741,7.8a1.169,1.169,0,0,0,1.818.235q3.016-3.321,6.03-6.642l4.7,6.408C1073.38,1459.171,1075.392,1458.016,1074.509,1456.812Z" transform="translate(-1015.009 -1441.271)" fill="#084a93"/>
          <g id="Grupo_112273" data-name="Grupo 112273">
            <path id="Trazado_117216" data-name="Trazado 117216" d="M1072.371,1465.265h-55.2l2.094-23.933c.13-1.484-2.187-1.476-2.317,0l-2.2,25.092a1.168,1.168,0,0,0,1.158,1.158h56.457A1.159,1.159,0,0,0,1072.371,1465.265Z" transform="translate(-1014.753 -1440.221)" fill="#084a93"/>
            <path id="Trazado_117217" data-name="Trazado 117217" d="M1072.371,1465.265h-55.2l2.094-23.933c.13-1.484-2.187-1.476-2.317,0l-2.2,25.092a1.168,1.168,0,0,0,1.158,1.158h56.457A1.159,1.159,0,0,0,1072.371,1465.265Z" transform="translate(-1014.753 -1440.221)" fill="#fff" opacity="0.5"/>
          </g>
        </g>
      </g>
      <g id="Grupo_112278" data-name="Grupo 112278" transform="translate(78.278 49.35)">
        <g id="Grupo_112276" data-name="Grupo 112276">
          <path id="Trazado_117218" data-name="Trazado 117218" d="M1135.859,1425.239h-98.516l2.2-25.134h98.516Z" transform="translate(-1035.26 -1398.189)" fill="#084a93"/>
          <path id="Trazado_117219" data-name="Trazado 117219" d="M1135.859,1425.239h-98.516l2.2-25.134h98.516Z" transform="translate(-1035.26 -1398.189)" fill="#fff" opacity="0.9"/>
          <path id="Trazado_117220" data-name="Trazado 117220" d="M1137.241,1426.817H1034.893l2.534-28.966h102.347Zm-98.182-3.832h94.686l1.864-21.3h-94.685Z" transform="translate(-1034.893 -1397.851)" fill="#1a2e35"/>
        </g>
        <g id="Grupo_112277" data-name="Grupo 112277" transform="translate(15.852 8.935)">
          <path id="Trazado_117221" data-name="Trazado 117221" d="M1062.018,1417.313l-.174,1.992h-8.306l.939-10.727h8.107l-.174,1.993h-5.64l-.2,2.329h4.98l-.169,1.931h-4.98l-.218,2.483Z" transform="translate(-1053.538 -1408.393)" fill="#084a93"/>
          <path id="Trazado_117222" data-name="Trazado 117222" d="M1072.049,1419.3l-2.265-3.724-2.869,3.724h-2.85l4.446-5.456-3.308-5.271h2.819l2.163,3.479,2.726-3.479h2.682l-4.193,5.18,3.516,5.547Z" transform="translate(-1055.115 -1408.393)" fill="#084a93"/>
          <path id="Trazado_117223" data-name="Trazado 117223" d="M1080.74,1410.6h-3.433l.177-2.023h9.349l-.177,2.023h-3.433l-.762,8.7h-2.483Z" transform="translate(-1057.099 -1408.393)" fill="#084a93"/>
          <path id="Trazado_117224" data-name="Trazado 117224" d="M1095.81,1419.3l-1.807-2.988h-2.283l-.262,2.988h-2.483l.939-10.727h4.643a5.7,5.7,0,0,1,2.434.475,3.238,3.238,0,0,1,1.5,1.349,3.508,3.508,0,0,1,.386,2.068,3.927,3.927,0,0,1-.754,2.061,4.134,4.134,0,0,1-1.749,1.325l2.1,3.448Zm.091-8.222a2.43,2.43,0,0,0-1.659-.483h-2.023l-.327,3.74h2.023a2.758,2.758,0,0,0,1.745-.491,1.87,1.87,0,0,0,.7-1.378A1.564,1.564,0,0,0,1095.9,1411.083Z" transform="translate(-1058.847 -1408.393)" fill="#084a93"/>
          <path id="Trazado_117225" data-name="Trazado 117225" d="M1109.24,1417.006h-4.98l-1.151,2.3h-2.544l5.72-10.727h2.452l3.857,10.727h-2.6Zm-.616-1.887-1.342-4.106-2.061,4.106Z" transform="translate(-1060.584 -1408.393)" fill="#084a93"/>
          <path id="Trazado_117226" data-name="Trazado 117226" d="M1118.023,1418.743a4.679,4.679,0,0,1-1.91-1.977,5.162,5.162,0,0,1-.509-2.858,5.857,5.857,0,0,1,1.009-2.858,6.046,6.046,0,0,1,2.257-1.977,6.56,6.56,0,0,1,3.043-.712,5.947,5.947,0,0,1,2.478.491,4.445,4.445,0,0,1,1.768,1.41l-1.723,1.47a3.119,3.119,0,0,0-2.586-1.256,3.794,3.794,0,0,0-1.816.436,3.518,3.518,0,0,0-1.325,1.219,3.833,3.833,0,0,0-.592,1.777,3.4,3.4,0,0,0,.281,1.779,2.75,2.75,0,0,0,1.112,1.218,3.375,3.375,0,0,0,1.74.436,3.743,3.743,0,0,0,2.808-1.272l1.465,1.47a5.6,5.6,0,0,1-2.024,1.426,6.63,6.63,0,0,1-2.572.49A5.807,5.807,0,0,1,1118.023,1418.743Z" transform="translate(-1062.833 -1408.361)" fill="#084a93"/>
          <path id="Trazado_117227" data-name="Trazado 117227" d="M1131.841,1410.6h-3.433l.177-2.023h9.349l-.177,2.023h-3.433l-.762,8.7h-2.482Z" transform="translate(-1064.755 -1408.393)" fill="#084a93"/>
        </g>
      </g>
    </g>
    <g id="Grupo_112295" data-name="Grupo 112295" transform="translate(1107.626 727.729)">
      <g id="Grupo_112280" data-name="Grupo 112280" transform="translate(38.777 8.614)">
        <rect id="Rectángulo_40877" data-name="Rectángulo 40877" width="135.671" height="149.376" fill="#084a93"/>
      </g>
      <g id="Grupo_112281" data-name="Grupo 112281" transform="translate(19.053 8.614)">
        <rect id="Rectángulo_40878" data-name="Rectángulo 40878" width="24.916" height="149.376" transform="translate(24.916 149.376) rotate(180)" fill="#084a93"/>
        <rect id="Rectángulo_40879" data-name="Rectángulo 40879" width="24.916" height="149.376" transform="translate(24.916 149.376) rotate(180)" fill="#fff" opacity="0.3"/>
      </g>
      <g id="Grupo_112282" data-name="Grupo 112282" transform="translate(13.824 8.614)">
        <rect id="Rectángulo_40880" data-name="Rectángulo 40880" width="142.076" height="13.219" fill="#084a93"/>
        <rect id="Rectángulo_40881" data-name="Rectángulo 40881" width="142.076" height="13.219" fill="#fff" opacity="0.6"/>
      </g>
      <g id="Grupo_112283" data-name="Grupo 112283" transform="translate(8.594 8.614)">
        <rect id="Rectángulo_40882" data-name="Rectángulo 40882" width="10.459" height="149.376" fill="#084a93"/>
        <rect id="Rectángulo_40883" data-name="Rectángulo 40883" width="10.459" height="149.376" fill="#fff" opacity="0.5"/>
      </g>
      <g id="Grupo_112284" data-name="Grupo 112284" transform="translate(163.193 8.614)">
        <rect id="Rectángulo_40884" data-name="Rectángulo 40884" width="24.916" height="149.376" transform="translate(24.916 149.376) rotate(180)" fill="#084a93"/>
        <rect id="Rectángulo_40885" data-name="Rectángulo 40885" width="24.916" height="149.376" transform="translate(24.916 149.376) rotate(180)" fill="#fff" opacity="0.3"/>
      </g>
      <g id="Grupo_112285" data-name="Grupo 112285" transform="translate(171.787)">
        <rect id="Rectángulo_40886" data-name="Rectángulo 40886" width="22.599" height="11.466" transform="translate(22.599 11.466) rotate(180)" fill="#084a93"/>
        <rect id="Rectángulo_40887" data-name="Rectángulo 40887" width="22.599" height="11.466" transform="translate(22.599 11.466) rotate(180)" fill="#fff" opacity="0.3"/>
      </g>
      <g id="Grupo_112286" data-name="Grupo 112286" transform="translate(32.737 28.964)">
        <rect id="Rectángulo_40888" data-name="Rectángulo 40888" width="112.866" height="129.026" fill="#084a93"/>
        <rect id="Rectángulo_40889" data-name="Rectángulo 40889" width="112.866" height="129.026" fill="#fff" opacity="0.5"/>
      </g>
      <g id="Grupo_112287" data-name="Grupo 112287" transform="translate(145.602 28.964)">
        <rect id="Rectángulo_40890" data-name="Rectángulo 40890" width="7.131" height="129.026" fill="#084a93"/>
        <rect id="Rectángulo_40891" data-name="Rectángulo 40891" width="7.131" height="129.026" fill="#fff" opacity="0.2"/>
      </g>
      <g id="Grupo_112292" data-name="Grupo 112292" transform="translate(39.868 35.995)">
        <g id="Grupo_112289" data-name="Grupo 112289">
          <rect id="Rectángulo_40892" data-name="Rectángulo 40892" width="98.603" height="29.848" transform="translate(0 35.352)" fill="#084a93"/>
          <g id="Grupo_112288" data-name="Grupo 112288">
            <rect id="Rectángulo_40893" data-name="Rectángulo 40893" width="98.603" height="29.848" fill="#084a93"/>
            <rect id="Rectángulo_40894" data-name="Rectángulo 40894" width="98.603" height="29.848" transform="translate(0 70.705)" fill="#084a93"/>
          </g>
        </g>
        <g id="Grupo_112291" data-name="Grupo 112291" opacity="0.7">
          <rect id="Rectángulo_40895" data-name="Rectángulo 40895" width="98.603" height="29.848" transform="translate(0 35.352)" fill="#fff"/>
          <g id="Grupo_112290" data-name="Grupo 112290">
            <rect id="Rectángulo_40896" data-name="Rectángulo 40896" width="98.603" height="29.848" fill="#fff"/>
            <rect id="Rectángulo_40897" data-name="Rectángulo 40897" width="98.603" height="29.848" transform="translate(0 70.705)" fill="#fff"/>
          </g>
        </g>
      </g>
      <g id="Grupo_112293" data-name="Grupo 112293" transform="translate(38.777 8.614)">
        <rect id="Rectángulo_40898" data-name="Rectángulo 40898" width="10.459" height="149.376" transform="translate(113.957)" fill="#084a93"/>
        <rect id="Rectángulo_40899" data-name="Rectángulo 40899" width="135.671" height="149.376" fill="#fff" opacity="0.1"/>
        <rect id="Rectángulo_40900" data-name="Rectángulo 40900" width="10.459" height="149.376" transform="translate(113.957)" fill="#fff" opacity="0.5"/>
      </g>
      <rect id="Rectángulo_40901" data-name="Rectángulo 40901" width="171.787" height="11.466" transform="translate(0 0)" fill="#084a93"/>
      <rect id="Rectángulo_40902" data-name="Rectángulo 40902" width="171.787" height="11.466" transform="translate(0 0)" fill="#fff" opacity="0.6"/>
      <g id="Grupo_112294" data-name="Grupo 112294" transform="translate(82.787 47.675)">
        <path id="Trazado_117228" data-name="Trazado 117228" d="M1069.492,1591.2h-3.423a3.244,3.244,0,1,0,0,6.489h3.423a3.244,3.244,0,1,0,0-6.489Z" transform="translate(-1062.825 -1591.2)" fill="#084a93"/>
        <path id="Trazado_117229" data-name="Trazado 117229" d="M1069.492,1632.782h-3.423a3.245,3.245,0,0,0,0,6.489h3.423a3.245,3.245,0,1,0,0-6.489Z" transform="translate(-1062.825 -1597.43)" fill="#084a93"/>
        <path id="Trazado_117230" data-name="Trazado 117230" d="M1069.492,1674.365h-3.423a3.244,3.244,0,1,0,0,6.489h3.423a3.244,3.244,0,1,0,0-6.489Z" transform="translate(-1062.825 -1603.66)" fill="#084a93"/>
        <path id="Trazado_117231" data-name="Trazado 117231" d="M1069.314,1594.444a3.244,3.244,0,1,1-3.244-3.244A3.244,3.244,0,0,1,1069.314,1594.444Z" transform="translate(-1062.825 -1591.2)" fill="#fafafa" opacity="0.3"/>
        <path id="Trazado_117232" data-name="Trazado 117232" d="M1069.314,1636.027a3.244,3.244,0,1,1-3.244-3.245A3.244,3.244,0,0,1,1069.314,1636.027Z" transform="translate(-1062.825 -1597.43)" fill="#fafafa" opacity="0.3"/>
        <path id="Trazado_117233" data-name="Trazado 117233" d="M1069.314,1677.609a3.244,3.244,0,1,1-3.244-3.244A3.244,3.244,0,0,1,1069.314,1677.609Z" transform="translate(-1062.825 -1603.66)" fill="#fafafa" opacity="0.3"/>
      </g>
    </g>
    <g id="Grupo_112305" data-name="Grupo 112305" transform="translate(1042 554.063)">
      <path id="Trazado_117234" data-name="Trazado 117234" d="M947.418,1380.2c-1.856,2.623,2.237,10.969,2.237,10.969l-18.438,2.233,3.607-20.1S949.608,1377.1,947.418,1380.2Z" transform="translate(-894.694 -1337.213)" fill="#e67b62"/>
      <path id="Trazado_117235" data-name="Trazado 117235" d="M948.578,1384.2c-.286-1.53-.295-2.932.292-3.76,1.361-1.925-3.834-4.121-7.962-5.508C941.883,1376.888,944.641,1381.831,948.578,1384.2Z" transform="translate(-896.146 -1337.458)" opacity="0.2"/>
      <g id="Grupo_112296" data-name="Grupo 112296" transform="translate(85.255 317.604)">
        <path id="Trazado_117236" data-name="Trazado 117236" d="M1000.426,1704.427l1.965,18.761-8.654,1.624-5.2-18.108Z" transform="translate(-988.537 -1704.427)" fill="#e67b62"/>
        <path id="Trazado_117237" data-name="Trazado 117237" d="M1002.664,1722.7l-10.172,2.038a.835.835,0,0,0-.672.8l-.181,8.644a1.389,1.389,0,0,0,1.349,1.427,1.418,1.418,0,0,0,.293-.023c3.654-.8,6.875-1.653,11.442-2.561,5.388-1.078,4.15-.16,10.5-1.339,3.826-.714,3.656-5.192,1.995-5.081-7.592.552-8.81-1.53-12.2-3.609A3.337,3.337,0,0,0,1002.664,1722.7Z" transform="translate(-989.002 -1707.151)" fill="#1a2e35"/>
        <path id="Trazado_117238" data-name="Trazado 117238" d="M991.973,1718.667l9.809-1.294-1.356-12.945-11.889,2.277Z" transform="translate(-988.537 -1704.427)" opacity="0.2"/>
      </g>
      <g id="Grupo_112297" data-name="Grupo 112297" transform="translate(3.777 313.137)">
        <path id="Trazado_117239" data-name="Trazado 117239" d="M911.987,1699.839,906.1,1723.1l-8.307-1.169L900,1699.173Z" transform="translate(-893.463 -1699.173)" fill="#e67b62"/>
        <path id="Trazado_117240" data-name="Trazado 117240" d="M906.433,1723.744l-10.348-.728a.835.835,0,0,0-.86.593l-2.464,8.288a1.389,1.389,0,0,0,.922,1.733,1.413,1.413,0,0,0,.29.056c3.735.2,7.067.227,11.71.56,5.481.388,4.044.946,10.481,1.491,3.879.324,4.9-4.038,3.27-4.372-7.468-1.479-8.09-3.81-10.807-6.71A3.341,3.341,0,0,0,906.433,1723.744Z" transform="translate(-892.701 -1702.745)" fill="#1a2e35"/>
        <path id="Trazado_117241" data-name="Trazado 117241" d="M898.393,1716.73l9.076,1.391,4.342-17.14c-3.981-.424-10.5-1.077-11.774-1.2Z" transform="translate(-893.553 -1699.264)" opacity="0.2"/>
      </g>
      <path id="Trazado_117242" data-name="Trazado 117242" d="M920.958,1490.541s-2.864,8.313-3.281,28.549c-.248,12.093-1.43,31.236-2.341,44.686-.266,3.934-.509,7.381-.7,10.022a31.6,31.6,0,0,1-2.314,9.74c-.886,2.158-2,5.111-3.141,8.8a139.607,139.607,0,0,0-4.976,22.883c-3.028,22.67-6.506,66.584-6.506,66.584l11.219,1.455,27.615-102.343,29.431-90.454Z" transform="translate(-889.672 -1354.767)" fill="#1a2e35"/>
      <path id="Trazado_117243" data-name="Trazado 117243" d="M957.043,1544.666l-1.189-8.909-9.63-8.141-3.238-1.594a108.079,108.079,0,0,1,5.619,43.708Z" transform="translate(-896.457 -1360.094)" opacity="0.2"/>
      <path id="Trazado_117244" data-name="Trazado 117244" d="M980.283,1490.423l13.5,190.082-11.428,1.944s-15.287-52.6-17.872-81.68a75.11,75.11,0,0,1-.334-9.282,36.463,36.463,0,0,0-1.55-11.7l-1.6-5.428-9.008-30.482a51.935,51.935,0,0,0-8.917-17.6c-4.684-5.91-10.478-17.36-8.073-36.41l42.292-2.929Z" transform="translate(-895.177 -1354.239)" fill="#1a2e35"/>
      <g id="Grupo_112300" data-name="Grupo 112300" transform="translate(0 63.542)">
        <g id="Grupo_112298" data-name="Grupo 112298" transform="translate(38.866 57.497)">
          <path id="Trazado_117245" data-name="Trazado 117245" d="M938.216,1476.718s6.567-1.346,8.767-1.138c1.841.174,7.03,2.307,7.03,2.307a3.027,3.027,0,0,1,1.112,5.1s-3.607,4.623-5.41,5c-3.6.761-13.915-4.758-13.915-4.758Z" transform="translate(-934.247 -1473.572)" fill="#e67b62"/>
          <path id="Trazado_117246" data-name="Trazado 117246" d="M937.621,1473.222l-3.647,11.762,3.5.291L940.681,1475Z" transform="translate(-933.973 -1473.222)" fill="#1a2e35"/>
          <path id="Trazado_117247" data-name="Trazado 117247" d="M937.621,1473.222l-3.647,11.762,3.5.291L940.681,1475Z" transform="translate(-933.973 -1473.222)" fill="#fff" opacity="0.2"/>
        </g>
        <path id="Trazado_117248" data-name="Trazado 117248" d="M909.18,1407.069a3.8,3.8,0,0,0-6.456.755c-4.093,8.755-14.426,31.973-14.466,43.242-.05,14.053,41.252,22.371,41.252,22.371l2.5-8.076-28.421-17.46,8.175-19.261S913.793,1413.39,909.18,1407.069Z" transform="translate(-888.258 -1405.593)" fill="#084a93"/>
        <path id="Trazado_117249" data-name="Trazado 117249" d="M909.18,1407.069a3.8,3.8,0,0,0-6.456.755c-4.093,8.755-14.426,31.973-14.466,43.242-.05,14.053,41.252,22.371,41.252,22.371l2.5-8.076-28.421-17.46,8.175-19.261S913.793,1413.39,909.18,1407.069Z" transform="translate(-888.258 -1405.593)" opacity="0.1"/>
        <g id="Grupo_112299" data-name="Grupo 112299" transform="translate(14.751 2.871)" opacity="0.4">
          <path id="Trazado_117250" data-name="Trazado 117250" d="M912.622,1408.97l-4.453.611-2.56,1.836,3.052,31.154,5.7-13.425S916.126,1415.885,912.622,1408.97Z" transform="translate(-905.609 -1408.97)"/>
          <path id="Trazado_117251" data-name="Trazado 117251" d="M921.9,1464.949l-11.8-7.249,1.715,17.505c2.466.925,4.931,1.748,7.269,2.469Z" transform="translate(-906.282 -1416.271)"/>
        </g>
      </g>
      <path id="Trazado_117252" data-name="Trazado 117252" d="M975.31,1475.939s-20.334,6.653-53.641,1.267l-15.962-67.289a11.7,11.7,0,0,1,5.865-12.771c6.855-3.784,20.414-7.351,47.165-5.875a14.919,14.919,0,0,1,13.69,11.473Z" transform="translate(-890.828 -1339.855)" fill="#084a93"/>
      <g id="Grupo_112301" data-name="Grupo 112301" transform="translate(31.074 46.835)">
        <path id="Trazado_117253" data-name="Trazado 117253" d="M924.808,1393.364l2.034-4.771s8.007-4.045,21.609-2.141l3.23,3.74S936.46,1390.563,924.808,1393.364Z" transform="translate(-924.808 -1385.943)" fill="#1a2e35"/>
      </g>
      <path id="Trazado_117254" data-name="Trazado 117254" d="M961.269,1353.368c.184.758-.068,1.466-.576,1.581s-1.11-.431-1.268-1.173.069-1.467.58-1.574S961.078,1352.612,961.269,1353.368Z" transform="translate(-898.913 -1334.05)" fill="#1a2e35"/>
      <path id="Trazado_117255" data-name="Trazado 117255" d="M960.8,1356.272l5.194,5.077a5.523,5.523,0,0,1-4.69,1.483Z" transform="translate(-899.126 -1334.662)" fill="#d54c38"/>
      <path id="Trazado_117256" data-name="Trazado 117256" d="M925.9,1354.593c1.988,10.183,2.606,14.541,8.6,19.182,8.805,4.406,21.394,2.464,22.554-8.08,1.05-9.487-2.37-24.509-13.2-27.437a14.413,14.413,0,0,0-17.744,9.847A13.8,13.8,0,0,0,925.9,1354.593Z" transform="translate(-893.854 -1331.886)" fill="#e67b62"/>
      <path id="Trazado_117257" data-name="Trazado 117257" d="M957.03,1350.328a.42.42,0,0,0,.349-.178,3.188,3.188,0,0,1,2.539-1.479.4.4,0,0,0,.416-.394.432.432,0,0,0-.417-.421,3.957,3.957,0,0,0-3.235,1.827.413.413,0,0,0,.118.571h0A.46.46,0,0,0,957.03,1350.328Z" transform="translate(-898.499 -1333.401)" fill="#1a2e35"/>
      <path id="Trazado_117258" data-name="Trazado 117258" d="M983.539,1444.74l-1.36-24.646-8.81-11.661-4.822-4.465-3.716,2.6S965.346,1420.154,983.539,1444.74Z" transform="translate(-899.73 -1341.808)" opacity="0.4"/>
      <path id="Trazado_117259" data-name="Trazado 117259" d="M986.366,1408.077c4.878,8.964,6.77,14.264,8.442,16.49a1.007,1.007,0,0,0,.954.392l28.518-4.142a1.015,1.015,0,0,1,1.109.689l2.3,7.063a1.012,1.012,0,0,1-.638,1.273l-26.738,9.062a13.915,13.915,0,0,1-14.235-2.5,75.653,75.653,0,0,1-18.175-23.872c-2.053-4.058-6.82-11.561,1.008-18.162C975.4,1388.9,983.129,1402.128,986.366,1408.077Z" transform="translate(-899.692 -1340.176)" fill="#084a93"/>
      <path id="Trazado_117260" data-name="Trazado 117260" d="M986.366,1408.077c4.878,8.964,6.77,14.264,8.442,16.49a1.007,1.007,0,0,0,.954.392l28.518-4.142a1.015,1.015,0,0,1,1.109.689l2.3,7.063a1.012,1.012,0,0,1-.638,1.273l-26.738,9.062a13.915,13.915,0,0,1-14.235-2.5,75.653,75.653,0,0,1-18.175-23.872c-2.053-4.058-6.82-11.561,1.008-18.162C975.4,1388.9,983.129,1402.128,986.366,1408.077Z" transform="translate(-899.692 -1340.176)" fill="#fff" opacity="0.1"/>
      <path id="Trazado_117261" data-name="Trazado 117261" d="M1035.725,1424.289l5.881-6.906a5.034,5.034,0,0,1,2.431-1.572l13.832-4.022a1.014,1.014,0,0,1,1.187.514h0a1.013,1.013,0,0,1-.52,1.4l-5.717,2.341a1.014,1.014,0,0,0-.626,1.02l.283,3.458a5.043,5.043,0,0,1-2.937,5l-4.159,1.893-.482.19-7.136,2.4a1.013,1.013,0,0,1-1.31-.733l-.942-4.093A1.016,1.016,0,0,1,1035.725,1424.289Z" transform="translate(-910.316 -1342.974)" fill="#e67b62"/>
      <g id="Grupo_112302" data-name="Grupo 112302" transform="translate(123.628 79.011)">
        <path id="Trazado_117262" data-name="Trazado 117262" d="M1033.744,1425.38l3.524,8.893a1.014,1.014,0,0,0,1.387.537l1.169-.57a1.013,1.013,0,0,0,.5-1.282l-3.36-8.527a1.015,1.015,0,0,0-1.1-.63l-1.333.2A1.014,1.014,0,0,0,1033.744,1425.38Z" transform="translate(-1033.672 -1423.788)" fill="#1a2e35"/>
      </g>
      <g id="Grupo_112303" data-name="Grupo 112303" transform="translate(84.943 323.128)">
        <path id="Trazado_117263" data-name="Trazado 117263" d="M988.17,1713.3l1.773,4.7,13.47-2.082-.375-4.992Z" transform="translate(-988.17 -1710.925)" fill="#084a93"/>
        <path id="Trazado_117264" data-name="Trazado 117264" d="M988.17,1713.3l1.773,4.7,13.47-2.082-.375-4.992Z" transform="translate(-988.17 -1710.925)" opacity="0.2"/>
      </g>
      <g id="Grupo_112304" data-name="Grupo 112304" transform="translate(6.615 323.614)">
        <path id="Trazado_117265" data-name="Trazado 117265" d="M896.25,1711.5l-.212,4.932,13.51,1.806,1.05-4.895Z" transform="translate(-896.038 -1711.496)" fill="#084a93"/>
        <path id="Trazado_117266" data-name="Trazado 117266" d="M896.25,1711.5l-.212,4.932,13.51,1.806,1.05-4.895Z" transform="translate(-896.038 -1711.496)" opacity="0.2"/>
      </g>
      <path id="Trazado_117267" data-name="Trazado 117267" d="M932.157,1373.05s1.512-2.143,6.059.337c0,0,6.455-7.226,6.655-13.995,0,0,4.769-.882,4.369-3.963s-2.67-7.112-2.19-9.9,5.116-10.126,1.177-13.381-4.4.623-6.634,1.042-15.7.9-17.425,10.437a13.091,13.091,0,0,0-.9,16.2C929.161,1368.93,932.157,1373.05,932.157,1373.05Z" transform="translate(-893.143 -1330.854)" fill="#1a2e35"/>
      <path id="Trazado_117268" data-name="Trazado 117268" d="M949.346,1355.79l11.787-6.549s2.964,7.713,1.544,8.1-3.29-5.667-3.29-5.667l-8.393,4Z" transform="translate(-897.41 -1333.609)" fill="#084a93"/>
      <path id="Trazado_117269" data-name="Trazado 117269" d="M961.5,1352.25l.894-.531s2.434,5.451,1.766,5.932S961.5,1352.25,961.5,1352.25Z" transform="translate(-899.232 -1333.98)" fill="#fff" opacity="0.7"/>
      <path id="Trazado_117270" data-name="Trazado 117270" d="M950.187,1357.094a8.018,8.018,0,0,1,3.436,5.122c.517,2.763-2.083,3.892-4.615,2.915-2.294-.885-5.3-3.39-4.666-6.07S947.976,1355.653,950.187,1357.094Z" transform="translate(-896.648 -1334.676)" fill="#e67b62"/>
    </g>
  </g>
</svg>
