<svg xmlns="http://www.w3.org/2000/svg" width="400" height="398.772" viewBox="0 0 400 398.772">
  <g id="Grupo_113830" data-name="Grupo 113830" transform="translate(-180 -7047.938)">
    <g id="Grupo_112906" data-name="Grupo 112906" transform="translate(486.336 7047.938)">
      <g id="Grupo_112873" data-name="Grupo 112873" transform="translate(16.977)">
        <g id="Grupo_112872" data-name="Grupo 112872">
          <path id="Trazado_117542" data-name="Trazado 117542" d="M2294.5,2028.139h-47.678a6.02,6.02,0,0,1-6.014-6.014v-89.172a6.02,6.02,0,0,1,6.014-6.014H2294.5a6.019,6.019,0,0,1,6.013,6.014v89.172A6.02,6.02,0,0,1,2294.5,2028.139Zm-47.678-98.71a3.527,3.527,0,0,0-3.524,3.523v89.172a3.528,3.528,0,0,0,3.524,3.524H2294.5a3.528,3.528,0,0,0,3.523-3.524v-89.172a3.527,3.527,0,0,0-3.523-3.523Z" transform="translate(-2240.805 -1926.938)" fill="#00003e"/>
        </g>
      </g>
      <g id="Grupo_112875" data-name="Grupo 112875" transform="translate(54.001 81.736)">
        <g id="Grupo_112874" data-name="Grupo 112874">
          <path id="Trazado_117543" data-name="Trazado 117543" d="M2280.275,2013.121a4.617,4.617,0,1,1,4.618-4.617A4.621,4.621,0,0,1,2280.275,2013.121Zm0-6.743a2.126,2.126,0,1,0,2.128,2.125A2.127,2.127,0,0,0,2280.275,2006.378Z" transform="translate(-2275.66 -2003.887)" fill="#00003e"/>
        </g>
      </g>
      <g id="Grupo_112882" data-name="Grupo 112882" transform="translate(36.454 13.742)">
        <g id="Grupo_112877" data-name="Grupo 112877">
          <g id="Grupo_112876" data-name="Grupo 112876">
            <path id="Trazado_117544" data-name="Trazado 117544" d="M2262.9,1941.754a1.879,1.879,0,1,1-1.879-1.879A1.879,1.879,0,0,1,2262.9,1941.754Z" transform="translate(-2259.141 -1939.875)" fill="#00003e"/>
          </g>
        </g>
        <g id="Grupo_112879" data-name="Grupo 112879" transform="translate(7.942)">
          <g id="Grupo_112878" data-name="Grupo 112878">
            <path id="Trazado_117545" data-name="Trazado 117545" d="M2270.376,1941.754a1.879,1.879,0,1,1-1.879-1.879A1.88,1.88,0,0,1,2270.376,1941.754Z" transform="translate(-2266.618 -1939.875)" fill="#00003e"/>
          </g>
        </g>
        <g id="Grupo_112881" data-name="Grupo 112881" transform="translate(15.883)">
          <g id="Grupo_112880" data-name="Grupo 112880">
            <path id="Trazado_117546" data-name="Trazado 117546" d="M2277.852,1941.754a1.879,1.879,0,1,1-1.879-1.879A1.879,1.879,0,0,1,2277.852,1941.754Z" transform="translate(-2274.094 -1939.875)" fill="#00003e"/>
          </g>
        </g>
      </g>
      <g id="Grupo_112895" data-name="Grupo 112895" transform="translate(32.978 24.6)">
        <g id="Grupo_112884" data-name="Grupo 112884">
          <g id="Grupo_112883" data-name="Grupo 112883">
            <path id="Trazado_117547" data-name="Trazado 117547" d="M2282.329,1952.587h-25.215a1.245,1.245,0,0,1,0-2.49h25.215a1.245,1.245,0,0,1,0,2.49Z" transform="translate(-2255.869 -1950.097)" fill="#00003e"/>
          </g>
        </g>
        <g id="Grupo_112886" data-name="Grupo 112886" transform="translate(0 9.738)">
          <g id="Grupo_112885" data-name="Grupo 112885">
            <path id="Trazado_117548" data-name="Trazado 117548" d="M2282.329,1961.755h-25.215a1.245,1.245,0,0,1,0-2.49h25.215a1.245,1.245,0,0,1,0,2.49Z" transform="translate(-2255.869 -1959.265)" fill="#00003e"/>
          </g>
        </g>
        <g id="Grupo_112888" data-name="Grupo 112888" transform="translate(0 19.48)">
          <g id="Grupo_112887" data-name="Grupo 112887">
            <path id="Trazado_117549" data-name="Trazado 117549" d="M2282.329,1970.926h-25.215a1.245,1.245,0,0,1,0-2.49h25.215a1.245,1.245,0,0,1,0,2.49Z" transform="translate(-2255.869 -1968.436)" fill="#00003e"/>
          </g>
        </g>
        <g id="Grupo_112890" data-name="Grupo 112890" transform="translate(0 29.218)">
          <g id="Grupo_112889" data-name="Grupo 112889">
            <path id="Trazado_117550" data-name="Trazado 117550" d="M2282.329,1980.095h-25.215a1.245,1.245,0,0,1,0-2.491h25.215a1.245,1.245,0,0,1,0,2.491Z" transform="translate(-2255.869 -1977.604)" fill="#00003e"/>
          </g>
        </g>
        <g id="Grupo_112892" data-name="Grupo 112892" transform="translate(0 38.96)">
          <g id="Grupo_112891" data-name="Grupo 112891">
            <path id="Trazado_117551" data-name="Trazado 117551" d="M2282.329,1989.265h-25.215a1.245,1.245,0,1,1,0-2.49h25.215a1.245,1.245,0,0,1,0,2.49Z" transform="translate(-2255.869 -1986.775)" fill="#00003e"/>
          </g>
        </g>
        <g id="Grupo_112894" data-name="Grupo 112894" transform="translate(0 48.699)">
          <g id="Grupo_112893" data-name="Grupo 112893">
            <path id="Trazado_117552" data-name="Trazado 117552" d="M2282.329,1998.434h-25.215a1.245,1.245,0,0,1,0-2.49h25.215a1.245,1.245,0,0,1,0,2.49Z" transform="translate(-2255.869 -1995.944)" fill="#00003e"/>
          </g>
        </g>
      </g>
      <g id="Grupo_112900" data-name="Grupo 112900" transform="translate(0 12.888)">
        <g id="Grupo_112897" data-name="Grupo 112897">
          <g id="Grupo_112896" data-name="Grupo 112896">
            <path id="Trazado_117553" data-name="Trazado 117553" d="M2241.562,2017.846h-12.316a4.428,4.428,0,0,1-4.423-4.423V1943.5a4.428,4.428,0,0,1,4.423-4.424h12.912a1.245,1.245,0,0,1,0,2.491h-12.912a1.936,1.936,0,0,0-1.933,1.933v69.928a1.936,1.936,0,0,0,1.933,1.933h12.316a1.245,1.245,0,0,1,0,2.49Z" transform="translate(-2224.822 -1939.071)" fill="#00003e"/>
          </g>
        </g>
        <g id="Grupo_112899" data-name="Grupo 112899" transform="translate(6.824 11.79)">
          <g id="Grupo_112898" data-name="Grupo 112898">
            <path id="Trazado_117554" data-name="Trazado 117554" d="M2235,1952.049a1.878,1.878,0,1,1-1.879-1.879A1.878,1.878,0,0,1,2235,1952.049Z" transform="translate(-2231.246 -1950.17)" fill="#00003e"/>
          </g>
        </g>
      </g>
      <g id="Grupo_112905" data-name="Grupo 112905" transform="translate(75.08 12.888)">
        <g id="Grupo_112902" data-name="Grupo 112902">
          <g id="Grupo_112901" data-name="Grupo 112901">
            <path id="Trazado_117555" data-name="Trazado 117555" d="M2309.665,2017.846h-12.319a1.245,1.245,0,1,1,0-2.49h12.319a1.936,1.936,0,0,0,1.933-1.933V1943.5a1.936,1.936,0,0,0-1.933-1.933H2296.75a1.245,1.245,0,0,1,0-2.491h12.915a4.428,4.428,0,0,1,4.423,4.424v69.928A4.428,4.428,0,0,1,2309.665,2017.846Z" transform="translate(-2295.505 -1939.071)" fill="#00003e"/>
          </g>
        </g>
        <g id="Grupo_112904" data-name="Grupo 112904" transform="translate(8.001 11.79)">
          <g id="Grupo_112903" data-name="Grupo 112903">
            <path id="Trazado_117556" data-name="Trazado 117556" d="M2303.037,1952.049a1.879,1.879,0,1,0,1.879-1.879A1.878,1.878,0,0,0,2303.037,1952.049Z" transform="translate(-2303.037 -1950.17)" fill="#00003e"/>
          </g>
        </g>
      </g>
    </g>
    <g id="Grupo_112908" data-name="Grupo 112908" transform="translate(208.584 7078.337)">
      <g id="Grupo_112907" data-name="Grupo 112907">
        <rect id="Rectángulo_293520" data-name="Rectángulo 293520" width="260.478" height="260.478" rx="10" transform="translate(0 184.186) rotate(-45)" fill="#b9ddfc"/>
      </g>
    </g>
    <g id="Grupo_112915" data-name="Grupo 112915" transform="translate(498.92 7311.347)">
      <g id="Grupo_112910" data-name="Grupo 112910" transform="translate(4.572)">
        <g id="Grupo_112909" data-name="Grupo 112909">
          <path id="Trazado_117557" data-name="Trazado 117557" d="M2264.254,2195.433a1.244,1.244,0,0,1-1.245-1.245v-7.008a9.773,9.773,0,0,0-19.546,0v7.008a1.245,1.245,0,0,1-2.49,0v-7.008a12.263,12.263,0,0,1,24.525,0v7.008A1.244,1.244,0,0,1,2264.254,2195.433Z" transform="translate(-2240.973 -2174.919)" fill="#00003e"/>
        </g>
      </g>
      <g id="Grupo_112912" data-name="Grupo 112912" transform="translate(0 18.552)">
        <g id="Grupo_112911" data-name="Grupo 112911">
          <path id="Trazado_117558" data-name="Trazado 117558" d="M2263.616,2222.126h-20.723a6.231,6.231,0,0,1-6.225-6.226v-17.292a6.231,6.231,0,0,1,6.225-6.225h20.723a6.231,6.231,0,0,1,6.225,6.225V2215.9A6.231,6.231,0,0,1,2263.616,2222.126Zm-20.723-27.252a3.739,3.739,0,0,0-3.735,3.735V2215.9a3.74,3.74,0,0,0,3.735,3.736h20.723a3.74,3.74,0,0,0,3.736-3.736v-17.292a3.739,3.739,0,0,0-3.736-3.735Z" transform="translate(-2236.669 -2192.384)" fill="#00003e"/>
        </g>
      </g>
      <g id="Grupo_112914" data-name="Grupo 112914" transform="translate(12.596 29.433)">
        <g id="Grupo_112913" data-name="Grupo 112913">
          <path id="Trazado_117559" data-name="Trazado 117559" d="M2252.518,2210.61a3.991,3.991,0,1,1,3.991-3.991A3.995,3.995,0,0,1,2252.518,2210.61Zm0-5.492a1.5,1.5,0,1,0,1.5,1.5A1.5,1.5,0,0,0,2252.518,2205.118Z" transform="translate(-2248.527 -2202.628)" fill="#00003e"/>
        </g>
      </g>
    </g>
    <g id="Grupo_112917" data-name="Grupo 112917" transform="translate(219.284 7272.495)">
      <g id="Grupo_112916" data-name="Grupo 112916">
        <path id="Trazado_117560" data-name="Trazado 117560" d="M2036.556,2140.834h-12.1a1.245,1.245,0,0,1,0-2.491h12.1a1.245,1.245,0,0,1,0,2.491Zm-24.548,0h-12.45a1.245,1.245,0,0,1,0-2.491h12.45a1.245,1.245,0,0,1,0,2.491Zm-24.9,0h-12.45a1.245,1.245,0,0,1,0-2.491h12.45a1.245,1.245,0,0,1,0,2.491Z" transform="translate(-1973.412 -2138.343)" fill="#00003e"/>
      </g>
    </g>
    <g id="Grupo_112924" data-name="Grupo 112924" transform="translate(420.687 7059.989)">
      <g id="Grupo_112919" data-name="Grupo 112919" transform="translate(21.567 18.352)">
        <g id="Grupo_112918" data-name="Grupo 112918">
          <path id="Trazado_117561" data-name="Trazado 117561" d="M2194.226,1964.794a1.24,1.24,0,0,1-.713-.223l-9.659-6.743a1.245,1.245,0,0,1,1.426-2.042l9.659,6.743a1.245,1.245,0,0,1-.713,2.266Z" transform="translate(-2183.322 -1955.561)" fill="#00003e"/>
        </g>
      </g>
      <g id="Grupo_112921" data-name="Grupo 112921" transform="translate(15.612)">
        <g id="Grupo_112920" data-name="Grupo 112920">
          <path id="Trazado_117562" data-name="Trazado 117562" d="M2178.961,1951.155a1.245,1.245,0,0,1-1.246-1.245v-10.381a1.245,1.245,0,0,1,2.491,0v10.381A1.244,1.244,0,0,1,2178.961,1951.155Z" transform="translate(-2177.715 -1938.284)" fill="#00003e"/>
        </g>
      </g>
      <g id="Grupo_112923" data-name="Grupo 112923" transform="translate(0 18.352)">
        <g id="Grupo_112922" data-name="Grupo 112922">
          <path id="Trazado_117563" data-name="Trazado 117563" d="M2164.263,1964.794a1.245,1.245,0,0,1-.711-2.266l9.659-6.743a1.245,1.245,0,1,1,1.425,2.042l-9.659,6.743A1.24,1.24,0,0,1,2164.263,1964.794Z" transform="translate(-2163.018 -1955.561)" fill="#00003e"/>
        </g>
      </g>
    </g>
    <g id="Grupo_112967" data-name="Grupo 112967" transform="translate(227.625 7127.588)">
      <g id="Grupo_112926" data-name="Grupo 112926" transform="translate(17.384 16.563)">
        <g id="Grupo_112925" data-name="Grupo 112925">
          <path id="Trazado_117564" data-name="Trazado 117564" d="M2032.668,2057.053h-31.3a3.739,3.739,0,0,1-3.735-3.735v-32.067a3.739,3.739,0,0,1,3.735-3.735h31.3a3.738,3.738,0,0,1,3.735,3.735v32.067A3.739,3.739,0,0,1,2032.668,2057.053Zm-31.3-37.047a1.247,1.247,0,0,0-1.245,1.245v32.067a1.248,1.248,0,0,0,1.245,1.245h31.3a1.247,1.247,0,0,0,1.245-1.245v-32.067a1.247,1.247,0,0,0-1.245-1.245Z" transform="translate(-1997.63 -2017.516)" fill="#00003e"/>
        </g>
      </g>
      <g id="Grupo_112928" data-name="Grupo 112928" transform="translate(30.598 23.087)">
        <g id="Grupo_112927" data-name="Grupo 112927">
          <path id="Trazado_117565" data-name="Trazado 117565" d="M2016.159,2035.839a6.09,6.09,0,1,1,6.092-6.092A6.1,6.1,0,0,1,2016.159,2035.839Zm0-9.691a3.6,3.6,0,1,0,3.6,3.6A3.6,3.6,0,0,0,2016.159,2026.148Z" transform="translate(-2010.07 -2023.658)" fill="#00003e"/>
        </g>
      </g>
      <g id="Grupo_112930" data-name="Grupo 112930" transform="translate(22.335 40.866)">
        <g id="Grupo_112929" data-name="Grupo 112929">
          <path id="Trazado_117566" data-name="Trazado 117566" d="M2029.749,2042.885h-26.213a1.245,1.245,0,1,1,0-2.49h26.213a1.245,1.245,0,1,1,0,2.49Z" transform="translate(-2002.291 -2040.395)" fill="#00003e"/>
        </g>
      </g>
      <g id="Grupo_112932" data-name="Grupo 112932" transform="translate(25.049 46.752)">
        <g id="Grupo_112931" data-name="Grupo 112931">
          <path id="Trazado_117567" data-name="Trazado 117567" d="M2026.878,2048.427h-20.787a1.245,1.245,0,0,1,0-2.49h20.787a1.245,1.245,0,0,1,0,2.49Z" transform="translate(-2004.846 -2045.937)" fill="#00003e"/>
        </g>
      </g>
      <g id="Grupo_112934" data-name="Grupo 112934" transform="translate(7.635 7.636)">
        <g id="Grupo_112933" data-name="Grupo 112933">
          <path id="Trazado_117568" data-name="Trazado 117568" d="M2040.5,2066.5h-45.821a6.231,6.231,0,0,1-6.226-6.226v-44.94a6.231,6.231,0,0,1,6.226-6.225H2040.5a6.231,6.231,0,0,1,6.225,6.225v44.94A6.231,6.231,0,0,1,2040.5,2066.5Zm-45.821-54.9a3.739,3.739,0,0,0-3.735,3.735v44.94a3.74,3.74,0,0,0,3.735,3.736H2040.5a3.74,3.74,0,0,0,3.735-3.736v-44.94a3.739,3.739,0,0,0-3.735-3.735Z" transform="translate(-1988.452 -2009.112)" fill="#00003e"/>
        </g>
      </g>
      <g id="Grupo_112942" data-name="Grupo 112942" transform="translate(11.485)">
        <g id="Grupo_112935" data-name="Grupo 112935">
          <path id="Trazado_117569" data-name="Trazado 117569" d="M1993.321,2012.049a1.244,1.244,0,0,1-1.245-1.245v-7.635a1.245,1.245,0,1,1,2.49,0v7.635A1.244,1.244,0,0,1,1993.321,2012.049Z" transform="translate(-1992.076 -2001.923)" fill="#00003e"/>
        </g>
        <g id="Grupo_112936" data-name="Grupo 112936" transform="translate(7.91)">
          <path id="Trazado_117570" data-name="Trazado 117570" d="M2000.768,2012.049a1.244,1.244,0,0,1-1.245-1.245v-7.635a1.245,1.245,0,1,1,2.491,0v7.635A1.245,1.245,0,0,1,2000.768,2012.049Z" transform="translate(-1999.523 -2001.923)" fill="#00003e"/>
        </g>
        <g id="Grupo_112937" data-name="Grupo 112937" transform="translate(15.821)">
          <path id="Trazado_117571" data-name="Trazado 117571" d="M2008.215,2012.049a1.245,1.245,0,0,1-1.245-1.245v-7.635a1.245,1.245,0,1,1,2.49,0v7.635A1.244,1.244,0,0,1,2008.215,2012.049Z" transform="translate(-2006.97 -2001.923)" fill="#00003e"/>
        </g>
        <g id="Grupo_112938" data-name="Grupo 112938" transform="translate(23.731)">
          <path id="Trazado_117572" data-name="Trazado 117572" d="M2015.662,2012.049a1.244,1.244,0,0,1-1.245-1.245v-7.635a1.245,1.245,0,1,1,2.49,0v7.635A1.244,1.244,0,0,1,2015.662,2012.049Z" transform="translate(-2014.417 -2001.923)" fill="#00003e"/>
        </g>
        <g id="Grupo_112939" data-name="Grupo 112939" transform="translate(31.641)">
          <path id="Trazado_117573" data-name="Trazado 117573" d="M2023.109,2012.049a1.245,1.245,0,0,1-1.245-1.245v-7.635a1.245,1.245,0,1,1,2.49,0v7.635A1.244,1.244,0,0,1,2023.109,2012.049Z" transform="translate(-2021.864 -2001.923)" fill="#00003e"/>
        </g>
        <g id="Grupo_112940" data-name="Grupo 112940" transform="translate(39.549)">
          <path id="Trazado_117574" data-name="Trazado 117574" d="M2030.554,2012.049a1.244,1.244,0,0,1-1.245-1.245v-7.635a1.245,1.245,0,1,1,2.49,0v7.635A1.244,1.244,0,0,1,2030.554,2012.049Z" transform="translate(-2029.309 -2001.923)" fill="#00003e"/>
        </g>
        <g id="Grupo_112941" data-name="Grupo 112941" transform="translate(47.46)">
          <path id="Trazado_117575" data-name="Trazado 117575" d="M2038,2012.049a1.244,1.244,0,0,1-1.245-1.245v-7.635a1.245,1.245,0,1,1,2.49,0v7.635A1.244,1.244,0,0,1,2038,2012.049Z" transform="translate(-2036.756 -2001.923)" fill="#00003e"/>
        </g>
      </g>
      <g id="Grupo_112950" data-name="Grupo 112950" transform="translate(63.927 10.856)">
        <g id="Grupo_112943" data-name="Grupo 112943">
          <path id="Trazado_117576" data-name="Trazado 117576" d="M2050.327,2014.633h-7.635a1.245,1.245,0,0,1,0-2.49h7.635a1.245,1.245,0,1,1,0,2.49Z" transform="translate(-2041.447 -2012.143)" fill="#00003e"/>
        </g>
        <g id="Grupo_112944" data-name="Grupo 112944" transform="translate(0 7.91)">
          <path id="Trazado_117577" data-name="Trazado 117577" d="M2050.327,2022.08h-7.635a1.245,1.245,0,0,1,0-2.49h7.635a1.245,1.245,0,1,1,0,2.49Z" transform="translate(-2041.447 -2019.59)" fill="#00003e"/>
        </g>
        <g id="Grupo_112945" data-name="Grupo 112945" transform="translate(0 15.821)">
          <path id="Trazado_117578" data-name="Trazado 117578" d="M2050.327,2029.527h-7.635a1.245,1.245,0,0,1,0-2.49h7.635a1.245,1.245,0,1,1,0,2.49Z" transform="translate(-2041.447 -2027.037)" fill="#00003e"/>
        </g>
        <g id="Grupo_112946" data-name="Grupo 112946" transform="translate(0 23.728)">
          <path id="Trazado_117579" data-name="Trazado 117579" d="M2050.327,2036.972h-7.635a1.245,1.245,0,0,1,0-2.491h7.635a1.245,1.245,0,0,1,0,2.491Z" transform="translate(-2041.447 -2034.481)" fill="#00003e"/>
        </g>
        <g id="Grupo_112947" data-name="Grupo 112947" transform="translate(0 31.638)">
          <path id="Trazado_117580" data-name="Trazado 117580" d="M2050.327,2044.419h-7.635a1.245,1.245,0,0,1,0-2.491h7.635a1.245,1.245,0,0,1,0,2.491Z" transform="translate(-2041.447 -2041.928)" fill="#00003e"/>
        </g>
        <g id="Grupo_112948" data-name="Grupo 112948" transform="translate(0 39.548)">
          <path id="Trazado_117581" data-name="Trazado 117581" d="M2050.327,2051.865h-7.635a1.245,1.245,0,0,1,0-2.49h7.635a1.245,1.245,0,1,1,0,2.49Z" transform="translate(-2041.447 -2049.375)" fill="#00003e"/>
        </g>
        <g id="Grupo_112949" data-name="Grupo 112949" transform="translate(0 47.459)">
          <path id="Trazado_117582" data-name="Trazado 117582" d="M2050.327,2059.313h-7.635a1.245,1.245,0,0,1,0-2.491h7.635a1.245,1.245,0,0,1,0,2.491Z" transform="translate(-2041.447 -2056.822)" fill="#00003e"/>
        </g>
      </g>
      <g id="Grupo_112958" data-name="Grupo 112958" transform="translate(12.757 62.537)">
        <g id="Grupo_112951" data-name="Grupo 112951" transform="translate(47.459)">
          <path id="Trazado_117583" data-name="Trazado 117583" d="M2039.2,2070.922a1.245,1.245,0,0,1-1.245-1.245v-7.635a1.245,1.245,0,1,1,2.49,0v7.635A1.244,1.244,0,0,1,2039.2,2070.922Z" transform="translate(-2037.953 -2060.797)" fill="#00003e"/>
        </g>
        <g id="Grupo_112952" data-name="Grupo 112952" transform="translate(39.548)">
          <path id="Trazado_117584" data-name="Trazado 117584" d="M2031.751,2070.922a1.244,1.244,0,0,1-1.245-1.245v-7.635a1.245,1.245,0,0,1,2.491,0v7.635A1.245,1.245,0,0,1,2031.751,2070.922Z" transform="translate(-2030.506 -2060.797)" fill="#00003e"/>
        </g>
        <g id="Grupo_112953" data-name="Grupo 112953" transform="translate(31.638)">
          <path id="Trazado_117585" data-name="Trazado 117585" d="M2024.3,2070.922a1.244,1.244,0,0,1-1.245-1.245v-7.635a1.245,1.245,0,0,1,2.49,0v7.635A1.244,1.244,0,0,1,2024.3,2070.922Z" transform="translate(-2023.059 -2060.797)" fill="#00003e"/>
        </g>
        <g id="Grupo_112954" data-name="Grupo 112954" transform="translate(23.728)">
          <path id="Trazado_117586" data-name="Trazado 117586" d="M2016.857,2070.922a1.245,1.245,0,0,1-1.245-1.245v-7.635a1.245,1.245,0,0,1,2.491,0v7.635A1.245,1.245,0,0,1,2016.857,2070.922Z" transform="translate(-2015.612 -2060.797)" fill="#00003e"/>
        </g>
        <g id="Grupo_112955" data-name="Grupo 112955" transform="translate(15.821)">
          <path id="Trazado_117587" data-name="Trazado 117587" d="M2009.413,2070.922a1.244,1.244,0,0,1-1.245-1.245v-7.635a1.245,1.245,0,0,1,2.49,0v7.635A1.245,1.245,0,0,1,2009.413,2070.922Z" transform="translate(-2008.168 -2060.797)" fill="#00003e"/>
        </g>
        <g id="Grupo_112956" data-name="Grupo 112956" transform="translate(7.91)">
          <path id="Trazado_117588" data-name="Trazado 117588" d="M2001.966,2070.922a1.244,1.244,0,0,1-1.245-1.245v-7.635a1.245,1.245,0,1,1,2.49,0v7.635A1.244,1.244,0,0,1,2001.966,2070.922Z" transform="translate(-2000.721 -2060.797)" fill="#00003e"/>
        </g>
        <g id="Grupo_112957" data-name="Grupo 112957">
          <path id="Trazado_117589" data-name="Trazado 117589" d="M1994.519,2070.922a1.244,1.244,0,0,1-1.245-1.245v-7.635a1.245,1.245,0,0,1,2.49,0v7.635A1.245,1.245,0,0,1,1994.519,2070.922Z" transform="translate(-1993.274 -2060.797)" fill="#00003e"/>
        </g>
      </g>
      <g id="Grupo_112966" data-name="Grupo 112966" transform="translate(0 10.856)">
        <g id="Grupo_112959" data-name="Grupo 112959" transform="translate(0 47.459)">
          <path id="Trazado_117590" data-name="Trazado 117590" d="M1990.144,2059.313h-7.635a1.245,1.245,0,0,1,0-2.491h7.635a1.245,1.245,0,1,1,0,2.491Z" transform="translate(-1981.264 -2056.822)" fill="#00003e"/>
        </g>
        <g id="Grupo_112960" data-name="Grupo 112960" transform="translate(0 39.548)">
          <path id="Trazado_117591" data-name="Trazado 117591" d="M1990.144,2051.865h-7.635a1.245,1.245,0,0,1,0-2.49h7.635a1.245,1.245,0,1,1,0,2.49Z" transform="translate(-1981.264 -2049.375)" fill="#00003e"/>
        </g>
        <g id="Grupo_112961" data-name="Grupo 112961" transform="translate(0 31.638)">
          <path id="Trazado_117592" data-name="Trazado 117592" d="M1990.144,2044.419h-7.635a1.245,1.245,0,0,1,0-2.491h7.635a1.245,1.245,0,1,1,0,2.491Z" transform="translate(-1981.264 -2041.928)" fill="#00003e"/>
        </g>
        <g id="Grupo_112962" data-name="Grupo 112962" transform="translate(0 23.728)">
          <path id="Trazado_117593" data-name="Trazado 117593" d="M1990.144,2036.972h-7.635a1.245,1.245,0,0,1,0-2.491h7.635a1.245,1.245,0,1,1,0,2.491Z" transform="translate(-1981.264 -2034.481)" fill="#00003e"/>
        </g>
        <g id="Grupo_112963" data-name="Grupo 112963" transform="translate(0 15.821)">
          <path id="Trazado_117594" data-name="Trazado 117594" d="M1990.144,2029.527h-7.635a1.245,1.245,0,0,1,0-2.49h7.635a1.245,1.245,0,1,1,0,2.49Z" transform="translate(-1981.264 -2027.037)" fill="#00003e"/>
        </g>
        <g id="Grupo_112964" data-name="Grupo 112964" transform="translate(0 7.91)">
          <path id="Trazado_117595" data-name="Trazado 117595" d="M1990.144,2022.08h-7.635a1.245,1.245,0,0,1,0-2.49h7.635a1.245,1.245,0,1,1,0,2.49Z" transform="translate(-1981.264 -2019.59)" fill="#00003e"/>
        </g>
        <g id="Grupo_112965" data-name="Grupo 112965">
          <path id="Trazado_117596" data-name="Trazado 117596" d="M1990.144,2014.633h-7.635a1.245,1.245,0,0,1,0-2.49h7.635a1.245,1.245,0,1,1,0,2.49Z" transform="translate(-1981.264 -2012.143)" fill="#00003e"/>
        </g>
      </g>
    </g>
    <g id="Grupo_112969" data-name="Grupo 112969" transform="translate(181.7 7260.6)">
      <g id="Grupo_112968" data-name="Grupo 112968">
        <path id="Trazado_117597" data-name="Trazado 117597" d="M1999.762,2129.634h-60.488a1.245,1.245,0,1,1,0-2.49h60.488a1.245,1.245,0,1,1,0,2.49Z" transform="translate(-1938.029 -2127.144)" fill="#00003e"/>
      </g>
    </g>
    <g id="Grupo_112971" data-name="Grupo 112971" transform="translate(383.687 7103.371)">
      <g id="Grupo_112970" data-name="Grupo 112970">
        <path id="Trazado_117598" data-name="Trazado 117598" d="M2189.916,1981.615H2129.43a1.245,1.245,0,0,1,0-2.49h60.486a1.245,1.245,0,1,1,0,2.49Z" transform="translate(-2128.185 -1979.125)" fill="#00003e"/>
      </g>
    </g>
    <g id="Grupo_112973" data-name="Grupo 112973" transform="translate(430.656 7115.78)">
      <g id="Grupo_112972" data-name="Grupo 112972">
        <path id="Trazado_117599" data-name="Trazado 117599" d="M2200.68,1993.3h-27.03a1.245,1.245,0,1,1,0-2.49h27.03a1.245,1.245,0,1,1,0,2.49Z" transform="translate(-2172.404 -1990.807)" fill="#00003e"/>
      </g>
    </g>
    <g id="Grupo_112982" data-name="Grupo 112982" transform="translate(213.171 7373.107)">
      <g id="Grupo_112975" data-name="Grupo 112975" transform="translate(0 7.431)">
        <g id="Grupo_112974" data-name="Grupo 112974">
          <path id="Trazado_117600" data-name="Trazado 117600" d="M2052.343,2260.26H1972.08a4.428,4.428,0,0,1-4.423-4.421v-11.358a4.535,4.535,0,0,1,.077-.8,4.42,4.42,0,0,1,4.346-3.623h80.263a4.451,4.451,0,0,1,4.342,3.621l0,0a4.63,4.63,0,0,1,.078.8v11.358A4.428,4.428,0,0,1,2052.343,2260.26Zm-80.263-17.712a1.928,1.928,0,0,0-1.9,1.584,1.858,1.858,0,0,0-.038.349v11.358a1.934,1.934,0,0,0,1.933,1.931h80.263a1.935,1.935,0,0,0,1.933-1.931v-11.358a1.845,1.845,0,0,0-.039-.353,1.965,1.965,0,0,0-1.894-1.58Zm71.672,11.286a4.467,4.467,0,1,1,4.466-4.468A4.473,4.473,0,0,1,2043.752,2253.834Zm0-6.445a1.977,1.977,0,1,0,1.977,1.977A1.981,1.981,0,0,0,2043.752,2247.389Z" transform="translate(-1967.657 -2240.058)" fill="#00003e"/>
        </g>
      </g>
      <g id="Grupo_112977" data-name="Grupo 112977" transform="translate(0.006)">
        <g id="Grupo_112976" data-name="Grupo 112976">
          <path id="Trazado_117601" data-name="Trazado 117601" d="M1968.96,2245.585a1.3,1.3,0,0,1-1.039-.516,1.255,1.255,0,0,1-.2-1.121l3.32-10.031a1.245,1.245,0,0,1,2.364.783l-3.235,9.77A1.214,1.214,0,0,1,1968.96,2245.585Z" transform="translate(-1967.663 -2233.062)" fill="#00003e"/>
        </g>
      </g>
      <g id="Grupo_112979" data-name="Grupo 112979" transform="translate(83.771 0)">
        <g id="Grupo_112978" data-name="Grupo 112978">
          <path id="Trazado_117602" data-name="Trazado 117602" d="M2050.615,2245.585a1.249,1.249,0,0,1-1.2-.905l-2.847-10.031a1.246,1.246,0,1,1,2.4-.681l2.847,10.031a1.247,1.247,0,0,1-.858,1.539A1.278,1.278,0,0,1,2050.615,2245.585Z" transform="translate(-2046.521 -2233.062)" fill="#00003e"/>
        </g>
      </g>
      <g id="Grupo_112981" data-name="Grupo 112981" transform="translate(71.627 12.273)">
        <g id="Grupo_112980" data-name="Grupo 112980">
          <path id="Trazado_117603" data-name="Trazado 117603" d="M2039.557,2253.55a4.467,4.467,0,1,1,4.467-4.468A4.473,4.473,0,0,1,2039.557,2253.55Zm0-6.445a1.977,1.977,0,1,0,1.977,1.977A1.981,1.981,0,0,0,2039.557,2247.106Z" transform="translate(-2035.089 -2244.616)" fill="#00003e"/>
        </g>
      </g>
    </g>
    <g id="Grupo_112991" data-name="Grupo 112991" transform="translate(213.171 7324.208)">
      <g id="Grupo_112984" data-name="Grupo 112984" transform="translate(0 31.002)">
        <g id="Grupo_112983" data-name="Grupo 112983">
          <path id="Trazado_117604" data-name="Trazado 117604" d="M2052.343,2236.415H1972.08a4.428,4.428,0,0,1-4.423-4.423v-11.358a4.522,4.522,0,0,1,.077-.8,4.42,4.42,0,0,1,4.346-3.621h80.263a4.443,4.443,0,0,1,4.342,3.618l0,0a4.616,4.616,0,0,1,.078.8v11.358A4.428,4.428,0,0,1,2052.343,2236.415ZM1972.08,2218.7a1.926,1.926,0,0,0-1.9,1.581,1.876,1.876,0,0,0-.038.351v11.358a1.936,1.936,0,0,0,1.933,1.933h80.263a1.937,1.937,0,0,0,1.933-1.933v-11.358a1.834,1.834,0,0,0-.039-.353,1.96,1.96,0,0,0-1.894-1.579Zm71.672,11.283a4.467,4.467,0,1,1,4.466-4.467A4.472,4.472,0,0,1,2043.752,2229.986Zm0-6.443a1.977,1.977,0,1,0,1.977,1.977A1.98,1.98,0,0,0,2043.752,2223.542Z" transform="translate(-1967.657 -2216.213)" fill="#00003e"/>
        </g>
      </g>
      <g id="Grupo_112986" data-name="Grupo 112986" transform="translate(0.006)">
        <g id="Grupo_112985" data-name="Grupo 112985">
          <path id="Trazado_117605" data-name="Trazado 117605" d="M2055.521,2223.118a1.248,1.248,0,0,1-1.2-.9l-8.878-31.292a1.941,1.941,0,0,0-1.86-1.405H1982.32a1.928,1.928,0,0,0-1.835,1.325l-10.316,31.165a1.214,1.214,0,0,1-1.208,1.111,1.3,1.3,0,0,1-1.039-.515,1.255,1.255,0,0,1-.2-1.121l10.4-31.422a4.416,4.416,0,0,1,4.2-3.033h61.264a4.442,4.442,0,0,1,4.255,3.214l8.88,31.292a1.248,1.248,0,0,1-.858,1.539A1.266,1.266,0,0,1,2055.521,2223.118Z" transform="translate(-1967.663 -2187.027)" fill="#00003e"/>
        </g>
      </g>
      <g id="Grupo_112988" data-name="Grupo 112988" transform="translate(71.627 35.84)">
        <g id="Grupo_112987" data-name="Grupo 112987">
          <path id="Trazado_117606" data-name="Trazado 117606" d="M2039.557,2229.7a4.467,4.467,0,1,1,4.467-4.466A4.472,4.472,0,0,1,2039.557,2229.7Zm0-6.443a1.977,1.977,0,1,0,1.977,1.977A1.98,1.98,0,0,0,2039.557,2223.259Z" transform="translate(-2035.089 -2220.768)" fill="#00003e"/>
        </g>
      </g>
      <g id="Grupo_112990" data-name="Grupo 112990" transform="translate(29.258 10.15)">
        <g id="Grupo_112989" data-name="Grupo 112989">
          <path id="Trazado_117607" data-name="Trazado 117607" d="M2012.977,2210.682c-8.834,0-17.776-2.439-17.776-7.1,0-9.328,35.549-9.328,35.549,0C2030.75,2208.243,2021.808,2210.682,2012.977,2210.682Zm0-11.719c-9.331,0-15.286,2.733-15.286,4.615s5.956,4.612,15.286,4.612,15.283-2.733,15.283-4.612S2022.308,2198.963,2012.977,2198.963Z" transform="translate(-1995.201 -2196.583)" fill="#00003e"/>
        </g>
      </g>
    </g>
    <g id="Grupo_112993" data-name="Grupo 112993" transform="translate(302.197 7108.715)">
      <g id="Grupo_112992" data-name="Grupo 112992">
        <path id="Trazado_117608" data-name="Trazado 117608" d="M2058.232,1997.681a6.763,6.763,0,1,1,6.762-6.762A6.772,6.772,0,0,1,2058.232,1997.681Zm0-11.034a4.272,4.272,0,1,0,4.272,4.272A4.277,4.277,0,0,0,2058.232,1986.647Z" transform="translate(-2051.469 -1984.156)" fill="#00defc"/>
      </g>
    </g>
    <g id="Grupo_112995" data-name="Grupo 112995" transform="translate(540.276 7314.842)">
      <g id="Grupo_112994" data-name="Grupo 112994">
        <path id="Trazado_117609" data-name="Trazado 117609" d="M2282.363,2191.734a6.763,6.763,0,1,1,6.762-6.763A6.769,6.769,0,0,1,2282.363,2191.734Zm0-11.035a4.272,4.272,0,1,0,4.272,4.272A4.276,4.276,0,0,0,2282.363,2180.7Z" transform="translate(-2275.603 -2178.209)" fill="#00defc"/>
      </g>
    </g>
    <g id="Grupo_113002" data-name="Grupo 113002" transform="translate(507.61 7378.474)">
      <g id="Grupo_112997" data-name="Grupo 112997">
        <g id="Grupo_112996" data-name="Grupo 112996">
          <path id="Trazado_117610" data-name="Trazado 117610" d="M2253.635,2255.683h0a3.7,3.7,0,0,1-2.638-1.094l-5.05-5.047a3.741,3.741,0,0,1,0-5.285l5.05-5.048a3.7,3.7,0,0,1,2.638-1.1h0a3.713,3.713,0,0,1,2.641,1.1l5.048,5.048a3.742,3.742,0,0,1,0,5.285l-5.048,5.047A3.712,3.712,0,0,1,2253.635,2255.683Zm0-15.079h0a1.232,1.232,0,0,0-.877.365l-5.051,5.049a1.246,1.246,0,0,0,0,1.762l5.051,5.049a1.231,1.231,0,0,0,.877.365h0a1.233,1.233,0,0,0,.879-.365l5.049-5.049a1.246,1.246,0,0,0,0-1.762l-5.049-5.049A1.234,1.234,0,0,0,2253.635,2240.6Z" transform="translate(-2244.85 -2238.114)" fill="#00defc"/>
        </g>
      </g>
      <g id="Grupo_112999" data-name="Grupo 112999" transform="translate(21.203 0.001)">
        <g id="Grupo_112998" data-name="Grupo 112998">
          <path id="Trazado_117611" data-name="Trazado 117611" d="M2273.591,2255.681a3.72,3.72,0,0,1-2.641-1.092l-5.048-5.047a3.742,3.742,0,0,1,0-5.285l5.048-5.048a3.736,3.736,0,0,1,5.284,0l5.048,5.048a3.741,3.741,0,0,1,0,5.285l-5.048,5.047A3.721,3.721,0,0,1,2273.591,2255.681Zm0-15.077a1.244,1.244,0,0,0-.883.365l-5.049,5.049a1.246,1.246,0,0,0,0,1.762l5.049,5.049a1.247,1.247,0,0,0,1.762,0l5.049-5.049a1.246,1.246,0,0,0,0-1.762l-5.049-5.049A1.239,1.239,0,0,0,2273.595,2240.6Z" transform="translate(-2264.811 -2238.115)" fill="#00defc"/>
        </g>
      </g>
      <g id="Grupo_113001" data-name="Grupo 113001" transform="translate(42.404 0.028)">
        <g id="Grupo_113000" data-name="Grupo 113000">
          <path id="Trazado_117612" data-name="Trazado 117612" d="M2293.552,2255.706a3.727,3.727,0,0,1-2.642-1.092l-5.05-5.05a3.743,3.743,0,0,1,0-5.282l5.05-5.05a3.741,3.741,0,0,1,5.282,0l5.05,5.05a3.738,3.738,0,0,1,0,5.282l-5.05,5.05A3.726,3.726,0,0,1,2293.552,2255.706Zm0-15.079a1.242,1.242,0,0,0-.881.365l-5.051,5.051a1.247,1.247,0,0,0,0,1.76l5.051,5.051a1.244,1.244,0,0,0,1.76,0l5.051-5.051a1.244,1.244,0,0,0,0-1.76l-5.051-5.051A1.241,1.241,0,0,0,2293.552,2240.626Z" transform="translate(-2284.77 -2238.14)" fill="#00defc"/>
        </g>
      </g>
    </g>
    <g id="Grupo_113009" data-name="Grupo 113009" transform="translate(243.574 7414.93)">
      <g id="Grupo_113004" data-name="Grupo 113004" transform="translate(17.238 14.673)">
        <g id="Grupo_113003" data-name="Grupo 113003">
          <path id="Trazado_117613" data-name="Trazado 117613" d="M2021.473,2294.125a1.237,1.237,0,0,1-.712-.223l-7.721-5.388a1.245,1.245,0,0,1,1.425-2.042l7.72,5.388a1.245,1.245,0,0,1-.713,2.266Z" transform="translate(-2012.508 -2286.248)" fill="#00003e"/>
        </g>
      </g>
      <g id="Grupo_113006" data-name="Grupo 113006" transform="translate(12.48)">
        <g id="Grupo_113005" data-name="Grupo 113005">
          <path id="Trazado_117614" data-name="Trazado 117614" d="M2009.273,2283.222a1.244,1.244,0,0,1-1.245-1.245v-8.3a1.245,1.245,0,0,1,2.49,0v8.3A1.244,1.244,0,0,1,2009.273,2283.222Z" transform="translate(-2008.028 -2272.435)" fill="#00003e"/>
        </g>
      </g>
      <g id="Grupo_113008" data-name="Grupo 113008" transform="translate(0 14.673)">
        <g id="Grupo_113007" data-name="Grupo 113007">
          <path id="Trazado_117615" data-name="Trazado 117615" d="M1997.524,2294.125a1.245,1.245,0,0,1-.712-2.266l7.72-5.388a1.245,1.245,0,0,1,1.426,2.042l-7.721,5.388A1.238,1.238,0,0,1,1997.524,2294.125Z" transform="translate(-1996.279 -2286.248)" fill="#00003e"/>
        </g>
      </g>
    </g>
    <g id="Grupo_113011" data-name="Grupo 113011" transform="translate(180 7207.771)">
      <g id="Grupo_113010" data-name="Grupo 113010">
        <path id="Trazado_117616" data-name="Trazado 117616" d="M1943.191,2090.932a6.761,6.761,0,1,1,6.763-6.76A6.769,6.769,0,0,1,1943.191,2090.932Zm0-11.032a4.271,4.271,0,1,0,4.272,4.272A4.277,4.277,0,0,0,1943.191,2079.9Z" transform="translate(-1936.429 -2077.41)" fill="#00defc"/>
      </g>
    </g>
    <g id="Grupo_113013" data-name="Grupo 113013" transform="translate(359.627 7368.533)">
      <g id="Grupo_113012" data-name="Grupo 113012">
        <path id="Trazado_117617" data-name="Trazado 117617" d="M2169.031,2231.246h-12.45a1.245,1.245,0,0,1,0-2.49h12.45a1.245,1.245,0,0,1,0,2.49Zm-24.9,0h-12.45a1.245,1.245,0,0,1,0-2.49h12.45a1.245,1.245,0,0,1,0,2.49Zm-24.9,0h-12.45a1.245,1.245,0,1,1,0-2.49h12.45a1.245,1.245,0,0,1,0,2.49Z" transform="translate(-2105.535 -2228.756)" fill="#00003e"/>
      </g>
    </g>
    <g id="Grupo_113015" data-name="Grupo 113015" transform="translate(559.607 7161.642)">
      <g id="Grupo_113014" data-name="Grupo 113014">
        <path id="Trazado_117618" data-name="Trazado 117618" d="M2300.565,2047.505a6.762,6.762,0,1,1,6.762-6.76A6.77,6.77,0,0,1,2300.565,2047.505Zm0-11.033a4.272,4.272,0,1,0,4.272,4.273A4.278,4.278,0,0,0,2300.565,2036.472Z" transform="translate(-2293.802 -2033.982)" fill="#00defc"/>
      </g>
    </g>
    <g id="Grupo_113017" data-name="Grupo 113017" transform="translate(421.003 7359.168)">
      <g id="Grupo_113016" data-name="Grupo 113016">
        <path id="Trazado_117619" data-name="Trazado 117619" d="M2164.561,2241.159a1.245,1.245,0,0,1-.73-2.254l11.109-8.039-11.145-8.7a1.246,1.246,0,1,1,1.531-1.965l12.45,9.717a1.246,1.246,0,0,1-.036,1.992l-12.45,9.012A1.252,1.252,0,0,1,2164.561,2241.159Z" transform="translate(-2163.316 -2219.939)" fill="#00003e"/>
      </g>
    </g>
    <g id="Grupo_113019" data-name="Grupo 113019" transform="translate(288.243 7231.546)">
      <g id="Grupo_113018" data-name="Grupo 113018">
        <path id="Trazado_117620" data-name="Trazado 117620" d="M2042.376,2099.792a4.043,4.043,0,1,1-4.044,4.044A4.044,4.044,0,0,1,2042.376,2099.792Z" transform="translate(-2038.332 -2099.792)" fill="#00003e"/>
      </g>
    </g>
    <g id="Grupo_113021" data-name="Grupo 113021" transform="translate(509.612 7173.623)">
      <g id="Grupo_113020" data-name="Grupo 113020">
        <circle id="Elipse_4765" data-name="Elipse 4765" cx="4.043" cy="4.043" r="4.043" transform="translate(0 7.478) rotate(-67.62)" fill="#00003e"/>
      </g>
    </g>
    <g id="Grupo_113023" data-name="Grupo 113023" transform="translate(352.785 7386.597)">
      <g id="Grupo_113022" data-name="Grupo 113022">
        <circle id="Elipse_4766" data-name="Elipse 4766" cx="4.043" cy="4.043" r="4.043" fill="#00003e"/>
      </g>
    </g>
    <g id="Grupo_113025" data-name="Grupo 113025" transform="translate(562.326 7216.006)">
      <g id="Grupo_113024" data-name="Grupo 113024">
        <circle id="Elipse_4767" data-name="Elipse 4767" cx="4.043" cy="4.043" r="4.043" fill="#00003e"/>
      </g>
    </g>
    <g id="Grupo_113027" data-name="Grupo 113027" transform="translate(207.988 7231.546)">
      <g id="Grupo_113026" data-name="Grupo 113026">
        <path id="Trazado_117621" data-name="Trazado 117621" d="M1966.822,2099.792a4.043,4.043,0,1,1-4.044,4.044A4.045,4.045,0,0,1,1966.822,2099.792Z" transform="translate(-1962.778 -2099.792)" fill="#00003e"/>
      </g>
    </g>
    <g id="Grupo_113029" data-name="Grupo 113029" transform="translate(328.189 7118.439)">
      <g id="Grupo_113028" data-name="Grupo 113028">
        <circle id="Elipse_4768" data-name="Elipse 4768" cx="4.043" cy="4.043" r="4.043" fill="#00003e"/>
      </g>
    </g>
    <g id="Grupo_113031" data-name="Grupo 113031" transform="translate(472.688 7406.223)">
      <g id="Grupo_113030" data-name="Grupo 113030">
        <circle id="Elipse_4769" data-name="Elipse 4769" cx="4.043" cy="4.043" r="4.043" fill="#00003e"/>
      </g>
    </g>
    <g id="Grupo_113038" data-name="Grupo 113038" transform="translate(381.505 7393.474)">
      <g id="Grupo_113033" data-name="Grupo 113033" transform="translate(17.238 14.67)">
        <g id="Grupo_113032" data-name="Grupo 113032">
          <path id="Trazado_117622" data-name="Trazado 117622" d="M2151.326,2273.924a1.24,1.24,0,0,1-.713-.224l-7.721-5.388a1.245,1.245,0,0,1,1.425-2.042l7.72,5.388a1.245,1.245,0,0,1-.712,2.267Z" transform="translate(-2142.36 -2266.046)" fill="#00003e"/>
        </g>
      </g>
      <g id="Grupo_113035" data-name="Grupo 113035" transform="translate(12.48)">
        <g id="Grupo_113034" data-name="Grupo 113034">
          <path id="Trazado_117623" data-name="Trazado 117623" d="M2139.125,2263.022a1.244,1.244,0,0,1-1.245-1.245v-8.3a1.245,1.245,0,0,1,2.49,0v8.3A1.244,1.244,0,0,1,2139.125,2263.022Z" transform="translate(-2137.88 -2252.235)" fill="#00003e"/>
        </g>
      </g>
      <g id="Grupo_113037" data-name="Grupo 113037" transform="translate(0 14.67)">
        <g id="Grupo_113036" data-name="Grupo 113036">
          <path id="Trazado_117624" data-name="Trazado 117624" d="M2127.377,2273.924a1.245,1.245,0,0,1-.712-2.267l7.72-5.388a1.245,1.245,0,0,1,1.426,2.042l-7.721,5.388A1.237,1.237,0,0,1,2127.377,2273.924Z" transform="translate(-2126.131 -2266.046)" fill="#00003e"/>
        </g>
      </g>
    </g>
    <g id="Grupo_113040" data-name="Grupo 113040" transform="translate(263.066 7094.498)">
      <g id="Grupo_113039" data-name="Grupo 113039">
        <path id="Trazado_117625" data-name="Trazado 117625" d="M2119.139,2010.568a1.244,1.244,0,0,1-1.245-1.245v-12.45a1.245,1.245,0,0,1,2.491,0v12.45A1.245,1.245,0,0,1,2119.139,2010.568Zm-103.264-16.025a1.244,1.244,0,0,1-1.245-1.245v-12.45a1.245,1.245,0,0,1,2.49,0v12.45A1.244,1.244,0,0,1,2015.875,1994.543Zm103.264-8.876a1.244,1.244,0,0,1-1.245-1.245v-12.178a1.167,1.167,0,0,1-.021-.229,1.225,1.225,0,0,1,1.223-1.245h.043a1.245,1.245,0,0,1,1.246,1.245v12.407A1.245,1.245,0,0,1,2119.139,1985.668Zm-12.494-12.407H2094.2a1.245,1.245,0,0,1,0-2.49h12.45a1.245,1.245,0,0,1,0,2.49Zm-24.9,0h-12.45a1.245,1.245,0,1,1,0-2.49h12.45a1.245,1.245,0,0,1,0,2.49Zm-24.9,0h-12.45a1.245,1.245,0,0,1,0-2.49h12.45a1.245,1.245,0,0,1,0,2.49Zm-24.9,0h-12.45a1.245,1.245,0,0,1,0-2.49h12.45a1.245,1.245,0,1,1,0,2.49Z" transform="translate(-2014.63 -1970.771)" fill="#00003e"/>
      </g>
    </g>
    <g id="Grupo_113042" data-name="Grupo 113042" transform="translate(492.911 7170.445)">
      <g id="Grupo_113041" data-name="Grupo 113041">
        <path id="Trazado_117626" data-name="Trazado 117626" d="M2269.608,2130.667h-12.45a1.245,1.245,0,1,1,0-2.49h12.45a1.245,1.245,0,1,1,0,2.49Zm-24.9,0h-12.45a1.245,1.245,0,1,1,0-2.49h12.45a1.245,1.245,0,0,1,0,2.49Zm29.02-8.331a1.244,1.244,0,0,1-1.245-1.245v-12.45a1.245,1.245,0,0,1,2.491,0v12.45A1.245,1.245,0,0,1,2273.727,2122.335Zm0-24.9a1.244,1.244,0,0,1-1.245-1.245v-12.45a1.245,1.245,0,0,1,2.491,0v12.45A1.245,1.245,0,0,1,2273.727,2097.435Zm0-24.9a1.244,1.244,0,0,1-1.245-1.245v-12.45a1.245,1.245,0,1,1,2.491,0v12.45A1.245,1.245,0,0,1,2273.727,2072.535Zm0-24.9a1.245,1.245,0,0,1-1.245-1.245v-2.874a1.245,1.245,0,0,1,2.491,0v2.874A1.245,1.245,0,0,1,2273.727,2047.634Z" transform="translate(-2231.012 -2042.27)" fill="#00003e"/>
      </g>
    </g>
    <g id="Grupo_113044" data-name="Grupo 113044" transform="translate(256.479 7294.532)">
      <g id="Grupo_113043" data-name="Grupo 113043">
        <path id="Trazado_117627" data-name="Trazado 117627" d="M2009.674,2182.536a1.244,1.244,0,0,1-1.245-1.245v-4.475a1.245,1.245,0,0,1,2.49,0v4.475A1.244,1.244,0,0,1,2009.674,2182.536Zm0-16.926a1.244,1.244,0,0,1-1.245-1.245v-4.031a1.244,1.244,0,0,1,1.245-1.245h8.418a1.245,1.245,0,1,1,0,2.49h-7.173v2.786A1.244,1.244,0,0,1,2009.674,2165.61Zm58.219-4.031h-12.45a1.245,1.245,0,1,1,0-2.49h12.45a1.245,1.245,0,1,1,0,2.49Zm-24.9,0h-12.45a1.245,1.245,0,1,1,0-2.49h12.45a1.245,1.245,0,1,1,0,2.49Z" transform="translate(-2008.429 -2159.089)" fill="#00003e"/>
      </g>
    </g>
    <g id="Grupo_113045" data-name="Grupo 113045" transform="translate(311.823 7144.151)">
      <path id="Trazado_117628" data-name="Trazado 117628" d="M2147.206,2148.6l-6.245-46.158a9.937,9.937,0,1,0-9.491,0l-6.245,46.158Z" transform="translate(-2056.505 -2013.387)" fill="none" stroke="#00003e" stroke-linecap="round" stroke-linejoin="round" stroke-width="3"/>
      <path id="Trazado_117629" data-name="Trazado 117629" d="M2145.831,2017.625s7.993,11.682,24.363,21.417c9.938,5.911,25.436,11.539,49.483,9.566,1.624,11.608-3.06,99.924-38.771,133.379a136.043,136.043,0,0,1-44.384,29.634s-28.806-15.909-42.913-31.59c-34.066-35.107-34.514-123.544-32.335-135.062,23.926,3.108,39.676-1.78,49.886-7.213,16.818-8.95,25.362-20.24,25.362-20.24Z" transform="translate(-2060.531 -2017.516)" fill="none" stroke="#00003e" stroke-linecap="round" stroke-linejoin="round" stroke-width="3"/>
    </g>
  </g>
</svg>
