<svg xmlns="http://www.w3.org/2000/svg" width="400" height="337.586" viewBox="0 0 400 337.586">
  <g id="Grupo_113832" data-name="Grupo 113832" transform="translate(-180 -9335.253)">
    <g id="Grupo_113071" data-name="Grupo 113071" transform="translate(200.11 9335.253)">
      <g id="Grupo_113070" data-name="Grupo 113070" transform="translate(0 0)">
        <rect id="Rectángulo_293528" data-name="Rectángulo 293528" width="238.709" height="238.709" rx="10" transform="translate(0 168.793) rotate(-45)" fill="#b9ddfc"/>
      </g>
    </g>
    <g id="Grupo_113152" data-name="Grupo 113152" transform="translate(316.643 9393.563)">
      <g id="Grupo_113118" data-name="Grupo 113118">
        <g id="Grupo_113073" data-name="Grupo 113073" transform="translate(44.538 13.239)">
          <g id="Grupo_113072" data-name="Grupo 113072">
            <path id="Trazado_117635" data-name="Trazado 117635" d="M2668.666,1884.539a1.14,1.14,0,0,1-.772-1.981,99.663,99.663,0,0,1,54.587-25.6,1.141,1.141,0,0,1,.3,2.262,97.383,97.383,0,0,0-53.344,25.022A1.14,1.14,0,0,1,2668.666,1884.539Z" transform="translate(-2667.524 -1856.946)" fill="#00003e"/>
          </g>
        </g>
        <g id="Grupo_113075" data-name="Grupo 113075" transform="translate(13.493 50.423)">
          <g id="Grupo_113074" data-name="Grupo 113074">
            <path id="Trazado_117636" data-name="Trazado 117636" d="M2650.013,1928.444a1.085,1.085,0,0,1-.163-.011,1.141,1.141,0,0,1-.967-1.291,100.183,100.183,0,0,1,20.3-47.415,1.141,1.141,0,1,1,1.8,1.408,97.9,97.9,0,0,0-19.84,46.332A1.14,1.14,0,0,1,2650.013,1928.444Z" transform="translate(-2648.871 -1879.288)" fill="#00003e"/>
          </g>
        </g>
        <g id="Grupo_113077" data-name="Grupo 113077" transform="translate(13.461 125.674)">
          <g id="Grupo_113076" data-name="Grupo 113076">
            <path id="Trazado_117637" data-name="Trazado 117637" d="M2668.741,1972.107a1.145,1.145,0,0,1-.916-.456,100.279,100.279,0,0,1-18.962-45.846,1.142,1.142,0,1,1,2.26-.321,97.945,97.945,0,0,0,18.529,44.8,1.14,1.14,0,0,1-.912,1.824Z" transform="translate(-2648.852 -1924.502)" fill="#00003e"/>
          </g>
        </g>
        <g id="Grupo_113079" data-name="Grupo 113079" transform="translate(42.261 182.48)">
          <g id="Grupo_113078" data-name="Grupo 113078">
            <path id="Trazado_117638" data-name="Trazado 117638" d="M2725.043,1988.577a.89.89,0,0,1-.133-.008,100.678,100.678,0,0,1-58.411-27.979,1.141,1.141,0,0,1,1.6-1.63,98.388,98.388,0,0,0,57.078,27.342,1.141,1.141,0,0,1-.131,2.275Z" transform="translate(-2666.156 -1958.633)" fill="#00003e"/>
          </g>
        </g>
        <g id="Grupo_113081" data-name="Grupo 113081" transform="translate(55.45 29.841)">
          <g id="Grupo_113080" data-name="Grupo 113080">
            <path id="Trazado_117639" data-name="Trazado 117639" d="M2731.847,1886.939A99.755,99.755,0,0,1,2674.57,1869a1.14,1.14,0,0,1,1.3-1.872,97.491,97.491,0,0,0,55.974,17.529,1.141,1.141,0,0,1,0,2.282Z" transform="translate(-2674.081 -1866.922)" fill="#00003e"/>
          </g>
        </g>
        <g id="Grupo_113083" data-name="Grupo 113083" transform="translate(59.164 179.434)">
          <g id="Grupo_113082" data-name="Grupo 113082">
            <path id="Trazado_117640" data-name="Trazado 117640" d="M2677.453,1973.446a1.141,1.141,0,0,1-.593-2.115A100.175,100.175,0,0,1,2728.9,1956.8a1.141,1.141,0,1,1,0,2.282,97.9,97.9,0,0,0-50.852,14.2A1.13,1.13,0,0,1,2677.453,1973.446Z" transform="translate(-2676.312 -1956.803)" fill="#00003e"/>
          </g>
        </g>
        <g id="Grupo_113085" data-name="Grupo 113085" transform="translate(61.979 15.988)">
          <g id="Grupo_113084" data-name="Grupo 113084">
            <path id="Trazado_117641" data-name="Trazado 117641" d="M2679.144,1948.246h-.05a1.141,1.141,0,0,1-1.09-1.19c1.858-42.5,17.313-78,38.46-88.341a1.14,1.14,0,1,1,1,2.049c-20.418,9.986-35.361,44.7-37.182,86.392A1.142,1.142,0,0,1,2679.144,1948.246Z" transform="translate(-2678.003 -1858.598)" fill="#00003e"/>
          </g>
        </g>
        <g id="Grupo_113087" data-name="Grupo 113087" transform="translate(61.939 119.605)">
          <g id="Grupo_113086" data-name="Grupo 113086">
            <path id="Trazado_117642" data-name="Trazado 117642" d="M2717.508,2011.711a1.136,1.136,0,0,1-.481-.108c-21.667-10.1-37.361-46.092-39.047-89.56a1.143,1.143,0,0,1,1.1-1.185,1.124,1.124,0,0,1,1.184,1.1c1.627,41.97,17.144,77.984,37.732,87.58a1.142,1.142,0,0,1-.485,2.176Z" transform="translate(-2677.979 -1920.855)" fill="#00003e"/>
          </g>
        </g>
        <g id="Grupo_113089" data-name="Grupo 113089" transform="translate(26.051 61.499)">
          <g id="Grupo_113088" data-name="Grupo 113088">
            <path id="Trazado_117643" data-name="Trazado 117643" d="M2735.9,1907.845h-.035c-32.832-.957-62.346-8.367-78.951-19.822a1.14,1.14,0,0,1,1.3-1.877c16.259,11.214,45.313,18.474,77.723,19.418a1.141,1.141,0,0,1-.032,2.282Z" transform="translate(-2656.417 -1885.943)" fill="#00003e"/>
          </g>
        </g>
        <g id="Grupo_113091" data-name="Grupo 113091" transform="translate(26.051 140.566)">
          <g id="Grupo_113090" data-name="Grupo 113090">
            <path id="Trazado_117644" data-name="Trazado 117644" d="M2657.559,1955.349a1.142,1.142,0,0,1-.649-2.08c16.594-11.448,46.087-18.855,78.9-19.819a1.188,1.188,0,0,1,1.176,1.109,1.144,1.144,0,0,1-1.109,1.173c-32.386.95-61.421,8.208-77.667,19.414A1.132,1.132,0,0,1,2657.559,1955.349Z" transform="translate(-2656.417 -1933.45)" fill="#00003e"/>
          </g>
        </g>
        <g id="Grupo_113093" data-name="Grupo 113093" transform="translate(111.697 148.003)">
          <g id="Grupo_113092" data-name="Grupo 113092">
            <path id="Trazado_117645" data-name="Trazado 117645" d="M2709.018,1989.482a1.14,1.14,0,0,1-1.142-1.14V1939.06a1.141,1.141,0,1,1,2.282,0v49.282A1.139,1.139,0,0,1,2709.018,1989.482Z" transform="translate(-2707.876 -1937.918)" fill="#00003e"/>
          </g>
        </g>
        <g id="Grupo_113095" data-name="Grupo 113095" transform="translate(111.697 88.406)">
          <g id="Grupo_113094" data-name="Grupo 113094">
            <path id="Trazado_117646" data-name="Trazado 117646" d="M2709.018,1949.182a1.142,1.142,0,0,1-1.142-1.142v-44.789a1.141,1.141,0,1,1,2.282,0v44.789A1.14,1.14,0,0,1,2709.018,1949.182Z" transform="translate(-2707.876 -1902.11)" fill="#00003e"/>
          </g>
        </g>
        <g id="Grupo_113097" data-name="Grupo 113097" transform="translate(111.697 25.907)">
          <g id="Grupo_113096" data-name="Grupo 113096">
            <path id="Trazado_117647" data-name="Trazado 117647" d="M2709.018,1914.689a1.142,1.142,0,0,1-1.142-1.142V1865.7a1.141,1.141,0,0,1,2.282,0v47.85A1.14,1.14,0,0,1,2709.018,1914.689Z" transform="translate(-2707.876 -1864.558)" fill="#00003e"/>
          </g>
        </g>
        <g id="Grupo_113099" data-name="Grupo 113099" transform="translate(68.959 111.597)">
          <g id="Grupo_113098" data-name="Grupo 113098">
            <path id="Trazado_117648" data-name="Trazado 117648" d="M2725.886,1918.326h-42.549a1.141,1.141,0,0,1,0-2.282h42.549a1.141,1.141,0,1,1,0,2.282Z" transform="translate(-2682.197 -1916.044)" fill="#00003e"/>
          </g>
        </g>
        <g id="Grupo_113101" data-name="Grupo 113101" transform="translate(27.009 111.597)">
          <g id="Grupo_113100" data-name="Grupo 113100">
            <path id="Trazado_117649" data-name="Trazado 117649" d="M2686.055,1918.326h-27.923a1.141,1.141,0,0,1,0-2.282h27.923a1.141,1.141,0,1,1,0,2.282Z" transform="translate(-2656.992 -1916.044)" fill="#00003e"/>
          </g>
        </g>
        <g id="Grupo_113103" data-name="Grupo 113103" transform="translate(0 99.126)">
          <g id="Grupo_113102" data-name="Grupo 113102">
            <path id="Trazado_117650" data-name="Trazado 117650" d="M2654.375,1935.773a13.611,13.611,0,1,1,13.611-13.611A13.627,13.627,0,0,1,2654.375,1935.773Zm0-24.94a11.329,11.329,0,1,0,11.329,11.329A11.343,11.343,0,0,0,2654.375,1910.833Z" transform="translate(-2640.764 -1908.551)" fill="#00003e"/>
          </g>
        </g>
        <g id="Grupo_113105" data-name="Grupo 113105" transform="translate(99.073)">
          <g id="Grupo_113104" data-name="Grupo 113104">
            <path id="Trazado_117651" data-name="Trazado 117651" d="M2713.346,1875.105a13.057,13.057,0,1,1,13.057-13.057A13.072,13.072,0,0,1,2713.346,1875.105Zm0-23.832a10.774,10.774,0,1,0,10.775,10.775A10.787,10.787,0,0,0,2713.346,1851.274Z" transform="translate(-2700.291 -1848.992)" fill="#00003e"/>
          </g>
        </g>
        <g id="Grupo_113107" data-name="Grupo 113107" transform="translate(100.333 199.07)">
          <g id="Grupo_113106" data-name="Grupo 113106">
            <path id="Trazado_117652" data-name="Trazado 117652" d="M2714.1,1994.711a13.055,13.055,0,1,1,13.055-13.055A13.07,13.07,0,0,1,2714.1,1994.711Zm0-23.828a10.773,10.773,0,1,0,10.773,10.773A10.786,10.786,0,0,0,2714.1,1970.883Z" transform="translate(-2701.048 -1968.601)" fill="#00003e"/>
          </g>
        </g>
        <g id="Grupo_113109" data-name="Grupo 113109" transform="translate(54.93 104.735)">
          <g id="Grupo_113108" data-name="Grupo 113108">
            <path id="Trazado_117653" data-name="Trazado 117653" d="M2681.771,1927.927a8,8,0,1,1,8-8A8.013,8.013,0,0,1,2681.771,1927.927Zm0-13.724a5.721,5.721,0,1,0,5.72,5.72A5.729,5.729,0,0,0,2681.771,1914.2Z" transform="translate(-2673.768 -1911.921)" fill="#00003e"/>
          </g>
        </g>
        <g id="Grupo_113111" data-name="Grupo 113111" transform="translate(105.111 133.598)">
          <g id="Grupo_113110" data-name="Grupo 113110">
            <path id="Trazado_117654" data-name="Trazado 117654" d="M2711.921,1945.267a8,8,0,1,1,8-8A8.011,8.011,0,0,1,2711.921,1945.267Zm0-13.723a5.72,5.72,0,1,0,5.722,5.72A5.728,5.728,0,0,0,2711.921,1931.545Z" transform="translate(-2703.919 -1929.263)" fill="#00003e"/>
          </g>
        </g>
        <g id="Grupo_113113" data-name="Grupo 113113" transform="translate(104.835 74.364)">
          <g id="Grupo_113112" data-name="Grupo 113112">
            <path id="Trazado_117655" data-name="Trazado 117655" d="M2711.757,1909.679a8,8,0,1,1,8-8A8.012,8.012,0,0,1,2711.757,1909.679Zm0-13.724a5.721,5.721,0,1,0,5.72,5.722A5.728,5.728,0,0,0,2711.757,1895.955Z" transform="translate(-2703.752 -1893.673)" fill="#00003e"/>
          </g>
        </g>
        <g id="Grupo_113115" data-name="Grupo 113115" transform="translate(32.222 37.737)">
          <g id="Grupo_113114" data-name="Grupo 113114">
            <path id="Trazado_117656" data-name="Trazado 117656" d="M2668.128,1887.672a8,8,0,1,1,8-8A8.012,8.012,0,0,1,2668.128,1887.672Zm0-13.724a5.72,5.72,0,1,0,5.721,5.72A5.729,5.729,0,0,0,2668.128,1873.948Z" transform="translate(-2660.124 -1871.666)" fill="#00003e"/>
          </g>
        </g>
        <g id="Grupo_113117" data-name="Grupo 113117" transform="translate(30.562 170.473)">
          <g id="Grupo_113116" data-name="Grupo 113116">
            <path id="Trazado_117657" data-name="Trazado 117657" d="M2667.131,1967.425a8,8,0,1,1,8-8A8.012,8.012,0,0,1,2667.131,1967.425Zm0-13.724a5.721,5.721,0,1,0,5.72,5.721A5.728,5.728,0,0,0,2667.131,1953.7Z" transform="translate(-2659.127 -1951.419)" fill="#00003e"/>
          </g>
        </g>
      </g>
      <g id="Grupo_113151" data-name="Grupo 113151" transform="translate(112.248 13.239)">
        <g id="Grupo_113120" data-name="Grupo 113120" transform="translate(13.572)">
          <g id="Grupo_113119" data-name="Grupo 113119">
            <path id="Trazado_117658" data-name="Trazado 117658" d="M2771.468,1884.539a1.135,1.135,0,0,1-.772-.3,97.39,97.39,0,0,0-53.344-25.022,1.141,1.141,0,0,1,.3-2.262,99.67,99.67,0,0,1,54.587,25.6,1.14,1.14,0,0,1-.773,1.981Z" transform="translate(-2716.362 -1856.946)" fill="#00003e"/>
          </g>
        </g>
        <g id="Grupo_113122" data-name="Grupo 113122" transform="translate(78.511 37.184)">
          <g id="Grupo_113121" data-name="Grupo 113121">
            <path id="Trazado_117659" data-name="Trazado 117659" d="M2776.59,1928.444a1.143,1.143,0,0,1-1.128-.979,97.867,97.867,0,0,0-19.839-46.332,1.141,1.141,0,1,1,1.8-1.408,100.143,100.143,0,0,1,20.3,47.415,1.139,1.139,0,0,1-.965,1.291A1.1,1.1,0,0,1,2776.59,1928.444Z" transform="translate(-2755.379 -1879.288)" fill="#00003e"/>
          </g>
        </g>
        <g id="Grupo_113124" data-name="Grupo 113124" transform="translate(79.868 112.437)">
          <g id="Grupo_113123" data-name="Grupo 113123">
            <path id="Trazado_117660" data-name="Trazado 117660" d="M2757.334,1972.106a1.139,1.139,0,0,1-.912-1.824,98.014,98.014,0,0,0,18.531-44.8,1.14,1.14,0,1,1,2.258.321,100.281,100.281,0,0,1-18.963,45.846A1.14,1.14,0,0,1,2757.334,1972.106Z" transform="translate(-2756.195 -1924.503)" fill="#00003e"/>
          </g>
        </g>
        <g id="Grupo_113126" data-name="Grupo 113126" transform="translate(12.07 169.243)">
          <g id="Grupo_113125" data-name="Grupo 113125">
            <path id="Trazado_117661" data-name="Trazado 117661" d="M2716.6,1988.577a1.141,1.141,0,0,1-.132-2.275,98.4,98.4,0,0,0,57.079-27.342,1.141,1.141,0,0,1,1.6,1.63,100.678,100.678,0,0,1-58.411,27.979A.865.865,0,0,1,2716.6,1988.577Z" transform="translate(-2715.459 -1958.634)" fill="#00003e"/>
          </g>
        </g>
        <g id="Grupo_113128" data-name="Grupo 113128" transform="translate(0 16.604)">
          <g id="Grupo_113127" data-name="Grupo 113127">
            <path id="Trazado_117662" data-name="Trazado 117662" d="M2709.348,1886.938a1.141,1.141,0,1,1,0-2.282,97.491,97.491,0,0,0,55.973-17.529,1.141,1.141,0,0,1,1.3,1.872A99.757,99.757,0,0,1,2709.348,1886.938Z" transform="translate(-2708.207 -1866.923)" fill="#00003e"/>
          </g>
        </g>
        <g id="Grupo_113130" data-name="Grupo 113130" transform="translate(1.466 166.195)">
          <g id="Grupo_113129" data-name="Grupo 113129">
            <path id="Trazado_117663" data-name="Trazado 117663" d="M2761.673,1973.446a1.131,1.131,0,0,1-.591-.166,97.9,97.9,0,0,0-50.852-14.2,1.141,1.141,0,1,1,0-2.282,100.177,100.177,0,0,1,52.038,14.528,1.141,1.141,0,0,1-.594,2.115Z" transform="translate(-2709.088 -1956.803)" fill="#00003e"/>
          </g>
        </g>
        <g id="Grupo_113132" data-name="Grupo 113132" transform="translate(12.277 2.75)">
          <g id="Grupo_113131" data-name="Grupo 113131">
            <path id="Trazado_117664" data-name="Trazado 117664" d="M2754.543,1948.245a1.14,1.14,0,0,1-1.138-1.09c-1.821-41.688-16.763-76.406-37.183-86.392a1.141,1.141,0,0,1,1-2.049c21.146,10.342,36.6,45.843,38.459,88.341a1.143,1.143,0,0,1-1.09,1.19Z" transform="translate(-2715.583 -1858.599)" fill="#00003e"/>
          </g>
        </g>
        <g id="Grupo_113134" data-name="Grupo 113134" transform="translate(11.746 106.366)">
          <g id="Grupo_113133" data-name="Grupo 113133">
            <path id="Trazado_117665" data-name="Trazado 117665" d="M2716.407,2011.711a1.141,1.141,0,0,1-.482-2.176c20.587-9.6,36.1-45.611,37.73-87.58a1.141,1.141,0,1,1,2.28.088c-1.686,43.467-17.377,79.459-39.046,89.56A1.129,1.129,0,0,1,2716.407,2011.711Z" transform="translate(-2715.265 -1920.855)" fill="#00003e"/>
          </g>
        </g>
        <g id="Grupo_113136" data-name="Grupo 113136" transform="translate(7.687 48.26)">
          <g id="Grupo_113135" data-name="Grupo 113135">
            <path id="Trazado_117666" data-name="Trazado 117666" d="M2713.966,1907.845a1.141,1.141,0,0,1-.031-2.282c32.41-.944,61.466-8.2,77.723-19.418a1.14,1.14,0,1,1,1.295,1.877c-16.6,11.456-46.118,18.865-78.951,19.822Z" transform="translate(-2712.825 -1885.943)" fill="#00003e"/>
          </g>
        </g>
        <g id="Grupo_113138" data-name="Grupo 113138" transform="translate(7.742 127.328)">
          <g id="Grupo_113137" data-name="Grupo 113137">
            <path id="Trazado_117667" data-name="Trazado 117667" d="M2792.281,1955.349a1.135,1.135,0,0,1-.646-.2c-16.248-11.206-45.282-18.464-77.67-19.414a1.141,1.141,0,0,1-1.107-1.173,1.237,1.237,0,0,1,1.175-1.109c32.808.964,62.3,8.372,78.9,19.819a1.141,1.141,0,0,1-.649,2.08Z" transform="translate(-2712.859 -1933.45)" fill="#00003e"/>
          </g>
        </g>
        <g id="Grupo_113140" data-name="Grupo 113140" transform="translate(0.569 98.358)">
          <g id="Grupo_113139" data-name="Grupo 113139">
            <path id="Trazado_117668" data-name="Trazado 117668" d="M2752.238,1918.326h-42.549a1.141,1.141,0,0,1,0-2.282h42.549a1.141,1.141,0,1,1,0,2.282Z" transform="translate(-2708.549 -1916.044)" fill="#00003e"/>
          </g>
        </g>
        <g id="Grupo_113142" data-name="Grupo 113142" transform="translate(57.145 98.358)">
          <g id="Grupo_113141" data-name="Grupo 113141">
            <path id="Trazado_117669" data-name="Trazado 117669" d="M2771.606,1918.326h-27.924a1.141,1.141,0,0,1,0-2.282h27.924a1.141,1.141,0,1,1,0,2.282Z" transform="translate(-2742.542 -1916.044)" fill="#00003e"/>
          </g>
        </g>
        <g id="Grupo_113144" data-name="Grupo 113144" transform="translate(87.136 85.887)">
          <g id="Grupo_113143" data-name="Grupo 113143">
            <path id="Trazado_117670" data-name="Trazado 117670" d="M2774.173,1935.773a13.611,13.611,0,1,1,13.609-13.611A13.627,13.627,0,0,1,2774.173,1935.773Zm0-24.94a11.329,11.329,0,1,0,11.327,11.329A11.342,11.342,0,0,0,2774.173,1910.833Z" transform="translate(-2760.562 -1908.551)" fill="#00003e"/>
          </g>
        </g>
        <g id="Grupo_113146" data-name="Grupo 113146" transform="translate(43.421 91.496)">
          <g id="Grupo_113145" data-name="Grupo 113145">
            <path id="Trazado_117671" data-name="Trazado 117671" d="M2742.3,1927.927a8,8,0,1,1,8-8A8.013,8.013,0,0,1,2742.3,1927.927Zm0-13.724a5.721,5.721,0,1,0,5.721,5.72A5.729,5.729,0,0,0,2742.3,1914.2Z" transform="translate(-2734.296 -1911.921)" fill="#00003e"/>
          </g>
        </g>
        <g id="Grupo_113148" data-name="Grupo 113148" transform="translate(66.129 24.498)">
          <g id="Grupo_113147" data-name="Grupo 113147">
            <path id="Trazado_117672" data-name="Trazado 117672" d="M2755.944,1887.672a8,8,0,1,1,8-8A8.012,8.012,0,0,1,2755.944,1887.672Zm0-13.724a5.72,5.72,0,1,0,5.72,5.72A5.729,5.729,0,0,0,2755.944,1873.948Z" transform="translate(-2747.94 -1871.666)" fill="#00003e"/>
          </g>
        </g>
        <g id="Grupo_113150" data-name="Grupo 113150" transform="translate(67.79 157.234)">
          <g id="Grupo_113149" data-name="Grupo 113149">
            <path id="Trazado_117673" data-name="Trazado 117673" d="M2756.94,1967.425a8,8,0,1,1,8-8A8.012,8.012,0,0,1,2756.94,1967.425Zm0-13.724a5.721,5.721,0,1,0,5.72,5.721A5.727,5.727,0,0,0,2756.94,1953.7Z" transform="translate(-2748.938 -1951.419)" fill="#00003e"/>
          </g>
        </g>
      </g>
    </g>
    <g id="Grupo_113159" data-name="Grupo 113159" transform="translate(525.168 9413.447)">
      <g id="Grupo_113154" data-name="Grupo 113154" transform="translate(22.873 19.467)">
        <g id="Grupo_113153" data-name="Grupo 113153">
          <path id="Trazado_117674" data-name="Trazado 117674" d="M2791.183,1882.068a1.127,1.127,0,0,1-.652-.207l-10.246-7.15a1.141,1.141,0,1,1,1.306-1.871l10.246,7.15a1.142,1.142,0,0,1-.654,2.077Z" transform="translate(-2779.798 -1872.636)" fill="#00003e"/>
        </g>
      </g>
      <g id="Grupo_113156" data-name="Grupo 113156" transform="translate(16.558)">
        <g id="Grupo_113155" data-name="Grupo 113155">
          <path id="Trazado_117675" data-name="Trazado 117675" d="M2777.145,1874.232a1.142,1.142,0,0,1-1.142-1.142v-11.01a1.141,1.141,0,1,1,2.282,0v11.01A1.14,1.14,0,0,1,2777.145,1874.232Z" transform="translate(-2776.003 -1860.939)" fill="#00003e"/>
        </g>
      </g>
      <g id="Grupo_113158" data-name="Grupo 113158" transform="translate(0 19.469)">
        <g id="Grupo_113157" data-name="Grupo 113157">
          <path id="Trazado_117676" data-name="Trazado 117676" d="M2767.2,1882.067a1.142,1.142,0,0,1-.654-2.077l10.244-7.15a1.141,1.141,0,1,1,1.307,1.871l-10.244,7.15A1.127,1.127,0,0,1,2767.2,1882.067Z" transform="translate(-2766.055 -1872.637)" fill="#00003e"/>
        </g>
      </g>
    </g>
    <g id="Grupo_113161" data-name="Grupo 113161" transform="translate(189.747 9519.624)">
      <g id="Grupo_113160" data-name="Grupo 113160">
        <path id="Trazado_117677" data-name="Trazado 117677" d="M2629.815,1927.016h-64.153a1.141,1.141,0,1,1,0-2.282h64.153a1.141,1.141,0,1,1,0,2.282Z" transform="translate(-2564.52 -1924.734)" fill="#00003e"/>
      </g>
    </g>
    <g id="Grupo_113163" data-name="Grupo 113163" transform="translate(221.074 9534.13)">
      <g id="Grupo_113162" data-name="Grupo 113162">
        <path id="Trazado_117678" data-name="Trazado 117678" d="M2641.533,1935.732h-11.409a1.141,1.141,0,1,1,0-2.282h11.409a1.141,1.141,0,1,1,0,2.282Zm-22.82,0H2607.3a1.141,1.141,0,1,1,0-2.282h11.409a1.141,1.141,0,1,1,0,2.282Zm-22.819,0h-11.409a1.141,1.141,0,1,1,0-2.282h11.409a1.141,1.141,0,1,1,0,2.282Z" transform="translate(-2583.343 -1933.45)" fill="#00003e"/>
      </g>
    </g>
    <g id="Grupo_113165" data-name="Grupo 113165" transform="translate(448.537 9359.959)">
      <g id="Grupo_113164" data-name="Grupo 113164">
        <path id="Trazado_117679" data-name="Trazado 117679" d="M2785.307,1831.083h-64.155a1.141,1.141,0,0,1,0-2.282h64.155a1.141,1.141,0,0,1,0,2.282Z" transform="translate(-2720.012 -1828.801)" fill="#00003e"/>
      </g>
    </g>
    <g id="Grupo_113167" data-name="Grupo 113167" transform="translate(498.356 9373.121)">
      <g id="Grupo_113166" data-name="Grupo 113166">
        <path id="Trazado_117680" data-name="Trazado 117680" d="M2779.754,1838.99h-28.667a1.141,1.141,0,1,1,0-2.281h28.667a1.141,1.141,0,0,1,0,2.281Z" transform="translate(-2749.945 -1836.709)" fill="#00003e"/>
      </g>
    </g>
    <g id="Grupo_113189" data-name="Grupo 113189" transform="translate(223.626 9345.529)">
      <g id="Grupo_113182" data-name="Grupo 113182">
        <g id="Grupo_113169" data-name="Grupo 113169">
          <g id="Grupo_113168" data-name="Grupo 113168">
            <path id="Trazado_117681" data-name="Trazado 117681" d="M2682.727,1923.688h-92.148a5.711,5.711,0,0,1-5.7-5.705v-92.146a5.711,5.711,0,0,1,5.7-5.705h92.148a5.712,5.712,0,0,1,5.705,5.705v92.146A5.712,5.712,0,0,1,2682.727,1923.688Zm-92.148-101.275a3.426,3.426,0,0,0-3.421,3.423v92.146a3.426,3.426,0,0,0,3.421,3.423h92.148a3.428,3.428,0,0,0,3.424-3.423v-92.146a3.428,3.428,0,0,0-3.424-3.423Z" transform="translate(-2584.876 -1820.131)" fill="#00003e"/>
          </g>
        </g>
        <g id="Grupo_113171" data-name="Grupo 113171" transform="translate(17.847 17.847)">
          <g id="Grupo_113170" data-name="Grupo 113170">
            <path id="Trazado_117682" data-name="Trazado 117682" d="M2657.757,1898.717H2601.3a5.71,5.71,0,0,1-5.7-5.705v-56.453a5.71,5.71,0,0,1,5.7-5.705h56.455a5.712,5.712,0,0,1,5.7,5.705v56.453A5.712,5.712,0,0,1,2657.757,1898.717Zm-56.455-65.581a3.427,3.427,0,0,0-3.421,3.423v56.453a3.427,3.427,0,0,0,3.421,3.424h56.455a3.428,3.428,0,0,0,3.423-3.424v-56.453a3.427,3.427,0,0,0-3.423-3.423Z" transform="translate(-2595.599 -1830.854)" fill="#00003e"/>
          </g>
        </g>
        <g id="Grupo_113173" data-name="Grupo 113173" transform="translate(26.271 24.83)">
          <g id="Grupo_113172" data-name="Grupo 113172">
            <path id="Trazado_117683" data-name="Trazado 117683" d="M2636.549,1888.946h-20.763a2.875,2.875,0,0,1-2.871-2.871v-6.343a.589.589,0,0,0-.589-.589h-8.794a2.874,2.874,0,0,1-2.871-2.871v-38.351a2.874,2.874,0,0,1,2.871-2.871H2648.8a2.875,2.875,0,0,1,2.871,2.871v38.351a2.874,2.874,0,0,1-2.871,2.871h-8.8a.59.59,0,0,0-.589.589v6.343A2.874,2.874,0,0,1,2636.549,1888.946Zm-33.017-51.615a.589.589,0,0,0-.589.589v38.351a.59.59,0,0,0,.589.589h8.794a2.875,2.875,0,0,1,2.871,2.871v6.343a.59.59,0,0,0,.589.589h20.763a.589.589,0,0,0,.587-.589v-6.343a2.875,2.875,0,0,1,2.871-2.871h8.8a.59.59,0,0,0,.589-.589v-38.351a.59.59,0,0,0-.589-.589Z" transform="translate(-2600.661 -1835.05)" fill="#00003e"/>
          </g>
        </g>
        <g id="Grupo_113175" data-name="Grupo 113175" transform="translate(90.042 4.495)">
          <g id="Grupo_113174" data-name="Grupo 113174">
            <path id="Trazado_117684" data-name="Trazado 117684" d="M2643.627,1832.13a4.649,4.649,0,1,1,4.648-4.65A4.656,4.656,0,0,1,2643.627,1832.13Zm0-7.017a2.367,2.367,0,1,0,2.367,2.367A2.37,2.37,0,0,0,2643.627,1825.114Z" transform="translate(-2638.977 -1822.832)" fill="#00003e"/>
          </g>
        </g>
        <g id="Grupo_113177" data-name="Grupo 113177" transform="translate(5.915 4.495)">
          <g id="Grupo_113176" data-name="Grupo 113176">
            <path id="Trazado_117685" data-name="Trazado 117685" d="M2593.08,1832.13a4.649,4.649,0,1,1,4.648-4.65A4.657,4.657,0,0,1,2593.08,1832.13Zm0-7.017a2.367,2.367,0,1,0,2.366,2.367A2.37,2.37,0,0,0,2593.08,1825.114Z" transform="translate(-2588.43 -1822.832)" fill="#00003e"/>
          </g>
        </g>
        <g id="Grupo_113179" data-name="Grupo 113179" transform="translate(89.194 90.834)">
          <g id="Grupo_113178" data-name="Grupo 113178">
            <path id="Trazado_117686" data-name="Trazado 117686" d="M2643.115,1884.007a4.649,4.649,0,1,1,4.648-4.65A4.654,4.654,0,0,1,2643.115,1884.007Zm0-7.017a2.368,2.368,0,1,0,2.366,2.367A2.37,2.37,0,0,0,2643.115,1876.99Z" transform="translate(-2638.467 -1874.708)" fill="#00003e"/>
          </g>
        </g>
        <g id="Grupo_113181" data-name="Grupo 113181" transform="translate(5.065 90.834)">
          <g id="Grupo_113180" data-name="Grupo 113180">
            <path id="Trazado_117687" data-name="Trazado 117687" d="M2592.569,1884.007a4.649,4.649,0,1,1,4.649-4.65A4.655,4.655,0,0,1,2592.569,1884.007Zm0-7.017a2.368,2.368,0,1,0,2.367,2.367A2.37,2.37,0,0,0,2592.569,1876.99Z" transform="translate(-2587.919 -1874.708)" fill="#00003e"/>
          </g>
        </g>
      </g>
      <g id="Grupo_113188" data-name="Grupo 113188" transform="translate(31.373 25.323)">
        <g id="Grupo_113183" data-name="Grupo 113183">
          <path id="Trazado_117688" data-name="Trazado 117688" d="M2604.867,1844.907a1.14,1.14,0,0,1-1.142-1.14v-7.282a1.141,1.141,0,0,1,2.281,0v7.282A1.138,1.138,0,0,1,2604.867,1844.907Z" transform="translate(-2603.726 -1835.346)" fill="#00003e"/>
        </g>
        <g id="Grupo_113184" data-name="Grupo 113184" transform="translate(9.75)">
          <path id="Trazado_117689" data-name="Trazado 117689" d="M2610.726,1844.907a1.14,1.14,0,0,1-1.142-1.14v-7.282a1.141,1.141,0,0,1,2.282,0v7.282A1.14,1.14,0,0,1,2610.726,1844.907Z" transform="translate(-2609.584 -1835.346)" fill="#00003e"/>
        </g>
        <g id="Grupo_113185" data-name="Grupo 113185" transform="translate(19.501)">
          <path id="Trazado_117690" data-name="Trazado 117690" d="M2616.583,1844.907a1.138,1.138,0,0,1-1.139-1.14v-7.282a1.141,1.141,0,0,1,2.281,0v7.282A1.14,1.14,0,0,1,2616.583,1844.907Z" transform="translate(-2615.443 -1835.346)" fill="#00003e"/>
        </g>
        <g id="Grupo_113186" data-name="Grupo 113186" transform="translate(29.251)">
          <path id="Trazado_117691" data-name="Trazado 117691" d="M2622.441,1844.907a1.138,1.138,0,0,1-1.14-1.14v-7.282a1.141,1.141,0,0,1,2.282,0v7.282A1.14,1.14,0,0,1,2622.441,1844.907Z" transform="translate(-2621.301 -1835.346)" fill="#00003e"/>
        </g>
        <g id="Grupo_113187" data-name="Grupo 113187" transform="translate(38.999)">
          <path id="Trazado_117692" data-name="Trazado 117692" d="M2628.3,1844.907a1.14,1.14,0,0,1-1.142-1.14v-7.282a1.141,1.141,0,0,1,2.282,0v7.282A1.138,1.138,0,0,1,2628.3,1844.907Z" transform="translate(-2627.157 -1835.346)" fill="#00003e"/>
        </g>
      </g>
    </g>
    <g id="Grupo_113191" data-name="Grupo 113191" transform="translate(504.809 9592.615)">
      <g id="Grupo_113190" data-name="Grupo 113190">
        <path id="Trazado_117693" data-name="Trazado 117693" d="M2767.491,2011.954a1.146,1.146,0,0,1-.474-.1,22.665,22.665,0,1,1,32.13-20.6,1.141,1.141,0,1,1-2.282,0,20.38,20.38,0,1,0-28.895,18.522,1.142,1.142,0,0,1-.479,2.179Z" transform="translate(-2753.822 -1968.59)" fill="#00003e"/>
      </g>
    </g>
    <g id="Grupo_113193" data-name="Grupo 113193" transform="translate(543.102 9610.067)">
      <g id="Grupo_113192" data-name="Grupo 113192">
        <path id="Trazado_117694" data-name="Trazado 117694" d="M2782.934,1985.881a1.139,1.139,0,0,1-.666-.213l-4.963-3.565a1.141,1.141,0,0,1,1.33-1.854l4.14,2.971,3.435-3.771a1.14,1.14,0,1,1,1.686,1.536l-4.118,4.524A1.139,1.139,0,0,1,2782.934,1985.881Z" transform="translate(-2776.83 -1979.076)" fill="#00003e"/>
      </g>
    </g>
    <g id="Grupo_113195" data-name="Grupo 113195" transform="translate(526.479 9601.449)">
      <g id="Grupo_113194" data-name="Grupo 113194">
        <path id="Trazado_117695" data-name="Trazado 117695" d="M2767.984,1987.284a1.14,1.14,0,0,1-1.142-1.14v-11.1a1.141,1.141,0,1,1,2.281,0v11.1A1.138,1.138,0,0,1,2767.984,1987.284Z" transform="translate(-2766.842 -1973.898)" fill="#00003e"/>
      </g>
    </g>
    <g id="Grupo_113197" data-name="Grupo 113197" transform="translate(530.166 9616.886)">
      <g id="Grupo_113196" data-name="Grupo 113196">
        <path id="Trazado_117696" data-name="Trazado 117696" d="M2779.089,1985.455H2770.2a1.141,1.141,0,1,1,0-2.282h8.889a1.141,1.141,0,1,1,0,2.282Z" transform="translate(-2769.058 -1983.173)" fill="#00003e"/>
      </g>
    </g>
    <g id="Grupo_113199" data-name="Grupo 113199" transform="translate(522.792 9613.197)">
      <g id="Grupo_113198" data-name="Grupo 113198">
        <path id="Trazado_117697" data-name="Trazado 117697" d="M2769.455,1990.613a4.828,4.828,0,1,1,4.828-4.827A4.834,4.834,0,0,1,2769.455,1990.613Zm0-7.375a2.546,2.546,0,1,0,2.546,2.548A2.55,2.55,0,0,0,2769.455,1983.239Z" transform="translate(-2764.626 -1980.957)" fill="#00003e"/>
      </g>
    </g>
    <g id="Grupo_113230" data-name="Grupo 113230" transform="translate(249.327 9547.282)">
      <g id="Grupo_113201" data-name="Grupo 113201" transform="translate(65.137 78.269)">
        <g id="Grupo_113200" data-name="Grupo 113200">
          <path id="Trazado_117698" data-name="Trazado 117698" d="M2671.168,1990.661H2640.6a1.141,1.141,0,1,1,0-2.282h30.572a1.141,1.141,0,1,1,0,2.282Z" transform="translate(-2639.455 -1988.379)" fill="#00003e"/>
        </g>
      </g>
      <g id="Grupo_113203" data-name="Grupo 113203" transform="translate(17.289 78.269)">
        <g id="Grupo_113202" data-name="Grupo 113202">
          <path id="Trazado_117699" data-name="Trazado 117699" d="M2642.433,1990.661h-30.585a1.141,1.141,0,1,1,0-2.282h30.585a1.141,1.141,0,0,1,0,2.282Z" transform="translate(-2610.706 -1988.379)" fill="#00003e"/>
        </g>
      </g>
      <g id="Grupo_113205" data-name="Grupo 113205" transform="translate(56.148 29.217)">
        <g id="Grupo_113204" data-name="Grupo 113204">
          <path id="Trazado_117700" data-name="Trazado 117700" d="M2635.2,2002.543a1.142,1.142,0,0,1-1.142-1.142v-41.352a1.141,1.141,0,1,1,2.282,0V2001.4A1.14,1.14,0,0,1,2635.2,2002.543Z" transform="translate(-2634.054 -1958.907)" fill="#00003e"/>
        </g>
      </g>
      <g id="Grupo_113207" data-name="Grupo 113207" transform="translate(32.817 52.528)">
        <g id="Grupo_113206" data-name="Grupo 113206">
          <path id="Trazado_117701" data-name="Trazado 117701" d="M2639.6,1994.854a1.135,1.135,0,0,1-.832-.361l-18.428-19.659a1.141,1.141,0,0,1,1.666-1.56l18.426,19.659a1.141,1.141,0,0,1-.832,1.921Z" transform="translate(-2620.035 -1972.913)" fill="#00003e"/>
        </g>
      </g>
      <g id="Grupo_113209" data-name="Grupo 113209" transform="translate(32.065 25.059)">
        <g id="Grupo_113208" data-name="Grupo 113208">
          <path id="Trazado_117702" data-name="Trazado 117702" d="M2620.724,1976.316a1.141,1.141,0,0,1-.871-1.877l14.888-17.625a1.141,1.141,0,0,1,1.743,1.473l-14.888,17.625A1.138,1.138,0,0,1,2620.724,1976.316Z" transform="translate(-2619.584 -1956.408)" fill="#00003e"/>
        </g>
      </g>
      <g id="Grupo_113211" data-name="Grupo 113211" transform="translate(8.862 52.511)">
        <g id="Grupo_113210" data-name="Grupo 113210">
          <path id="Trazado_117703" data-name="Trazado 117703" d="M2606.783,1992.825a1.141,1.141,0,0,1-.871-1.877l14.9-17.639a1.141,1.141,0,0,1,1.742,1.473l-14.9,17.639A1.133,1.133,0,0,1,2606.783,1992.825Z" transform="translate(-2605.643 -1972.903)" fill="#00003e"/>
        </g>
      </g>
      <g id="Grupo_113213" data-name="Grupo 113213" transform="translate(0 70.152)">
        <g id="Grupo_113212" data-name="Grupo 113212">
          <path id="Trazado_117704" data-name="Trazado 117704" d="M2609.751,2002.369a9.433,9.433,0,1,1,9.435-9.433A9.445,9.445,0,0,1,2609.751,2002.369Zm0-16.585a7.152,7.152,0,1,0,7.153,7.152A7.159,7.159,0,0,0,2609.751,1985.784Z" transform="translate(-2600.318 -1983.502)" fill="#00003e"/>
        </g>
      </g>
      <g id="Grupo_113215" data-name="Grupo 113215" transform="translate(65.964 24.505)">
        <g id="Grupo_113214" data-name="Grupo 113214">
          <path id="Trazado_117705" data-name="Trazado 117705" d="M2656.565,1976.924a1.138,1.138,0,0,1-.877-.41l-15.471-18.567a1.142,1.142,0,1,1,1.754-1.461l15.47,18.566a1.141,1.141,0,0,1-.875,1.872Z" transform="translate(-2639.952 -1956.075)" fill="#00003e"/>
        </g>
      </g>
      <g id="Grupo_113217" data-name="Grupo 113217" transform="translate(89.036 52.193)">
        <g id="Grupo_113216" data-name="Grupo 113216">
          <path id="Trazado_117706" data-name="Trazado 117706" d="M2669.923,1992.952a1.137,1.137,0,0,1-.877-.409l-14.966-17.96a1.141,1.141,0,1,1,1.752-1.461l14.966,17.958a1.141,1.141,0,0,1-.875,1.872Z" transform="translate(-2653.815 -1972.712)" fill="#00003e"/>
        </g>
      </g>
      <g id="Grupo_113219" data-name="Grupo 113219" transform="translate(61.066 52.513)">
        <g id="Grupo_113218" data-name="Grupo 113218">
          <path id="Trazado_117707" data-name="Trazado 117707" d="M2638.151,1994.86a1.142,1.142,0,0,1-.806-1.951l19.788-19.672a1.14,1.14,0,1,1,1.609,1.616l-19.787,19.674A1.13,1.13,0,0,1,2638.151,1994.86Z" transform="translate(-2637.009 -1972.904)" fill="#00003e"/>
        </g>
      </g>
      <g id="Grupo_113221" data-name="Grupo 113221" transform="translate(22.612 42.402)">
        <g id="Grupo_113220" data-name="Grupo 113220">
          <path id="Trazado_117708" data-name="Trazado 117708" d="M2620.788,1980.6a6.884,6.884,0,1,1,6.884-6.884A6.891,6.891,0,0,1,2620.788,1980.6Zm0-11.485a4.6,4.6,0,1,0,4.6,4.6A4.607,4.607,0,0,0,2620.788,1969.111Z" transform="translate(-2613.904 -1966.829)" fill="#00003e"/>
        </g>
      </g>
      <g id="Grupo_113223" data-name="Grupo 113223" transform="translate(79.673 41.998)">
        <g id="Grupo_113222" data-name="Grupo 113222">
          <path id="Trazado_117709" data-name="Trazado 117709" d="M2655.072,1980.353a6.884,6.884,0,1,1,6.884-6.884A6.891,6.891,0,0,1,2655.072,1980.353Zm0-11.485a4.6,4.6,0,1,0,4.6,4.6A4.607,4.607,0,0,0,2655.072,1968.868Z" transform="translate(-2648.188 -1966.586)" fill="#00003e"/>
        </g>
      </g>
      <g id="Grupo_113225" data-name="Grupo 113225" transform="translate(41.928)">
        <g id="Grupo_113224" data-name="Grupo 113224">
          <path id="Trazado_117710" data-name="Trazado 117710" d="M2640.871,1972.072a15.36,15.36,0,1,1,15.359-15.359A15.378,15.378,0,0,1,2640.871,1972.072Zm0-28.438a13.078,13.078,0,1,0,13.077,13.08A13.1,13.1,0,0,0,2640.871,1943.634Z" transform="translate(-2625.51 -1941.352)" fill="#00003e"/>
        </g>
      </g>
      <g id="Grupo_113227" data-name="Grupo 113227" transform="translate(95.711 70.152)">
        <g id="Grupo_113226" data-name="Grupo 113226">
          <path id="Trazado_117711" data-name="Trazado 117711" d="M2667.257,2002.369a9.433,9.433,0,1,1,9.433-9.433A9.443,9.443,0,0,1,2667.257,2002.369Zm0-16.585a7.152,7.152,0,1,0,7.152,7.152A7.159,7.159,0,0,0,2667.257,1985.784Z" transform="translate(-2657.825 -1983.502)" fill="#00003e"/>
        </g>
      </g>
      <g id="Grupo_113229" data-name="Grupo 113229" transform="translate(47.856 70.569)">
        <g id="Grupo_113228" data-name="Grupo 113228">
          <path id="Trazado_117712" data-name="Trazado 117712" d="M2638.5,2002.62a9.433,9.433,0,1,1,9.432-9.433A9.444,9.444,0,0,1,2638.5,2002.62Zm0-16.583a7.151,7.151,0,1,0,7.15,7.15A7.158,7.158,0,0,0,2638.5,1986.036Z" transform="translate(-2629.072 -1983.753)" fill="#00003e"/>
        </g>
      </g>
    </g>
    <g id="Grupo_113232" data-name="Grupo 113232" transform="translate(199.37 9462.872)">
      <g id="Grupo_113231" data-name="Grupo 113231">
        <path id="Trazado_117713" data-name="Trazado 117713" d="M2576.5,1903.029a6.2,6.2,0,1,1,6.2-6.2A6.2,6.2,0,0,1,2576.5,1903.029Zm0-10.113a3.915,3.915,0,1,0,3.916,3.916A3.919,3.919,0,0,0,2576.5,1892.917Z" transform="translate(-2570.302 -1890.635)" fill="#ffb30b"/>
      </g>
    </g>
    <g id="Grupo_113234" data-name="Grupo 113234" transform="translate(566.364 9521.704)">
      <g id="Grupo_113233" data-name="Grupo 113233">
        <path id="Trazado_117714" data-name="Trazado 117714" d="M2797,1938.377a6.2,6.2,0,1,1,6.2-6.2A6.2,6.2,0,0,1,2797,1938.377Zm0-10.111a3.914,3.914,0,1,0,3.915,3.915A3.919,3.919,0,0,0,2797,1928.266Z" transform="translate(-2790.807 -1925.984)" fill="#ffb30b"/>
      </g>
    </g>
    <g id="Grupo_113236" data-name="Grupo 113236" transform="translate(524.225 9354.902)">
      <g id="Grupo_113235" data-name="Grupo 113235">
        <path id="Trazado_117715" data-name="Trazado 117715" d="M2771.686,1838.157a6.2,6.2,0,1,1,6.2-6.2A6.2,6.2,0,0,1,2771.686,1838.157Zm0-10.112a3.915,3.915,0,1,0,3.913,3.914A3.92,3.92,0,0,0,2771.686,1828.045Z" transform="translate(-2765.488 -1825.763)" fill="#ffb30b"/>
      </g>
    </g>
    <g id="Grupo_113238" data-name="Grupo 113238" transform="translate(467.813 9635.146)">
      <g id="Grupo_113237" data-name="Grupo 113237">
        <path id="Trazado_117716" data-name="Trazado 117716" d="M2742.74,2016.444a5.662,5.662,0,0,1-4.032-1.671l-5.447-5.447a5.712,5.712,0,0,1,0-8.067l5.447-5.446a5.709,5.709,0,0,1,8.067,0l5.446,5.446a5.7,5.7,0,0,1,0,8.067l-5.446,5.447A5.67,5.67,0,0,1,2742.74,2016.444Zm0-20.018a3.41,3.41,0,0,0-2.42,1l-5.445,5.448a3.425,3.425,0,0,0,0,4.84l5.445,5.446a3.508,3.508,0,0,0,4.842,0l5.446-5.446a3.423,3.423,0,0,0,0-4.84l-5.446-5.448A3.414,3.414,0,0,0,2742.74,1996.426Z" transform="translate(-2731.593 -1994.144)" fill="#ffb30b"/>
      </g>
    </g>
    <g id="Grupo_113240" data-name="Grupo 113240" transform="translate(213.619 9577.034)">
      <g id="Grupo_113239" data-name="Grupo 113239">
        <path id="Trazado_117717" data-name="Trazado 117717" d="M2590.01,1981.475a5.657,5.657,0,0,1-4.033-1.673l-5.447-5.444a5.716,5.716,0,0,1,0-8.069l5.447-5.446a5.844,5.844,0,0,1,8.067,0l5.445,5.446a5.713,5.713,0,0,1,0,8.069l-5.445,5.444A5.664,5.664,0,0,1,2590.01,1981.475Zm0-20.02a3.4,3.4,0,0,0-2.42,1l-5.445,5.444a3.427,3.427,0,0,0,0,4.842l5.445,5.446a3.5,3.5,0,0,0,4.84,0l5.448-5.446a3.427,3.427,0,0,0,0-4.842l-5.448-5.444A3.394,3.394,0,0,0,2590.01,1961.455Z" transform="translate(-2578.863 -1959.229)" fill="#ffb30b"/>
      </g>
    </g>
    <g id="Grupo_113242" data-name="Grupo 113242" transform="translate(557.705 9550.998)">
      <g id="Grupo_113241" data-name="Grupo 113241">
        <path id="Trazado_117718" data-name="Trazado 117718" d="M2796.751,1965.832a5.664,5.664,0,0,1-4.034-1.673l-5.446-5.444a5.714,5.714,0,0,1,0-8.069l5.446-5.446a5.84,5.84,0,0,1,8.067,0l5.448,5.446a5.715,5.715,0,0,1,0,8.069l-5.448,5.444A5.657,5.657,0,0,1,2796.751,1965.832Zm0-20.02a3.394,3.394,0,0,0-2.42,1l-5.447,5.444a3.43,3.43,0,0,0,0,4.842l5.447,5.446a3.5,3.5,0,0,0,4.84,0l5.446-5.446a3.428,3.428,0,0,0,0-4.842l-5.446-5.444A3.4,3.4,0,0,0,2796.751,1945.812Z" transform="translate(-2785.604 -1943.585)" fill="#ffb30b"/>
      </g>
    </g>
    <g id="Grupo_113244" data-name="Grupo 113244" transform="translate(180 9511.041)">
      <g id="Grupo_113243" data-name="Grupo 113243">
        <path id="Trazado_117719" data-name="Trazado 117719" d="M2571.215,1939.024a1.136,1.136,0,0,1-.7-.241l-11.409-8.9a1.142,1.142,0,0,1,.031-1.824l11.411-8.26a1.141,1.141,0,1,1,1.338,1.847l-10.181,7.371,10.214,7.972a1.14,1.14,0,0,1-.7,2.039Z" transform="translate(-2558.664 -1919.577)" fill="#00003e"/>
      </g>
    </g>
    <g id="Grupo_113246" data-name="Grupo 113246" transform="translate(549.619 9460.259)">
      <g id="Grupo_113245" data-name="Grupo 113245">
        <circle id="Elipse_4770" data-name="Elipse 4770" cx="3.705" cy="3.705" r="3.705" fill="#00003e"/>
      </g>
    </g>
    <g id="Grupo_113248" data-name="Grupo 113248" transform="translate(183.141 9438.575)">
      <g id="Grupo_113247" data-name="Grupo 113247">
        <circle id="Elipse_4771" data-name="Elipse 4771" cx="3.705" cy="3.705" r="3.705" fill="#00003e"/>
      </g>
    </g>
    <g id="Grupo_113250" data-name="Grupo 113250" transform="translate(413.877 9346.982)">
      <g id="Grupo_113249" data-name="Grupo 113249">
        <circle id="Elipse_4772" data-name="Elipse 4772" cx="3.705" cy="3.705" r="3.705" fill="#00003e"/>
      </g>
    </g>
    <g id="Grupo_113252" data-name="Grupo 113252" transform="translate(284.162 9488.297)">
      <g id="Grupo_113251" data-name="Grupo 113251">
        <circle id="Elipse_4773" data-name="Elipse 4773" cx="3.705" cy="3.705" r="3.705" fill="#00003e"/>
      </g>
    </g>
    <g id="Grupo_113254" data-name="Grupo 113254" transform="translate(242.613 9649.059)">
      <g id="Grupo_113253" data-name="Grupo 113253">
        <circle id="Elipse_4774" data-name="Elipse 4774" cx="3.705" cy="3.705" r="3.705" fill="#00003e"/>
      </g>
    </g>
    <g id="Grupo_113261" data-name="Grupo 113261" transform="translate(235.707 9481.669)">
      <g id="Grupo_113256" data-name="Grupo 113256" transform="translate(15.798 13.446)">
        <g id="Grupo_113255" data-name="Grupo 113255">
          <path id="Trazado_117720" data-name="Trazado 117720" d="M2609.842,1917.228a1.137,1.137,0,0,1-.653-.2l-7.075-4.938a1.141,1.141,0,0,1,1.305-1.872l7.076,4.938a1.141,1.141,0,0,1-.654,2.077Z" transform="translate(-2601.626 -1910.007)" fill="#00003e"/>
        </g>
      </g>
      <g id="Grupo_113258" data-name="Grupo 113258" transform="translate(11.436)">
        <g id="Grupo_113257" data-name="Grupo 113257">
          <path id="Trazado_117721" data-name="Trazado 117721" d="M2600.147,1911.815a1.14,1.14,0,0,1-1.141-1.14v-7.6a1.141,1.141,0,1,1,2.281,0v7.6A1.139,1.139,0,0,1,2600.147,1911.815Z" transform="translate(-2599.006 -1901.929)" fill="#00003e"/>
        </g>
      </g>
      <g id="Grupo_113260" data-name="Grupo 113260" transform="translate(0 13.447)">
        <g id="Grupo_113259" data-name="Grupo 113259">
          <path id="Trazado_117722" data-name="Trazado 117722" d="M2593.277,1917.228a1.141,1.141,0,0,1-.654-2.077l7.075-4.938a1.142,1.142,0,0,1,1.307,1.872l-7.076,4.938A1.14,1.14,0,0,1,2593.277,1917.228Z" transform="translate(-2592.135 -1910.008)" fill="#00003e"/>
        </g>
      </g>
    </g>
    <g id="Grupo_113263" data-name="Grupo 113263" transform="translate(303.193 9625.721)">
      <g id="Grupo_113262" data-name="Grupo 113262">
        <path id="Trazado_117723" data-name="Trazado 117723" d="M2758.706,2021.814h-3.177a1.141,1.141,0,1,1,0-2.282h2.035v-7.09a1.141,1.141,0,1,1,2.282,0v8.232A1.139,1.139,0,0,1,2758.706,2021.814Zm-14.588,0h-11.409a1.141,1.141,0,1,1,0-2.282h11.409a1.141,1.141,0,1,1,0,2.282Zm-22.82,0h-11.409a1.141,1.141,0,1,1,0-2.282H2721.3a1.141,1.141,0,1,1,0,2.282Zm-22.82,0H2687.07a1.141,1.141,0,1,1,0-2.282h11.409a1.141,1.141,0,1,1,0,2.282Zm-22.82,0H2664.25a1.141,1.141,0,1,1,0-2.282h11.409a1.141,1.141,0,1,1,0,2.282Zm-22.82,0h-11.408a1.141,1.141,0,1,1,0-2.282h11.408a1.141,1.141,0,1,1,0,2.282Zm-19.017-3.8a1.141,1.141,0,0,1-1.139-1.142v-11.409a1.141,1.141,0,1,1,2.281,0v11.409A1.141,1.141,0,0,1,2633.822,2018.013Zm124.884-15.839a1.142,1.142,0,0,1-1.142-1.142v-11.409a1.141,1.141,0,1,1,2.282,0v11.409A1.14,1.14,0,0,1,2758.706,2002.173Z" transform="translate(-2632.683 -1988.481)" fill="#00003e"/>
      </g>
    </g>
    <g id="Grupo_113265" data-name="Grupo 113265" transform="translate(337.037 9376.424)">
      <g id="Grupo_113264" data-name="Grupo 113264">
        <path id="Trazado_117724" data-name="Trazado 117724" d="M2746.013,1851.81a1.14,1.14,0,0,1-1.142-1.14v-9.845a1.142,1.142,0,0,1,.568-2.132h.574a1.142,1.142,0,0,1,1.142,1.142v10.835A1.14,1.14,0,0,1,2746.013,1851.81Zm-11.985-10.833h-11.409a1.142,1.142,0,1,1,0-2.284h11.409a1.142,1.142,0,1,1,0,2.284Zm-22.82,0H2699.8a1.142,1.142,0,1,1,0-2.284h11.409a1.142,1.142,0,1,1,0,2.284Zm-22.82,0h-11.409a1.142,1.142,0,1,1,0-2.284h11.409a1.142,1.142,0,1,1,0,2.284Zm-22.82,0H2654.16a1.142,1.142,0,1,1,0-2.284h11.409a1.142,1.142,0,0,1,0,2.284Z" transform="translate(-2653.018 -1838.694)" fill="#00003e"/>
      </g>
    </g>
  </g>
</svg>
