<svg xmlns="http://www.w3.org/2000/svg" xmlns:xlink="http://www.w3.org/1999/xlink" width="146" height="146" viewBox="0 0 146 146">
  <defs>
    <linearGradient id="linear-gradient" x1="0.5" x2="0.5" y2="1" gradientUnits="objectBoundingBox">
      <stop offset="0" stop-color="#004e96"/>
      <stop offset="1" stop-color="#0c284a"/>
    </linearGradient>
  </defs>
  <g id="Grupo_113807" data-name="Grupo 113807" transform="translate(-457 -2329.02)">
    <circle id="Elipse_4712" data-name="Elipse 4712" cx="73" cy="73" r="73" transform="translate(457 2329.02)" fill="url(#linear-gradient)"/>
    <circle id="Elipse_4718" data-name="Elipse 4718" cx="56" cy="56" r="56" transform="translate(474 2346.02)" fill="#f3f9ff"/>
    <g id="Grupo_110355" data-name="Grupo 110355" transform="translate(-2028.445 3040.495)">
      <path id="Trazado_115440" data-name="Trazado 115440" d="M2600.444-638.839a33,33,0,0,1-.782,3.3c-2.491,7.236-7.568,11.4-15.122,12.521a.871.871,0,0,0-.852.818,7.374,7.374,0,0,1-1.958,3.986,5.9,5.9,0,0,1-6.652.978,5.651,5.651,0,0,1-3.143-5.836,13.57,13.57,0,0,1,3.556-7.944,11.634,11.634,0,0,1,7.352-3.562,6.276,6.276,0,0,0,5.763-4.77,6.177,6.177,0,0,0-2.6-6.552,6.128,6.128,0,0,0-7.3.409,4.672,4.672,0,0,0-1.232,1.77,19.782,19.782,0,0,1-11.44,11.714,1.2,1.2,0,0,0-.869,1.24,14.581,14.581,0,0,1-.529,4.012,6.254,6.254,0,0,1-6.527,3.929,6.33,6.33,0,0,1-5.655-5.609c-.419-3.989.138-7.771,2.7-11.045a13.287,13.287,0,0,1,5.914-4.311,7.015,7.015,0,0,0,4.619-5.268,7.087,7.087,0,0,0-5.612-8.388,7,7,0,0,0-8.3,6.309c-.136,2.908-1.176,5.17-3.668,6.41a55.507,55.507,0,0,1,.538,6.17,25.656,25.656,0,0,1-.858,5.01,1.255,1.255,0,0,1-1.659,1.041,1.307,1.307,0,0,1-.8-1.852,15.374,15.374,0,0,0,.157-9.141c-.112-.393-.253-.605-.73-.644a6.324,6.324,0,0,1-5.834-6.891,1.43,1.43,0,0,0-.927-1.615,15.28,15.28,0,0,0-22.208,11.187,14.97,14.97,0,0,0,.987,8.1,3.253,3.253,0,0,0,4.271,2.022,3.216,3.216,0,0,0,1.75-4.373,8.83,8.83,0,0,1,5.479-11.815,8.8,8.8,0,0,1,10.027,3.728,8.7,8.7,0,0,1-1.183,10.757,10.193,10.193,0,0,0-2.965,5.066,9.1,9.1,0,0,0,.328,5.112c.3.824.651,1.635,1.033,2.426a3.176,3.176,0,0,0,4.224,1.614,3.2,3.2,0,0,0,1.7-4.19c-.243-.636-.534-1.253-.79-1.884a2.723,2.723,0,0,1,.594-3.067c.443-.481.888-.961,1.355-1.419a1.314,1.314,0,0,1,1.839-.089,1.324,1.324,0,0,1,.107,1.779,1.8,1.8,0,0,1-.388.451c-1.157.8-1.052,1.678-.489,2.878a5.758,5.758,0,0,1-2.575,7.783,5.708,5.708,0,0,1-7.4-1.871,13.84,13.84,0,0,1-2.359-7.108,11.843,11.843,0,0,1,3.741-9.1,6,6,0,0,0,1.6-6.494,6.1,6.1,0,0,0-7.838-3.822,6.129,6.129,0,0,0-3.714,7.963,5.977,5.977,0,0,1-.8,6.406,5.832,5.832,0,0,1-9.847-1.477,17.929,17.929,0,0,1,4.274-20.172,17.771,17.771,0,0,1,19.972-2.922l.535.256c3.019-9.541,9.332-15.033,19.469-15.423a19.7,19.7,0,0,1,18.523,12.368c1.862-.217,3.681-.577,5.505-.608a16.779,16.779,0,0,1,9.137,2.582c1.021.623,1.3,1.258.88,1.993q-.664,1.17-2.209.244a15.239,15.239,0,0,0-12.293-1.6c.16,2.281.315,4.5.471,6.734a9.555,9.555,0,0,1,4.781-.819,8.776,8.776,0,0,1,7.838,8.036,8.831,8.831,0,0,1-6.236,9.03c-.92.267-1.9.328-2.841.523a9.087,9.087,0,0,0-7.068,6.213,20.945,20.945,0,0,0-.676,2.459,3.207,3.207,0,0,0,2.366,3.864,3.2,3.2,0,0,0,3.891-2.184c.205-.648.333-1.321.542-1.967a2.76,2.76,0,0,1,2.445-2.059c6.81-.874,11.427-4.506,13.464-11.095a14.578,14.578,0,0,0-1.943-12.549c-.107-.168-.228-.327-.332-.5a1.3,1.3,0,0,1,.228-1.885,1.3,1.3,0,0,1,1.914.436,17.9,17.9,0,0,1,3.146,7.734,5.409,5.409,0,0,0,.178.632Zm-45.435,8.313c0,.409-.012.921,0,1.433a3.7,3.7,0,0,0,3.3,3.632,3.646,3.646,0,0,0,4.06-2.62,10.888,10.888,0,0,0,.191-2.616c.025-2.146.541-2.921,2.554-3.71a17.419,17.419,0,0,0,10.723-19.014,17.359,17.359,0,0,0-19.751-14.136,17.33,17.33,0,0,0-14.558,17.253,3.5,3.5,0,0,0,1.36,2.73,3.576,3.576,0,0,0,3.99.522,3.675,3.675,0,0,0,2.21-3.454,9.725,9.725,0,0,1,11.953-9.394,9.713,9.713,0,0,1,7.423,9.006,9.533,9.533,0,0,1-6.117,9.352A10.889,10.889,0,0,0,2555.009-630.526Z" transform="translate(0 0)"/>
      <path id="Trazado_115441" data-name="Trazado 115441" d="M2698.289-444.784a6.411,6.411,0,0,1-6.828,6.126,6.486,6.486,0,0,1-5.961-6.674,6.378,6.378,0,0,1,6.893-6.131A6.363,6.363,0,0,1,2698.289-444.784Zm-2.6-.285a3.743,3.743,0,0,0-3.746-3.818,3.733,3.733,0,0,0-3.81,3.75,3.781,3.781,0,0,0,3.783,3.879A3.78,3.78,0,0,0,2695.687-445.069Z" transform="translate(-133.123 -168.967)"/>
      <path id="Trazado_115442" data-name="Trazado 115442" d="M2628.3-428.806a5.917,5.917,0,0,1,5.869,5.87,5.939,5.939,0,0,1-5.872,5.875,5.96,5.96,0,0,1-5.866-5.888A5.888,5.888,0,0,1,2628.3-428.806Zm-.009,9.1a3.179,3.179,0,0,0,3.24-3.228,3.285,3.285,0,0,0-3.228-3.287,3.277,3.277,0,0,0-3.25,3.262A3.233,3.233,0,0,0,2628.294-419.706Z" transform="translate(-84.45 -186.468)"/>
      <path id="Trazado_115443" data-name="Trazado 115443" d="M2755.63-422.931a5.872,5.872,0,0,1,5.842-5.872,5.877,5.877,0,0,1,5.874,5.847,5.955,5.955,0,0,1-5.858,5.9A5.9,5.9,0,0,1,2755.63-422.931Zm9.07-.038a3.24,3.24,0,0,0-3.242-3.252,3.343,3.343,0,0,0-3.242,3.3,3.248,3.248,0,0,0,3.28,3.219A3.181,3.181,0,0,0,2764.7-422.969Z" transform="translate(-187.271 -186.471)"/>
      <path id="Trazado_115444" data-name="Trazado 115444" d="M2651.435-621.718a10.889,10.889,0,0,1,7.339-11.016,9.533,9.533,0,0,0,6.117-9.352,9.713,9.713,0,0,0-7.423-9.006,9.726,9.726,0,0,0-11.954,9.394,3.674,3.674,0,0,1-2.21,3.454,3.576,3.576,0,0,1-3.99-.522,3.5,3.5,0,0,1-1.36-2.73,17.33,17.33,0,0,1,14.558-17.253,17.359,17.359,0,0,1,19.751,14.136,17.419,17.419,0,0,1-10.724,19.014c-2.012.789-2.528,1.564-2.553,3.71a10.9,10.9,0,0,1-.191,2.616,3.646,3.646,0,0,1-4.06,2.62,3.7,3.7,0,0,1-3.3-3.632C2651.423-620.8,2651.435-621.309,2651.435-621.718Z" transform="translate(-96.426 -8.808)" fill="#ffb30b"/>
      <path id="Trazado_115445" data-name="Trazado 115445" d="M2704.642-436.3a3.78,3.78,0,0,1-3.772,3.811,3.781,3.781,0,0,1-3.783-3.879,3.733,3.733,0,0,1,3.81-3.75A3.743,3.743,0,0,1,2704.642-436.3Z" transform="translate(-142.078 -177.735)" fill="#fff"/>
      <path id="Trazado_115446" data-name="Trazado 115446" d="M2637.172-410.956a3.233,3.233,0,0,1-3.238-3.253,3.277,3.277,0,0,1,3.25-3.262,3.284,3.284,0,0,1,3.228,3.287A3.178,3.178,0,0,1,2637.172-410.956Z" transform="translate(-93.328 -195.218)" fill="#fff"/>
      <path id="Trazado_115447" data-name="Trazado 115447" d="M2773.451-414.228a3.181,3.181,0,0,1-3.2,3.266,3.248,3.248,0,0,1-3.28-3.219,3.343,3.343,0,0,1,3.241-3.3A3.24,3.24,0,0,1,2773.451-414.228Z" transform="translate(-196.022 -195.212)" fill="#fff"/>
    </g>
  </g>
</svg>
