<svg xmlns="http://www.w3.org/2000/svg" width="360.666" height="313.791" viewBox="0 0 360.666 313.791">
  <g id="Grupo_113826" data-name="Grupo 113826" transform="translate(-1039 -3693)">
    <g id="Grupo_112330" data-name="Grupo 112330" transform="translate(1068.461 3726.7)">
      <path id="Trazado_117272" data-name="Trazado 117272" d="M850.816,1893.985v-12.9a10.6,10.6,0,0,1,10.6-10.606h112.9a10.606,10.606,0,0,1,10.606,10.606v228.005H692.89V1893.985Z" transform="translate(-657.861 -1830.4)" fill="#fff"/>
      <path id="Trazado_117273" data-name="Trazado 117273" d="M849.948,1893.985v-12.9a10.6,10.6,0,0,1,10.6-10.606h112.9a10.607,10.607,0,0,1,10.606,10.606v228.005H692.022V1893.985Z" transform="translate(-657.931 -1830.4)" fill="#0f4599"/>
      <path id="Trazado_117274" data-name="Trazado 117274" d="M973.4,1900.558v206.195H702.873V1899.545Z" transform="translate(-657.058 -1828.061)" fill="#bae2ff"/>
      <path id="Trazado_117275" data-name="Trazado 117275" d="M959.653,1900.558v206.195H689.127V1899.545Z" transform="translate(-658.164 -1828.061)" fill="#1480cc"/>
      <path id="Trazado_117276" data-name="Trazado 117276" d="M680.086,1892.236H947.345a10.151,10.151,0,0,1,10.315,8.845v206.261H665.971V1906.314C665.905,1898.906,672.591,1892.236,680.086,1892.236Z" transform="translate(-660.029 -1828.649)" fill="#fff"/>
      <g id="Grupo_112315" data-name="Grupo 112315" transform="translate(118.09 21.445)">
        <g id="Grupo_112314" data-name="Grupo 112314" transform="translate(0 0)">
          <rect id="Rectángulo_293422" data-name="Rectángulo 293422" width="156.204" height="118.711" transform="translate(156.203 119.148) rotate(-179.84)" fill="#ebf3ff"/>
          <rect id="Rectángulo_293423" data-name="Rectángulo 293423" width="148.214" height="109.133" transform="translate(152.304 113.433) rotate(-179.84)" fill="#3397ff"/>
          <path id="Trazado_117277" data-name="Trazado 117277" d="M906.254,1953.818l-95.247-.267,52.078-49.961Z" transform="translate(-766.443 -1849.18)" fill="#e3eeff"/>
          <path id="Trazado_117278" data-name="Trazado 117278" d="M865.038,1953.056l-80.029-.224,43.426-41.291Z" transform="translate(-768.536 -1848.54)" fill="#e3eeff"/>
          <circle id="Elipse_4748" data-name="Elipse 4748" cx="11.03" cy="11.03" r="11.03" transform="translate(55.864 32.266)" fill="#e3eeff"/>
        </g>
      </g>
      <g id="Grupo_112318" data-name="Grupo 112318" transform="translate(97.284 0)">
        <g id="Grupo_112316" data-name="Grupo 112316" transform="translate(0)">
          <rect id="Rectángulo_293424" data-name="Rectángulo 293424" width="144.814" height="125.936" transform="matrix(-1, -0.003, 0.003, -1, 144.813, 126.4)" fill="#ebf3ff"/>
          <rect id="Rectángulo_293425" data-name="Rectángulo 293425" width="136.59" height="115.774" transform="translate(140.801 120.336) rotate(-179.815)" fill="#3397ff"/>
        </g>
        <g id="Grupo_112317" data-name="Grupo 112317" transform="translate(17.082 20.545)">
          <rect id="Rectángulo_293426" data-name="Rectángulo 293426" width="54.399" height="4.779" transform="translate(56.277)" fill="#cce5ff"/>
          <rect id="Rectángulo_293427" data-name="Rectángulo 293427" width="110.676" height="4.779" transform="translate(110.676 17.685) rotate(180)" fill="#cce5ff"/>
          <rect id="Rectángulo_293428" data-name="Rectángulo 293428" width="110.676" height="4.779" transform="translate(110.676 30.826) rotate(180)" fill="#cce5ff"/>
        </g>
      </g>
      <path id="Trazado_117279" data-name="Trazado 117279" d="M678.895,1892.236H946.154a10.151,10.151,0,0,1,10.315,8.845v207H664.78V1906.314C664.714,1898.906,671.4,1892.236,678.895,1892.236Z" transform="translate(-660.124 -1828.649)" fill="#66b8ff"/>
      <rect id="Rectángulo_293429" data-name="Rectángulo 293429" width="29.431" height="1.186" transform="translate(327.062 278.693) rotate(180)" fill="#fff"/>
      <path id="Trazado_117280" data-name="Trazado 117280" d="M987.09,1972.977l-10.72,6.995H962.2l-4.546,3.5v-3.322H665.971v-7.17Z" transform="translate(-660.029 -1822.149)" opacity="0.5" style="mix-blend-mode: darken;isolation: isolate"/>
      <g id="Grupo_112320" data-name="Grupo 112320" transform="translate(0 116.606)">
        <g id="Grupo_112319" data-name="Grupo 112319" transform="translate(0 0)">
          <rect id="Rectángulo_293430" data-name="Rectángulo 293430" width="331.205" height="37.422" transform="translate(331.205 37.422) rotate(180)" fill="#61b3f2"/>
          <rect id="Rectángulo_293431" data-name="Rectángulo 293431" width="301.39" height="37.422" transform="translate(301.39 37.422) rotate(180)" fill="#2e97e6"/>
        </g>
      </g>
      <g id="Grupo_112329" data-name="Grupo 112329" transform="translate(161.468 116.375)">
        <path id="Trazado_117281" data-name="Trazado 117281" d="M864.244,1941.3v37.409H838.057l18.361-37.409Z" transform="translate(-807.643 -1941.074)" fill="#0e0e0e"/>
        <g id="Grupo_112325" data-name="Grupo 112325" transform="translate(47.551)">
          <g id="Grupo_112322" data-name="Grupo 112322" transform="translate(0 0.243)">
            <path id="Trazado_117282" data-name="Trazado 117282" d="M853.917,1959.973a33.249,33.249,0,0,0,2.425,13.234c1.483,3.451,3.546,5.506,5.826,5.506h6.954v-37.4h-6.954C857.608,1941.316,853.917,1949.7,853.917,1959.973Zm6.586,6.164c-1.3-.411-2.315-2.957-2.315-6.164,0-3.121,1.013-5.67,2.315-6.081,1.3.411,2.317,2.959,2.317,6.081C862.819,1963.18,861.807,1965.727,860.5,1966.137Z" transform="translate(-853.917 -1941.316)" fill="#2475b3"/>
            <g id="Grupo_112321" data-name="Grupo 112321" transform="translate(3.543)">
              <path id="Trazado_117283" data-name="Trazado 117283" d="M857.2,1959.973a31.985,31.985,0,0,0,2.536,13.234c1.554,3.451,3.71,5.506,6.1,5.506h3.03v-37.4h-3.03C861.058,1941.316,857.2,1949.7,857.2,1959.973Zm3.332,0c0-3.121,1.969-5.67,3.331-6.081,1.364.411,2.424,2.959,2.424,6.081,0,3.207-1.06,5.754-2.424,6.164C862.5,1965.727,860.528,1963.18,860.528,1959.973Z" transform="translate(-857.196 -1941.316)" fill="#3f9ee6"/>
            </g>
          </g>
          <g id="Grupo_112324" data-name="Grupo 112324" transform="translate(3.31)">
            <path id="Trazado_117284" data-name="Trazado 117284" d="M857,1959.973a33.249,33.249,0,0,0,2.426,13.234c1.484,3.451,3.546,5.506,5.825,5.506h6.955v-37.4h-6.955C860.692,1941.316,857,1949.7,857,1959.973Zm6.587,6.164c-1.3-.411-2.316-2.957-2.316-6.164,0-3.121,1.014-5.67,2.316-6.081,1.3.411,2.317,2.959,2.317,6.081C865.9,1963.18,864.89,1965.727,863.587,1966.137Z" transform="translate(-856.978 -1941.073)" fill="#2475b3"/>
            <g id="Grupo_112323" data-name="Grupo 112323" transform="translate(3.565 0.243)">
              <path id="Trazado_117285" data-name="Trazado 117285" d="M860.279,1959.973a31.966,31.966,0,0,0,2.537,13.234c1.553,3.451,3.71,5.506,6.1,5.506h3.03v-37.4h-3.03C864.142,1941.316,860.279,1949.7,860.279,1959.973Zm3.332,0c0-3.121,1.061-5.67,2.424-6.081,1.364.411,2.424,2.959,2.424,6.081,0,3.207-1.06,5.754-2.424,6.164C864.672,1965.727,863.611,1963.18,863.611,1959.973Z" transform="translate(-860.279 -1941.316)" fill="#61b3f2"/>
            </g>
            <path id="Trazado_117286" data-name="Trazado 117286" d="M865.22,1978.974a5.747,5.747,0,0,1-3.783-1.8c-2.033-1.953-4.457-6.363-4.457-16.286,0-9.454,2.211-14.321,4.065-16.739,2.042-2.662,4.081-3.04,4.167-3.055a.246.246,0,0,1,.282.2.243.243,0,0,1-.2.281h0a7.206,7.206,0,0,0-3.9,2.915c-1.794,2.362-3.932,7.124-3.932,16.4,0,9.729,2.333,14.026,4.29,15.918a5.288,5.288,0,0,0,3.488,1.682.24.24,0,0,1,.252.233.243.243,0,0,1-.232.253Z" transform="translate(-856.98 -1941.091)" fill="#1a5380"/>
          </g>
        </g>
        <g id="Grupo_112326" data-name="Grupo 112326" transform="translate(9.125 13.238)">
          <path id="Trazado_117287" data-name="Trazado 117287" d="M865.78,1964.629c.329.082.574.164.9.247-.082.082-.082.082,0,.082a32.076,32.076,0,0,1,23.014,30.657v31.24h10.52v-31.24a42.55,42.55,0,0,0-33.2-41.425,6.787,6.787,0,0,0-1.232-.327C862.738,1953.205,862.491,1964.137,865.78,1964.629Z" transform="translate(-814.727 -1953.303)" fill="#e6e6e6"/>
          <path id="Trazado_117288" data-name="Trazado 117288" d="M856.954,1953.343v10.463a32.3,32.3,0,0,0-27.422,24.954,3.471,3.471,0,0,0-.164.82,19.475,19.475,0,0,0-.33,2.137,31.8,31.8,0,0,0-.246,3.945v31.24H818.354v-31.24A42.674,42.674,0,0,1,856.954,1953.343Z" transform="translate(-818.354 -1953.343)" fill="#e6e6e6"/>
          <path id="Trazado_117289" data-name="Trazado 117289" d="M865.486,1960.99c24.669,4.326,27.846,31.184,27.846,31.184v34.137h-3.7V1995.07a32.181,32.181,0,0,0-23.9-30.972c-1.048-.34-1.7-3.408-1.7-3.408S864.684,1960.837,865.486,1960.99Z" transform="translate(-814.676 -1952.752)" fill="#999"/>
          <path id="Trazado_117290" data-name="Trazado 117290" d="M856.121,1960.968v2.224a32.3,32.3,0,0,0-27.422,24.954C829.289,1980.471,835.652,1963.7,856.121,1960.968Z" transform="translate(-817.521 -1952.729)" fill="gray"/>
          <path id="Trazado_117291" data-name="Trazado 117291" d="M865.78,1964.629c.329.082.574.164.9.247a11.066,11.066,0,0,1-1.748-5.274c-.164-3.206.924-5.374,2.077-5.411a6.787,6.787,0,0,0-1.232-.327C862.738,1953.205,862.491,1964.137,865.78,1964.629Z" transform="translate(-814.727 -1953.303)" fill="#666"/>
        </g>
        <g id="Grupo_112328" data-name="Grupo 112328" transform="translate(0 78.273)">
          <rect id="Rectángulo_293432" data-name="Rectángulo 293432" width="103.642" height="84.72" transform="translate(0)" fill="#f7af0c"/>
          <g id="Grupo_112327" data-name="Grupo 112327" transform="translate(39.571 20.845)">
            <path id="Trazado_117292" data-name="Trazado 117292" d="M860.342,2032.907a3.962,3.962,0,0,0-.988-.083,12.829,12.829,0,0,0-12.822,12.86,13.033,13.033,0,0,0,7.563,11.782v21.82a5.322,5.322,0,0,0,5.259,5.312,2.772,2.772,0,0,0,.822-.083h.245a5.334,5.334,0,0,0,4.193-5.229v-21.82a12.944,12.944,0,0,0,7.561-11.782A12.747,12.747,0,0,0,860.342,2032.907Z" transform="translate(-846.532 -2032.824)" fill="#cc840a"/>
            <path id="Trazado_117293" data-name="Trazado 117293" d="M860.2,2032.9a12.758,12.758,0,0,0-11.919,12.777,13.032,13.032,0,0,0,7.562,11.782v21.82a5.332,5.332,0,0,0,4.191,5.229h.245a5.334,5.334,0,0,0,4.193-5.229v-21.82a12.943,12.943,0,0,0,7.561-11.782A12.747,12.747,0,0,0,860.2,2032.9Z" transform="translate(-846.391 -2032.818)" fill="#803d00"/>
          </g>
          <path id="Trazado_117294" data-name="Trazado 117294" d="M842.8,2098.252H809.909v-84.72h9.125S816.61,2076.042,842.8,2098.252Z" transform="translate(-809.909 -2013.532)" fill="#e6950b"/>
          <path id="Trazado_117295" data-name="Trazado 117295" d="M885.235,2098.252c7.854-16.807,6.39-61.993,6.39-84.72h10.439v84.72Z" transform="translate(-803.845 -2013.532)" fill="#f7e4ad"/>
        </g>
      </g>
    </g>
    <g id="Grupo_112354" data-name="Grupo 112354" transform="translate(1039 3693)">
      <g id="Grupo_112347" data-name="Grupo 112347">
        <path id="Trazado_117296" data-name="Trazado 117296" d="M796.323,2032.3s-10.634-.345-21.112.157c-10.884.531-21.612,1.97-20.079,5.723a3.989,3.989,0,0,1,.218,2.471c-2.189,10.04-41.879,17.546-50.637,11.384-6.536-4.6-24.551,1.314-31.933,4.5-14.056-94.1-14.45-190.286-2-196.979,12.447-6.662,46.946,1.783,46.946,1.783s17.484,4.629,24.615,52.451C749.5,1961.584,796.323,2032.3,796.323,2032.3Z" transform="translate(-630.901 -1797.785)" fill="#4582e6"/>
        <path id="Trazado_117297" data-name="Trazado 117297" d="M750.315,2032.347a3.99,3.99,0,0,1,.218,2.471c-10.759-32.809-36.093-126.545-26.9-100.992,8.819,24.646,36.5,74.563,46.758,92.8C759.51,2027.155,748.781,2028.593,750.315,2032.347Z" transform="translate(-626.084 -1791.951)" fill="#3d73cc"/>
        <g id="Grupo_112346" data-name="Grupo 112346">
          <g id="Grupo_112332" data-name="Grupo 112332" transform="translate(0 62.144)">
            <g id="Grupo_112331" data-name="Grupo 112331">
              <path id="Trazado_117298" data-name="Trazado 117298" d="M671.783,1884.221c-10.228,12.511-12.1,15.545-21.675,16.2a16.753,16.753,0,0,1,6.443,7.757h.031c2.815,6.161,3.221,13.355,8.132,17.389l-5.88,5.787-1.5,1.5s-.219-.188-.594-.531c-2.565-2.377-12.762-11.979-18.829-20.8-3.566-5.128-5.723-9.976-4.223-13.01,2.44-8.82,8.695-26.929,24.615-32.341,10.446-11.353,20.673-5.253,24.3-.531C687.453,1871.962,682.573,1885.472,671.783,1884.221Z" transform="translate(-633.205 -1859.711)" fill="#002e73"/>
              <path id="Trazado_117299" data-name="Trazado 117299" d="M664.364,1921.958l-5.88,5.787-2.1.969c-2.408-2.252-11.6-10.885-17.734-19.267-.375-.5-.751-1.032-1.095-1.533,3.034-.031,12.792-.281,18.641-3.345h.031q.374.8.657,1.594C659.141,1911.919,659.86,1918.268,664.364,1921.958Z" transform="translate(-632.854 -1856.1)" fill="#231f20"/>
              <path id="Trazado_117300" data-name="Trazado 117300" d="M656.889,1906.163c-6.474,3.942-13.887,3.817-18.234,3.285-.375-.5-.751-1.032-1.095-1.533,3.034-.031,12.792-.281,18.641-3.345h.031Q656.607,1905.367,656.889,1906.163Z" transform="translate(-632.854 -1856.1)" fill="#66b8ff"/>
            </g>
            <path id="Trazado_117301" data-name="Trazado 117301" d="M658.834,1915.721s6.7.622,8.727,2.386a2.679,2.679,0,0,1,.659,3.313c3.606,2.028,0,9.891-6.294,11.832s-10.42-9.917-10.42-9.917S652.465,1916.143,658.834,1915.721Z" transform="translate(-631.731 -1855.202)" fill="#231f20"/>
          </g>
          <g id="Grupo_112335" data-name="Grupo 112335" transform="translate(46.392 114.92)">
            <g id="Grupo_112333" data-name="Grupo 112333" transform="translate(38.632 171.967)">
              <path id="Trazado_117302" data-name="Trazado 117302" d="M738.495,2094.309H715.769a2.718,2.718,0,0,1-1.019-.913c-1.17-16.9-2.856-25.041-2.856-25.041l15.828-.645,3.583,12.575C736.608,2083.909,742.929,2091.684,738.495,2094.309Z" transform="translate(-711.894 -2067.71)" fill="#231f20"/>
              <path id="Trazado_117303" data-name="Trazado 117303" d="M713.928,2092.888h26.943c.683,0,.454-3.747-.229-3.747l-26.783.15C713.155,2089.292,713.225,2092.888,713.928,2092.888Z" transform="translate(-711.776 -2065.985)" fill="#231f20"/>
            </g>
            <path id="Trazado_117304" data-name="Trazado 117304" d="M707.535,1927.1c3.677,9.894,19.326,55.227,14.858,87.865,6.146,21.7,4.216,40.089,9.758,71.786l-16.131.849c-6.557-38.676-13.771-31.295-15.86-69.6-13.29-30.031-20.184-58.482-23.72-87.772C673,1908.151,700.111,1896.556,707.535,1927.1Z" transform="translate(-676.14 -1908.555)" fill="#002e73"/>
            <g id="Grupo_112334" data-name="Grupo 112334" transform="translate(26.207 109.382)">
              <path id="Trazado_117305" data-name="Trazado 117305" d="M714.235,2081.1s-1.208-11.509-8.8-33.5c-2.357-6.756-3.634-11.229-4.3-13.981a29.432,29.432,0,0,1-.747-3.848,114.369,114.369,0,0,0,13.587-19.985c4.936,7.726,10.811,15.451,10.811,15.451s.149,1.813.416,4.784c1.19,12.448,4.391,45.351,6.32,52.326C733.912,2090.981,718.915,2095.892,714.235,2081.1Z" transform="translate(-700.395 -2009.788)" fill="#231f20"/>
              <path id="Trazado_117306" data-name="Trazado 117306" d="M725.209,2030.024a126.473,126.473,0,0,1-11.095-14.2c-1.759,6.382-9.145,14.107-12.973,17.8a29.432,29.432,0,0,1-.747-3.848,114.369,114.369,0,0,0,13.587-19.985c4.936,7.726,10.811,15.451,10.811,15.451S724.942,2027.052,725.209,2030.024Z" transform="translate(-700.395 -2009.788)" fill="#66b8ff"/>
            </g>
          </g>
          <g id="Grupo_112337" data-name="Grupo 112337" transform="translate(6.641 116.733)">
            <path id="Trazado_117307" data-name="Trazado 117307" d="M690.4,1931.158a499,499,0,0,1-8.821,79.7c3.252,29.4-4.145,34.883-7.486,76.948l-14.579-.194c-.037-17.073-1.027-38.217-2.065-72.45-9.178-35.778-4.757-62.128-1.334-83.516C659.77,1907.356,692.734,1899.316,690.4,1931.158Z" transform="translate(-638.333 -1910.232)" fill="#002e73"/>
            <path id="Trazado_117308" data-name="Trazado 117308" d="M675.052,2074.594c1.3,6.965,2.233,12.4,1.688,18.7l-35.31.687s-3.494-3.4.9-8.51,12.739-2.151,18.144-11.073Z" transform="translate(-639.29 -1897.016)" fill="#231f20"/>
            <path id="Trazado_117309" data-name="Trazado 117309" d="M639.888,2092.888H677.4c.683,0,.5-3.747-.179-3.747l-37.355.15C639.165,2089.292,639.186,2092.888,639.888,2092.888Z" transform="translate(-639.351 -1895.83)" fill="#231f20"/>
            <g id="Grupo_112336" data-name="Grupo 112336" transform="translate(17.157 111.01)">
              <path id="Trazado_117310" data-name="Trazado 117310" d="M680.848,2031.988l-.683,3.379c-1.776,9.289-6.54,35.217-5.983,46.883-6.627,7.913-15.242-.876-15.242-.876l-3.473-64.084-.238-4.317A79.843,79.843,0,0,0,680.848,2031.988Z" transform="translate(-655.23 -2012.972)" fill="#231f20"/>
              <path id="Trazado_117311" data-name="Trazado 117311" d="M680.848,2031.988l-.683,3.379c-12.878-3.754-20.806-12.574-24.7-18.078l-.238-4.317A79.843,79.843,0,0,0,680.848,2031.988Z" transform="translate(-655.23 -2012.972)" fill="#66b8ff"/>
            </g>
          </g>
          <path id="Trazado_117312" data-name="Trazado 117312" d="M656.888,1933.391c0,7.453,52.925,5.3,52.925-2.156a108.233,108.233,0,0,1,3.831-30.78c15.867-15.545,14.921-27.612,10.9-34.159-6.934-11.288-41.96-10.648-54.57-5.8-5.008,1.927-11.732,9.777-13.883,22.291-1.105,6.434,3.632,13.926,4.38,19.127C662.2,1913.953,657.239,1931.663,656.888,1933.391Z" transform="translate(-631.376 -1797.77)" fill="#002e73"/>
          <path id="Trazado_117313" data-name="Trazado 117313" d="M687.847,1866.974c2.612-2.073,13.028-5.274,15.8-7.543l-.624-18.081-10.242-1a30.423,30.423,0,0,0-8.5,1.966l-2.3,11.906-.509,2.582C680.31,1859.349,682.607,1862.414,687.847,1866.974Z" transform="translate(-629.343 -1799.125)" fill="#f7a594"/>
          <path id="Trazado_117314" data-name="Trazado 117314" d="M699.514,1845.177c-1.607,2.473-8.334,8.8-17.6,8.782l1.995-10.3Z" transform="translate(-629.283 -1798.859)" fill="#e6836f"/>
          <g id="Grupo_112339" data-name="Grupo 112339" transform="translate(45.345 7.85)">
            <g id="Grupo_112338" data-name="Grupo 112338">
              <path id="Trazado_117315" data-name="Trazado 117315" d="M677.388,1824c-.8,3.562-2.458,11.383-2.187,14.984.412,5.485,5.533,11.567,10,12.364,5.171.527,12.141-1.012,15.926-4.264a52.2,52.2,0,0,0,8.059-13.45c3.914-10.692-3.641-20.067-13.225-22.232S679.892,1812.9,677.388,1824Z" transform="translate(-675.172 -1809.353)" fill="#f7a594"/>
              <path id="Trazado_117316" data-name="Trazado 117316" d="M705.635,1840.81c2-3.518-.658-4.943-3.569-2.212.5-2.655,3.523-10.432.844-13.011-3.028-2.992-16.351-1.69-23.508-9.153,0,0,5.334-11.7,22.845-4.789C722.023,1822.131,705.635,1840.81,705.635,1840.81Z" transform="translate(-674.831 -1809.462)" fill="#73382a"/>
              <ellipse id="Elipse_4749" data-name="Elipse 4749" cx="4.316" cy="3.355" rx="4.316" ry="3.355" transform="translate(25.586 31.3) rotate(-50.277)" fill="#f7a594"/>
            </g>
          </g>
          <path id="Trazado_117317" data-name="Trazado 117317" d="M682.221,1852.311c1.75,3.126,19.757,1.5,21.382-1.125l1,10-16.755,9.5-8.753-9.628Z" transform="translate(-629.51 -1798.253)" fill="#002e73"/>
          <path id="Trazado_117318" data-name="Trazado 117318" d="M711.979,1822.809c-.494-8.756-17.44-21.112-29.6-16.525-8.2,3.094-6.277,11.8.863,13.441C689.54,1821.175,706.976,1813.629,711.979,1822.809Z" transform="translate(-629.678 -1801.948)" fill="#231f20"/>
          <path id="Trazado_117319" data-name="Trazado 117319" d="M680.9,1806.561a11.249,11.249,0,0,1,1.708-4.364c-9.513,6.23-4.778,13.681-4.667,14,3.772-11.454,12.774-10.928,15.97-10.887C685.685,1801.437,680.98,1806.218,680.9,1806.561Z" transform="translate(-629.706 -1802.197)" fill="#231f20"/>
          <path id="Trazado_117320" data-name="Trazado 117320" d="M656.334,1930.054c13.807,5.954,45.7,4.643,55.235.081l2.438,8.076c-20.739,4.888-40.58,5.025-59.418-.154Z" transform="translate(-631.483 -1791.904)" fill="#66b8ff"/>
          <g id="Grupo_112341" data-name="Grupo 112341" transform="translate(73.104 65.559)">
            <g id="Grupo_112340" data-name="Grupo 112340">
              <path id="Trazado_117321" data-name="Trazado 117321" d="M745,1916.527c-9.133,9.789-28.4,20.955-28.4,20.955l-5.911-8.507c6.131-3.379,9.509-12.136,15.357-18.141a20.7,20.7,0,0,1,7.037-4.911c-9.32-2.408-14.012-4.723-21.769-18.891-10.853-.751-13.2-14.95-7.287-20.236,4.441-3.972,15.638-8.132,23.833,4.942,14.638,8.225,20.893,26.177,21.675,35.311C750.252,1909.645,748.281,1912.992,745,1916.527Z" transform="translate(-700.862 -1862.872)" fill="#002e73"/>
            </g>
            <path id="Trazado_117322" data-name="Trazado 117322" d="M715.774,1919.938s-6.7-.613-9.016.75a2.68,2.68,0,0,0-1.254,3.137c-3.916,1.335-1.809,9.725,4.026,12.783s12.056-7.846,12.056-7.846S721.958,1921.518,715.774,1919.938Z" transform="translate(-700.649 -1858.289)" fill="#231f20"/>
            <path id="Trazado_117323" data-name="Trazado 117323" d="M744.265,1912.953c-.563.594-1.157,1.22-1.783,1.813-9.634,9.32-26.617,19.142-26.617,19.142l-5.911-8.506c5.286-2.91,8.508-9.791,13.043-15.483a31.414,31.414,0,0,1,2.314-2.658A44.73,44.73,0,0,0,744.265,1912.953Z" transform="translate(-700.13 -1859.298)" fill="#231f20"/>
            <path id="Trazado_117324" data-name="Trazado 117324" d="M743.294,1912.953c-.563.594-1.157,1.22-1.783,1.813-8.257-.406-16.014-3.377-19.486-4.847a31.393,31.393,0,0,1,2.314-2.658A44.73,44.73,0,0,0,743.294,1912.953Z" transform="translate(-699.158 -1859.298)" fill="#66b8ff"/>
          </g>
          <g id="Grupo_112345" data-name="Grupo 112345" transform="translate(46.058 76.528)">
            <g id="Grupo_112344" data-name="Grupo 112344">
              <g id="Grupo_112343" data-name="Grupo 112343">
                <g id="Grupo_112342" data-name="Grupo 112342">
                  <path id="Trazado_117325" data-name="Trazado 117325" d="M692.07,1878.779h0l.006-.048Z" transform="translate(-674.524 -1872.563)" fill="#d9ffff"/>
                  <path id="Trazado_117326" data-name="Trazado 117326" d="M692.07,1878.779h0l.006-.048Z" transform="translate(-674.524 -1872.563)" fill="#d9ffff"/>
                  <path id="Trazado_117327" data-name="Trazado 117327" d="M676.769,1876.583l.007-.047-.007.047Z" transform="translate(-675.756 -1872.74)" fill="#d9ffff"/>
                  <path id="Trazado_117328" data-name="Trazado 117328" d="M676.769,1876.583l.007-.047-.007.047Z" transform="translate(-675.756 -1872.74)" fill="#d9ffff"/>
                  <path id="Trazado_117329" data-name="Trazado 117329" d="M685.688,1873.023a16.814,16.814,0,0,0,7.678,6.224c-.028.245-.188,1.6-.925,7.866-.981,8.355-8.6,11.377-9.777,11.839-1-.709-7.717-5.853-6.735-14.208.736-6.263.9-7.622.924-7.867A15.657,15.657,0,0,0,685.688,1873.023Z" transform="translate(-675.831 -1873.023)" fill="#fff"/>
                </g>
              </g>
              <path id="Trazado_117330" data-name="Trazado 117330" d="M684.645,1877.13l-.014.01a12.545,12.545,0,0,1-5.922,2.449l-.628,5.342a9.818,9.818,0,0,0,1.841,6.935,13.125,13.125,0,0,0,2.585,2.74l.077.06a12.132,12.132,0,0,0,3.22-1.956,9.339,9.339,0,0,0,3.384-6.185l.628-5.343A13.382,13.382,0,0,1,684.645,1877.13Z" transform="translate(-675.656 -1872.692)" fill="#f7af0c"/>
            </g>
          </g>
        </g>
        <path id="Trazado_117331" data-name="Trazado 117331" d="M680.74,1857.855c.9,2.309,3.894,4.342,7.273,6.323a48.04,48.04,0,0,0,17.276-6.261c5.065-.024,8.711,1.926,12.46,3.365l-29.916,4.869-17.572-6.634A36.992,36.992,0,0,1,680.74,1857.855Z" transform="translate(-630.222 -1797.716)" fill="#66b8ff"/>
      </g>
      <g id="Grupo_112353" data-name="Grupo 112353" transform="translate(65.035 98.777)">
        <g id="Grupo_112351" data-name="Grupo 112351">
          <g id="Grupo_112349" data-name="Grupo 112349">
            <g id="Grupo_112348" data-name="Grupo 112348">
              <path id="Trazado_117332" data-name="Trazado 117332" d="M775.081,1915.331h0l0-.227Z" transform="translate(-686.818 -1891.885)" fill="#d9ffff"/>
              <path id="Trazado_117333" data-name="Trazado 117333" d="M775.081,1915.331h0l0-.227Z" transform="translate(-686.818 -1891.885)" fill="#d9ffff"/>
              <path id="Trazado_117334" data-name="Trazado 117334" d="M693.4,1916.23l0-.227,0,.227Z" transform="translate(-693.394 -1891.812)" fill="#d9ffff"/>
              <path id="Trazado_117335" data-name="Trazado 117335" d="M693.4,1916.23l0-.227,0,.227Z" transform="translate(-693.394 -1891.812)" fill="#d9ffff"/>
              <path id="Trazado_117336" data-name="Trazado 117336" d="M737.184,1893.615c10.358,10.9,26.83,19.78,44.418,23.495.013,1.167.084,7.636.416,37.451.442,39.773-37.458,59.459-43.341,62.48-5.739-2.583-44.374-21.736-44.816-61.51-.332-29.815-.4-36.283-.416-37.451C710.946,1913.979,727.07,1904.74,737.184,1893.615Z" transform="translate(-693.39 -1893.615)" fill="#fff"/>
            </g>
          </g>
          <g id="Grupo_112350" data-name="Grupo 112350" transform="translate(4.898 7.187)">
            <path id="Trazado_117337" data-name="Trazado 117337" d="M734.072,1900.267c10.133,9.131,24.135,16.269,39.505,20.108l.375,33.7c.172,15.42-5.891,29.409-18.017,41.583a87.527,87.527,0,0,1-20.633,15.225c-.185-.092-.387-.2-.587-.3l-.73-110.239C734.014,1900.32,734.044,1900.294,734.072,1900.267Z" transform="translate(-695.024 -1900.267)" fill="#007880"/>
            <path id="Trazado_117338" data-name="Trazado 117338" d="M736.888,1900.34l.73,110.239a87.483,87.483,0,0,1-20.379-14.471c-12.394-11.9-18.766-25.756-18.937-41.176l-.375-33.7C713.165,1917.069,726.968,1909.655,736.888,1900.34Z" transform="translate(-697.927 -1900.261)" fill="#008f99"/>
          </g>
        </g>
        <g id="Grupo_112352" data-name="Grupo 112352" transform="translate(26.351 37.581)">
          <path id="Trazado_117339" data-name="Trazado 117339" d="M717.782,1945.419l.173,26.108c.019,2.906,35.678,2.672,35.659-.234l-.173-26.107Zm13.49,9.768a4.4,4.4,0,1,1,6.234,3.951l.05,7.416a1.8,1.8,0,1,1-3.608.024l-.049-7.4A4.371,4.371,0,0,1,731.272,1955.187Z" transform="translate(-717.782 -1927.044)" fill="#fff"/>
          <path id="Trazado_117340" data-name="Trazado 117340" d="M720.661,1944.89l3.609-.024-.012-1.757a11.1,11.1,0,0,1,22.195-.146l.012,1.758,3.61-.024-.012-1.758a14.707,14.707,0,0,0-29.413.193Z" transform="translate(-717.551 -1928.396)" fill="#fff"/>
        </g>
      </g>
    </g>
  </g>
</svg>
