<svg xmlns="http://www.w3.org/2000/svg" xmlns:xlink="http://www.w3.org/1999/xlink" width="205.761" height="565.088" viewBox="0 0 205.761 565.088">
  <defs>
    <clipPath id="clip-path">
      <path id="Trazado_118321" data-name="Trazado 118321" d="M1841.039,473.4c9.565,2.171,19.136,4.313,28.88,5.367-5.422,22.924-7.689,44.023-6.486,65.673.805,14.482,4.378,23.681,14.679,33.75.97.948,1.119,2.516,1.171,3.873.136,3.561-4.159,4.28-6.722,5.552-7.467,3.706-14.713,7.841-22.03,11.809L1839.051,605c-22.608-56.078-13.657-94.437-4.109-132.347C1836.973,472.913,1839.007,473.157,1841.039,473.4Z" fill="none"/>
    </clipPath>
    <clipPath id="clip-path-2">
      <path id="Trazado_118330" data-name="Trazado 118330" d="M1896.02,547.585c-.806,4.593-1.658,9.185-2.7,13.721a2.784,2.784,0,0,0,.572,2.747,3.411,3.411,0,0,0,2.313.532,19.006,19.006,0,0,1-9.88,7.456,18.488,18.488,0,0,1-12.357-.4,16.368,16.368,0,0,1-3.534-1.661,9.6,9.6,0,0,1-2.518-2.971.332.332,0,0,1-.056-.3.343.343,0,0,1,.241-.138,3.711,3.711,0,0,0,2.515-1.655,4.252,4.252,0,0,0,.378-1.675,24.3,24.3,0,0,0,.005-3.549c-.029-.405.083-1.133-.4-1.206a6.886,6.886,0,0,0-1.253.186,7.709,7.709,0,0,1-4.336-.943c-3.395-1.888-5.227-5.931-5.639-9.654-.875-7.9,3.053-21.276,9.822-26.234,4.151-3.04,11.038-3.158,15.8-1.624,4.9,1.58,11.492,5.341,12.718,10.718a20.031,20.031,0,0,1-.183,7.476Q1896.824,543,1896.02,547.585Z" fill="none"/>
    </clipPath>
  </defs>
  <g id="Grupo_113837" data-name="Grupo 113837" transform="translate(-1184.5 -894.961)">
    <path id="Trazado_118311" data-name="Trazado 118311" d="M1946.165,889.826l31.795-15.686a199.44,199.44,0,0,1,.338,27.5c-.619,10.791.536,29-7.753,29.6-5.8.42-16.6-.636-22.461-.637a110.025,110.025,0,0,0-.456-21.939C1947.025,902.982,1946.58,896.4,1946.165,889.826Z" transform="translate(-603.456 512.049)" fill="#ff6363"/>
    <path id="Trazado_118312" data-name="Trazado 118312" d="M1979.08,941.182c.012-.1.021-.191.028-.284.414-5.053.982-9.723.907-14.85-.052-3.643.138-7.937-1.218-11.359-10.033.582-20.241-.207-30.371.481-2.021.138-2.422,4.6-3.662,5.849-2.461,2.477-7.262,3.777-10.52,4.686-6.8,1.9-13.781,3.02-19.42,7.656-2.934,2.412-9.653,11.18-4.052,14.089,2.282,1.185,6.823.1,9.262-.01q6.045-.279,12.086-.662,22.89-1.457,45.647-4.449a1.656,1.656,0,0,0,.995-.365A1.32,1.32,0,0,0,1979.08,941.182Z" transform="translate(-603.456 512.049)" fill="#084a93"/>
    <path id="Trazado_118313" data-name="Trazado 118313" d="M1979.54,936.506q-35.733,2.778-71.3,7.292" transform="translate(-603.456 512.049)" fill="none" stroke="#000" stroke-linecap="round" stroke-linejoin="round" stroke-width="1"/>
    <path id="Trazado_118314" data-name="Trazado 118314" d="M1927.554,931.606a9.154,9.154,0,0,1-4.175-3.462,1.751,1.751,0,0,1-.374-1.163,1.32,1.32,0,0,1,1.474-.951,3.848,3.848,0,0,1,1.733.815l3.983,2.773a2.828,2.828,0,0,0,1.234.588.969.969,0,0,0,1.081-.645,2.485,2.485,0,0,0-1.059-1.835,7.553,7.553,0,0,1-1.605-1.48,1.539,1.539,0,0,1,.11-1.995,1.609,1.609,0,0,1,1.321-.217c2.227.456,3.422,3.139,5.625,3.7a.927.927,0,0,0,.651-.016.906.906,0,0,0,.3-1.053c-.392-1.5-2.182-2.448-2.247-4a1.143,1.143,0,0,1,.195-.745,1.328,1.328,0,0,1,1.4-.292c2.123.559,3.153,2.9,3.894,4.97" transform="translate(-603.456 512.049)" fill="none" stroke="#000" stroke-linecap="round" stroke-linejoin="round" stroke-width="1"/>
    <path id="Trazado_118315" data-name="Trazado 118315" d="M1971.044,930.759a3.656,3.656,0,0,1-4.47-5.5,2.476,2.476,0,0,1,1.062-.856,3.466,3.466,0,0,1,1.8-.043,5.293,5.293,0,0,1,3.2,1.42,2.933,2.933,0,0,1-1.66,4.822" transform="translate(-603.456 512.049)" fill="none" stroke="#000" stroke-linecap="round" stroke-linejoin="round" stroke-width="1"/>
    <path id="Trazado_118316" data-name="Trazado 118316" d="M1848.187,888.725l31.794-15.686a199.3,199.3,0,0,1,.338,27.5c-.619,10.791.536,29-7.753,29.6-5.8.42-16.6-.637-22.46-.638a110.025,110.025,0,0,0-.457-21.939C1849.047,901.881,1848.6,895.3,1848.187,888.725Z" transform="translate(-603.456 512.049)" fill="#ff6363"/>
    <path id="Trazado_118317" data-name="Trazado 118317" d="M1881.1,940.081c.012-.095.021-.19.029-.284.414-5.053.981-9.723.907-14.85-.053-3.643.138-7.937-1.219-11.358-10.033.581-20.241-.208-30.371.48-2.021.138-2.422,4.6-3.662,5.849-2.461,2.477-7.262,3.777-10.52,4.686-6.8,1.9-13.781,3.02-19.42,7.657-2.933,2.411-9.653,11.179-4.051,14.088,2.281,1.186,6.822.1,9.261-.01q6.047-.277,12.087-.662,22.889-1.457,45.646-4.449a1.668,1.668,0,0,0,1-.364A1.329,1.329,0,0,0,1881.1,940.081Z" transform="translate(-603.456 512.049)" fill="#084a93"/>
    <g id="Grupo_113654" data-name="Grupo 113654" transform="translate(-603.456 512.049)">
      <path id="Trazado_118318" data-name="Trazado 118318" d="M1872.713,417.146c-.208,1.549-.379,3.108-.451,4.684-.67,14.76-2.471,29.448-2.718,44.272-.176,10.568-.546,33.074-16.325,32.255-3.355-.174-6.5-1.6-9.512-3.1s-6.167-3.269-7.584-6.311c-1.452-3.118-.707-6.767.064-10.119l6.882-29.9c2.085-9.06,5.165-18.049,6.182-27.309.261-2.381.046-8.885,3.2-9.613a2.182,2.182,0,0,1,2.274.934,7.24,7.24,0,0,1,.613-2.374,2.45,2.45,0,0,1,1.9-1.4c1.294-.08,2.232,1.166,2.912,2.27a8.859,8.859,0,0,1,.771-2.55,2.986,2.986,0,0,1,2.024-1.605,2.909,2.909,0,0,1,2.6,1.118,6.976,6.976,0,0,1,1.232,2.666c.4,1.431.275,4.708,1.25,5.705,1.175-1.292,1.285-3.806,1.2-5.491a28.343,28.343,0,0,0-1.062-5.715c-.3-1.154-.575-2.5.166-3.441,3.174-4.009,5.731,4.069,5.556,6.239C1873.645,411.273,1873.111,414.189,1872.713,417.146Z" fill="#ff6363"/>
      <path id="Trazado_118319" data-name="Trazado 118319" d="M1841.039,473.4c9.565,2.171,19.136,4.313,28.88,5.367-5.422,22.924-7.689,44.023-6.486,65.673.805,14.482,4.378,23.681,14.679,33.75.97.948,1.119,2.516,1.171,3.873.136,3.561-4.159,4.28-6.722,5.552-7.467,3.706-14.713,7.841-22.03,11.809L1839.051,605c-22.608-56.078-13.657-94.437-4.109-132.347C1836.973,472.913,1839.007,473.157,1841.039,473.4Z" fill="#084a93"/>
      <rect id="Rectángulo_293577" data-name="Rectángulo 293577" width="144.943" height="45.173" rx="3.635" transform="translate(1941.95 428.085) rotate(-180)" fill="#ffb30b"/>
      <rect id="Rectángulo_293578" data-name="Rectángulo 293578" width="144.943" height="45.173" rx="3.635" transform="translate(1933.4 433.516) rotate(-180)" fill="none" stroke="#000" stroke-linecap="round" stroke-linejoin="round" stroke-width="1"/>
      <g id="Grupo_113648" data-name="Grupo 113648">
        <g id="Grupo_113647" data-name="Grupo 113647" clip-path="url(#clip-path)">
          <path id="Trazado_118320" data-name="Trazado 118320" d="M1827.323,543.3c-4.482.394-11.8-2.781-11-8.181a7.341,7.341,0,0,1,.993-2.43c2.5-4.5,5.539-8.263,11.136-4.627a11.607,11.607,0,0,1,4.559,6.59,7.979,7.979,0,0,1,.309,3.8c-.549,2.688-3.226,4.593-5.958,4.848Z"/>
        </g>
      </g>
      <g id="Grupo_113653" data-name="Grupo 113653">
        <path id="Trazado_118322" data-name="Trazado 118322" d="M1943.736,724.459q-.214-.741-.431-1.482c-4.328-14.868-8.7-29.723-12.985-44.6-2.7-9.368-.945-20.082-3.471-28.592-5.244-17.667-47.249-10.311-62.749-11.934-8.121-.85-21.985-4.972-28.84,1.5-6.135,5.8-6.34,20.275-7.765,28.209-6.751,37.6-4.394,76.161-2.014,114.286l4.793,76.778c.869,13.913.67,28.338,3.369,41.927,20.008,3.853,43.333,1.409,63.483-.843q-6.153-47.881-12.307-95.763c-3.874-30.15-8.107-60.422-9.369-90.846,3.109,14.758,9.042,29.185,13.256,43.7,4.776,16.455,9.2,33.011,14.111,49.428,2.51,8.394,25.047,94.795,28.288,94.57l62.612-4.649Q1968.727,810.3,1943.736,724.459Z"/>
        <path id="Trazado_118323" data-name="Trazado 118323" d="M1846.507,573.326a61.347,61.347,0,0,1,20.9-7.672c8.511-1.558,16.636-1.462,26.209-1.1,10.339.39,17.175,3.023,24.3,10.923,8.431,9.347,10.92,20.841,11.8,33.011q1.611,22.272,3.226,44.543c-34.981-1-71.057.376-105.825-3.224-4.341-.452,7.2-55.815,8.157-60.481.613-3,1.265-6.068,2.878-8.671a21.632,21.632,0,0,1,6.9-6.41Q1845.777,573.771,1846.507,573.326Z" fill="#084a93"/>
        <g id="Grupo_113651" data-name="Grupo 113651">
          <path id="Trazado_118324" data-name="Trazado 118324" d="M1861.665,528.109a21.9,21.9,0,0,0-.058,3.765,4.394,4.394,0,0,0,.92,2.758c3.051,3.249,9.776-7.976,10.965-9.993,1.705-2.9,3.531-6.94,2.766-10.376a4.656,4.656,0,0,0-3.946-3.739c-2.182-.1-4.473,2.509-5.548,4.138A30.337,30.337,0,0,0,1861.665,528.109Z"/>
          <path id="Trazado_118325" data-name="Trazado 118325" d="M1885.285,519.6q.984.47,1.928.994c3.419,1.891,7.2,4.346,7.844,8.526a38.839,38.839,0,0,1,.412,5.9,99.259,99.259,0,0,1-.951,11.879q-.622,5.146-1.244,10.293c-.184,1.519-1.158,6.023.552,6.991a2.087,2.087,0,0,0,.878.182,7.853,7.853,0,0,1,1.772.349c-.069-.022-1.892,2.238-2.172,2.444-.791.58-1.495,1.276-2.279,1.879a18.771,18.771,0,0,1-5.7,3,18.488,18.488,0,0,1-12.357-.4,16.368,16.368,0,0,1-3.534-1.661,8.2,8.2,0,0,1-2.285-2.572,1.731,1.731,0,0,1,.774-2.407,5.284,5.284,0,0,0,.964-.611,3.092,3.092,0,0,0,1.179-2.009c.119-1.167.355-3.473-.7-4.162-1.11-.727-3.18-.738-4.468-1.343-4.617-2.172-5.548-6.092-5.289-10.887a53.427,53.427,0,0,1,2.768-14.3c.991-2.909,2.235-5.74,2.957-8.728a8.977,8.977,0,0,1,1.221-3.366c1.041-1.4,2.293-1.275,3.8-1.47,1.446-.186,2.8-.731,4.3-.8A20.53,20.53,0,0,1,1885.285,519.6Z" fill="#ff6363"/>
          <path id="Trazado_118326" data-name="Trazado 118326" d="M1926.556,559.408a45.881,45.881,0,0,1-5.794,8.508c-2.353,2.77-4.384,2.1-7.629.774a33.9,33.9,0,0,0-17.048-2.218,6.74,6.74,0,0,1-2.3.057c-2.177-.481-2.547-3.082-3.092-4.884-1.448-4.791-.739-9.559-1.376-14.458a15.02,15.02,0,0,0-2.069-6.068c-1.056-1.668-2.705-2.457-3.911-3.91-2.792-3.364.938-7.712-1.53-10.667-1.173-1.4-3.417-2.35-5.1-2.918-3.657-1.231-8.743-1.385-10.885-5.139-1.465-2.57-.661-6.008,1.335-8.191a13.386,13.386,0,0,1,7.857-3.757,24.031,24.031,0,0,1,18.8,5.047c2.805,2.3,4.934,5.554,8.231,7.077,3.594,1.66,7.553,2.539,10.87,4.778a59.478,59.478,0,0,1,4.873,4.069c4.383,3.7,10.154,7.8,12.147,13.425,1.761,4.968.252,10.49-1.868,15.316C1927.6,557.312,1927.1,558.368,1926.556,559.408Z"/>
          <path id="Trazado_118327" data-name="Trazado 118327" d="M1892.337,540.872c-.908,3.463-6.726,6.026-7.945,1.524-.7-2.592.51-6.934,3.631-7.271C1891.014,534.8,1893.029,538.232,1892.337,540.872Z" fill="#ff6363"/>
          <path id="Trazado_118328" data-name="Trazado 118328" d="M1891.264,539.069a1.78,1.78,0,0,0-1.039-.97,3.136,3.136,0,0,0-2.533.137,4.118,4.118,0,0,0-1.8,1.836" fill="none" stroke="#000" stroke-linecap="round" stroke-linejoin="round" stroke-width="1"/>
          <g id="Grupo_113650" data-name="Grupo 113650">
            <g id="Grupo_113649" data-name="Grupo 113649" clip-path="url(#clip-path-2)">
              <path id="Trazado_118329" data-name="Trazado 118329" d="M1867.334,558.876a9.328,9.328,0,0,0,5.083-1.06,6.675,6.675,0,0,1,2.5-1.058.957.957,0,0,1,.889.317c.292.438-.12,1.02-.581,1.276s-1.025.4-1.3.852c-.262.42-.184.978-.413,1.417a2.293,2.293,0,0,1-1.666.913,18.626,18.626,0,0,0-4.217,1.318"/>
            </g>
          </g>
        </g>
        <g id="Grupo_113652" data-name="Grupo 113652">
          <path id="Trazado_118331" data-name="Trazado 118331" d="M1929.367,417.908c.556,1.955,1.034,3.935,1.559,5.9,4.152,15.541,9.16,30.895,13.754,46.341q.981,3.3,1.965,6.6c1.506,5.049,3.014,10.468,1.427,15.492-1.776,5.624-7.322,9.547-13.152,10.442a23.963,23.963,0,0,1-11.481-1.278c-4.48-1.563-5.306-2.813-6.643-7.219-2.185-7.2-.78-16.309-1.418-23.873a229.39,229.39,0,0,0-3.578-25.378c-1.867-9.406-3.7-18.8-7.17-27.785a8.969,8.969,0,0,1-.695-2.439,2.868,2.868,0,0,1,.76-2.339,2.347,2.347,0,0,1,3.369.56,4.615,4.615,0,0,1-.926-2.166,3.52,3.52,0,0,1,.359-2.229c1.112-1.445,3.521.434,4.445,1.17-.8-1.005-1.98-2.548-1.7-3.924a1.823,1.823,0,0,1,1.322-1.423,2.672,2.672,0,0,1,1.816.417,19.533,19.533,0,0,1,4.719,4.176,50.528,50.528,0,0,1,5.327,7.212,17.5,17.5,0,0,0-5.446-9.939c-.855-.829-2.255-1.387-1.584-2.86a2.049,2.049,0,0,1,2.247-1,9.33,9.33,0,0,1,3.582,2.276,22.194,22.194,0,0,1,5.691,8.867C1928.479,414.951,1928.946,416.422,1929.367,417.908Z" fill="#ff6363"/>
          <path id="Trazado_118332" data-name="Trazado 118332" d="M1923.3,422.313" fill="none" stroke="#000" stroke-linecap="round" stroke-linejoin="round" stroke-width="1"/>
          <path id="Trazado_118333" data-name="Trazado 118333" d="M1921.12,415.668" fill="none" stroke="#000" stroke-linecap="round" stroke-linejoin="round" stroke-width="1"/>
        </g>
      </g>
      <path id="Trazado_118334" data-name="Trazado 118334" d="M1911.86,534.8c4.169-19.724,3.622-40.165.983-60.176.11.017.219.037.329.054q4,.626,8.01,1.217c10.339-.6,18.139-3.37,27.6-1.67,8.441,39.873,1.647,90.238-19.866,124.865-6.041,9.725-13.729,19.248-24.5,23.118-9.469-10.8-16.625-19.512-23.423-32.168C1897.282,576.05,1907.418,555.81,1911.86,534.8Z" fill="#084a93"/>
      <rect id="Rectángulo_293579" data-name="Rectángulo 293579" width="47.266" height="13.552" transform="translate(1883.952 412.522) rotate(-180)" fill="#1d1d1b"/>
      <path id="Trazado_118335" data-name="Trazado 118335" d="M1907.549,412.423a32.115,32.115,0,0,1,5.3,10.223" fill="none" stroke="#1c1c1b" stroke-linecap="round" stroke-linejoin="round" stroke-width="1"/>
      <path id="Trazado_118336" data-name="Trazado 118336" d="M1911.541,409.3c3.116,3.339,6.327,6.839,7.666,11.2" fill="none" stroke="#1c1c1b" stroke-linecap="round" stroke-linejoin="round" stroke-width="1"/>
      <path id="Trazado_118337" data-name="Trazado 118337" d="M1923.462,415.939a9.233,9.233,0,0,0,.7,2.163" fill="none" stroke="#1c1c1b" stroke-linecap="round" stroke-linejoin="round" stroke-width="1"/>
      <path id="Trazado_118338" data-name="Trazado 118338" d="M1931.583,411.746a3.429,3.429,0,0,0-1.127-1.178,2,2,0,0,0-2.584.33,3.216,3.216,0,0,0-.113,2.6,33.419,33.419,0,0,1,.7,7.242c.018,2.285-.417,4.409-.107,6.729a3.118,3.118,0,0,0,1.063,2.287,2.108,2.108,0,0,0,2.246-.084,4.067,4.067,0,0,0,1.439-1.849,12.661,12.661,0,0,0,.739-5.891C1933.644,418.823,1933.244,414.454,1931.583,411.746Z" fill="#ff6363"/>
      <path id="Trazado_118339" data-name="Trazado 118339" d="M1927.472,412.352a36.885,36.885,0,0,1,2.819,9.227" fill="none" stroke="#1c1c1b" stroke-linecap="round" stroke-linejoin="round" stroke-width="1"/>
      <path id="Trazado_118340" data-name="Trazado 118340" d="M1870.8,546.046a6.635,6.635,0,0,1-6.649,1.744,2.609,2.609,0,0,1-1.389-.871" fill="none" stroke="#000" stroke-linecap="round" stroke-linejoin="round" stroke-width="1"/>
      <path id="Trazado_118341" data-name="Trazado 118341" d="M1928.544,598.47l-2.139,6.39" fill="none" stroke="#000" stroke-linecap="round" stroke-linejoin="round" stroke-width="1"/>
      <path id="Trazado_118342" data-name="Trazado 118342" d="M1834.106,590.594a58.142,58.142,0,0,1,3.872,11.92" fill="none" stroke="#000" stroke-linecap="round" stroke-linejoin="round" stroke-width="1"/>
      <path id="Trazado_118343" data-name="Trazado 118343" d="M1944.93,530.975a5.931,5.931,0,0,0-4.313-4.27,5.605,5.605,0,0,0-5.514,2.9,10.24,10.24,0,0,0-1,6.433c.429,3.418,3.369,9.2,7.772,7.57C1945.775,542.162,1945.905,534.166,1944.93,530.975Z"/>
    </g>
    <path id="Trazado_118344" data-name="Trazado 118344" d="M1881.561,935.405q-35.733,2.778-71.3,7.292" transform="translate(-603.456 512.049)" fill="none" stroke="#000" stroke-linecap="round" stroke-linejoin="round" stroke-width="1"/>
    <path id="Trazado_118345" data-name="Trazado 118345" d="M1829.576,930.505a9.143,9.143,0,0,1-4.175-3.462,1.747,1.747,0,0,1-.375-1.163,1.322,1.322,0,0,1,1.474-.951,3.843,3.843,0,0,1,1.733.815l3.983,2.773a2.828,2.828,0,0,0,1.234.588.971.971,0,0,0,1.082-.645,2.49,2.49,0,0,0-1.059-1.835,7.558,7.558,0,0,1-1.606-1.48,1.538,1.538,0,0,1,.11-1.994,1.6,1.6,0,0,1,1.321-.217c2.227.455,3.422,3.138,5.625,3.7a.936.936,0,0,0,.652-.015.906.906,0,0,0,.3-1.054c-.391-1.5-2.181-2.447-2.247-4a1.147,1.147,0,0,1,.195-.745,1.332,1.332,0,0,1,1.4-.292c2.122.559,3.153,2.9,3.893,4.97" transform="translate(-603.456 512.049)" fill="none" stroke="#000" stroke-linecap="round" stroke-linejoin="round" stroke-width="1"/>
    <path id="Trazado_118346" data-name="Trazado 118346" d="M1873.065,929.658a3.656,3.656,0,0,1-4.47-5.5,2.473,2.473,0,0,1,1.063-.856,3.466,3.466,0,0,1,1.8-.043,5.293,5.293,0,0,1,3.2,1.42A2.934,2.934,0,0,1,1873,929.5" transform="translate(-603.456 512.049)" fill="none" stroke="#000" stroke-linecap="round" stroke-linejoin="round" stroke-width="1"/>
    <path id="Trazado_118347" data-name="Trazado 118347" d="M1876.116,718.659a240.287,240.287,0,0,1-5.448-36.021" transform="translate(-603.456 512.049)" fill="none" stroke="#7a5ce0" stroke-linecap="round" stroke-linejoin="round" stroke-width="1"/>
    <path id="Trazado_118348" data-name="Trazado 118348" d="M1867.72,565.2a10.006,10.006,0,0,0,5.178,6.213,19.638,19.638,0,0,0,14.587.75,14.862,14.862,0,0,0,2.741-1.163,20.047,20.047,0,0,0,5.691-5.4" transform="translate(-603.456 512.049)" fill="none" stroke="#000" stroke-linecap="round" stroke-linejoin="round" stroke-width="1"/>
  </g>
</svg>
