<svg xmlns="http://www.w3.org/2000/svg" width="505" height="427.705" viewBox="0 0 505 427.705">
  <g id="Grupo_113827" data-name="Grupo 113827" transform="translate(-180 -4923)">
    <g id="Grupo_112396" data-name="Grupo 112396" transform="translate(549.906 4923)">
      <g id="Grupo_112363" data-name="Grupo 112363" transform="translate(18.21)">
        <g id="Grupo_112362" data-name="Grupo 112362">
          <path id="Trazado_117341" data-name="Trazado 117341" d="M1174.971,1402.208h-51.137a6.457,6.457,0,0,1-6.45-6.451v-95.642a6.456,6.456,0,0,1,6.45-6.451h51.137a6.457,6.457,0,0,1,6.451,6.451v95.642A6.457,6.457,0,0,1,1174.971,1402.208Zm-51.137-105.873a3.783,3.783,0,0,0-3.779,3.78v95.642a3.783,3.783,0,0,0,3.779,3.78h51.137a3.784,3.784,0,0,0,3.78-3.78v-95.642a3.784,3.784,0,0,0-3.78-3.78Z" transform="translate(-1117.384 -1293.664)" fill="#00003e"/>
        </g>
      </g>
      <g id="Grupo_112365" data-name="Grupo 112365" transform="translate(57.919 87.668)">
        <g id="Grupo_112364" data-name="Grupo 112364">
          <path id="Trazado_117342" data-name="Trazado 117342" d="M1158.357,1383.1a4.952,4.952,0,1,1,4.953-4.954A4.957,4.957,0,0,1,1158.357,1383.1Zm0-7.233a2.281,2.281,0,1,0,2.282,2.28A2.283,2.283,0,0,0,1158.357,1375.865Z" transform="translate(-1153.407 -1373.195)" fill="#00003e"/>
        </g>
      </g>
      <g id="Grupo_112372" data-name="Grupo 112372" transform="translate(39.099 14.739)">
        <g id="Grupo_112367" data-name="Grupo 112367">
          <g id="Grupo_112366" data-name="Grupo 112366">
            <path id="Trazado_117343" data-name="Trazado 117343" d="M1140.365,1309.05a2.016,2.016,0,1,1-2.015-2.015A2.015,2.015,0,0,1,1140.365,1309.05Z" transform="translate(-1136.334 -1307.035)" fill="#00003e"/>
          </g>
        </g>
        <g id="Grupo_112369" data-name="Grupo 112369" transform="translate(8.519)">
          <g id="Grupo_112368" data-name="Grupo 112368">
            <path id="Trazado_117344" data-name="Trazado 117344" d="M1148.092,1309.05a2.015,2.015,0,1,1-2.015-2.015A2.014,2.014,0,0,1,1148.092,1309.05Z" transform="translate(-1144.062 -1307.035)" fill="#00003e"/>
          </g>
        </g>
        <g id="Grupo_112371" data-name="Grupo 112371" transform="translate(17.037)">
          <g id="Grupo_112370" data-name="Grupo 112370">
            <path id="Trazado_117345" data-name="Trazado 117345" d="M1155.82,1309.05a2.015,2.015,0,1,1-2.015-2.015A2.015,2.015,0,0,1,1155.82,1309.05Z" transform="translate(-1151.79 -1307.035)" fill="#00003e"/>
          </g>
        </g>
      </g>
      <g id="Grupo_112385" data-name="Grupo 112385" transform="translate(35.372 26.384)">
        <g id="Grupo_112374" data-name="Grupo 112374">
          <g id="Grupo_112373" data-name="Grupo 112373">
            <path id="Trazado_117346" data-name="Trazado 117346" d="M1161.332,1320.27h-27.044a1.335,1.335,0,0,1,0-2.671h27.044a1.335,1.335,0,0,1,0,2.671Z" transform="translate(-1132.953 -1317.599)" fill="#00003e"/>
          </g>
        </g>
        <g id="Grupo_112376" data-name="Grupo 112376" transform="translate(0 10.445)">
          <g id="Grupo_112375" data-name="Grupo 112375">
            <path id="Trazado_117347" data-name="Trazado 117347" d="M1161.332,1329.746h-27.044a1.336,1.336,0,0,1,0-2.671h27.044a1.336,1.336,0,0,1,0,2.671Z" transform="translate(-1132.953 -1327.075)" fill="#00003e"/>
          </g>
        </g>
        <g id="Grupo_112378" data-name="Grupo 112378" transform="translate(0 20.894)">
          <g id="Grupo_112377" data-name="Grupo 112377">
            <path id="Trazado_117348" data-name="Trazado 117348" d="M1161.332,1339.225h-27.044a1.336,1.336,0,0,1,0-2.671h27.044a1.336,1.336,0,0,1,0,2.671Z" transform="translate(-1132.953 -1336.554)" fill="#00003e"/>
          </g>
        </g>
        <g id="Grupo_112380" data-name="Grupo 112380" transform="translate(0 31.34)">
          <g id="Grupo_112379" data-name="Grupo 112379">
            <path id="Trazado_117349" data-name="Trazado 117349" d="M1161.332,1348.7h-27.044a1.335,1.335,0,0,1,0-2.671h27.044a1.335,1.335,0,0,1,0,2.671Z" transform="translate(-1132.953 -1346.03)" fill="#00003e"/>
          </g>
        </g>
        <g id="Grupo_112382" data-name="Grupo 112382" transform="translate(0 41.788)">
          <g id="Grupo_112381" data-name="Grupo 112381">
            <path id="Trazado_117350" data-name="Trazado 117350" d="M1161.332,1358.179h-27.044a1.335,1.335,0,0,1,0-2.671h27.044a1.335,1.335,0,0,1,0,2.671Z" transform="translate(-1132.953 -1355.508)" fill="#00003e"/>
          </g>
        </g>
        <g id="Grupo_112384" data-name="Grupo 112384" transform="translate(0 52.233)">
          <g id="Grupo_112383" data-name="Grupo 112383">
            <path id="Trazado_117351" data-name="Trazado 117351" d="M1161.332,1367.655h-27.044a1.335,1.335,0,0,1,0-2.671h27.044a1.335,1.335,0,0,1,0,2.671Z" transform="translate(-1132.953 -1364.984)" fill="#00003e"/>
          </g>
        </g>
      </g>
      <g id="Grupo_112390" data-name="Grupo 112390" transform="translate(0 13.823)">
        <g id="Grupo_112387" data-name="Grupo 112387">
          <g id="Grupo_112386" data-name="Grupo 112386">
            <path id="Trazado_117352" data-name="Trazado 117352" d="M1118.818,1390.7h-13.21a4.75,4.75,0,0,1-4.744-4.744v-75a4.75,4.75,0,0,1,4.744-4.744h13.85a1.335,1.335,0,0,1,0,2.671h-13.85a2.077,2.077,0,0,0-2.073,2.073v75a2.078,2.078,0,0,0,2.073,2.073h13.21a1.335,1.335,0,1,1,0,2.671Z" transform="translate(-1100.864 -1306.204)" fill="#00003e"/>
          </g>
        </g>
        <g id="Grupo_112389" data-name="Grupo 112389" transform="translate(7.318 12.645)">
          <g id="Grupo_112388" data-name="Grupo 112388">
            <path id="Trazado_117353" data-name="Trazado 117353" d="M1111.534,1319.69a2.016,2.016,0,1,1-2.015-2.015A2.015,2.015,0,0,1,1111.534,1319.69Z" transform="translate(-1107.503 -1317.675)" fill="#00003e"/>
          </g>
        </g>
      </g>
      <g id="Grupo_112395" data-name="Grupo 112395" transform="translate(80.529 13.823)">
        <g id="Grupo_112392" data-name="Grupo 112392">
          <g id="Grupo_112391" data-name="Grupo 112391">
            <path id="Trazado_117354" data-name="Trazado 117354" d="M1189.106,1390.7h-13.213a1.335,1.335,0,1,1,0-2.671h13.213a2.077,2.077,0,0,0,2.073-2.073v-75a2.077,2.077,0,0,0-2.073-2.073h-13.852a1.335,1.335,0,0,1,0-2.671h13.852a4.75,4.75,0,0,1,4.744,4.744v75A4.75,4.75,0,0,1,1189.106,1390.7Z" transform="translate(-1173.919 -1306.204)" fill="#00003e"/>
          </g>
        </g>
        <g id="Grupo_112394" data-name="Grupo 112394" transform="translate(8.58 12.645)">
          <g id="Grupo_112393" data-name="Grupo 112393">
            <path id="Trazado_117355" data-name="Trazado 117355" d="M1181.7,1319.69a2.015,2.015,0,1,0,2.015-2.015A2.015,2.015,0,0,0,1181.7,1319.69Z" transform="translate(-1181.703 -1317.675)" fill="#00003e"/>
          </g>
        </g>
      </g>
    </g>
    <g id="Grupo_112398" data-name="Grupo 112398" transform="translate(237.126 4955.605)">
      <g id="Grupo_112397" data-name="Grupo 112397" transform="translate(0 0)">
        <rect id="Rectángulo_293433" data-name="Rectángulo 293433" width="279.378" height="279.378" rx="10" transform="translate(0 197.55) rotate(-45)" fill="#b9ddfc"/>
      </g>
    </g>
    <g id="Grupo_112452" data-name="Grupo 112452" transform="translate(357.398 5031.712)">
      <g id="Grupo_112405" data-name="Grupo 112405" transform="translate(0 138.169)">
        <g id="Grupo_112401" data-name="Grupo 112401" transform="translate(0 9.052)">
          <g id="Grupo_112400" data-name="Grupo 112400">
            <g id="Grupo_112399" data-name="Grupo 112399">
              <path id="Trazado_117356" data-name="Trazado 117356" d="M1030.1,1589.69c-43.812,0-90.378-6.7-90.378-19.114v-44.733h2.671v44.733c0,7.777,36.021,16.443,87.707,16.443s87.705-8.666,87.705-16.443v-44.733h2.671v44.733C1120.473,1582.99,1073.908,1589.69,1030.1,1589.69Z" transform="translate(-939.719 -1525.843)" fill="#00003e"/>
            </g>
          </g>
        </g>
        <g id="Grupo_112404" data-name="Grupo 112404">
          <g id="Grupo_112403" data-name="Grupo 112403">
            <g id="Grupo_112402" data-name="Grupo 112402">
              <path id="Trazado_117357" data-name="Trazado 117357" d="M1030.1,1545.8c-43.812,0-90.378-6.7-90.378-19.115,0-3.145,2.948-6.032,8.761-8.583l1.074,2.446c-4.621,2.026-7.164,4.2-7.164,6.137,0,7.778,36.021,16.444,87.707,16.444s87.705-8.666,87.705-16.444c0-2.083-2.918-4.42-8.216-6.58l1.008-2.473c6.557,2.67,9.879,5.717,9.879,9.052C1120.473,1539.1,1073.908,1545.8,1030.1,1545.8Z" transform="translate(-939.719 -1517.631)" fill="#00003e"/>
            </g>
          </g>
        </g>
      </g>
      <g id="Grupo_112412" data-name="Grupo 112412" transform="translate(0 80.497)">
        <g id="Grupo_112408" data-name="Grupo 112408" transform="translate(0 7.285)">
          <g id="Grupo_112407" data-name="Grupo 112407">
            <g id="Grupo_112406" data-name="Grupo 112406">
              <path id="Trazado_117358" data-name="Trazado 117358" d="M1030.1,1535.768c-43.812,0-90.378-6.7-90.378-19.115v-44.732h2.671v44.732c0,7.778,36.021,16.444,87.707,16.444s87.705-8.666,87.705-16.444v-44.732h2.671v44.732C1120.473,1529.068,1073.908,1535.768,1030.1,1535.768Z" transform="translate(-939.719 -1471.921)" fill="#00003e"/>
            </g>
          </g>
        </g>
        <g id="Grupo_112411" data-name="Grupo 112411">
          <g id="Grupo_112410" data-name="Grupo 112410">
            <g id="Grupo_112409" data-name="Grupo 112409">
              <path id="Trazado_117359" data-name="Trazado 117359" d="M1030.1,1491.712c-43.812,0-90.378-6.7-90.378-19.115,0-2.575,1.967-4.977,5.842-7.144l1.3,2.331c-2.929,1.636-4.475,3.3-4.475,4.813,0,7.777,36.021,16.444,87.707,16.444s87.705-8.668,87.705-16.444c0-1.552-1.627-3.261-4.707-4.937l1.277-2.348c4.048,2.207,6.1,4.656,6.1,7.285C1120.473,1485.011,1073.908,1491.712,1030.1,1491.712Z" transform="translate(-939.719 -1465.312)" fill="#00003e"/>
            </g>
          </g>
        </g>
      </g>
      <g id="Grupo_112417" data-name="Grupo 112417" transform="translate(66.562 123.808)">
        <g id="Grupo_112414" data-name="Grupo 112414">
          <g id="Grupo_112413" data-name="Grupo 112413">
            <path id="Trazado_117360" data-name="Trazado 117360" d="M1005.739,1515.875a5.636,5.636,0,1,1,5.636-5.636A5.641,5.641,0,0,1,1005.739,1515.875Zm0-8.6a2.965,2.965,0,1,0,2.966,2.965A2.969,2.969,0,0,0,1005.739,1507.274Z" transform="translate(-1000.103 -1504.603)" fill="#00003e"/>
          </g>
        </g>
        <g id="Grupo_112416" data-name="Grupo 112416" transform="translate(18.179)">
          <g id="Grupo_112415" data-name="Grupo 112415">
            <path id="Trazado_117361" data-name="Trazado 117361" d="M1022.231,1515.875a5.636,5.636,0,1,1,5.636-5.636A5.64,5.64,0,0,1,1022.231,1515.875Zm0-8.6a2.965,2.965,0,1,0,2.965,2.965A2.969,2.969,0,0,0,1022.231,1507.274Z" transform="translate(-1016.595 -1504.603)" fill="#00003e"/>
          </g>
        </g>
      </g>
      <g id="Grupo_112422" data-name="Grupo 112422" transform="translate(84.741 181.67)">
        <g id="Grupo_112419" data-name="Grupo 112419">
          <g id="Grupo_112418" data-name="Grupo 112418">
            <path id="Trazado_117362" data-name="Trazado 117362" d="M1022.231,1568.366a5.636,5.636,0,1,1,5.636-5.636A5.641,5.641,0,0,1,1022.231,1568.366Zm0-8.6a2.965,2.965,0,1,0,2.965,2.965A2.969,2.969,0,0,0,1022.231,1559.765Z" transform="translate(-1016.595 -1557.094)" fill="#00003e"/>
          </g>
        </g>
        <g id="Grupo_112421" data-name="Grupo 112421" transform="translate(18.178)">
          <g id="Grupo_112420" data-name="Grupo 112420">
            <path id="Trazado_117363" data-name="Trazado 117363" d="M1038.722,1568.366a5.636,5.636,0,1,1,5.636-5.636A5.642,5.642,0,0,1,1038.722,1568.366Zm0-8.6a2.965,2.965,0,1,0,2.965,2.965A2.969,2.969,0,0,0,1038.722,1559.765Z" transform="translate(-1033.086 -1557.094)" fill="#00003e"/>
          </g>
        </g>
      </g>
      <g id="Grupo_112425" data-name="Grupo 112425" transform="translate(0 30.044)">
        <g id="Grupo_112424" data-name="Grupo 112424">
          <g id="Grupo_112423" data-name="Grupo 112423">
            <path id="Trazado_117364" data-name="Trazado 117364" d="M1030.1,1483.388c-43.812,0-90.378-6.7-90.378-19.115v-44.732h2.671v44.732c0,7.778,36.021,16.444,87.707,16.444s87.705-8.666,87.705-16.444v-44.732h2.671v44.732C1120.473,1476.688,1073.908,1483.388,1030.1,1483.388Z" transform="translate(-939.719 -1419.541)" fill="#00003e"/>
          </g>
        </g>
      </g>
      <g id="Grupo_112430" data-name="Grupo 112430" transform="translate(0 14.361)">
        <g id="Grupo_112429" data-name="Grupo 112429">
          <g id="Grupo_112428" data-name="Grupo 112428">
            <g id="Grupo_112427" data-name="Grupo 112427">
              <g id="Grupo_112426" data-name="Grupo 112426">
                <path id="Trazado_117365" data-name="Trazado 117365" d="M1030.1,1440.112c-43.812,0-90.378-6.7-90.378-19.115,0-8.716,22.962-13.471,36.65-15.529l.4,2.64c-25.372,3.818-34.376,9.329-34.376,12.889,0,7.778,36.021,16.444,87.707,16.444s87.705-8.667,87.705-16.444c0-3.628-9.268-9.222-35.392-13.038l.386-2.645c14.071,2.058,37.677,6.828,37.677,15.683C1120.473,1433.411,1073.908,1440.112,1030.1,1440.112Z" transform="translate(-939.719 -1405.314)" fill="#00003e"/>
              </g>
            </g>
          </g>
        </g>
      </g>
      <g id="Grupo_112435" data-name="Grupo 112435" transform="translate(66.562 64.335)">
        <g id="Grupo_112432" data-name="Grupo 112432">
          <g id="Grupo_112431" data-name="Grupo 112431">
            <path id="Trazado_117366" data-name="Trazado 117366" d="M1005.739,1461.922a5.636,5.636,0,1,1,5.636-5.636A5.642,5.642,0,0,1,1005.739,1461.922Zm0-8.6a2.965,2.965,0,1,0,2.966,2.965A2.968,2.968,0,0,0,1005.739,1453.321Z" transform="translate(-1000.103 -1450.65)" fill="#00003e"/>
          </g>
        </g>
        <g id="Grupo_112434" data-name="Grupo 112434" transform="translate(36.358)">
          <g id="Grupo_112433" data-name="Grupo 112433">
            <path id="Trazado_117367" data-name="Trazado 117367" d="M1038.722,1461.922a5.636,5.636,0,1,1,5.636-5.636A5.642,5.642,0,0,1,1038.722,1461.922Zm0-8.6a2.965,2.965,0,1,0,2.965,2.965A2.968,2.968,0,0,0,1038.722,1453.321Z" transform="translate(-1033.086 -1450.65)" fill="#00003e"/>
          </g>
        </g>
      </g>
      <g id="Grupo_112437" data-name="Grupo 112437" transform="translate(25.719 19.209)">
        <g id="Grupo_112436" data-name="Grupo 112436">
          <path id="Trazado_117368" data-name="Trazado 117368" d="M1027.709,1431.125c-32.132,0-64.658-4.6-64.658-13.387,0-2.99,3.435-5.491,10.5-7.645l.777,2.555c-6.348,1.936-8.609,3.9-8.609,5.089,0,4.475,23.583,10.717,61.987,10.717s61.987-6.241,61.987-10.717c0-1.3-2.59-3.412-9.856-5.454l.724-2.572c7.942,2.233,11.8,4.859,11.8,8.026C1092.368,1426.527,1059.842,1431.125,1027.709,1431.125Z" transform="translate(-963.051 -1409.712)" fill="#00003e"/>
        </g>
      </g>
      <g id="Grupo_112440" data-name="Grupo 112440" transform="translate(36.535 12.102)">
        <g id="Grupo_112439" data-name="Grupo 112439">
          <g id="Grupo_112438" data-name="Grupo 112438">
            <path id="Trazado_117369" data-name="Trazado 117369" d="M1025.6,1431.785c-39.4,0-51.464-5.355-51.957-5.582l-.777-.357v-22.581h2.671v20.807c3.208,1.122,16.809,5.042,50.063,5.042,33.6,0,48.714-3.973,52.281-5.084v-20.765h2.671V1425.9l-.853.332C1079.113,1426.462,1064.954,1431.785,1025.6,1431.785Z" transform="translate(-972.863 -1403.265)" fill="#00003e"/>
          </g>
        </g>
      </g>
      <g id="Grupo_112445" data-name="Grupo 112445" transform="translate(36.535)">
        <g id="Grupo_112444" data-name="Grupo 112444">
          <g id="Grupo_112443" data-name="Grupo 112443">
            <g id="Grupo_112442" data-name="Grupo 112442">
              <g id="Grupo_112441" data-name="Grupo 112441">
                <path id="Trazado_117370" data-name="Trazado 117370" d="M1026.706,1415.924c-21.643,0-53.843-3.148-53.843-11.818s32.2-11.82,53.843-11.82,53.842,3.148,53.842,11.82S1048.347,1415.924,1026.706,1415.924Zm0-20.967c-31.7,0-51.172,5.329-51.172,9.149s19.467,9.147,51.172,9.147,51.172-5.328,51.172-9.147S1058.41,1394.957,1026.706,1394.957Z" transform="translate(-972.863 -1392.286)" fill="#00003e"/>
              </g>
            </g>
          </g>
        </g>
      </g>
      <g id="Grupo_112447" data-name="Grupo 112447" transform="translate(63.143 178.251)">
        <g id="Grupo_112446" data-name="Grupo 112446">
          <path id="Trazado_117371" data-name="Trazado 117371" d="M1006.057,1572.1a9.055,9.055,0,1,1,9.053-9.055A9.068,9.068,0,0,1,1006.057,1572.1Zm0-15.44a6.385,6.385,0,1,0,6.382,6.385A6.391,6.391,0,0,0,1006.057,1556.663Z" transform="translate(-997.001 -1553.992)" fill="#00003e"/>
        </g>
      </g>
      <g id="Grupo_112449" data-name="Grupo 112449" transform="translate(99.5 120.389)">
        <g id="Grupo_112448" data-name="Grupo 112448">
          <path id="Trazado_117372" data-name="Trazado 117372" d="M1039.04,1519.61a9.054,9.054,0,1,1,9.055-9.053A9.066,9.066,0,0,1,1039.04,1519.61Zm0-15.438a6.384,6.384,0,1,0,6.385,6.385A6.391,6.391,0,0,0,1039.04,1504.172Z" transform="translate(-1029.984 -1501.501)" fill="#00003e"/>
        </g>
      </g>
      <g id="Grupo_112451" data-name="Grupo 112451" transform="translate(81.322 60.916)">
        <g id="Grupo_112450" data-name="Grupo 112450">
          <path id="Trazado_117373" data-name="Trazado 117373" d="M1022.549,1465.657a9.054,9.054,0,1,1,9.052-9.053A9.065,9.065,0,0,1,1022.549,1465.657Zm0-15.438a6.384,6.384,0,1,0,6.381,6.385A6.392,6.392,0,0,0,1022.549,1450.219Z" transform="translate(-1013.493 -1447.548)" fill="#00003e"/>
        </g>
      </g>
    </g>
    <g id="Grupo_112459" data-name="Grupo 112459" transform="translate(548.528 5205.521)">
      <g id="Grupo_112454" data-name="Grupo 112454" transform="translate(4.903)">
        <g id="Grupo_112453" data-name="Grupo 112453">
          <path id="Trazado_117374" data-name="Trazado 117374" d="M1142.526,1571.965a1.335,1.335,0,0,1-1.335-1.336v-7.516a10.482,10.482,0,0,0-20.964,0v7.516a1.336,1.336,0,1,1-2.671,0v-7.516a13.153,13.153,0,0,1,26.306,0v7.516A1.335,1.335,0,0,1,1142.526,1571.965Z" transform="translate(-1117.557 -1549.963)" fill="#00003e"/>
        </g>
      </g>
      <g id="Grupo_112456" data-name="Grupo 112456" transform="translate(0 19.897)">
        <g id="Grupo_112455" data-name="Grupo 112455">
          <path id="Trazado_117375" data-name="Trazado 117375" d="M1142.012,1599.914h-22.226a6.682,6.682,0,0,1-6.677-6.677V1574.69a6.683,6.683,0,0,1,6.677-6.677h22.226a6.683,6.683,0,0,1,6.677,6.677v18.548A6.683,6.683,0,0,1,1142.012,1599.914Zm-22.226-29.23a4.012,4.012,0,0,0-4.007,4.006v18.548a4.011,4.011,0,0,0,4.007,4.006h22.226a4.01,4.01,0,0,0,4.006-4.006V1574.69a4.011,4.011,0,0,0-4.006-4.006Z" transform="translate(-1113.109 -1568.013)" fill="#00003e"/>
        </g>
      </g>
      <g id="Grupo_112458" data-name="Grupo 112458" transform="translate(13.51 31.568)">
        <g id="Grupo_112457" data-name="Grupo 112457">
          <path id="Trazado_117376" data-name="Trazado 117376" d="M1129.644,1587.162a4.28,4.28,0,1,1,4.28-4.28A4.284,4.284,0,0,1,1129.644,1587.162Zm0-5.89a1.609,1.609,0,1,0,1.609,1.609A1.612,1.612,0,0,0,1129.644,1581.272Z" transform="translate(-1125.365 -1578.601)" fill="#00003e"/>
        </g>
      </g>
    </g>
    <g id="Grupo_112461" data-name="Grupo 112461" transform="translate(224.23 5169.596)">
      <g id="Grupo_112460" data-name="Grupo 112460">
        <path id="Trazado_117377" data-name="Trazado 117377" d="M908.747,1514.831H895.772a1.335,1.335,0,1,1,0-2.671h12.975a1.335,1.335,0,0,1,0,2.671Zm-26.33,0H869.064a1.335,1.335,0,0,1,0-2.671h13.353a1.335,1.335,0,1,1,0,2.671Zm-26.707,0H842.357a1.335,1.335,0,1,1,0-2.671H855.71a1.335,1.335,0,0,1,0,2.671Z" transform="translate(-841.021 -1512.16)" fill="#00003e"/>
      </g>
    </g>
    <g id="Grupo_112468" data-name="Grupo 112468" transform="translate(464.619 4935.927)">
      <g id="Grupo_112463" data-name="Grupo 112463" transform="translate(23.131 19.683)">
        <g id="Grupo_112462" data-name="Grupo 112462">
          <path id="Trazado_117378" data-name="Trazado 117378" d="M1069.668,1333.15a1.331,1.331,0,0,1-.765-.24l-10.359-7.232a1.336,1.336,0,0,1,1.529-2.19l10.359,7.232a1.335,1.335,0,0,1-.764,2.431Z" transform="translate(-1057.972 -1323.247)" fill="#00003e"/>
        </g>
      </g>
      <g id="Grupo_112465" data-name="Grupo 112465" transform="translate(16.745)">
        <g id="Grupo_112464" data-name="Grupo 112464">
          <path id="Trazado_117379" data-name="Trazado 117379" d="M1053.513,1319.2a1.335,1.335,0,0,1-1.335-1.335v-11.134a1.335,1.335,0,0,1,2.671,0v11.134A1.335,1.335,0,0,1,1053.513,1319.2Z" transform="translate(-1052.178 -1305.391)" fill="#00003e"/>
        </g>
      </g>
      <g id="Grupo_112467" data-name="Grupo 112467" transform="translate(0 19.683)">
        <g id="Grupo_112466" data-name="Grupo 112466">
          <path id="Trazado_117380" data-name="Trazado 117380" d="M1038.323,1333.15a1.335,1.335,0,0,1-.764-2.431l10.359-7.232a1.335,1.335,0,1,1,1.528,2.19l-10.36,7.232A1.328,1.328,0,0,1,1038.323,1333.15Z" transform="translate(-1036.987 -1323.247)" fill="#00003e"/>
        </g>
      </g>
    </g>
    <g id="Grupo_112511" data-name="Grupo 112511" transform="translate(257.549 5008.431)">
      <g id="Grupo_112470" data-name="Grupo 112470" transform="translate(18.646 17.764)">
        <g id="Grupo_112469" data-name="Grupo 112469">
          <path id="Trazado_117381" data-name="Trazado 117381" d="M903.632,1429.686H870.058a4.011,4.011,0,0,1-4.006-4.007v-34.393a4.01,4.01,0,0,1,4.006-4.006h33.574a4.01,4.01,0,0,1,4.007,4.006v34.393A4.011,4.011,0,0,1,903.632,1429.686Zm-33.574-39.735a1.337,1.337,0,0,0-1.335,1.335v34.393a1.339,1.339,0,0,0,1.335,1.336h33.574a1.339,1.339,0,0,0,1.336-1.336v-34.393a1.338,1.338,0,0,0-1.336-1.335Z" transform="translate(-866.052 -1387.28)" fill="#00003e"/>
        </g>
      </g>
      <g id="Grupo_112472" data-name="Grupo 112472" transform="translate(32.818 24.761)">
        <g id="Grupo_112471" data-name="Grupo 112471">
          <path id="Trazado_117382" data-name="Trazado 117382" d="M885.44,1406.692a6.532,6.532,0,1,1,6.533-6.532A6.539,6.539,0,0,1,885.44,1406.692Zm0-10.393a3.861,3.861,0,1,0,3.863,3.86A3.865,3.865,0,0,0,885.44,1396.3Z" transform="translate(-878.909 -1393.628)" fill="#00003e"/>
        </g>
      </g>
      <g id="Grupo_112474" data-name="Grupo 112474" transform="translate(23.955 43.829)">
        <g id="Grupo_112473" data-name="Grupo 112473">
          <path id="Trazado_117383" data-name="Trazado 117383" d="M900.321,1413.6H872.205a1.335,1.335,0,1,1,0-2.671h28.116a1.335,1.335,0,0,1,0,2.671Z" transform="translate(-870.869 -1410.926)" fill="#00003e"/>
        </g>
      </g>
      <g id="Grupo_112476" data-name="Grupo 112476" transform="translate(26.867 50.143)">
        <g id="Grupo_112475" data-name="Grupo 112475">
          <path id="Trazado_117384" data-name="Trazado 117384" d="M897.139,1419.325H874.845a1.335,1.335,0,0,1,0-2.671h22.294a1.335,1.335,0,1,1,0,2.671Z" transform="translate(-873.51 -1416.654)" fill="#00003e"/>
        </g>
      </g>
      <g id="Grupo_112478" data-name="Grupo 112478" transform="translate(8.189 8.189)">
        <g id="Grupo_112477" data-name="Grupo 112477">
          <path id="Trazado_117385" data-name="Trazado 117385" d="M912.388,1440.148H863.243a6.683,6.683,0,0,1-6.677-6.677v-48.2a6.683,6.683,0,0,1,6.677-6.677h49.145a6.683,6.683,0,0,1,6.677,6.677v48.2A6.683,6.683,0,0,1,912.388,1440.148Zm-49.145-58.883a4.011,4.011,0,0,0-4.006,4.006v48.2a4.011,4.011,0,0,0,4.006,4.006h49.145a4.01,4.01,0,0,0,4.006-4.006v-48.2a4.01,4.01,0,0,0-4.006-4.006Z" transform="translate(-856.566 -1378.594)" fill="#00003e"/>
        </g>
      </g>
      <g id="Grupo_112486" data-name="Grupo 112486" transform="translate(12.318)">
        <g id="Grupo_112479" data-name="Grupo 112479">
          <path id="Trazado_117386" data-name="Trazado 117386" d="M861.647,1382.025a1.335,1.335,0,0,1-1.335-1.336V1372.5a1.335,1.335,0,0,1,2.671,0v8.189A1.335,1.335,0,0,1,861.647,1382.025Z" transform="translate(-860.312 -1371.165)" fill="#00003e"/>
        </g>
        <g id="Grupo_112480" data-name="Grupo 112480" transform="translate(8.484)">
          <path id="Trazado_117387" data-name="Trazado 117387" d="M869.344,1382.025a1.334,1.334,0,0,1-1.335-1.336V1372.5a1.335,1.335,0,0,1,2.671,0v8.189A1.335,1.335,0,0,1,869.344,1382.025Z" transform="translate(-868.009 -1371.165)" fill="#00003e"/>
        </g>
        <g id="Grupo_112481" data-name="Grupo 112481" transform="translate(16.968)">
          <path id="Trazado_117388" data-name="Trazado 117388" d="M877.041,1382.025a1.335,1.335,0,0,1-1.336-1.336V1372.5a1.335,1.335,0,0,1,2.671,0v8.189A1.335,1.335,0,0,1,877.041,1382.025Z" transform="translate(-875.705 -1371.165)" fill="#00003e"/>
        </g>
        <g id="Grupo_112482" data-name="Grupo 112482" transform="translate(25.452)">
          <path id="Trazado_117389" data-name="Trazado 117389" d="M884.738,1382.025a1.335,1.335,0,0,1-1.336-1.336V1372.5a1.335,1.335,0,0,1,2.671,0v8.189A1.335,1.335,0,0,1,884.738,1382.025Z" transform="translate(-883.402 -1371.165)" fill="#00003e"/>
        </g>
        <g id="Grupo_112483" data-name="Grupo 112483" transform="translate(33.937)">
          <path id="Trazado_117390" data-name="Trazado 117390" d="M892.434,1382.025a1.335,1.335,0,0,1-1.335-1.336V1372.5a1.335,1.335,0,0,1,2.671,0v8.189A1.335,1.335,0,0,1,892.434,1382.025Z" transform="translate(-891.099 -1371.165)" fill="#00003e"/>
        </g>
        <g id="Grupo_112484" data-name="Grupo 112484" transform="translate(42.418)">
          <path id="Trazado_117391" data-name="Trazado 117391" d="M900.129,1382.025a1.335,1.335,0,0,1-1.336-1.336V1372.5a1.335,1.335,0,0,1,2.671,0v8.189A1.335,1.335,0,0,1,900.129,1382.025Z" transform="translate(-898.793 -1371.165)" fill="#00003e"/>
        </g>
        <g id="Grupo_112485" data-name="Grupo 112485" transform="translate(50.903)">
          <path id="Trazado_117392" data-name="Trazado 117392" d="M907.826,1382.025a1.335,1.335,0,0,1-1.336-1.336V1372.5a1.335,1.335,0,0,1,2.671,0v8.189A1.335,1.335,0,0,1,907.826,1382.025Z" transform="translate(-906.49 -1371.165)" fill="#00003e"/>
        </g>
      </g>
      <g id="Grupo_112494" data-name="Grupo 112494" transform="translate(68.565 11.643)">
        <g id="Grupo_112487" data-name="Grupo 112487">
          <path id="Trazado_117393" data-name="Trazado 117393" d="M920.863,1384.4h-8.189a1.335,1.335,0,1,1,0-2.67h8.189a1.335,1.335,0,1,1,0,2.67Z" transform="translate(-911.338 -1381.727)" fill="#00003e"/>
        </g>
        <g id="Grupo_112488" data-name="Grupo 112488" transform="translate(0 8.483)">
          <path id="Trazado_117394" data-name="Trazado 117394" d="M920.863,1392.094h-8.189a1.335,1.335,0,1,1,0-2.671h8.189a1.335,1.335,0,1,1,0,2.671Z" transform="translate(-911.338 -1389.423)" fill="#00003e"/>
        </g>
        <g id="Grupo_112489" data-name="Grupo 112489" transform="translate(0 16.968)">
          <path id="Trazado_117395" data-name="Trazado 117395" d="M920.863,1399.791h-8.189a1.335,1.335,0,1,1,0-2.671h8.189a1.335,1.335,0,1,1,0,2.671Z" transform="translate(-911.338 -1397.12)" fill="#00003e"/>
        </g>
        <g id="Grupo_112490" data-name="Grupo 112490" transform="translate(0 25.45)">
          <path id="Trazado_117396" data-name="Trazado 117396" d="M920.863,1407.485h-8.189a1.335,1.335,0,1,1,0-2.67h8.189a1.335,1.335,0,1,1,0,2.67Z" transform="translate(-911.338 -1404.815)" fill="#00003e"/>
        </g>
        <g id="Grupo_112491" data-name="Grupo 112491" transform="translate(0 33.934)">
          <path id="Trazado_117397" data-name="Trazado 117397" d="M920.863,1415.182h-8.189a1.335,1.335,0,1,1,0-2.671h8.189a1.335,1.335,0,1,1,0,2.671Z" transform="translate(-911.338 -1412.511)" fill="#00003e"/>
        </g>
        <g id="Grupo_112492" data-name="Grupo 112492" transform="translate(0 42.418)">
          <path id="Trazado_117398" data-name="Trazado 117398" d="M920.863,1422.879h-8.189a1.335,1.335,0,1,1,0-2.671h8.189a1.335,1.335,0,1,1,0,2.671Z" transform="translate(-911.338 -1420.208)" fill="#00003e"/>
        </g>
        <g id="Grupo_112493" data-name="Grupo 112493" transform="translate(0 50.903)">
          <path id="Trazado_117399" data-name="Trazado 117399" d="M920.863,1430.576h-8.189a1.335,1.335,0,1,1,0-2.671h8.189a1.335,1.335,0,1,1,0,2.671Z" transform="translate(-911.338 -1427.905)" fill="#00003e"/>
        </g>
      </g>
      <g id="Grupo_112502" data-name="Grupo 112502" transform="translate(13.682 67.072)">
        <g id="Grupo_112495" data-name="Grupo 112495" transform="translate(50.904)">
          <path id="Trazado_117400" data-name="Trazado 117400" d="M909.063,1442.873a1.335,1.335,0,0,1-1.335-1.336v-8.189a1.335,1.335,0,1,1,2.67,0v8.189A1.334,1.334,0,0,1,909.063,1442.873Z" transform="translate(-907.728 -1432.012)" fill="#00003e"/>
        </g>
        <g id="Grupo_112496" data-name="Grupo 112496" transform="translate(42.419)">
          <path id="Trazado_117401" data-name="Trazado 117401" d="M901.366,1442.873a1.335,1.335,0,0,1-1.335-1.336v-8.189a1.335,1.335,0,1,1,2.671,0v8.189A1.335,1.335,0,0,1,901.366,1442.873Z" transform="translate(-900.031 -1432.012)" fill="#00003e"/>
        </g>
        <g id="Grupo_112497" data-name="Grupo 112497" transform="translate(33.935)">
          <path id="Trazado_117402" data-name="Trazado 117402" d="M893.67,1442.873a1.335,1.335,0,0,1-1.336-1.336v-8.189a1.335,1.335,0,1,1,2.671,0v8.189A1.335,1.335,0,0,1,893.67,1442.873Z" transform="translate(-892.334 -1432.012)" fill="#00003e"/>
        </g>
        <g id="Grupo_112498" data-name="Grupo 112498" transform="translate(25.45)">
          <path id="Trazado_117403" data-name="Trazado 117403" d="M885.973,1442.873a1.335,1.335,0,0,1-1.336-1.336v-8.189a1.335,1.335,0,1,1,2.671,0v8.189A1.335,1.335,0,0,1,885.973,1442.873Z" transform="translate(-884.637 -1432.012)" fill="#00003e"/>
        </g>
        <g id="Grupo_112499" data-name="Grupo 112499" transform="translate(16.969)">
          <path id="Trazado_117404" data-name="Trazado 117404" d="M878.278,1442.873a1.335,1.335,0,0,1-1.335-1.336v-8.189a1.335,1.335,0,1,1,2.671,0v8.189A1.335,1.335,0,0,1,878.278,1442.873Z" transform="translate(-876.943 -1432.012)" fill="#00003e"/>
        </g>
        <g id="Grupo_112500" data-name="Grupo 112500" transform="translate(8.484)">
          <path id="Trazado_117405" data-name="Trazado 117405" d="M870.581,1442.873a1.335,1.335,0,0,1-1.335-1.336v-8.189a1.335,1.335,0,1,1,2.671,0v8.189A1.335,1.335,0,0,1,870.581,1442.873Z" transform="translate(-869.246 -1432.012)" fill="#00003e"/>
        </g>
        <g id="Grupo_112501" data-name="Grupo 112501">
          <path id="Trazado_117406" data-name="Trazado 117406" d="M862.885,1442.873a1.335,1.335,0,0,1-1.336-1.336v-8.189a1.335,1.335,0,1,1,2.671,0v8.189A1.335,1.335,0,0,1,862.885,1442.873Z" transform="translate(-861.549 -1432.012)" fill="#00003e"/>
        </g>
      </g>
      <g id="Grupo_112510" data-name="Grupo 112510" transform="translate(0 11.643)">
        <g id="Grupo_112503" data-name="Grupo 112503" transform="translate(0 50.903)">
          <path id="Trazado_117407" data-name="Trazado 117407" d="M858.662,1430.576h-8.19a1.335,1.335,0,0,1,0-2.671h8.19a1.335,1.335,0,0,1,0,2.671Z" transform="translate(-849.137 -1427.905)" fill="#00003e"/>
        </g>
        <g id="Grupo_112504" data-name="Grupo 112504" transform="translate(0 42.418)">
          <path id="Trazado_117408" data-name="Trazado 117408" d="M858.662,1422.879h-8.19a1.335,1.335,0,0,1,0-2.671h8.19a1.335,1.335,0,0,1,0,2.671Z" transform="translate(-849.137 -1420.208)" fill="#00003e"/>
        </g>
        <g id="Grupo_112505" data-name="Grupo 112505" transform="translate(0 33.934)">
          <path id="Trazado_117409" data-name="Trazado 117409" d="M858.662,1415.182h-8.19a1.335,1.335,0,0,1,0-2.671h8.19a1.335,1.335,0,0,1,0,2.671Z" transform="translate(-849.137 -1412.511)" fill="#00003e"/>
        </g>
        <g id="Grupo_112506" data-name="Grupo 112506" transform="translate(0 25.45)">
          <path id="Trazado_117410" data-name="Trazado 117410" d="M858.662,1407.485h-8.19a1.335,1.335,0,0,1,0-2.67h8.19a1.335,1.335,0,0,1,0,2.67Z" transform="translate(-849.137 -1404.815)" fill="#00003e"/>
        </g>
        <g id="Grupo_112507" data-name="Grupo 112507" transform="translate(0 16.968)">
          <path id="Trazado_117411" data-name="Trazado 117411" d="M858.662,1399.791h-8.19a1.335,1.335,0,0,1,0-2.671h8.19a1.335,1.335,0,0,1,0,2.671Z" transform="translate(-849.137 -1397.12)" fill="#00003e"/>
        </g>
        <g id="Grupo_112508" data-name="Grupo 112508" transform="translate(0 8.483)">
          <path id="Trazado_117412" data-name="Trazado 117412" d="M858.662,1392.094h-8.19a1.335,1.335,0,0,1,0-2.671h8.19a1.335,1.335,0,0,1,0,2.671Z" transform="translate(-849.137 -1389.423)" fill="#00003e"/>
        </g>
        <g id="Grupo_112509" data-name="Grupo 112509">
          <path id="Trazado_117413" data-name="Trazado 117413" d="M858.662,1384.4h-8.19a1.335,1.335,0,0,1,0-2.67h8.19a1.335,1.335,0,1,1,0,2.67Z" transform="translate(-849.137 -1381.727)" fill="#00003e"/>
        </g>
      </g>
    </g>
    <g id="Grupo_112513" data-name="Grupo 112513" transform="translate(180 5151.092)">
      <g id="Grupo_112512" data-name="Grupo 112512">
        <path id="Trazado_117414" data-name="Trazado 117414" d="M870.665,1503.256H805.787a1.335,1.335,0,1,1,0-2.671h64.878a1.335,1.335,0,0,1,0,2.671Z" transform="translate(-804.451 -1500.585)" fill="#00003e"/>
      </g>
    </g>
    <g id="Grupo_112515" data-name="Grupo 112515" transform="translate(424.934 4982.455)">
      <g id="Grupo_112514" data-name="Grupo 112514">
        <path id="Trazado_117415" data-name="Trazado 117415" d="M1067.2,1350.272h-64.876a1.336,1.336,0,0,1,0-2.671H1067.2a1.336,1.336,0,0,1,0,2.671Z" transform="translate(-1000.986 -1347.601)" fill="#00003e"/>
      </g>
    </g>
    <g id="Grupo_112517" data-name="Grupo 112517" transform="translate(475.313 4995.765)">
      <g id="Grupo_112516" data-name="Grupo 112516">
        <path id="Trazado_117416" data-name="Trazado 117416" d="M1077.016,1362.346h-28.992a1.335,1.335,0,0,1,0-2.671h28.992a1.335,1.335,0,1,1,0,2.671Z" transform="translate(-1046.689 -1359.675)" fill="#00003e"/>
      </g>
    </g>
    <g id="Grupo_113810" data-name="Grupo 113810" transform="translate(612.313 5166.925)">
      <g id="Grupo_112516-2" data-name="Grupo 112516">
        <path id="Trazado_117416-2" data-name="Trazado 117416" d="M1077.016,1362.346h-28.992a1.335,1.335,0,0,1,0-2.671h28.992a1.335,1.335,0,1,1,0,2.671Z" transform="translate(-1046.689 -1359.675)" fill="#00003e"/>
      </g>
    </g>
    <g id="Grupo_112526" data-name="Grupo 112526" transform="translate(242.046 5271.763)">
      <g id="Grupo_112519" data-name="Grupo 112519" transform="translate(0 7.969)">
        <g id="Grupo_112518" data-name="Grupo 112518">
          <path id="Trazado_117417" data-name="Trazado 117417" d="M925.9,1638.955H839.817a4.75,4.75,0,0,1-4.744-4.742V1622.03a4.9,4.9,0,0,1,.084-.858,4.741,4.741,0,0,1,4.661-3.887H925.9a4.774,4.774,0,0,1,4.657,3.885l0,0a4.893,4.893,0,0,1,.083.858v12.183A4.749,4.749,0,0,1,925.9,1638.955Zm-86.087-19a2.068,2.068,0,0,0-2.032,1.7,1.972,1.972,0,0,0-.042.375v12.183a2.075,2.075,0,0,0,2.073,2.071H925.9a2.075,2.075,0,0,0,2.073-2.071V1622.03a2.122,2.122,0,0,0-.822-1.635,2.069,2.069,0,0,0-1.251-.439Zm76.872,12.1a4.791,4.791,0,1,1,4.792-4.791A4.8,4.8,0,0,1,916.689,1632.061Zm0-6.911a2.121,2.121,0,1,0,2.121,2.121A2.124,2.124,0,0,0,916.689,1625.15Z" transform="translate(-835.073 -1617.286)" fill="#00003e"/>
        </g>
      </g>
      <g id="Grupo_112521" data-name="Grupo 112521" transform="translate(0.008 0)">
        <g id="Grupo_112520" data-name="Grupo 112520">
          <path id="Trazado_117418" data-name="Trazado 117418" d="M836.47,1623.488a1.4,1.4,0,0,1-1.113-.553,1.346,1.346,0,0,1-.216-1.2l3.559-10.759a1.335,1.335,0,1,1,2.535.84l-3.469,10.479A1.3,1.3,0,0,1,836.47,1623.488Z" transform="translate(-835.08 -1610.057)" fill="#00003e"/>
        </g>
      </g>
      <g id="Grupo_112523" data-name="Grupo 112523" transform="translate(89.85)">
        <g id="Grupo_112522" data-name="Grupo 112522">
          <path id="Trazado_117419" data-name="Trazado 117419" d="M920.974,1623.488a1.34,1.34,0,0,1-1.286-.97l-3.053-10.759a1.337,1.337,0,1,1,2.572-.731l3.053,10.759a1.338,1.338,0,0,1-.92,1.651A1.352,1.352,0,0,1,920.974,1623.488Z" transform="translate(-916.583 -1610.056)" fill="#00003e"/>
        </g>
      </g>
      <g id="Grupo_112525" data-name="Grupo 112525" transform="translate(76.826 13.162)">
        <g id="Grupo_112524" data-name="Grupo 112524">
          <path id="Trazado_117420" data-name="Trazado 117420" d="M909.559,1631.579a4.791,4.791,0,1,1,4.792-4.791A4.8,4.8,0,0,1,909.559,1631.579Zm0-6.911a2.121,2.121,0,1,0,2.121,2.121A2.125,2.125,0,0,0,909.559,1624.668Z" transform="translate(-904.768 -1621.997)" fill="#00003e"/>
        </g>
      </g>
    </g>
    <g id="Grupo_112535" data-name="Grupo 112535" transform="translate(242.046 5219.316)">
      <g id="Grupo_112528" data-name="Grupo 112528" transform="translate(0 33.251)">
        <g id="Grupo_112527" data-name="Grupo 112527">
          <path id="Trazado_117421" data-name="Trazado 117421" d="M925.9,1614.31H839.817a4.75,4.75,0,0,1-4.744-4.744v-12.183a4.9,4.9,0,0,1,.084-.858,4.74,4.74,0,0,1,4.661-3.883H925.9a4.767,4.767,0,0,1,4.657,3.88l0,0a4.893,4.893,0,0,1,.083.858v12.183A4.749,4.749,0,0,1,925.9,1614.31Zm-86.087-19a2.066,2.066,0,0,0-2.032,1.694,1.982,1.982,0,0,0-.042.376v12.183a2.078,2.078,0,0,0,2.073,2.073H925.9a2.077,2.077,0,0,0,2.073-2.073v-12.183a2.023,2.023,0,0,0-.042-.378,2.1,2.1,0,0,0-2.032-1.692Zm76.872,12.1a4.791,4.791,0,1,1,4.792-4.791A4.8,4.8,0,0,1,916.689,1607.414Zm0-6.911a2.12,2.12,0,1,0,2.121,2.121A2.125,2.125,0,0,0,916.689,1600.5Z" transform="translate(-835.073 -1592.642)" fill="#00003e"/>
        </g>
      </g>
      <g id="Grupo_112530" data-name="Grupo 112530" transform="translate(0.008)">
        <g id="Grupo_112529" data-name="Grupo 112529">
          <path id="Trazado_117422" data-name="Trazado 117422" d="M929.312,1601.187a1.34,1.34,0,0,1-1.286-.97l-9.522-33.562a2.082,2.082,0,0,0-2-1.507H850.8a2.07,2.07,0,0,0-1.969,1.421L837.766,1600a1.3,1.3,0,0,1-1.3,1.192,1.4,1.4,0,0,1-1.113-.553,1.345,1.345,0,0,1-.216-1.2l11.154-33.7a4.737,4.737,0,0,1,4.5-3.252h65.71a4.766,4.766,0,0,1,4.565,3.448l9.524,33.561a1.338,1.338,0,0,1-.92,1.651A1.352,1.352,0,0,1,929.312,1601.187Z" transform="translate(-835.08 -1562.477)" fill="#00003e"/>
        </g>
      </g>
      <g id="Grupo_112532" data-name="Grupo 112532" transform="translate(76.826 38.441)">
        <g id="Grupo_112531" data-name="Grupo 112531">
          <path id="Trazado_117423" data-name="Trazado 117423" d="M909.559,1606.932a4.791,4.791,0,1,1,4.792-4.791A4.8,4.8,0,0,1,909.559,1606.932Zm0-6.911a2.12,2.12,0,1,0,2.121,2.121A2.125,2.125,0,0,0,909.559,1600.021Z" transform="translate(-904.768 -1597.35)" fill="#00003e"/>
        </g>
      </g>
      <g id="Grupo_112534" data-name="Grupo 112534" transform="translate(31.381 10.886)">
        <g id="Grupo_112533" data-name="Grupo 112533">
          <path id="Trazado_117424" data-name="Trazado 117424" d="M882.607,1587.475c-9.475,0-19.065-2.616-19.065-7.618,0-10,38.129-10,38.129,0C901.67,1584.859,892.08,1587.475,882.607,1587.475Zm0-12.569c-10.007,0-16.395,2.932-16.395,4.951s6.388,4.947,16.395,4.947S899,1581.873,899,1579.856,892.615,1574.906,882.607,1574.906Z" transform="translate(-863.541 -1572.353)" fill="#00003e"/>
        </g>
      </g>
    </g>
    <g id="Grupo_112537" data-name="Grupo 112537" transform="translate(337.532 4988.188)">
      <g id="Grupo_112536" data-name="Grupo 112536">
        <path id="Trazado_117425" data-name="Trazado 117425" d="M928.95,1367.309a7.253,7.253,0,1,1,7.253-7.253A7.263,7.263,0,0,1,928.95,1367.309Zm0-11.836a4.582,4.582,0,1,0,4.582,4.582A4.586,4.586,0,0,0,928.95,1355.473Z" transform="translate(-921.697 -1352.802)" fill="#ffb30b"/>
      </g>
    </g>
    <g id="Grupo_112539" data-name="Grupo 112539" transform="translate(592.885 5209.27)">
      <g id="Grupo_112538" data-name="Grupo 112538">
        <path id="Trazado_117426" data-name="Trazado 117426" d="M1160.6,1567.869a7.253,7.253,0,1,1,7.253-7.253A7.261,7.261,0,0,1,1160.6,1567.869Zm0-11.835a4.582,4.582,0,1,0,4.582,4.582A4.586,4.586,0,0,0,1160.6,1556.034Z" transform="translate(-1153.348 -1553.363)" fill="#ffb30b"/>
      </g>
    </g>
    <g id="Grupo_112546" data-name="Grupo 112546" transform="translate(557.849 5277.519)">
      <g id="Grupo_112541" data-name="Grupo 112541">
        <g id="Grupo_112540" data-name="Grupo 112540">
          <path id="Trazado_117427" data-name="Trazado 117427" d="M1130.986,1634.122h0a3.969,3.969,0,0,1-2.831-1.174l-5.417-5.415a4.014,4.014,0,0,1,0-5.668l5.417-5.413a3.964,3.964,0,0,1,2.831-1.174h0a3.981,3.981,0,0,1,2.833,1.174l5.414,5.413a4.012,4.012,0,0,1,0,5.668l-5.414,5.415A3.985,3.985,0,0,1,1130.986,1634.122Zm0-16.173h0a1.322,1.322,0,0,0-.943.391l-5.417,5.415a1.338,1.338,0,0,0,0,1.89l5.417,5.415a1.327,1.327,0,0,0,.943.391h0a1.328,1.328,0,0,0,.945-.391l5.413-5.415a1.336,1.336,0,0,0,0-1.89l-5.413-5.415A1.323,1.323,0,0,0,1130.986,1617.949Z" transform="translate(-1121.564 -1615.278)" fill="#ffb30b"/>
        </g>
      </g>
      <g id="Grupo_112543" data-name="Grupo 112543" transform="translate(22.741 0)">
        <g id="Grupo_112542" data-name="Grupo 112542">
          <path id="Trazado_117428" data-name="Trazado 117428" d="M1151.612,1634.119a3.988,3.988,0,0,1-2.832-1.171l-5.414-5.415a4.014,4.014,0,0,1,0-5.668l5.414-5.413a4.007,4.007,0,0,1,5.667,0l5.415,5.413a4.012,4.012,0,0,1,0,5.668l-5.415,5.415A3.99,3.99,0,0,1,1151.612,1634.119Zm0-16.17a1.329,1.329,0,0,0-.947.391l-5.415,5.415a1.338,1.338,0,0,0,0,1.89l5.415,5.415a1.338,1.338,0,0,0,1.891,0l5.414-5.415a1.338,1.338,0,0,0,0-1.89l-5.414-5.415A1.327,1.327,0,0,0,1151.615,1617.949Z" transform="translate(-1142.194 -1615.278)" fill="#ffb30b"/>
        </g>
      </g>
      <g id="Grupo_112545" data-name="Grupo 112545" transform="translate(45.48 0.03)">
        <g id="Grupo_112544" data-name="Grupo 112544">
          <path id="Trazado_117429" data-name="Trazado 117429" d="M1172.242,1634.145a4,4,0,0,1-2.833-1.171l-5.417-5.417a4.014,4.014,0,0,1,0-5.665l5.417-5.418a4.014,4.014,0,0,1,5.665,0l5.418,5.418a4.01,4.01,0,0,1,0,5.665l-5.418,5.417A4,4,0,0,1,1172.242,1634.145Zm0-16.173a1.332,1.332,0,0,0-.944.391l-5.418,5.418a1.338,1.338,0,0,0,0,1.887l5.418,5.418a1.335,1.335,0,0,0,1.888,0l5.417-5.418a1.334,1.334,0,0,0,0-1.887l-5.417-5.418A1.336,1.336,0,0,0,1172.242,1617.972Z" transform="translate(-1162.823 -1615.305)" fill="#ffb30b"/>
        </g>
      </g>
    </g>
    <g id="Grupo_112553" data-name="Grupo 112553" transform="translate(274.654 5316.62)">
      <g id="Grupo_112548" data-name="Grupo 112548" transform="translate(18.489 15.737)">
        <g id="Grupo_112547" data-name="Grupo 112547">
          <path id="Trazado_117430" data-name="Trazado 117430" d="M891.046,1673.474a1.337,1.337,0,0,1-.765-.239L882,1667.454a1.336,1.336,0,0,1,1.529-2.19l8.281,5.779a1.335,1.335,0,0,1-.764,2.431Z" transform="translate(-881.428 -1665.026)" fill="#00003e"/>
        </g>
      </g>
      <g id="Grupo_112550" data-name="Grupo 112550" transform="translate(13.386)">
        <g id="Grupo_112549" data-name="Grupo 112549">
          <path id="Trazado_117431" data-name="Trazado 117431" d="M878.134,1662.32a1.334,1.334,0,0,1-1.335-1.336v-8.9a1.335,1.335,0,1,1,2.67,0v8.9A1.334,1.334,0,0,1,878.134,1662.32Z" transform="translate(-876.799 -1650.75)" fill="#00003e"/>
        </g>
      </g>
      <g id="Grupo_112552" data-name="Grupo 112552" transform="translate(0 15.737)">
        <g id="Grupo_112551" data-name="Grupo 112551">
          <path id="Trazado_117432" data-name="Trazado 117432" d="M865.991,1673.474a1.335,1.335,0,0,1-.764-2.431l8.281-5.779a1.336,1.336,0,1,1,1.529,2.19l-8.281,5.781A1.337,1.337,0,0,1,865.991,1673.474Z" transform="translate(-864.655 -1665.026)" fill="#00003e"/>
        </g>
      </g>
    </g>
    <g id="Grupo_112555" data-name="Grupo 112555" transform="translate(399.129 5266.856)">
      <g id="Grupo_112554" data-name="Grupo 112554">
        <path id="Trazado_117433" data-name="Trazado 117433" d="M1045.679,1608.276h-13.353a1.335,1.335,0,0,1,0-2.671h13.353a1.335,1.335,0,1,1,0,2.671Zm-26.707,0h-13.353a1.335,1.335,0,1,1,0-2.671h13.353a1.335,1.335,0,0,1,0,2.671Zm-26.707,0H978.911a1.335,1.335,0,0,1,0-2.671h13.355a1.335,1.335,0,0,1,0,2.671Z" transform="translate(-977.576 -1605.605)" fill="#00003e"/>
      </g>
    </g>
    <g id="Grupo_112557" data-name="Grupo 112557" transform="translate(656.619 5044.954)">
      <g id="Grupo_112556" data-name="Grupo 112556">
        <path id="Trazado_117434" data-name="Trazado 117434" d="M1179.411,1418.8a7.252,7.252,0,1,1,7.253-7.25A7.26,7.26,0,0,1,1179.411,1418.8Zm0-11.832a4.581,4.581,0,1,0,4.582,4.582A4.587,4.587,0,0,0,1179.411,1406.97Z" transform="translate(-1172.158 -1404.299)" fill="#ffb30b"/>
      </g>
    </g>
    <g id="Grupo_112559" data-name="Grupo 112559" transform="translate(464.957 5256.813)">
      <g id="Grupo_112558" data-name="Grupo 112558">
        <path id="Trazado_117435" data-name="Trazado 117435" d="M1038.631,1619.252a1.335,1.335,0,0,1-.783-2.417l11.914-8.624-11.953-9.329a1.336,1.336,0,0,1,1.643-2.108l13.354,10.422a1.337,1.337,0,0,1-.039,2.136L1039.414,1619A1.347,1.347,0,0,1,1038.631,1619.252Z" transform="translate(-1037.295 -1596.493)" fill="#00003e"/>
      </g>
    </g>
    <g id="Grupo_112561" data-name="Grupo 112561" transform="translate(322.565 5119.931)">
      <g id="Grupo_112560" data-name="Grupo 112560">
        <path id="Trazado_117436" data-name="Trazado 117436" d="M912.457,1472.316a4.337,4.337,0,1,1-4.338,4.337A4.337,4.337,0,0,1,912.457,1472.316Z" transform="translate(-908.119 -1472.316)" fill="#00003e"/>
      </g>
    </g>
    <g id="Grupo_112563" data-name="Grupo 112563" transform="translate(559.996 5057.804)">
      <g id="Grupo_112562" data-name="Grupo 112562" transform="translate(0 0)">
        <circle id="Elipse_4750" data-name="Elipse 4750" cx="4.337" cy="4.337" r="4.337" transform="translate(0 8.02) rotate(-67.62)" fill="#00003e"/>
      </g>
    </g>
    <g id="Grupo_112565" data-name="Grupo 112565" transform="translate(391.791 5286.231)">
      <g id="Grupo_112564" data-name="Grupo 112564">
        <circle id="Elipse_4751" data-name="Elipse 4751" cx="4.337" cy="4.337" r="4.337" fill="#00003e"/>
      </g>
    </g>
    <g id="Grupo_112567" data-name="Grupo 112567" transform="translate(676.326 5103.263)">
      <g id="Grupo_112566" data-name="Grupo 112566">
        <circle id="Elipse_4752" data-name="Elipse 4752" cx="4.337" cy="4.337" r="4.337" fill="#00003e"/>
      </g>
    </g>
    <g id="Grupo_112569" data-name="Grupo 112569" transform="translate(218.197 5119.931)">
      <g id="Grupo_112568" data-name="Grupo 112568">
        <path id="Trazado_117437" data-name="Trazado 117437" d="M834.369,1472.316a4.337,4.337,0,1,1-4.338,4.337A4.338,4.338,0,0,1,834.369,1472.316Z" transform="translate(-830.031 -1472.316)" fill="#00003e"/>
      </g>
    </g>
    <g id="Grupo_112571" data-name="Grupo 112571" transform="translate(365.41 4998.617)">
      <g id="Grupo_112570" data-name="Grupo 112570">
        <circle id="Elipse_4753" data-name="Elipse 4753" cx="4.337" cy="4.337" r="4.337" fill="#00003e"/>
      </g>
    </g>
    <g id="Grupo_112573" data-name="Grupo 112573" transform="translate(520.393 5307.28)">
      <g id="Grupo_112572" data-name="Grupo 112572">
        <circle id="Elipse_4754" data-name="Elipse 4754" cx="4.337" cy="4.337" r="4.337" fill="#00003e"/>
      </g>
    </g>
    <g id="Grupo_112580" data-name="Grupo 112580" transform="translate(422.594 5293.606)">
      <g id="Grupo_112575" data-name="Grupo 112575" transform="translate(18.489 15.735)">
        <g id="Grupo_112574" data-name="Grupo 112574">
          <path id="Trazado_117438" data-name="Trazado 117438" d="M1025.253,1652.6a1.328,1.328,0,0,1-.764-.24l-8.281-5.78a1.335,1.335,0,1,1,1.528-2.19l8.281,5.779a1.335,1.335,0,0,1-.764,2.431Z" transform="translate(-1015.636 -1644.146)" fill="#00003e"/>
        </g>
      </g>
      <g id="Grupo_112577" data-name="Grupo 112577" transform="translate(13.385)">
        <g id="Grupo_112576" data-name="Grupo 112576">
          <path id="Trazado_117439" data-name="Trazado 117439" d="M1012.342,1641.441a1.334,1.334,0,0,1-1.336-1.335v-8.9a1.335,1.335,0,0,1,2.671,0v8.9A1.334,1.334,0,0,1,1012.342,1641.441Z" transform="translate(-1011.006 -1629.872)" fill="#00003e"/>
        </g>
      </g>
      <g id="Grupo_112579" data-name="Grupo 112579" transform="translate(0 15.735)">
        <g id="Grupo_112578" data-name="Grupo 112578">
          <path id="Trazado_117440" data-name="Trazado 117440" d="M1000.2,1652.6a1.335,1.335,0,0,1-.764-2.431l8.281-5.779a1.335,1.335,0,1,1,1.528,2.19l-8.281,5.78A1.328,1.328,0,0,1,1000.2,1652.6Z" transform="translate(-998.863 -1644.146)" fill="#00003e"/>
        </g>
      </g>
    </g>
    <g id="Grupo_112582" data-name="Grupo 112582" transform="translate(295.563 4972.938)">
      <g id="Grupo_112581" data-name="Grupo 112581">
        <path id="Trazado_117441" data-name="Trazado 117441" d="M995.715,1381.652a1.335,1.335,0,0,1-1.336-1.335v-13.354a1.335,1.335,0,0,1,2.671,0v13.354A1.334,1.334,0,0,1,995.715,1381.652Zm-110.757-17.187a1.335,1.335,0,0,1-1.336-1.336v-13.353a1.335,1.335,0,0,1,2.671,0v13.353A1.335,1.335,0,0,1,884.958,1364.465Zm110.757-9.52a1.335,1.335,0,0,1-1.336-1.336v-13.061a1.283,1.283,0,0,1-.023-.245,1.315,1.315,0,0,1,1.312-1.336h.047a1.335,1.335,0,0,1,1.335,1.336v13.306A1.335,1.335,0,0,1,995.715,1354.945Zm-13.4-13.307H968.961a1.336,1.336,0,1,1,0-2.671h13.353a1.336,1.336,0,0,1,0,2.671Zm-26.708,0H942.253a1.336,1.336,0,0,1,0-2.671h13.353a1.336,1.336,0,1,1,0,2.671Zm-26.707,0H915.546a1.336,1.336,0,1,1,0-2.671H928.9a1.336,1.336,0,0,1,0,2.671Zm-26.707,0H888.838a1.336,1.336,0,0,1,0-2.671h13.354a1.336,1.336,0,0,1,0,2.671Z" transform="translate(-883.622 -1338.967)" fill="#00003e"/>
      </g>
    </g>
    <g id="Grupo_112584" data-name="Grupo 112584" transform="translate(542.083 5054.396)">
      <g id="Grupo_112583" data-name="Grupo 112583">
        <path id="Trazado_117442" data-name="Trazado 117442" d="M1148.658,1507.675h-13.353a1.335,1.335,0,1,1,0-2.671h13.353a1.335,1.335,0,1,1,0,2.671Zm-26.707,0H1108.6a1.335,1.335,0,0,1,0-2.671h13.354a1.335,1.335,0,0,1,0,2.671Zm31.125-8.935a1.335,1.335,0,0,1-1.335-1.336V1484.05a1.335,1.335,0,0,1,2.671,0V1497.4A1.335,1.335,0,0,1,1153.076,1498.74Zm0-26.708a1.334,1.334,0,0,1-1.335-1.335v-13.353a1.335,1.335,0,1,1,2.671,0V1470.7A1.334,1.334,0,0,1,1153.076,1472.032Zm0-26.707a1.335,1.335,0,0,1-1.335-1.335v-13.354a1.335,1.335,0,0,1,2.671,0v13.354A1.335,1.335,0,0,1,1153.076,1445.325Zm0-26.708a1.334,1.334,0,0,1-1.335-1.335V1414.2a1.335,1.335,0,0,1,2.671,0v3.083A1.334,1.334,0,0,1,1153.076,1418.617Z" transform="translate(-1107.262 -1412.864)" fill="#00003e"/>
      </g>
    </g>
    <g id="Grupo_112586" data-name="Grupo 112586" transform="translate(288.497 5187.485)">
      <g id="Grupo_112585" data-name="Grupo 112585">
        <path id="Trazado_117443" data-name="Trazado 117443" d="M878.548,1558.749a1.334,1.334,0,0,1-1.335-1.335v-4.8a1.335,1.335,0,0,1,2.67,0v4.8A1.334,1.334,0,0,1,878.548,1558.749Zm0-18.153a1.334,1.334,0,0,1-1.335-1.335v-4.324a1.334,1.334,0,0,1,1.335-1.336h9.029a1.336,1.336,0,1,1,0,2.671h-7.694v2.989A1.334,1.334,0,0,1,878.548,1540.6Zm62.444-4.324H927.638a1.336,1.336,0,0,1,0-2.671h13.353a1.336,1.336,0,1,1,0,2.671Zm-26.707,0H900.931a1.336,1.336,0,1,1,0-2.671h13.353a1.336,1.336,0,0,1,0,2.671Z" transform="translate(-877.213 -1533.601)" fill="#00003e"/>
      </g>
    </g>
  </g>
</svg>
