<svg xmlns="http://www.w3.org/2000/svg" width="820" height="510" viewBox="0 0 820 510">
  <g id="Grupo_113828" data-name="Grupo 113828" transform="translate(-390 -5550)">
    <rect id="Rectángulo_293607" data-name="Rectángulo 293607" width="820" height="510" transform="translate(390 5550)" fill="none"/>
    <g id="Grupo_112861" data-name="Grupo 112861" transform="translate(168.573 4345.69)">
      <g id="Grupo_112631" data-name="Grupo 112631" transform="translate(286.738 1244.669)">
        <path id="Trazado_117444" data-name="Trazado 117444" d="M302.778,1519.632c24.742,70.266,99.878,122.094,180.078,114.515,108.06-4.863,212.03-98.9,320.525-52.729,79.982,40.908,167.951,23.169,180.592-70.864,17.857-76.893-47.683-185.217-116.559-225.964-79.3-44.947-174.991-62.418-266.932-63.342C433.7,1214.335,245.471,1352.211,302.778,1519.632Z" transform="translate(-292.276 -1221)" fill="#b9ddfc"/>
      </g>
      <g id="Grupo_112649" data-name="Grupo 112649" transform="translate(367.262 1433.019)">
        <g id="Grupo_112632" data-name="Grupo 112632" transform="translate(0 165.845)">
          <path id="Trazado_117445" data-name="Trazado 117445" d="M605.353,1756.066v51.863c0,7.421-44.561,13.432-99.526,13.432s-99.526-6.011-99.526-13.432v-51.863c0,7.421,44.561,13.433,99.526,13.433S605.353,1763.487,605.353,1756.066Z" transform="translate(-406.3 -1756.066)" fill="#ffb30b"/>
        </g>
        <g id="Grupo_112633" data-name="Grupo 112633" transform="translate(0 152.413)">
          <ellipse id="Elipse_4755" data-name="Elipse 4755" cx="99.527" cy="13.432" rx="99.527" ry="13.432" fill="#f5e9d9"/>
        </g>
        <g id="Grupo_112634" data-name="Grupo 112634" transform="translate(19.332 133.459)">
          <path id="Trazado_117446" data-name="Trazado 117446" d="M594.063,1716.673v24.973c0,3.573-35.905,6.468-80.193,6.468s-80.194-2.895-80.194-6.468v-24.973c0-3.573,35.905-6.467,80.194-6.467S594.063,1713.1,594.063,1716.673Z" transform="translate(-433.675 -1710.206)" fill="#084a93"/>
        </g>
        <g id="Grupo_112635" data-name="Grupo 112635" transform="translate(0 94.085)">
          <path id="Trazado_117447" data-name="Trazado 117447" d="M605.353,1654.452v51.863c0,7.421-44.561,13.433-99.526,13.433s-99.526-6.012-99.526-13.433v-51.863c0,7.421,44.561,13.433,99.526,13.433S605.353,1661.873,605.353,1654.452Z" transform="translate(-406.3 -1654.452)" fill="#ffb30b"/>
        </g>
        <g id="Grupo_112636" data-name="Grupo 112636" transform="translate(0 80.653)">
          <ellipse id="Elipse_4756" data-name="Elipse 4756" cx="99.527" cy="13.432" rx="99.527" ry="13.432" fill="#f5e9d9"/>
        </g>
        <g id="Grupo_112637" data-name="Grupo 112637" transform="translate(19.332 61.699)">
          <path id="Trazado_117448" data-name="Trazado 117448" d="M594.063,1615.06v24.972c0,3.573-35.905,6.468-80.193,6.468s-80.194-2.895-80.194-6.468V1615.06c0-3.573,35.905-6.468,80.194-6.468S594.063,1611.487,594.063,1615.06Z" transform="translate(-433.675 -1608.592)" fill="#084a93"/>
        </g>
        <g id="Grupo_112638" data-name="Grupo 112638" transform="translate(0 13.432)">
          <path id="Trazado_117449" data-name="Trazado 117449" d="M605.353,1540.245v51.863c0,7.421-44.561,13.433-99.526,13.433s-99.526-6.012-99.526-13.433v-51.863c0,7.422,44.561,13.433,99.526,13.433S605.353,1547.667,605.353,1540.245Z" transform="translate(-406.3 -1540.245)" fill="#ffb30b"/>
        </g>
        <g id="Grupo_112639" data-name="Grupo 112639" transform="translate(0)">
          <ellipse id="Elipse_4757" data-name="Elipse 4757" cx="99.527" cy="13.432" rx="99.527" ry="13.432" fill="#f5e9d9"/>
        </g>
        <g id="Grupo_112640" data-name="Grupo 112640" transform="translate(6.934 32.378)">
          <path id="Trazado_117450" data-name="Trazado 117450" d="M428.867,1592.568a12.748,12.748,0,1,1,12.748-12.748A12.763,12.763,0,0,1,428.867,1592.568Zm0-24.363a11.615,11.615,0,1,0,11.615,11.615A11.628,11.628,0,0,0,428.867,1568.206Z" transform="translate(-416.119 -1567.073)" fill="#1e2427"/>
        </g>
        <g id="Grupo_112641" data-name="Grupo 112641" transform="translate(7.151 114.552)">
          <circle id="Elipse_4758" data-name="Elipse 4758" cx="12.182" cy="12.182" r="12.182" fill="#0088a5"/>
        </g>
        <g id="Grupo_112642" data-name="Grupo 112642" transform="translate(6.585 185.745)">
          <path id="Trazado_117451" data-name="Trazado 117451" d="M428.372,1809.741a12.748,12.748,0,1,1,12.748-12.748A12.762,12.762,0,0,1,428.372,1809.741Zm0-24.364a11.616,11.616,0,1,0,11.616,11.616A11.629,11.629,0,0,0,428.372,1785.377Z" transform="translate(-415.624 -1784.244)" fill="#1e2427"/>
        </g>
        <g id="Grupo_112643" data-name="Grupo 112643" transform="translate(53.298 42.065)">
          <rect id="Rectángulo_293468" data-name="Rectángulo 293468" width="111.283" height="4.015" rx="1.087" fill="#f5e9d9"/>
        </g>
        <g id="Grupo_112644" data-name="Grupo 112644" transform="translate(53.298 53.292)">
          <rect id="Rectángulo_293469" data-name="Rectángulo 293469" width="111.283" height="4.015" rx="1.087" fill="#f5e9d9"/>
        </g>
        <g id="Grupo_112645" data-name="Grupo 112645" transform="translate(51.882 123.672)">
          <rect id="Rectángulo_293470" data-name="Rectángulo 293470" width="111.283" height="4.015" rx="1.087" fill="#f5e9d9"/>
        </g>
        <g id="Grupo_112646" data-name="Grupo 112646" transform="translate(51.882 134.9)">
          <rect id="Rectángulo_293471" data-name="Rectángulo 293471" width="111.283" height="4.015" rx="1.087" fill="#f5e9d9"/>
        </g>
        <g id="Grupo_112647" data-name="Grupo 112647" transform="translate(51.882 194.683)">
          <rect id="Rectángulo_293472" data-name="Rectángulo 293472" width="111.283" height="4.015" rx="1.087" fill="#f5e9d9"/>
        </g>
        <g id="Grupo_112648" data-name="Grupo 112648" transform="translate(51.882 205.91)">
          <rect id="Rectángulo_293473" data-name="Rectángulo 293473" width="111.283" height="4.015" rx="1.087" fill="#f5e9d9"/>
        </g>
      </g>
      <g id="Grupo_112661" data-name="Grupo 112661" transform="translate(790.698 1505.788)">
        <g id="Grupo_112650" data-name="Grupo 112650" transform="translate(0 114.291)">
          <path id="Trazado_117452" data-name="Trazado 117452" d="M1143.073,1786.106v35.741c0,5.114-30.709,9.257-68.588,9.257s-68.588-4.143-68.588-9.257v-35.741c0,5.114,30.708,9.256,68.588,9.256S1143.073,1791.22,1143.073,1786.106Z" transform="translate(-1005.897 -1786.106)" fill="#ffb30b"/>
        </g>
        <g id="Grupo_112651" data-name="Grupo 112651" transform="translate(0 105.034)">
          <ellipse id="Elipse_4759" data-name="Elipse 4759" cx="68.588" cy="9.257" rx="68.588" ry="9.257" fill="#f5e9d9"/>
        </g>
        <g id="Grupo_112652" data-name="Grupo 112652" transform="translate(13.323 91.972)">
          <path id="Trazado_117453" data-name="Trazado 117453" d="M1135.292,1758.958v17.209c0,2.463-24.744,4.458-55.265,4.458s-55.265-1.995-55.265-4.458v-17.209c0-2.463,24.744-4.458,55.265-4.458S1135.292,1756.5,1135.292,1758.958Z" transform="translate(-1024.762 -1754.501)" fill="#084a93"/>
        </g>
        <g id="Grupo_112653" data-name="Grupo 112653" transform="translate(0 64.838)">
          <path id="Trazado_117454" data-name="Trazado 117454" d="M1143.073,1716.079v35.742c0,5.114-30.709,9.257-68.588,9.257s-68.588-4.143-68.588-9.257v-35.742c0,5.115,30.708,9.257,68.588,9.257S1143.073,1721.193,1143.073,1716.079Z" transform="translate(-1005.897 -1716.079)" fill="#ffb30b"/>
        </g>
        <g id="Grupo_112654" data-name="Grupo 112654" transform="translate(0 55.581)">
          <ellipse id="Elipse_4760" data-name="Elipse 4760" cx="68.588" cy="9.257" rx="68.588" ry="9.257" fill="#f5e9d9"/>
        </g>
        <g id="Grupo_112655" data-name="Grupo 112655" transform="translate(13.323 42.519)">
          <path id="Trazado_117455" data-name="Trazado 117455" d="M1135.292,1688.933v17.209c0,2.463-24.744,4.458-55.265,4.458s-55.265-1.995-55.265-4.458v-17.209c0-2.463,24.744-4.458,55.265-4.458S1135.292,1686.47,1135.292,1688.933Z" transform="translate(-1024.762 -1684.475)" fill="#084a93"/>
        </g>
        <g id="Grupo_112656" data-name="Grupo 112656" transform="translate(0 9.257)">
          <path id="Trazado_117456" data-name="Trazado 117456" d="M1143.073,1637.375v35.741c0,5.114-30.709,9.257-68.588,9.257s-68.588-4.143-68.588-9.257v-35.741c0,5.114,30.708,9.257,68.588,9.257S1143.073,1642.489,1143.073,1637.375Z" transform="translate(-1005.897 -1637.375)" fill="#ffb30b"/>
        </g>
        <g id="Grupo_112657" data-name="Grupo 112657">
          <ellipse id="Elipse_4761" data-name="Elipse 4761" cx="68.588" cy="9.257" rx="68.588" ry="9.257" fill="#f5e9d9"/>
        </g>
        <g id="Grupo_112658" data-name="Grupo 112658" transform="translate(4.603 22.136)">
          <path id="Trazado_117457" data-name="Trazado 117457" d="M1021.375,1673.535a8.961,8.961,0,1,1,8.962-8.96A8.97,8.97,0,0,1,1021.375,1673.535Zm0-16.789a7.828,7.828,0,1,0,7.829,7.829A7.837,7.837,0,0,0,1021.375,1656.745Z" transform="translate(-1012.415 -1655.612)" fill="#1e2427"/>
        </g>
        <g id="Grupo_112659" data-name="Grupo 112659" transform="translate(4.928 78.942)">
          <circle id="Elipse_4762" data-name="Elipse 4762" cx="8.395" cy="8.395" r="8.395" fill="#0088a5"/>
        </g>
        <g id="Grupo_112660" data-name="Grupo 112660" transform="translate(4.362 127.828)">
          <path id="Trazado_117458" data-name="Trazado 117458" d="M1021.034,1823.2a8.961,8.961,0,1,1,8.962-8.961A8.971,8.971,0,0,1,1021.034,1823.2Zm0-16.79a7.828,7.828,0,1,0,7.829,7.829A7.837,7.837,0,0,0,1021.034,1806.408Z" transform="translate(-1012.073 -1805.275)" fill="#1e2427"/>
        </g>
      </g>
      <g id="Grupo_112721" data-name="Grupo 112721" transform="translate(292.664 1244.669)">
        <g id="Grupo_112674" data-name="Grupo 112674" transform="translate(270.297 0)">
          <g id="Grupo_112664" data-name="Grupo 112664" transform="translate(16.571 15.138)">
            <g id="Grupo_112663" data-name="Grupo 112663">
              <g id="Grupo_112662" data-name="Grupo 112662">
                <path id="Trazado_117459" data-name="Trazado 117459" d="M715.5,1305.009h0a.527.527,0,0,1-.457-.264l-8.088-14a.527.527,0,0,1,0-.528l8.088-14a.526.526,0,0,1,.457-.264h0a.528.528,0,0,1,.457.264l8.106,14a.529.529,0,0,1,0,.53l-8.106,14A.528.528,0,0,1,715.5,1305.009Zm-7.478-14.529,7.479,12.945,7.495-12.945-7.495-12.946Z" transform="translate(-706.88 -1275.952)" fill="#f5e9d9"/>
              </g>
            </g>
          </g>
          <g id="Grupo_112667" data-name="Grupo 112667" transform="translate(2.301 16.729)">
            <g id="Grupo_112666" data-name="Grupo 112666">
              <g id="Grupo_112665" data-name="Grupo 112665">
                <path id="Trazado_117460" data-name="Trazado 117460" d="M691.228,1287.314a4.555,4.555,0,1,1,4.555-4.555A4.56,4.56,0,0,1,691.228,1287.314Zm0-8.053a3.5,3.5,0,1,0,3.5,3.5A3.5,3.5,0,0,0,691.228,1279.26Z" transform="translate(-686.673 -1278.204)" fill="#f5e9d9"/>
              </g>
            </g>
          </g>
          <g id="Grupo_112670" data-name="Grupo 112670" transform="translate(17.322)">
            <g id="Grupo_112669" data-name="Grupo 112669">
              <g id="Grupo_112668" data-name="Grupo 112668">
                <path id="Trazado_117461" data-name="Trazado 117461" d="M711.88,1262.39a3.937,3.937,0,1,1,3.937-3.937A3.942,3.942,0,0,1,711.88,1262.39Zm0-6.818a2.881,2.881,0,1,0,2.881,2.88A2.884,2.884,0,0,0,711.88,1255.573Z" transform="translate(-707.943 -1254.516)" fill="#f5e9d9"/>
              </g>
            </g>
          </g>
          <g id="Grupo_112673" data-name="Grupo 112673" transform="translate(0 4.179)">
            <g id="Grupo_112672" data-name="Grupo 112672">
              <g id="Grupo_112671" data-name="Grupo 112671">
                <path id="Trazado_117462" data-name="Trazado 117462" d="M686.244,1266.092a2.83,2.83,0,1,1,2.829-2.83A2.833,2.833,0,0,1,686.244,1266.092Zm0-4.6a1.773,1.773,0,1,0,1.773,1.773A1.775,1.775,0,0,0,686.244,1261.49Z" transform="translate(-683.415 -1260.433)" fill="#f5e9d9"/>
              </g>
            </g>
          </g>
        </g>
        <g id="Grupo_112687" data-name="Grupo 112687" transform="translate(415.053 31.049)">
          <g id="Grupo_112677" data-name="Grupo 112677" transform="translate(12.48 15.857)">
            <g id="Grupo_112676" data-name="Grupo 112676">
              <g id="Grupo_112675" data-name="Grupo 112675">
                <path id="Trazado_117463" data-name="Trazado 117463" d="M912.781,1343.417h0a.529.529,0,0,1-.458-.264l-6.188-10.712a.53.53,0,0,1,0-.528l6.188-10.712a.529.529,0,0,1,.458-.264h0a.527.527,0,0,1,.457.263l6.2,10.713a.531.531,0,0,1,0,.53l-6.2,10.713A.528.528,0,0,1,912.781,1343.417Zm-5.578-11.241,5.579,9.657,5.592-9.657-5.592-9.657Z" transform="translate(-906.064 -1320.936)" fill="#f5e9d9"/>
              </g>
            </g>
          </g>
          <g id="Grupo_112680" data-name="Grupo 112680" transform="translate(0 13.147)">
            <g id="Grupo_112679" data-name="Grupo 112679">
              <g id="Grupo_112678" data-name="Grupo 112678">
                <path id="Trazado_117464" data-name="Trazado 117464" d="M892.947,1326.208a4.555,4.555,0,1,1,4.556-4.555A4.561,4.561,0,0,1,892.947,1326.208Zm0-8.053a3.5,3.5,0,1,0,3.5,3.5A3.5,3.5,0,0,0,892.947,1318.155Z" transform="translate(-888.392 -1317.098)" fill="#f5e9d9"/>
              </g>
            </g>
          </g>
          <g id="Grupo_112683" data-name="Grupo 112683" transform="translate(15.022 2.301)">
            <g id="Grupo_112682" data-name="Grupo 112682">
              <g id="Grupo_112681" data-name="Grupo 112681">
                <path id="Trazado_117465" data-name="Trazado 117465" d="M913.6,1309.616a3.937,3.937,0,1,1,3.937-3.937A3.942,3.942,0,0,1,913.6,1309.616Zm0-6.818a2.881,2.881,0,1,0,2.881,2.881A2.883,2.883,0,0,0,913.6,1302.8Z" transform="translate(-909.663 -1301.741)" fill="#f5e9d9"/>
              </g>
            </g>
          </g>
          <g id="Grupo_112686" data-name="Grupo 112686" transform="translate(1.726)">
            <g id="Grupo_112685" data-name="Grupo 112685">
              <g id="Grupo_112684" data-name="Grupo 112684">
                <path id="Trazado_117466" data-name="Trazado 117466" d="M893.665,1304.141a2.829,2.829,0,1,1,2.829-2.828A2.832,2.832,0,0,1,893.665,1304.141Zm0-4.6a1.773,1.773,0,1,0,1.773,1.774A1.776,1.776,0,0,0,893.665,1299.538Z" transform="translate(-890.836 -1298.482)" fill="#f5e9d9"/>
              </g>
            </g>
          </g>
        </g>
        <g id="Grupo_112703" data-name="Grupo 112703" transform="translate(415.288 123.086)">
          <g id="Grupo_112690" data-name="Grupo 112690" transform="translate(9.865 22.877)">
            <g id="Grupo_112689" data-name="Grupo 112689">
              <g id="Grupo_112688" data-name="Grupo 112688">
                <path id="Trazado_117467" data-name="Trazado 117467" d="M911.31,1490.26h0a.528.528,0,0,1-.458-.264l-8.087-14a.527.527,0,0,1,0-.528l8.087-14a.53.53,0,0,1,.458-.264h0a.53.53,0,0,1,.458.264l8.106,14a.529.529,0,0,1,0,.53l-8.106,14A.529.529,0,0,1,911.31,1490.26Zm-7.477-14.528,7.478,12.946,7.495-12.946-7.495-12.945Z" transform="translate(-902.693 -1461.203)" fill="#f5e9d9"/>
              </g>
            </g>
          </g>
          <g id="Grupo_112693" data-name="Grupo 112693" transform="translate(11.672 9.321)">
            <g id="Grupo_112692" data-name="Grupo 112692">
              <g id="Grupo_112691" data-name="Grupo 112691">
                <path id="Trazado_117468" data-name="Trazado 117468" d="M909.19,1449.882a3.937,3.937,0,1,1,3.937-3.937A3.942,3.942,0,0,1,909.19,1449.882Zm0-6.818a2.881,2.881,0,1,0,2.881,2.881A2.883,2.883,0,0,0,909.19,1443.064Z" transform="translate(-905.253 -1442.008)" fill="#f5e9d9"/>
              </g>
            </g>
          </g>
          <g id="Grupo_112696" data-name="Grupo 112696" transform="translate(31.447 27.622)">
            <g id="Grupo_112695" data-name="Grupo 112695">
              <g id="Grupo_112694" data-name="Grupo 112694">
                <path id="Trazado_117469" data-name="Trazado 117469" d="M936.084,1473.581a2.829,2.829,0,1,1,2.829-2.829A2.832,2.832,0,0,1,936.084,1473.581Zm0-4.6a1.773,1.773,0,1,0,1.773,1.773A1.775,1.775,0,0,0,936.084,1468.978Z" transform="translate(-933.255 -1467.922)" fill="#f5e9d9"/>
              </g>
            </g>
          </g>
          <g id="Grupo_112699" data-name="Grupo 112699" transform="translate(29.684)">
            <g id="Grupo_112698" data-name="Grupo 112698">
              <g id="Grupo_112697" data-name="Grupo 112697">
                <path id="Trazado_117470" data-name="Trazado 117470" d="M936.367,1447.451h0a.528.528,0,0,1-.458-.264l-5.08-8.793a.526.526,0,0,1,0-.528l5.08-8.792a.528.528,0,0,1,.458-.264h0a.528.528,0,0,1,.457.264l5.091,8.792a.53.53,0,0,1,0,.53l-5.091,8.793A.528.528,0,0,1,936.367,1447.451Zm-4.47-9.321,4.47,7.738,4.479-7.738-4.479-7.737Z" transform="translate(-930.758 -1428.809)" fill="#f5e9d9"/>
              </g>
            </g>
          </g>
          <g id="Grupo_112702" data-name="Grupo 112702" transform="translate(0 22.877)">
            <g id="Grupo_112701" data-name="Grupo 112701">
              <g id="Grupo_112700" data-name="Grupo 112700">
                <path id="Trazado_117471" data-name="Trazado 117471" d="M891.554,1466.862a2.829,2.829,0,1,1,2.829-2.83A2.833,2.833,0,0,1,891.554,1466.862Zm0-4.6a1.773,1.773,0,1,0,1.773,1.773A1.775,1.775,0,0,0,891.554,1462.26Z" transform="translate(-888.725 -1461.203)" fill="#f5e9d9"/>
              </g>
            </g>
          </g>
        </g>
        <g id="Grupo_112716" data-name="Grupo 112716" transform="translate(58.558 91.852)">
          <g id="Grupo_112706" data-name="Grupo 112706" transform="translate(12.48 15.857)">
            <g id="Grupo_112705" data-name="Grupo 112705">
              <g id="Grupo_112704" data-name="Grupo 112704">
                <path id="Trazado_117472" data-name="Trazado 117472" d="M407.976,1429.517h0a.531.531,0,0,1-.458-.264l-6.188-10.713a.527.527,0,0,1,0-.528l6.188-10.712a.53.53,0,0,1,.458-.264h0a.528.528,0,0,1,.457.263l6.2,10.713a.531.531,0,0,1,0,.53l-6.2,10.712A.528.528,0,0,1,407.976,1429.517Zm-5.578-11.241,5.579,9.657,5.591-9.657-5.591-9.657Z" transform="translate(-401.258 -1407.035)" fill="#f5e9d9"/>
              </g>
            </g>
          </g>
          <g id="Grupo_112709" data-name="Grupo 112709" transform="translate(0 13.147)">
            <g id="Grupo_112708" data-name="Grupo 112708">
              <g id="Grupo_112707" data-name="Grupo 112707">
                <path id="Trazado_117473" data-name="Trazado 117473" d="M388.142,1412.307a4.555,4.555,0,1,1,4.555-4.555A4.561,4.561,0,0,1,388.142,1412.307Zm0-8.054a3.5,3.5,0,1,0,3.5,3.5A3.5,3.5,0,0,0,388.142,1404.253Z" transform="translate(-383.587 -1403.197)" fill="#f5e9d9"/>
              </g>
            </g>
          </g>
          <g id="Grupo_112712" data-name="Grupo 112712" transform="translate(15.021 2.302)">
            <g id="Grupo_112711" data-name="Grupo 112711">
              <g id="Grupo_112710" data-name="Grupo 112710">
                <path id="Trazado_117474" data-name="Trazado 117474" d="M408.795,1395.715a3.937,3.937,0,1,1,3.937-3.937A3.942,3.942,0,0,1,408.795,1395.715Zm0-6.818a2.881,2.881,0,1,0,2.881,2.881A2.884,2.884,0,0,0,408.795,1388.9Z" transform="translate(-404.857 -1387.841)" fill="#f5e9d9"/>
              </g>
            </g>
          </g>
          <g id="Grupo_112715" data-name="Grupo 112715" transform="translate(1.726)">
            <g id="Grupo_112714" data-name="Grupo 112714">
              <g id="Grupo_112713" data-name="Grupo 112713">
                <path id="Trazado_117475" data-name="Trazado 117475" d="M388.86,1390.24a2.83,2.83,0,1,1,2.829-2.829A2.832,2.832,0,0,1,388.86,1390.24Zm0-4.6a1.773,1.773,0,1,0,1.773,1.773A1.775,1.775,0,0,0,388.86,1385.638Z" transform="translate(-386.031 -1384.581)" fill="#f5e9d9"/>
              </g>
            </g>
          </g>
        </g>
        <g id="Grupo_112718" data-name="Grupo 112718" transform="translate(564.092 155.8)">
          <g id="Grupo_112717" data-name="Grupo 112717">
            <path id="Trazado_117476" data-name="Trazado 117476" d="M1165.861,1578.407h-6.8a.566.566,0,1,1,0-1.133h6.8a.566.566,0,1,1,0,1.133Zm-13.6,0h-6.8a.566.566,0,1,1,0-1.133h6.8a.566.566,0,0,1,0,1.133Zm-13.59-.11a.479.479,0,0,1-.071,0,15.118,15.118,0,0,1-6.553-2.446.566.566,0,1,1,.631-.94,14.015,14.015,0,0,0,6.062,2.263.566.566,0,0,1-.069,1.129Zm33.972-.062a.566.566,0,0,1-.092-1.125,12,12,0,0,0,5.809-2.712.566.566,0,0,1,.734.861,13.121,13.121,0,0,1-6.357,2.968A.528.528,0,0,1,1172.648,1578.235ZM1100,1576.823a.566.566,0,0,1-.566-.566v-6.8a.566.566,0,0,1,1.133,0v6.8A.566.566,0,0,1,1100,1576.823Zm27.789-5.824a.565.565,0,0,1-.493-.288,15.137,15.137,0,0,1-1.931-6.725.565.565,0,0,1,.54-.591.539.539,0,0,1,.591.54,13.816,13.816,0,0,0,1.787,6.219.566.566,0,0,1-.215.772A.559.559,0,0,1,1127.791,1571Zm54.706-1.164a.573.573,0,0,1-.181-.03.565.565,0,0,1-.355-.718,12,12,0,0,0,.626-3.843v-2.7a.567.567,0,1,1,1.134,0v2.7a13.149,13.149,0,0,1-.686,4.205A.567.567,0,0,1,1182.5,1569.835Zm-82.481-6.608h-.026a.565.565,0,0,1-.539-.592,13.5,13.5,0,0,1,2.136-6.678.566.566,0,1,1,.951.613,12.393,12.393,0,0,0-1.957,6.119A.566.566,0,0,1,1100.015,1563.227Zm24.487-5.272a.567.567,0,0,1-.5-.309,12.444,12.444,0,0,0-4.306-4.768.567.567,0,0,1,.618-.951,13.6,13.6,0,0,1,4.7,5.2.567.567,0,0,1-.5.825Zm58.65-1.644a.566.566,0,0,1-.566-.566v-6.8a.567.567,0,0,1,1.134,0v6.8A.566.566,0,0,1,1183.152,1556.311Zm-76.112-3.995a.566.566,0,0,1-.258-1.07,13.422,13.422,0,0,1,6.856-1.473.565.565,0,0,1,.537.595.529.529,0,0,1-.594.536,12.341,12.341,0,0,0-6.281,1.348A.553.553,0,0,1,1107.04,1552.317Zm76.112-9.6a.567.567,0,0,1-.566-.567v-6.8a.567.567,0,0,1,1.134,0v6.8A.567.567,0,0,1,1183.152,1542.717Zm0-13.6a.566.566,0,0,1-.566-.566v-6.8a.567.567,0,0,1,1.134,0v6.8A.566.566,0,0,1,1183.152,1529.121Zm0-13.6a.566.566,0,0,1-.566-.567v-6.8a.567.567,0,0,1,1.134,0v6.8A.566.566,0,0,1,1183.152,1515.526Zm0-13.6a.566.566,0,0,1-.566-.566v-6.8a.567.567,0,0,1,1.134,0v6.8A.566.566,0,0,1,1183.152,1501.93Zm-.2-13.583a.565.565,0,0,1-.557-.474,13.9,13.9,0,0,0-2.522-5.957.567.567,0,1,1,.912-.673,15.035,15.035,0,0,1,2.727,6.445.566.566,0,0,1-.466.651A.525.525,0,0,1,1182.957,1488.347Zm-7.771-10.544a.566.566,0,0,1-.255-.06,13.748,13.748,0,0,0-6.239-1.476.593.593,0,0,1-.6-.567.541.541,0,0,1,.536-.566,14.945,14.945,0,0,1,6.809,1.6.567.567,0,0,1-.254,1.073Z" transform="translate(-1099.435 -1475.133)" fill="#1e2427"/>
          </g>
        </g>
        <g id="Grupo_112720" data-name="Grupo 112720" transform="translate(0 137.329)">
          <g id="Grupo_112719" data-name="Grupo 112719">
            <path id="Trazado_117477" data-name="Trazado 117477" d="M340.233,1635.465h-.009q-.715,0-1.415-.068a.567.567,0,0,1-.509-.619.581.581,0,0,1,.618-.51q.645.064,1.307.063h.008a13.278,13.278,0,0,0,5.071-1,.567.567,0,1,1,.431,1.048A14.407,14.407,0,0,1,340.233,1635.465Zm-7.71-2.319a.563.563,0,0,1-.313-.1,14.611,14.611,0,0,1-4.731-5.162.567.567,0,1,1,.995-.542,13.479,13.479,0,0,0,4.363,4.762.566.566,0,0,1-.314,1.038Zm18.418-2.708a.567.567,0,0,1-.434-.929,13.359,13.359,0,0,0,2.807-5.811.567.567,0,0,1,1.11.23,14.513,14.513,0,0,1-3.047,6.306A.567.567,0,0,1,350.942,1630.438Zm-24.654-8.766a.566.566,0,0,1-.566-.56v-6.8a.566.566,0,1,1,1.133,0v6.791a.566.566,0,0,1-.56.573Zm27.873-4.069a.566.566,0,0,1-.566-.567v-6.8a.566.566,0,1,1,1.133,0v6.8A.566.566,0,0,1,354.162,1617.6Zm-27.874-9.527a.566.566,0,0,1-.566-.566v-6.8a.566.566,0,1,1,1.133,0v6.8A.565.565,0,0,1,326.288,1608.076Zm27.874-4.069a.566.566,0,0,1-.566-.566v-6.8a.566.566,0,1,1,1.133,0v6.8A.566.566,0,0,1,354.162,1604.007Zm-27.874-9.526a.566.566,0,0,1-.566-.566v-6.8a.566.566,0,1,1,1.133,0v6.8A.566.566,0,0,1,326.288,1594.481Zm27.874-4.069a.566.566,0,0,1-.566-.567v-6.8a.566.566,0,1,1,1.133,0v6.8A.566.566,0,0,1,354.162,1590.411Zm-27.874-9.527a.566.566,0,0,1-.566-.566v-6.8a.566.566,0,1,1,1.133,0v6.8A.565.565,0,0,1,326.288,1580.885Zm27.874-4.069a.566.566,0,0,1-.566-.566v-6.8a.566.566,0,1,1,1.133,0v6.8A.566.566,0,0,1,354.162,1576.816Zm-27.874-9.526a.566.566,0,0,1-.566-.566v-6.8a.566.566,0,1,1,1.133,0v6.8A.566.566,0,0,1,326.288,1567.29Zm27.874-4.069a.566.566,0,0,1-.566-.566v-6.8a.566.566,0,0,1,1.133,0v6.8A.566.566,0,0,1,354.162,1563.221Zm-27.874-9.527a.566.566,0,0,1-.566-.566v-6.8a.566.566,0,1,1,1.133,0v6.8A.565.565,0,0,1,326.288,1553.694Zm27.874-4.069a.566.566,0,0,1-.566-.566v-6.8a.566.566,0,1,1,1.133,0v6.8A.566.566,0,0,1,354.162,1549.625Zm-27.874-9.526a.566.566,0,0,1-.566-.566v-6.8a.566.566,0,1,1,1.133,0v6.8A.566.566,0,0,1,326.288,1540.1Zm27.874-4.069a.566.566,0,0,1-.566-.566v-6.8a.566.566,0,1,1,1.133,0v6.8A.566.566,0,0,1,354.162,1536.03Zm-27.874-9.526a.566.566,0,0,1-.566-.567v-6.8a.566.566,0,0,1,1.133,0v6.8A.566.566,0,0,1,326.288,1526.5Zm27.874-4.07a.566.566,0,0,1-.566-.566v-6.8a.566.566,0,1,1,1.133,0v6.8A.566.566,0,0,1,354.162,1522.434Zm-27.874-9.526a.566.566,0,0,1-.566-.566v-.971a13.277,13.277,0,0,0-1.148-5.428.567.567,0,1,1,1.035-.46,14.4,14.4,0,0,1,1.245,5.888v.971A.566.566,0,0,1,326.288,1512.908Zm28.132-4.052a.572.572,0,0,1-.109-.011.566.566,0,0,1-.448-.664,14.5,14.5,0,0,1,2.967-6.343.566.566,0,1,1,.879.713,13.366,13.366,0,0,0-2.734,5.846A.566.566,0,0,1,354.42,1508.856Zm-33.467-7.884a.561.561,0,0,1-.35-.121,13.378,13.378,0,0,0-5.889-2.642.566.566,0,1,1,.2-1.115,14.51,14.51,0,0,1,6.389,2.867.566.566,0,0,1-.35,1.012Zm41.688-2.264a.566.566,0,0,1-.222-1.088,14.405,14.405,0,0,1,5.679-1.155c.383,0,.765-.016,1.141-.046a.566.566,0,1,1,.091,1.129q-.61.05-1.232.049a13.289,13.289,0,0,0-5.236,1.063A.561.561,0,0,1,362.641,1498.708ZM308.031,1498h-6.8a.567.567,0,0,1,0-1.133h6.8a.567.567,0,1,1,0,1.133Zm67.664-2.52a.566.566,0,0,1-.294-1.051,14.236,14.236,0,0,0,4.623-4.537.566.566,0,0,1,.957.605,15.373,15.373,0,0,1-4.992,4.9A.565.565,0,0,1,375.695,1495.481Zm7-11.087a.5.5,0,0,1-.057,0,.566.566,0,0,1-.508-.619q.069-.695.069-1.408v-5.331a.566.566,0,1,1,1.133,0v5.331c0,.513-.025,1.021-.075,1.52A.566.566,0,0,1,382.694,1484.395Zm.071-13.592a.566.566,0,0,1-.566-.567v-6.023c0-.271.007-.537.021-.8a.566.566,0,1,1,1.131.059q-.019.37-.02.745v6.023A.566.566,0,0,1,382.766,1470.8Zm1.907-13.262a.566.566,0,0,1-.492-.846,15.364,15.364,0,0,1,4.756-5.129.566.566,0,1,1,.633.939,14.241,14.241,0,0,0-4.4,4.749A.565.565,0,0,1,384.673,1457.54Zm10.884-7.311a.566.566,0,0,1-.071-1.128,15.44,15.44,0,0,1,1.948-.124h4.915a.566.566,0,1,1,0,1.133h-4.915a14.235,14.235,0,0,0-1.805.115C395.6,1450.227,395.58,1450.229,395.557,1450.229Z" transform="translate(-300.667 -1448.977)" fill="#1e2427"/>
          </g>
        </g>
      </g>
      <g id="Grupo_112784" data-name="Grupo 112784" transform="translate(481.652 1297.279)">
        <g id="Grupo_112722" data-name="Grupo 112722" transform="translate(134.283 304.783)">
          <rect id="Rectángulo_293474" data-name="Rectángulo 293474" width="100.627" height="43.936" fill="#1e2427"/>
        </g>
        <g id="Grupo_112727" data-name="Grupo 112727" transform="translate(40.987 119.329)">
          <g id="Grupo_112723" data-name="Grupo 112723" transform="translate(1.54)">
            <path id="Trazado_117478" data-name="Trazado 117478" d="M715.216,1497.986l-45.276,5.765a41.107,41.107,0,0,0-34.765,31.12l-6.676,54.976h46.928l-6.876,72.649,42.571,23.937H812.116L800.568,1605.8l6.509-25.616h37.584L835.1,1536.7a41.108,41.108,0,0,0-32.1-31.484l-36.213-7.234Z" transform="translate(-628.499 -1497.986)" fill="#084a93"/>
          </g>
          <g id="Grupo_112724" data-name="Grupo 112724" transform="translate(0 91.859)">
            <path id="Trazado_117479" data-name="Trazado 117479" d="M729.8,1665.857v31.915H642.169a15.855,15.855,0,0,1-15.816-16.9l3.5-52.807H677.3l-3.353,26.874Z" transform="translate(-626.318 -1628.061)" fill="#f5e9d9"/>
          </g>
          <g id="Grupo_112725" data-name="Grupo 112725" transform="translate(31.881 63.94)">
            <path id="Trazado_117480" data-name="Trazado 117480" d="M698.706,1617.012H671.462v-1.133h26.3l4.954-27.352,1.115.2Z" transform="translate(-671.462 -1588.527)" fill="#1e2427"/>
          </g>
          <g id="Grupo_112726" data-name="Grupo 112726" transform="translate(173.067 62.016)">
            <rect id="Rectángulo_293475" data-name="Rectángulo 293475" width="46.979" height="1.134" transform="translate(0 45.672) rotate(-76.452)" fill="#1e2427"/>
          </g>
        </g>
        <g id="Grupo_112742" data-name="Grupo 112742" transform="translate(213.121 100.141)">
          <g id="Grupo_112728" data-name="Grupo 112728" transform="translate(103.82)">
            <rect id="Rectángulo_293476" data-name="Rectángulo 293476" width="12.963" height="52.134" rx="3.51" transform="translate(14.726 0) rotate(16.407)" fill="#f5e9d9"/>
          </g>
          <g id="Grupo_112729" data-name="Grupo 112729" transform="translate(111.206 25.569)">
            <rect id="Rectángulo_293477" data-name="Rectángulo 293477" width="12.963" height="31.936" rx="3.51" transform="translate(11.331 0) rotate(20.782)" fill="#f5e9d9"/>
          </g>
          <g id="Grupo_112730" data-name="Grupo 112730" transform="translate(119.559 32.218)">
            <rect id="Rectángulo_293478" data-name="Rectángulo 293478" width="12.963" height="32.457" rx="3.51" transform="translate(11.516 0) rotate(20.782)" fill="#f5e9d9"/>
          </g>
          <g id="Grupo_112731" data-name="Grupo 112731" transform="translate(128.824 40.173)">
            <rect id="Rectángulo_293479" data-name="Rectángulo 293479" width="12.963" height="24.597" rx="3.51" transform="matrix(0.79, 0.613, -0.613, 0.79, 15.077, 0)" fill="#f5e9d9"/>
          </g>
          <g id="Grupo_112732" data-name="Grupo 112732" transform="translate(97.961 33.819)">
            <rect id="Rectángulo_293480" data-name="Rectángulo 293480" width="12.963" height="32.457" rx="3.51" transform="matrix(0.209, -0.978, 0.978, 0.209, 0, 12.677)" fill="#f5e9d9"/>
          </g>
          <g id="Grupo_112733" data-name="Grupo 112733" transform="translate(0 40.156)">
            <path id="Trazado_117481" data-name="Trazado 117481" d="M1009.066,1548.807c-2.968,14.705-20.087,23.464-20.087,23.464l-50.541,57a38.362,38.362,0,0,1-30.5,15.068l-33.15-.521-4.725-32.436,7.3-22.648h32.357l1.269,4.181,51.118-38.136,7.274-27.1Z" transform="translate(-870.064 -1527.677)" fill="#f5e9d9"/>
          </g>
          <g id="Grupo_112734" data-name="Grupo 112734" transform="translate(122.365 52.055)">
            <path id="Trazado_117482" data-name="Trazado 117482" d="M1043.9,1552.285h-.021a.568.568,0,0,1-.546-.587,7,7,0,0,1,.452-2.22l1.5-4.561a.566.566,0,1,1,1.075.354l-1.506,4.585a5.909,5.909,0,0,0-.385,1.883A.568.568,0,0,1,1043.9,1552.285Z" transform="translate(-1043.336 -1544.527)" fill="#1e2427"/>
          </g>
          <g id="Grupo_112735" data-name="Grupo 112735" transform="translate(121.753 61.488)">
            <path id="Trazado_117483" data-name="Trazado 117483" d="M1048.6,1562.239a6.952,6.952,0,0,1-2.469-.45,7.051,7.051,0,0,1-3.587-3.053.567.567,0,0,1,.98-.569,5.905,5.905,0,0,0,9.8.632.566.566,0,1,1,.9.69A7.114,7.114,0,0,1,1048.6,1562.239Z" transform="translate(-1042.47 -1557.884)" fill="#1e2427"/>
          </g>
          <g id="Grupo_112736" data-name="Grupo 112736" transform="translate(132.492 61.865)">
            <path id="Trazado_117484" data-name="Trazado 117484" d="M1063.08,1562.053a6.982,6.982,0,0,1-4.3-1.473,7.143,7.143,0,0,1-.963-.905.567.567,0,0,1,.85-.75,5.943,5.943,0,0,0,.809.76,5.936,5.936,0,0,0,8.3-1.049.567.567,0,0,1,.9.695,7,7,0,0,1-4.688,2.665A7.069,7.069,0,0,1,1063.08,1562.053Z" transform="translate(-1057.676 -1558.418)" fill="#1e2427"/>
          </g>
          <g id="Grupo_112737" data-name="Grupo 112737" transform="translate(121.756 61.485)">
            <path id="Trazado_117485" data-name="Trazado 117485" d="M1043.181,1561.68h-.015a.567.567,0,0,1-.552-.581,16.458,16.458,0,0,0-.136-2.574.565.565,0,0,1,.486-.636.558.558,0,0,1,.636.485,17.552,17.552,0,0,1,.147,2.754A.567.567,0,0,1,1043.181,1561.68Z" transform="translate(-1042.474 -1557.879)" fill="#1e2427"/>
          </g>
          <g id="Grupo_112738" data-name="Grupo 112738" transform="translate(106.439 34.606)">
            <path id="Trazado_117486" data-name="Trazado 117486" d="M1036.667,1547.833a.566.566,0,0,1-.56-.491c-1.107-8.27-8.445-12.222-8.52-12.261a.566.566,0,0,1,.405-1.05l9.859,2.552a5.916,5.916,0,0,0,2.446-11.575l-19.065-4.07a.566.566,0,1,1,.237-1.108l19.065,4.07a7.048,7.048,0,1,1-2.943,13.786l-6.815-1.765a17.768,17.768,0,0,1,6.452,11.27.565.565,0,0,1-.486.636A.39.39,0,0,1,1036.667,1547.833Z" transform="translate(-1020.785 -1519.818)" fill="#1e2427"/>
          </g>
          <g id="Grupo_112739" data-name="Grupo 112739" transform="translate(120.266 27.379)">
            <path id="Trazado_117487" data-name="Trazado 117487" d="M1040.931,1520.9a.55.55,0,0,1-.161-.023.566.566,0,0,1-.383-.7l3-10.178a.567.567,0,1,1,1.087.32l-3,10.178A.567.567,0,0,1,1040.931,1520.9Z" transform="translate(-1040.364 -1509.584)" fill="#1e2427"/>
          </g>
          <g id="Grupo_112740" data-name="Grupo 112740" transform="translate(129.552 33.88)">
            <path id="Trazado_117488" data-name="Trazado 117488" d="M1054.08,1526.946a.558.558,0,0,1-.2-.036.566.566,0,0,1-.331-.729l2.635-7.023a.566.566,0,1,1,1.06.4l-2.635,7.023A.565.565,0,0,1,1054.08,1526.946Z" transform="translate(-1053.514 -1518.791)" fill="#1e2427"/>
          </g>
          <g id="Grupo_112741" data-name="Grupo 112741" transform="translate(132.493 44.728)">
            <path id="Trazado_117489" data-name="Trazado 117489" d="M1058.244,1552.738a.545.545,0,0,1-.207-.04.564.564,0,0,1-.32-.734l6.869-17.455a.566.566,0,1,1,1.054.415l-6.869,17.454A.565.565,0,0,1,1058.244,1552.738Z" transform="translate(-1057.677 -1534.152)" fill="#1e2427"/>
          </g>
        </g>
        <g id="Grupo_112757" data-name="Grupo 112757" transform="translate(113.851)">
          <path id="Trazado_117490" data-name="Trazado 117490" d="M828.645,1370.749c-4.782,9.419-15.229,14.495-25.529,14.128a29.492,29.492,0,0,1-2.475,6.88,29.92,29.92,0,0,1-16.31,14.4c-6.45,2.328-14.233,2.4-19.509-2.119a31.334,31.334,0,0,1-15.565-1.269c-11.705-4-19.687-15.544-19.76-27.858-.032-6.157,1.678-12.607,5.811-17.317a16.535,16.535,0,0,1,13.876-5.78,15.86,15.86,0,0,1-.147-3.66c.546-6.923,6.21-12.1,12.786-13.426,5.769-1.165,11.685,1.206,15.734,5.318a20.649,20.649,0,0,1,1.814-3.251,18.744,18.744,0,0,1,33.784,8.212,15.645,15.645,0,0,1,7.248.755C830.428,1349.215,833.061,1362.064,828.645,1370.749Z" transform="translate(-729.495 -1329.013)" fill="#1e2427"/>
          <g id="Grupo_112744" data-name="Grupo 112744" transform="translate(2.211 42.516)">
            <g id="Grupo_112743" data-name="Grupo 112743">
              <path id="Trazado_117491" data-name="Trazado 117491" d="M734.337,1427.149c3.078,7.781,8.743,12.155,16.075,10.2l-4.6,28.681,35.384,35.379,16.442-30.442-.658-12.955,5.519-5.092a41.333,41.333,0,0,0,13.207-33.254l-1.9-27.28a1.161,1.161,0,0,1-.2.064,40.3,40.3,0,0,1-14.776.854,49.982,49.982,0,0,1-16.6-4.089,6.925,6.925,0,0,1-1.857,4.322c-1.965,2.058-4.894,2.9-7.727,3.124a22.41,22.41,0,0,1-11.592-2.254q-2.673,7.568-5.848,14.955l.009.125-.04-.035a15.565,15.565,0,0,0-9.729-3.8,13.944,13.944,0,0,0-5.429.982C732.3,1409.693,731.031,1418.807,734.337,1427.149Z" transform="translate(-732.626 -1389.217)" fill="#f5e9d9"/>
            </g>
          </g>
          <g id="Grupo_112746" data-name="Grupo 112746" transform="translate(72.655 63.275)">
            <g id="Grupo_112745" data-name="Grupo 112745" transform="translate(0 0)">
              <ellipse id="Elipse_4763" data-name="Elipse 4763" cx="4.08" cy="4.514" rx="4.08" ry="4.514" transform="translate(0 0.568) rotate(-3.989)" fill="#1e2427"/>
            </g>
          </g>
          <g id="Grupo_112748" data-name="Grupo 112748" transform="translate(47.91 65.001)">
            <g id="Grupo_112747" data-name="Grupo 112747" transform="translate(0 0)">
              <ellipse id="Elipse_4764" data-name="Elipse 4764" cx="4.08" cy="4.514" rx="4.08" ry="4.514" transform="translate(0 0.568) rotate(-3.989)" fill="#1e2427"/>
            </g>
          </g>
          <g id="Grupo_112750" data-name="Grupo 112750" transform="translate(72.293 57.065)">
            <g id="Grupo_112749" data-name="Grupo 112749">
              <path id="Trazado_117492" data-name="Trazado 117492" d="M832.5,1410.527a9.674,9.674,0,0,1,9.209,1.04,1.252,1.252,0,0,1-1.328,2.124,8.276,8.276,0,0,0-.814-.525c-.138-.078-.278-.15-.42-.219l-.049-.022c-.074-.031-.148-.062-.224-.092a8.363,8.363,0,0,0-.919-.3c-.156-.042-.314-.077-.472-.111l-.076-.016c-.087-.014-.174-.027-.262-.037a8.443,8.443,0,0,0-.967-.066c-.162,0-.323,0-.484.008-.081,0-.161.008-.242.014h0l-.023,0a8.9,8.9,0,0,0-.953.171q-.235.057-.467.128c-.077.024-.153.05-.23.075l-.04.013-.044.018a1.286,1.286,0,0,1-1.7-.506A1.265,1.265,0,0,1,832.5,1410.527Z" transform="translate(-831.865 -1409.818)" fill="#1e2427"/>
            </g>
          </g>
          <g id="Grupo_112752" data-name="Grupo 112752" transform="translate(45.499 58.746)">
            <g id="Grupo_112751" data-name="Grupo 112751">
              <path id="Trazado_117493" data-name="Trazado 117493" d="M804.078,1414.093a1.286,1.286,0,0,1-1.611.737l-.045-.011-.041-.007-.239-.042c-.159-.026-.319-.046-.48-.062a9.024,9.024,0,0,0-.967-.037h-.028q-.121.008-.242.019c-.16.015-.321.035-.481.059a8.711,8.711,0,0,0-.948.2c-.085.023-.169.048-.254.073l-.073.026c-.152.056-.3.113-.452.176a8.335,8.335,0,0,0-.869.427c-.071.039-.14.081-.209.122l-.045.028c-.131.088-.26.179-.386.275a8.354,8.354,0,0,0-.734.632,1.252,1.252,0,1,1-1.609-1.918,9.671,9.671,0,0,1,8.974-2.308A1.265,1.265,0,0,1,804.078,1414.093Z" transform="translate(-793.924 -1412.198)" fill="#1e2427"/>
            </g>
          </g>
          <g id="Grupo_112753" data-name="Grupo 112753" transform="translate(62.151 65.803)">
            <path id="Trazado_117494" data-name="Trazado 117494" d="M830.972,1442.781l-13.469-.8.066-1.131,11.834.7-5.936-19.025,1.082-.337Z" transform="translate(-817.503 -1422.191)" fill="#1e2427"/>
          </g>
          <g id="Grupo_112754" data-name="Grupo 112754" transform="translate(6.563 62.998)">
            <path id="Trazado_117495" data-name="Trazado 117495" d="M748.829,1442.266a8.058,8.058,0,0,1-6.523-12.832,5.87,5.87,0,0,1,3.732-2.452,4.21,4.21,0,0,1,2.974.633,14.153,14.153,0,0,0-.816-3.885,7.115,7.115,0,0,0-3.338-3.942,3.36,3.36,0,0,0-2.7-.257c-1.09.442-1.732,1.629-2.346,2.911l-1.021-.49c.685-1.431,1.477-2.878,2.941-3.471a4.486,4.486,0,0,1,3.627.29,8.239,8.239,0,0,1,3.9,4.553,17.765,17.765,0,0,1,.977,5.79l.083,2.436-1.149-2.15a2.864,2.864,0,0,0-2.951-1.3,4.815,4.815,0,0,0-2.995,2,6.926,6.926,0,0,0,6.063,11.012l.078,1.131C749.184,1442.26,749.006,1442.266,748.829,1442.266Z" transform="translate(-738.789 -1418.22)" fill="#1e2427"/>
          </g>
          <g id="Grupo_112755" data-name="Grupo 112755" transform="translate(43.803 107.989)">
            <path id="Trazado_117496" data-name="Trazado 117496" d="M805.379,1489.495a15.363,15.363,0,0,1-6.738-1.736,39.861,39.861,0,0,1-7.12-4.953l.715-.878a39.056,39.056,0,0,0,6.912,4.818,13.192,13.192,0,0,0,7.934,1.473c2.536-.436,4.774-1.812,7.355-3.744l.679.907c-2.347,1.757-4.922,3.452-7.842,3.953A11.187,11.187,0,0,1,805.379,1489.495Z" transform="translate(-791.521 -1481.928)" fill="#1e2427"/>
          </g>
          <g id="Grupo_112756" data-name="Grupo 112756" transform="translate(50.241 85.861)">
            <path id="Trazado_117497" data-name="Trazado 117497" d="M812.1,1460.429a14.651,14.651,0,0,1-11.464-9.462l1.071-.373a13.494,13.494,0,0,0,10.557,8.714Z" transform="translate(-800.638 -1450.595)" fill="#1e2427"/>
          </g>
        </g>
        <g id="Grupo_112758" data-name="Grupo 112758" transform="translate(99.743 289.298)">
          <rect id="Rectángulo_293481" data-name="Rectángulo 293481" width="107.294" height="10.288" fill="#ffb30b"/>
        </g>
        <g id="Grupo_112761" data-name="Grupo 112761" transform="translate(99.744 207.62)">
          <g id="Grupo_112759" data-name="Grupo 112759" transform="translate(23.052)">
            <path id="Trazado_117498" data-name="Trazado 117498" d="M895.53,1714.975H742.161l22.659-91.966H918.189Z" transform="translate(-742.161 -1623.009)" fill="#ffb30b"/>
          </g>
          <g id="Grupo_112760" data-name="Grupo 112760" transform="translate(0 81.111)">
            <rect id="Rectángulo_293482" data-name="Rectángulo 293482" width="178.641" height="1.133" fill="#1e2427"/>
          </g>
        </g>
        <g id="Grupo_112783" data-name="Grupo 112783" transform="translate(0 256.959)">
          <g id="Grupo_112769" data-name="Grupo 112769" transform="translate(204.315 73.464)">
            <g id="Grupo_112762" data-name="Grupo 112762">
              <path id="Trazado_117499" data-name="Trazado 117499" d="M973.617,1842.476a28.831,28.831,0,0,1-21.369,12.424,29.245,29.245,0,0,1-3.657.065l-81.133-3.544L857.595,1843l5.557-29.456,11.234-.932,68.939-15.05a28.81,28.81,0,0,1,28.035,9.407l.373.432A28.826,28.826,0,0,1,973.617,1842.476Z" transform="translate(-857.595 -1796.901)" fill="#084a93"/>
            </g>
            <g id="Grupo_112763" data-name="Grupo 112763" transform="translate(89.592 1.717)">
              <path id="Trazado_117500" data-name="Trazado 117500" d="M992.178,1854.58l-.77-.833a38.23,38.23,0,0,0,11.2-18.427,31.315,31.315,0,0,0-2.061-21.244,26.459,26.459,0,0,0-16.084-13.653l.308-1.09a27.613,27.613,0,0,1,16.791,14.239,32.467,32.467,0,0,1,2.146,22.023A39.381,39.381,0,0,1,992.178,1854.58Z" transform="translate(-984.46 -1799.333)" fill="#f5e9d9"/>
            </g>
            <g id="Grupo_112764" data-name="Grupo 112764" transform="translate(13.364 20.387)">
              <path id="Trazado_117501" data-name="Trazado 117501" d="M877.652,1853.376l-1.133-.033a241.475,241.475,0,0,1,2.419-27.573l1.122.164A239.882,239.882,0,0,0,877.652,1853.376Z" transform="translate(-876.519 -1825.77)" fill="#1e2427"/>
            </g>
            <g id="Grupo_112765" data-name="Grupo 112765" transform="translate(34.792 20.168)">
              <path id="Trazado_117502" data-name="Trazado 117502" d="M908.416,1851.739a52.156,52.156,0,0,1,.261-26.28l1.093.3a51.019,51.019,0,0,0-.254,25.71Z" transform="translate(-906.862 -1825.459)" fill="#f5e9d9"/>
            </g>
            <g id="Grupo_112766" data-name="Grupo 112766" transform="translate(42.576 20.801)">
              <path id="Trazado_117503" data-name="Trazado 117503" d="M919.276,1851.389a44.174,44.174,0,0,1,.9-25.033l1.073.363a43.022,43.022,0,0,0-.875,24.385Z" transform="translate(-917.884 -1826.356)" fill="#f5e9d9"/>
            </g>
            <g id="Grupo_112767" data-name="Grupo 112767" transform="translate(49.814 20.875)">
              <path id="Trazado_117504" data-name="Trazado 117504" d="M928.97,1850.946a41.157,41.157,0,0,1,2.5-24.485l1.04.449a40.015,40.015,0,0,0-2.436,23.805Z" transform="translate(-928.133 -1826.461)" fill="#f5e9d9"/>
            </g>
            <g id="Grupo_112768" data-name="Grupo 112768" transform="translate(73.239 9.943)">
              <path id="Trazado_117505" data-name="Trazado 117505" d="M968.339,1852.995a33.955,33.955,0,0,1,.49-42.014l.883.71a32.822,32.822,0,0,0-.475,40.614Z" transform="translate(-961.303 -1810.981)" fill="#1e2427"/>
            </g>
          </g>
          <g id="Grupo_112770" data-name="Grupo 112770" transform="translate(0 12.642)">
            <path id="Trazado_117506" data-name="Trazado 117506" d="M766.022,1774.048l-17.041,55.046-150.768-39.469a40.069,40.069,0,1,1,25.762-75.665Z" transform="translate(-568.28 -1710.776)" fill="#1e2427"/>
          </g>
          <g id="Grupo_112771" data-name="Grupo 112771" transform="translate(134.283)">
            <path id="Trazado_117507" data-name="Trazado 117507" d="M758.428,1794.791l16.325,46.032,177.781-71.307a40.069,40.069,0,1,0-37.876-70.388Z" transform="translate(-758.428 -1692.873)" fill="#1e2427"/>
          </g>
          <g id="Grupo_112772" data-name="Grupo 112772" transform="translate(137.554 37.225)">
            <rect id="Rectángulo_293483" data-name="Rectángulo 293483" width="121.332" height="1.133" transform="matrix(0.85, -0.527, 0.527, 0.85, 0, 63.986)" fill="#f5e9d9"/>
          </g>
          <g id="Grupo_112773" data-name="Grupo 112773" transform="translate(129.113 46.458)">
            <rect id="Rectángulo_293484" data-name="Rectángulo 293484" width="1.132" height="62.968" transform="translate(0 1.04) rotate(-66.725)" fill="#f5e9d9"/>
          </g>
          <g id="Grupo_112782" data-name="Grupo 112782" transform="translate(30.799 91.547)">
            <g id="Grupo_112774" data-name="Grupo 112774" transform="translate(0 10.37)">
              <path id="Trazado_117508" data-name="Trazado 117508" d="M619.96,1886.513a28.71,28.71,0,0,0,26.742,8.2l79.441-16.862,8.341-9.926-10.333-28.139-11.235.932-70.475-3.489a28.815,28.815,0,0,0-26.1,13.9l-.3.488A28.826,28.826,0,0,0,619.96,1886.513Z" transform="translate(-611.892 -1837.191)" fill="#084a93"/>
            </g>
            <g id="Grupo_112775" data-name="Grupo 112775" transform="translate(11.122 12.132)">
              <path id="Trazado_117509" data-name="Trazado 117509" d="M644.92,1895.4a39.381,39.381,0,0,1-14.5-16.824,32.472,32.472,0,0,1-1.512-22.077,27.613,27.613,0,0,1,14.216-16.81l.484,1.024A26.46,26.46,0,0,0,630,1856.826a31.316,31.316,0,0,0,1.467,21.293,38.225,38.225,0,0,0,14.079,16.331Z" transform="translate(-627.641 -1839.686)" fill="#f5e9d9"/>
            </g>
            <g id="Grupo_112776" data-name="Grupo 112776" transform="translate(101.709 18.337)">
              <path id="Trazado_117510" data-name="Trazado 117510" d="M762.81,1875.489a239.73,239.73,0,0,0-6.9-26.67l1.079-.347a241.45,241.45,0,0,1,6.929,26.8Z" transform="translate(-755.914 -1848.472)" fill="#1e2427"/>
            </g>
            <g id="Grupo_112777" data-name="Grupo 112777" transform="translate(89.953)">
              <path id="Trazado_117511" data-name="Trazado 117511" d="M752.39,1879.483a7.094,7.094,0,0,1-4.261-1.633c-2.791-2.239-4.509-5.887-5.255-11.151-.168-1.19-.289-2.39-.41-3.59a36.116,36.116,0,0,0-1.5-8.327l.287-.1c-.006-.037-.012-.076-.018-.115l-.418-.336.3-.378c-1.3-8.06-2.539-16.368-1.41-24.644.277-2.028.907-4.869,3.174-6.134a5.5,5.5,0,0,1,6.059.84,9.435,9.435,0,0,1,2.926,5.332c1.216,5.418-.5,10.611-2.153,14.015a59.22,59.22,0,0,1-7.4,10.908c.018.115.037.232.056.347A25.175,25.175,0,0,1,756.6,1871.7c.329,1.531.818,5.281-1.747,7.048A4.267,4.267,0,0,1,752.39,1879.483Zm-9.922-23.672a44.388,44.388,0,0,1,1.124,7.185c.119,1.185.238,2.37.4,3.544.7,4.965,2.287,8.376,4.842,10.428,1.467,1.176,3.771,1.946,5.367.844,2-1.377,1.563-4.568,1.282-5.875A23.992,23.992,0,0,0,742.468,1855.811Zm2.7-32.177a3.542,3.542,0,0,0-1.737.431c-1.824,1.018-2.359,3.51-2.6,5.3-1.061,7.769.016,15.637,1.242,23.3a54.541,54.541,0,0,0,6.623-9.893c1.574-3.24,3.21-8.174,2.066-13.272a8.349,8.349,0,0,0-2.551-4.712A4.8,4.8,0,0,0,745.173,1823.634Z" transform="translate(-739.267 -1822.506)" fill="#f5e9d9"/>
            </g>
            <g id="Grupo_112778" data-name="Grupo 112778" transform="translate(81.183 21.55)">
              <path id="Trazado_117512" data-name="Trazado 117512" d="M732.464,1878.9l-1.13-.09a51.026,51.026,0,0,0-4.486-25.314l1.03-.474A52.179,52.179,0,0,1,732.464,1878.9Z" transform="translate(-726.848 -1853.021)" fill="#f5e9d9"/>
            </g>
            <g id="Grupo_112779" data-name="Grupo 112779" transform="translate(73.174 23.536)">
              <path id="Trazado_117513" data-name="Trazado 117513" d="M721.516,1880.377l-1.129-.1a43.024,43.024,0,0,0-4.879-23.906l1-.535A44.163,44.163,0,0,1,721.516,1880.377Z" transform="translate(-715.508 -1855.834)" fill="#f5e9d9"/>
            </g>
            <g id="Grupo_112780" data-name="Grupo 112780" transform="translate(65.055 24.975)">
              <path id="Trazado_117514" data-name="Trazado 117514" d="M711.467,1881.609l-1.132-.045a40,40,0,0,0-6.324-23.078l.952-.615A41.146,41.146,0,0,1,711.467,1881.609Z" transform="translate(-704.011 -1857.872)" fill="#f5e9d9"/>
            </g>
            <g id="Grupo_112781" data-name="Grupo 112781" transform="translate(36.221 18.74)">
              <path id="Trazado_117515" data-name="Trazado 117515" d="M671.341,1890.4l-1-.533a32.822,32.822,0,0,0-7.158-39.979l.752-.847a33.958,33.958,0,0,1,7.407,41.36Z" transform="translate(-663.182 -1849.042)" fill="#1e2427"/>
            </g>
          </g>
        </g>
      </g>
      <g id="Grupo_112821" data-name="Grupo 112821" transform="translate(884.275 1321.156)">
        <g id="Grupo_112785" data-name="Grupo 112785">
          <path id="Trazado_117516" data-name="Trazado 117516" d="M1229.994,1505.724H1088.843V1334.883h141.151Zm-140.019-1.134h138.885V1336.016H1089.976Z" transform="translate(-1088.843 -1334.883)" fill="#1e2427"/>
        </g>
        <g id="Grupo_112786" data-name="Grupo 112786" transform="translate(4.436 4.031)">
          <rect id="Rectángulo_293485" data-name="Rectángulo 293485" width="132.28" height="18.425" fill="#084a93"/>
        </g>
        <g id="Grupo_112796" data-name="Grupo 112796" transform="translate(104.915 5.524)">
          <g id="Grupo_112789" data-name="Grupo 112789" transform="translate(0 1.462)">
            <g id="Grupo_112788" data-name="Grupo 112788">
              <g id="Grupo_112787" data-name="Grupo 112787">
                <path id="Trazado_117517" data-name="Trazado 117517" d="M1245.083,1357.29a.79.79,0,0,1-.494-.174l-6.886-5.5a.793.793,0,0,1,0-1.239l6.8-5.43a.793.793,0,0,1,.989,1.239l-6.022,4.811,6.111,4.881a.793.793,0,0,1-.5,1.412Z" transform="translate(-1237.405 -1344.775)" fill="#f5e9d9"/>
              </g>
            </g>
          </g>
          <g id="Grupo_112792" data-name="Grupo 112792" transform="translate(17.43 1.462)">
            <g id="Grupo_112791" data-name="Grupo 112791">
              <g id="Grupo_112790" data-name="Grupo 112790">
                <path id="Trazado_117518" data-name="Trazado 117518" d="M1262.879,1357.29a.793.793,0,0,1-.495-1.412l6.111-4.881-6.022-4.811a.793.793,0,0,1,.989-1.239l6.8,5.43a.793.793,0,0,1,0,1.239l-6.886,5.5A.791.791,0,0,1,1262.879,1357.29Z" transform="translate(-1262.086 -1344.775)" fill="#f5e9d9"/>
              </g>
            </g>
          </g>
          <g id="Grupo_112795" data-name="Grupo 112795" transform="translate(10.505)">
            <g id="Grupo_112794" data-name="Grupo 112794">
              <g id="Grupo_112793" data-name="Grupo 112793">
                <path id="Trazado_117519" data-name="Trazado 117519" d="M1253.179,1358.136a.792.792,0,0,1-.864-1.018l4.261-13.853a.793.793,0,1,1,1.515.466l-4.261,13.853A.792.792,0,0,1,1253.179,1358.136Z" transform="translate(-1252.28 -1342.705)" fill="#f5e9d9"/>
              </g>
            </g>
          </g>
        </g>
        <g id="Grupo_112797" data-name="Grupo 112797" transform="translate(4.436 35.211)">
          <rect id="Rectángulo_293486" data-name="Rectángulo 293486" width="71.111" height="5.827" fill="#ffb30b"/>
        </g>
        <g id="Grupo_112798" data-name="Grupo 112798" transform="translate(78.775 35.211)">
          <rect id="Rectángulo_293487" data-name="Rectángulo 293487" width="34.611" height="5.827" fill="#084a93"/>
        </g>
        <g id="Grupo_112799" data-name="Grupo 112799" transform="translate(116.941 35.211)">
          <rect id="Rectángulo_293488" data-name="Rectángulo 293488" width="19.775" height="5.827" fill="#1e2427"/>
        </g>
        <g id="Grupo_112800" data-name="Grupo 112800" transform="translate(88.443 48.44)">
          <path id="Trazado_117520" data-name="Trazado 117520" d="M1262.533,1409.3h-48.452v-5.827h48.452" transform="translate(-1214.081 -1403.475)" fill="#ffb30b"/>
        </g>
        <g id="Grupo_112801" data-name="Grupo 112801" transform="translate(50.604 48.44)">
          <rect id="Rectángulo_293489" data-name="Rectángulo 293489" width="34.611" height="5.827" transform="translate(34.611 5.827) rotate(180)" fill="#084a93"/>
        </g>
        <g id="Grupo_112802" data-name="Grupo 112802" transform="translate(4.616 48.44)">
          <path id="Trazado_117521" data-name="Trazado 117521" d="M1095.379,1403.475h42.434v5.827h-42.434" transform="translate(-1095.379 -1403.475)" fill="#1e2427"/>
        </g>
        <g id="Grupo_112803" data-name="Grupo 112803" transform="translate(4.616 62.769)">
          <rect id="Rectángulo_293490" data-name="Rectángulo 293490" width="25.793" height="5.827" fill="#084a93"/>
        </g>
        <g id="Grupo_112804" data-name="Grupo 112804" transform="translate(33.637 62.769)">
          <rect id="Rectángulo_293491" data-name="Rectángulo 293491" width="71.998" height="5.827" fill="#ffb30b"/>
        </g>
        <g id="Grupo_112805" data-name="Grupo 112805" transform="translate(109.19 62.769)">
          <rect id="Rectángulo_293492" data-name="Rectángulo 293492" width="27.705" height="5.827" fill="#1e2427"/>
        </g>
        <g id="Grupo_112806" data-name="Grupo 112806" transform="translate(115.813 75.998)">
          <path id="Trazado_117522" data-name="Trazado 117522" d="M1274.1,1448.324h-21.261V1442.5H1274.1" transform="translate(-1252.838 -1442.498)" fill="#ffb30b"/>
        </g>
        <g id="Grupo_112807" data-name="Grupo 112807" transform="translate(50.784 75.998)">
          <rect id="Rectángulo_293493" data-name="Rectángulo 293493" width="61.802" height="5.827" transform="translate(61.802 5.827) rotate(180)" fill="#084a93"/>
        </g>
        <g id="Grupo_112808" data-name="Grupo 112808" transform="translate(4.795 75.998)">
          <path id="Trazado_117523" data-name="Trazado 117523" d="M1095.633,1442.5h42.434v5.827h-42.434" transform="translate(-1095.633 -1442.498)" fill="#1e2427"/>
        </g>
        <g id="Grupo_112809" data-name="Grupo 112809" transform="translate(4.795 98.157)">
          <rect id="Rectángulo_293494" data-name="Rectángulo 293494" width="71.111" height="5.827" fill="#ffb30b"/>
        </g>
        <g id="Grupo_112810" data-name="Grupo 112810" transform="translate(79.134 98.157)">
          <rect id="Rectángulo_293495" data-name="Rectángulo 293495" width="34.611" height="5.827" fill="#084a93"/>
        </g>
        <g id="Grupo_112811" data-name="Grupo 112811" transform="translate(117.3 98.157)">
          <rect id="Rectángulo_293496" data-name="Rectángulo 293496" width="19.775" height="5.827" fill="#1e2427"/>
        </g>
        <g id="Grupo_112812" data-name="Grupo 112812" transform="translate(88.802 111.386)">
          <path id="Trazado_117524" data-name="Trazado 117524" d="M1263.041,1498.435h-48.452v-5.827h48.452" transform="translate(-1214.589 -1492.608)" fill="#ffb30b"/>
        </g>
        <g id="Grupo_112813" data-name="Grupo 112813" transform="translate(50.963 111.386)">
          <rect id="Rectángulo_293497" data-name="Rectángulo 293497" width="34.611" height="5.827" transform="translate(34.611 5.827) rotate(180)" fill="#084a93"/>
        </g>
        <g id="Grupo_112814" data-name="Grupo 112814" transform="translate(4.975 111.386)">
          <path id="Trazado_117525" data-name="Trazado 117525" d="M1095.887,1492.608h42.434v5.827h-42.434" transform="translate(-1095.887 -1492.608)" fill="#1e2427"/>
        </g>
        <g id="Grupo_112815" data-name="Grupo 112815" transform="translate(4.975 125.715)">
          <rect id="Rectángulo_293498" data-name="Rectángulo 293498" width="25.793" height="5.827" fill="#084a93"/>
        </g>
        <g id="Grupo_112816" data-name="Grupo 112816" transform="translate(33.996 125.715)">
          <rect id="Rectángulo_293499" data-name="Rectángulo 293499" width="71.998" height="5.827" fill="#ffb30b"/>
        </g>
        <g id="Grupo_112817" data-name="Grupo 112817" transform="translate(109.549 125.715)">
          <rect id="Rectángulo_293500" data-name="Rectángulo 293500" width="27.705" height="5.827" fill="#1e2427"/>
        </g>
        <g id="Grupo_112818" data-name="Grupo 112818" transform="translate(116.172 138.944)">
          <path id="Trazado_117526" data-name="Trazado 117526" d="M1274.608,1537.458h-21.261v-5.827h21.261" transform="translate(-1253.346 -1531.631)" fill="#ffb30b"/>
        </g>
        <g id="Grupo_112819" data-name="Grupo 112819" transform="translate(51.143 138.944)">
          <rect id="Rectángulo_293501" data-name="Rectángulo 293501" width="61.802" height="5.827" transform="translate(61.802 5.827) rotate(180)" fill="#084a93"/>
        </g>
        <g id="Grupo_112820" data-name="Grupo 112820" transform="translate(5.154 138.944)">
          <path id="Trazado_117527" data-name="Trazado 117527" d="M1096.141,1531.631h42.434v5.827h-42.434" transform="translate(-1096.141 -1531.631)" fill="#1e2427"/>
        </g>
      </g>
      <g id="Grupo_112858" data-name="Grupo 112858" transform="translate(398.88 1262.179)">
        <g id="Grupo_112822" data-name="Grupo 112822" transform="translate(0)">
          <path id="Trazado_117528" data-name="Trazado 117528" d="M592.222,1434.354H451.071V1263.513H592.222ZM452.2,1433.221H591.089V1264.646H452.2Z" transform="translate(-451.071 -1263.513)" fill="#1e2427"/>
        </g>
        <g id="Grupo_112823" data-name="Grupo 112823" transform="translate(4.435 4.031)">
          <rect id="Rectángulo_293502" data-name="Rectángulo 293502" width="132.28" height="18.425" fill="#084a93"/>
        </g>
        <g id="Grupo_112833" data-name="Grupo 112833" transform="translate(104.914 5.524)">
          <g id="Grupo_112826" data-name="Grupo 112826" transform="translate(0 1.462)">
            <g id="Grupo_112825" data-name="Grupo 112825">
              <g id="Grupo_112824" data-name="Grupo 112824">
                <path id="Trazado_117529" data-name="Trazado 117529" d="M607.311,1285.919a.789.789,0,0,1-.494-.173l-6.886-5.5a.793.793,0,0,1,0-1.239l6.8-5.43a.793.793,0,0,1,.989,1.239l-6.022,4.811,6.111,4.88a.793.793,0,0,1-.5,1.412Z" transform="translate(-599.632 -1273.404)" fill="#f5e9d9"/>
              </g>
            </g>
          </g>
          <g id="Grupo_112829" data-name="Grupo 112829" transform="translate(17.43 1.462)">
            <g id="Grupo_112828" data-name="Grupo 112828">
              <g id="Grupo_112827" data-name="Grupo 112827">
                <path id="Trazado_117530" data-name="Trazado 117530" d="M625.107,1285.919a.793.793,0,0,1-.5-1.412l6.111-4.88-6.023-4.811a.793.793,0,0,1,.989-1.239l6.8,5.43a.793.793,0,0,1,0,1.239l-6.886,5.5A.787.787,0,0,1,625.107,1285.919Z" transform="translate(-624.313 -1273.404)" fill="#f5e9d9"/>
              </g>
            </g>
          </g>
          <g id="Grupo_112832" data-name="Grupo 112832" transform="translate(10.505)">
            <g id="Grupo_112831" data-name="Grupo 112831">
              <g id="Grupo_112830" data-name="Grupo 112830">
                <path id="Trazado_117531" data-name="Trazado 117531" d="M615.407,1286.766a.794.794,0,0,1-.864-1.018l4.261-13.853a.792.792,0,1,1,1.515.466l-4.261,13.853A.792.792,0,0,1,615.407,1286.766Z" transform="translate(-614.507 -1271.335)" fill="#f5e9d9"/>
              </g>
            </g>
          </g>
        </g>
        <g id="Grupo_112834" data-name="Grupo 112834" transform="translate(4.435 35.211)">
          <rect id="Rectángulo_293503" data-name="Rectángulo 293503" width="71.111" height="5.827" fill="#ffb30b"/>
        </g>
        <g id="Grupo_112835" data-name="Grupo 112835" transform="translate(78.775 35.211)">
          <rect id="Rectángulo_293504" data-name="Rectángulo 293504" width="34.611" height="5.827" fill="#084a93"/>
        </g>
        <g id="Grupo_112836" data-name="Grupo 112836" transform="translate(116.94 35.211)">
          <rect id="Rectángulo_293505" data-name="Rectángulo 293505" width="19.775" height="5.827" fill="#f5e9d9"/>
        </g>
        <g id="Grupo_112837" data-name="Grupo 112837" transform="translate(88.442 48.44)">
          <path id="Trazado_117532" data-name="Trazado 117532" d="M624.76,1337.932H576.308V1332.1H624.76" transform="translate(-576.308 -1332.105)" fill="#ffb30b"/>
        </g>
        <g id="Grupo_112838" data-name="Grupo 112838" transform="translate(50.604 48.44)">
          <rect id="Rectángulo_293506" data-name="Rectángulo 293506" width="34.611" height="5.827" transform="translate(34.611 5.827) rotate(180)" fill="#084a93"/>
        </g>
        <g id="Grupo_112839" data-name="Grupo 112839" transform="translate(4.615 48.44)">
          <path id="Trazado_117533" data-name="Trazado 117533" d="M457.606,1332.1H500.04v5.827H457.606" transform="translate(-457.606 -1332.105)" fill="#f5e9d9"/>
        </g>
        <g id="Grupo_112840" data-name="Grupo 112840" transform="translate(4.615 62.769)">
          <rect id="Rectángulo_293507" data-name="Rectángulo 293507" width="25.793" height="5.827" fill="#084a93"/>
        </g>
        <g id="Grupo_112841" data-name="Grupo 112841" transform="translate(33.636 62.769)">
          <rect id="Rectángulo_293508" data-name="Rectángulo 293508" width="71.998" height="5.827" fill="#ffb30b"/>
        </g>
        <g id="Grupo_112842" data-name="Grupo 112842" transform="translate(109.189 62.769)">
          <rect id="Rectángulo_293509" data-name="Rectángulo 293509" width="27.705" height="5.827" fill="#f5e9d9"/>
        </g>
        <g id="Grupo_112843" data-name="Grupo 112843" transform="translate(115.813 75.998)">
          <path id="Trazado_117534" data-name="Trazado 117534" d="M636.326,1376.954H615.065v-5.827h21.261" transform="translate(-615.065 -1371.128)" fill="#ffb30b"/>
        </g>
        <g id="Grupo_112844" data-name="Grupo 112844" transform="translate(50.783 75.998)">
          <rect id="Rectángulo_293510" data-name="Rectángulo 293510" width="61.802" height="5.827" transform="translate(61.802 5.827) rotate(180)" fill="#084a93"/>
        </g>
        <g id="Grupo_112845" data-name="Grupo 112845" transform="translate(4.794 75.998)">
          <path id="Trazado_117535" data-name="Trazado 117535" d="M457.86,1371.128h42.434v5.827H457.86" transform="translate(-457.86 -1371.128)" fill="#f5e9d9"/>
        </g>
        <g id="Grupo_112846" data-name="Grupo 112846" transform="translate(4.794 98.157)">
          <rect id="Rectángulo_293511" data-name="Rectángulo 293511" width="71.111" height="5.827" fill="#ffb30b"/>
        </g>
        <g id="Grupo_112847" data-name="Grupo 112847" transform="translate(79.134 98.157)">
          <rect id="Rectángulo_293512" data-name="Rectángulo 293512" width="34.611" height="5.827" fill="#084a93"/>
        </g>
        <g id="Grupo_112848" data-name="Grupo 112848" transform="translate(117.299 98.157)">
          <rect id="Rectángulo_293513" data-name="Rectángulo 293513" width="19.775" height="5.827" fill="#f5e9d9"/>
        </g>
        <g id="Grupo_112849" data-name="Grupo 112849" transform="translate(88.801 111.386)">
          <path id="Trazado_117536" data-name="Trazado 117536" d="M625.268,1427.065H576.816v-5.827h48.452" transform="translate(-576.816 -1421.238)" fill="#ffb30b"/>
        </g>
        <g id="Grupo_112850" data-name="Grupo 112850" transform="translate(50.963 111.386)">
          <rect id="Rectángulo_293514" data-name="Rectángulo 293514" width="34.611" height="5.827" transform="translate(34.611 5.827) rotate(180)" fill="#084a93"/>
        </g>
        <g id="Grupo_112851" data-name="Grupo 112851" transform="translate(4.974 111.386)">
          <path id="Trazado_117537" data-name="Trazado 117537" d="M458.114,1421.238h42.434v5.827H458.114" transform="translate(-458.114 -1421.238)" fill="#f5e9d9"/>
        </g>
        <g id="Grupo_112852" data-name="Grupo 112852" transform="translate(4.974 125.715)">
          <rect id="Rectángulo_293515" data-name="Rectángulo 293515" width="25.793" height="5.827" fill="#084a93"/>
        </g>
        <g id="Grupo_112853" data-name="Grupo 112853" transform="translate(33.995 125.715)">
          <rect id="Rectángulo_293516" data-name="Rectángulo 293516" width="71.998" height="5.827" fill="#ffb30b"/>
        </g>
        <g id="Grupo_112854" data-name="Grupo 112854" transform="translate(109.548 125.715)">
          <rect id="Rectángulo_293517" data-name="Rectángulo 293517" width="27.705" height="5.827" fill="#f5e9d9"/>
        </g>
        <g id="Grupo_112855" data-name="Grupo 112855" transform="translate(116.172 138.944)">
          <path id="Trazado_117538" data-name="Trazado 117538" d="M636.835,1466.087H615.573v-5.827h21.261" transform="translate(-615.573 -1460.261)" fill="#ffb30b"/>
        </g>
        <g id="Grupo_112856" data-name="Grupo 112856" transform="translate(51.142 138.944)">
          <rect id="Rectángulo_293518" data-name="Rectángulo 293518" width="61.802" height="5.827" transform="translate(61.802 5.827) rotate(180)" fill="#084a93"/>
        </g>
        <g id="Grupo_112857" data-name="Grupo 112857" transform="translate(5.153 138.944)">
          <path id="Trazado_117539" data-name="Trazado 117539" d="M458.368,1460.261H500.8v5.827H458.368" transform="translate(-458.368 -1460.261)" fill="#f5e9d9"/>
        </g>
      </g>
      <g id="Grupo_112859" data-name="Grupo 112859" transform="translate(726.427 1285.197)">
        <path id="Trazado_117540" data-name="Trazado 117540" d="M1024.184,1301.689v25.729a13.635,13.635,0,0,1-13.6,13.6H986.026l-20.2,19,2.909-19H864.023a13.635,13.635,0,0,1-13.6-13.6v-25.729a13.636,13.636,0,0,1,13.6-13.6h146.566A13.636,13.636,0,0,1,1024.184,1301.689Z" transform="translate(-850.427 -1288.093)" fill="#ffb30b"/>
      </g>
      <g id="Grupo_112860" data-name="Grupo 112860" transform="translate(246.427 1321.156)">
        <path id="Trazado_117541" data-name="Trazado 117541" d="M273.427,1337.689v25.729a13.635,13.635,0,0,0,13.6,13.6h24.562l20.2,19-2.909-19h69.4a13.636,13.636,0,0,0,13.6-13.6v-25.729a13.636,13.636,0,0,0-13.6-13.6H287.022A13.636,13.636,0,0,0,273.427,1337.689Z" transform="translate(-273.427 -1324.093)" fill="#ffb30b"/>
      </g>
      <text id="NoSQL" transform="translate(743.68 1329.562)" fill="#fff" font-size="45" font-family="Roboto-Bold, Roboto" font-weight="700"><tspan x="0" y="0">NoSQL</tspan></text>
      <text id="SQL" transform="translate(273.567 1363.816)" fill="#fff" font-size="44" font-family="Roboto-Bold, Roboto" font-weight="700"><tspan x="0" y="0">SQL</tspan></text>
    </g>
  </g>
</svg>
