<svg xmlns="http://www.w3.org/2000/svg" width="1030" height="510" viewBox="0 0 1030 510">
  <g id="Grupo_113839" data-name="Grupo 113839" transform="translate(-285.034 -2993.027)">
    <rect id="Rect치ngulo_293606" data-name="Rect치ngulo 293606" width="1030" height="510" transform="translate(285.034 2993.027)" fill="#fff"/>
    <g id="Grupo_113455" data-name="Grupo 113455" transform="translate(-1946.591 1829.901)">
      <ellipse id="Elipse_4786" data-name="Elipse 4786" cx="248.523" cy="228.583" rx="248.523" ry="228.583" transform="translate(2282.625 1168.126)" fill="#00defc"/>
      <ellipse id="Elipse_4787" data-name="Elipse 4787" cx="248.523" cy="228.583" rx="248.523" ry="228.583" transform="translate(2713.362 1168.126)" fill="#ffb30b" style="isolation: isolate"/>
      <g id="Grupo_113334" data-name="Grupo 113334" transform="translate(2664.879 1188.206)">
        <g id="Grupo_113333" data-name="Grupo 113333">
          <g id="Grupo_113332" data-name="Grupo 113332">
            <path id="Trazado_117743" data-name="Trazado 117743" d="M2645.271,1221.725h-40.292a4.333,4.333,0,0,1-4.329-4.329v-22.2a4.333,4.333,0,0,1,4.329-4.328h16.165l3.673-5.558a4.28,4.28,0,0,1,3.651-2.006h16.8a4.332,4.332,0,0,1,4.326,4.329V1217.4A4.331,4.331,0,0,1,2645.271,1221.725Zm-40.292-27.754a1.233,1.233,0,0,0-1.231,1.23v22.2a1.233,1.233,0,0,0,1.231,1.231h40.292a1.23,1.23,0,0,0,1.229-1.231v-29.757a1.23,1.23,0,0,0-1.229-1.231h-16.8a1.211,1.211,0,0,0-1.044.581l-3.854,5.831a2.468,2.468,0,0,1-2.094,1.152Zm16-2.848-.012.02Z" transform="translate(-2600.65 -1183.31)" fill="#00003e"/>
          </g>
        </g>
      </g>
      <g id="Grupo_113338" data-name="Grupo 113338" transform="translate(2537.004 1255.349)">
        <g id="Grupo_113337" data-name="Grupo 113337">
          <g id="Grupo_113336" data-name="Grupo 113336">
            <g id="Grupo_113335" data-name="Grupo 113335">
              <path id="Trazado_117744" data-name="Trazado 117744" d="M2605.8,1344.695h-82.966a24.093,24.093,0,0,1-9.471-46.242,52.135,52.135,0,0,1,95.354-34.542,38.8,38.8,0,0,1,43.353,26.365,27.537,27.537,0,0,1,9.669-1.722,28.149,28.149,0,0,1,20.77,9.186l-2.294,2.085a25.031,25.031,0,0,0-18.476-8.174,24.414,24.414,0,0,0-10.034,2.12l-1.651.742-.475-1.747a35.7,35.7,0,0,0-41.3-25.627l-1.046.207-.565-.9a49.019,49.019,0,0,0-90.081,32.788l.169,1.234-1.167.43a21,21,0,0,0,7.247,40.7H2605.8Z" transform="translate(-2498.757 -1240.435)" fill="#00003e"/>
            </g>
          </g>
        </g>
      </g>
      <g id="Grupo_113340" data-name="Grupo 113340" transform="translate(2730.788 1453.908)">
        <g id="Grupo_113339" data-name="Grupo 113339">
          <rect id="Rect치ngulo_293543" data-name="Rect치ngulo 293543" width="3.098" height="36.765" fill="#00003e"/>
        </g>
      </g>
      <g id="Grupo_113342" data-name="Grupo 113342" transform="translate(2743.659 1502.948)">
        <g id="Grupo_113341" data-name="Grupo 113341">
          <path id="Trazado_117745" data-name="Trazado 117745" d="M2777.148,1444H2761.66a1.549,1.549,0,1,1,0-3.1h15.488a1.549,1.549,0,0,1,0,3.1Zm-30.976,0h-15.488a1.549,1.549,0,1,1,0-3.1h15.488a1.549,1.549,0,0,1,0,3.1Zm-30.976,0h-15.488a1.549,1.549,0,1,1,0-3.1H2715.2a1.549,1.549,0,0,1,0,3.1Zm-30.976,0h-15.488a1.549,1.549,0,1,1,0-3.1h15.488a1.549,1.549,0,0,1,0,3.1Z" transform="translate(-2667.184 -1440.9)" fill="#00003e"/>
        </g>
      </g>
      <g id="Grupo_113344" data-name="Grupo 113344" transform="translate(2607.094 1501.421)">
        <g id="Grupo_113343" data-name="Grupo 113343">
          <path id="Trazado_117746" data-name="Trazado 117746" d="M2556.42,1474.494a1.547,1.547,0,0,1-1.548-1.548v-15.488a1.549,1.549,0,1,1,3.1,0v15.488A1.547,1.547,0,0,1,2556.42,1474.494Zm108.894-30.5h-15.488a1.549,1.549,0,1,1,0-3.1h15.488a1.549,1.549,0,0,1,0,3.1Zm-30.976,0H2618.85a1.549,1.549,0,1,1,0-3.1h15.488a1.549,1.549,0,0,1,0,3.1Zm-30.976,0h-15.488a1.549,1.549,0,1,1,0-3.1h15.488a1.549,1.549,0,0,1,0,3.1Zm-30.976,0H2556.9a1.549,1.549,0,0,1,0-3.1h15.489a1.549,1.549,0,0,1,0,3.1Z" transform="translate(-2554.872 -1440.9)" fill="#00003e"/>
        </g>
      </g>
      <g id="Grupo_113346" data-name="Grupo 113346" transform="translate(2712.406 1485.757)">
        <g id="Grupo_113345" data-name="Grupo 113345">
          <path id="Trazado_117747" data-name="Trazado 117747" d="M2659.234,1468.308a19.981,19.981,0,1,1,19.979-19.98A20,20,0,0,1,2659.234,1468.308Zm0-36.865a16.883,16.883,0,1,0,16.882,16.884A16.9,16.9,0,0,0,2659.234,1431.443Z" transform="translate(-2639.254 -1428.346)" fill="#00003e"/>
        </g>
      </g>
      <g id="Grupo_113349" data-name="Grupo 113349" transform="translate(2564.457 1273.539)">
        <g id="Grupo_113348" data-name="Grupo 113348">
          <g id="Grupo_113347" data-name="Grupo 113347">
            <path id="Trazado_117748" data-name="Trazado 117748" d="M2814.553,1449.871h-231.97a55.916,55.916,0,1,1,10.7-110.807,73.834,73.834,0,0,1,67.133-43.069c2.142,0,4.305.095,6.446.284a96.114,96.114,0,0,1,173.12,57.477c0,1.514-.04,3.047-.116,4.588a49.266,49.266,0,0,1-25.313,91.528Zm-231.97-108.735a52.819,52.819,0,1,0,0,105.638h231.97a46.17,46.17,0,0,0,22.941-86.233l-.829-.478.058-.957c.106-1.795.161-3.587.161-5.35a93.018,93.018,0,0,0-168.047-54.942l-.523.717-.88-.088c-2.324-.231-4.687-.35-7.019-.35a70.74,70.74,0,0,0-64.81,42.36l-.508,1.163-1.241-.272A52.945,52.945,0,0,0,2582.583,1341.136Z" transform="translate(-2526.666 -1257.68)" fill="#00003e"/>
          </g>
        </g>
      </g>
      <g id="Grupo_113352" data-name="Grupo 113352" transform="translate(2696.654 1343.909)">
        <g id="Grupo_113351" data-name="Grupo 113351">
          <g id="Grupo_113350" data-name="Grupo 113350">
            <path id="Trazado_117749" data-name="Trazado 117749" d="M2672.9,1396.414h-19.672a4.071,4.071,0,0,1-4.068-4.068v-33.929h-17.812a4.066,4.066,0,0,1-3.086-6.714l31.708-37.1a4.194,4.194,0,0,1,6.183,0l31.71,37.1a4.064,4.064,0,0,1-3.091,6.71h-17.808v33.929A4.071,4.071,0,0,1,2672.9,1396.414Zm-9.836-80.138a.969.969,0,0,0-.739.341l-31.711,37.1a.969.969,0,0,0,.735,1.6h19.36a1.549,1.549,0,0,1,1.55,1.549v35.478a.972.972,0,0,0,.97.97H2672.9a.972.972,0,0,0,.969-.97v-35.478a1.547,1.547,0,0,1,1.548-1.549h19.357a.968.968,0,0,0,.738-1.6l-31.713-37.1A.959.959,0,0,0,2663.063,1316.276Z" transform="translate(-2627.283 -1313.247)" fill="#00003e"/>
          </g>
        </g>
      </g>
      <g id="Grupo_113354" data-name="Grupo 113354" transform="translate(2805.412 1524.688)">
        <g id="Grupo_113353" data-name="Grupo 113353">
          <path id="Trazado_117750" data-name="Trazado 117750" d="M2795.723,1461.711h-15.488a1.549,1.549,0,1,1,0-3.1h15.488a1.549,1.549,0,0,1,0,3.1Zm-30.976,0H2749.26a1.549,1.549,0,1,1,0-3.1h15.488a1.549,1.549,0,0,1,0,3.1Zm-30.977,0h-15.488a1.549,1.549,0,0,1,0-3.1h15.488a1.549,1.549,0,1,1,0,3.1Z" transform="translate(-2716.735 -1458.613)" fill="#00003e"/>
        </g>
      </g>
      <g id="Grupo_113356" data-name="Grupo 113356" transform="translate(2530.314 1475.986)">
        <g id="Grupo_113355" data-name="Grupo 113355">
          <path id="Trazado_117751" data-name="Trazado 117751" d="M2570.136,1422.03h-15.488a1.549,1.549,0,1,1,0-3.1h15.488a1.549,1.549,0,1,1,0,3.1Zm-30.976,0h-15.488a1.549,1.549,0,1,1,0-3.1h15.488a1.549,1.549,0,0,1,0,3.1Zm-30.976,0H2492.7a1.549,1.549,0,1,1,0-3.1h15.488a1.549,1.549,0,0,1,0,3.1Z" transform="translate(-2491.147 -1418.932)" fill="#00003e"/>
        </g>
      </g>
      <g id="Grupo_113359" data-name="Grupo 113359" transform="translate(2873.404 1245.93)">
        <g id="Grupo_113358" data-name="Grupo 113358">
          <g id="Grupo_113357" data-name="Grupo 113357">
            <path id="Trazado_117752" data-name="Trazado 117752" d="M2854.5,1287.791h-64.623a16.695,16.695,0,1,1,2.336-33.227,21.717,21.717,0,0,1,20.621-11.837A27.894,27.894,0,0,1,2862.7,1259.9c0,.224,0,.451-.009.678a14.84,14.84,0,0,1-8.192,27.215Zm-64.623-30.292a13.6,13.6,0,0,0,0,27.195H2854.5a11.745,11.745,0,0,0,5.832-21.939,1.543,1.543,0,0,1-.771-1.433c.028-.476.042-.954.042-1.424a24.8,24.8,0,0,0-44.8-14.644,1.528,1.528,0,0,1-1.4.625,18.706,18.706,0,0,0-18.876,11.04,1.53,1.53,0,0,1-1.751.891A13.561,13.561,0,0,0,2789.881,1257.5Z" transform="translate(-2773.187 -1232.015)" fill="#00003e"/>
          </g>
        </g>
      </g>
      <g id="Grupo_113361" data-name="Grupo 113361" transform="translate(2885.483 1309.535)">
        <g id="Grupo_113360" data-name="Grupo 113360">
          <path id="Trazado_117753" data-name="Trazado 117753" d="M2874.079,1286.41H2784.5a1.549,1.549,0,1,1,0-3.1h89.583a1.549,1.549,0,1,1,0,3.1Z" transform="translate(-2782.946 -1283.312)" fill="#00003e"/>
        </g>
      </g>
      <g id="Grupo_113368" data-name="Grupo 113368" transform="translate(2904 1430.27)">
        <g id="Grupo_113363" data-name="Grupo 113363" transform="translate(31.212 26.563)">
          <g id="Grupo_113362" data-name="Grupo 113362">
            <path id="Trazado_117754" data-name="Trazado 117754" d="M2835.328,1415.844a1.546,1.546,0,0,1-.885-.278l-13.978-9.757a1.549,1.549,0,1,1,1.772-2.541l13.978,9.757a1.549,1.549,0,0,1-.887,2.819Z" transform="translate(-2819.801 -1402.991)" fill="#00003e"/>
          </g>
        </g>
        <g id="Grupo_113365" data-name="Grupo 113365" transform="translate(22.595)">
          <g id="Grupo_113364" data-name="Grupo 113364">
            <path id="Trazado_117755" data-name="Trazado 117755" d="M2814.82,1400.986a1.547,1.547,0,0,1-1.548-1.548v-15.026a1.549,1.549,0,0,1,3.1,0v15.026A1.547,1.547,0,0,1,2814.82,1400.986Z" transform="translate(-2813.272 -1382.864)" fill="#00003e"/>
          </g>
        </g>
        <g id="Grupo_113367" data-name="Grupo 113367" transform="translate(0 26.563)">
          <g id="Grupo_113366" data-name="Grupo 113366">
            <path id="Trazado_117756" data-name="Trazado 117756" d="M2797.7,1415.844a1.549,1.549,0,0,1-.885-2.819l13.978-9.757a1.549,1.549,0,0,1,1.772,2.541l-13.978,9.757A1.548,1.548,0,0,1,2797.7,1415.844Z" transform="translate(-2796.152 -1402.991)" fill="#00003e"/>
          </g>
        </g>
      </g>
      <g id="Grupo_113370" data-name="Grupo 113370" transform="translate(2920.167 1485.492)">
        <g id="Grupo_113369" data-name="Grupo 113369">
          <path id="Trazado_117757" data-name="Trazado 117757" d="M2816.491,1444.091a8.448,8.448,0,1,1,8.449-8.449A8.457,8.457,0,0,1,2816.491,1444.091Zm0-13.8a5.35,5.35,0,1,0,5.352,5.349A5.354,5.354,0,0,0,2816.491,1430.293Z" transform="translate(-2808.046 -1427.195)" fill="#00defc"/>
        </g>
      </g>
      <g id="Grupo_113372" data-name="Grupo 113372" transform="translate(2851.617 1549.628)">
        <g id="Grupo_113371" data-name="Grupo 113371">
          <path id="Trazado_117758" data-name="Trazado 117758" d="M2767.766,1510.387a7.688,7.688,0,0,1-5.475-2.269l-7.393-7.391a7.756,7.756,0,0,1,0-10.953l7.393-7.391a7.93,7.93,0,0,1,10.95,0l7.392,7.391a7.762,7.762,0,0,1,0,10.953l-7.392,7.391A7.7,7.7,0,0,1,2767.766,1510.387Zm0-27.175a4.6,4.6,0,0,0-3.285,1.361l-7.394,7.392a4.653,4.653,0,0,0,0,6.571l7.394,7.392a4.757,4.757,0,0,0,6.57,0l7.394-7.392a4.658,4.658,0,0,0,0-6.571l-7.394-7.392A4.62,4.62,0,0,0,2767.766,1483.212Z" transform="translate(-2752.634 -1480.19)" fill="#00defc"/>
        </g>
      </g>
      <g id="Grupo_113374" data-name="Grupo 113374" transform="translate(2888.206 1549.558)">
        <g id="Grupo_113373" data-name="Grupo 113373">
          <path id="Trazado_117759" data-name="Trazado 117759" d="M2797.634,1510.4a7.721,7.721,0,0,1-5.474-2.266l-7.39-7.391a7.755,7.755,0,0,1,0-10.953l7.39-7.391a7.752,7.752,0,0,1,10.953,0l7.39,7.391a7.754,7.754,0,0,1,0,10.953l-7.39,7.391A7.721,7.721,0,0,1,2797.634,1510.4Zm0-27.171a4.643,4.643,0,0,0-3.289,1.359l-7.39,7.392a4.652,4.652,0,0,0,0,6.571l7.39,7.392a4.655,4.655,0,0,0,6.574,0l7.39-7.392a4.652,4.652,0,0,0,0-6.571l-7.39-7.392A4.64,4.64,0,0,0,2797.638,1483.231Z" transform="translate(-2782.505 -1480.136)" fill="#00defc"/>
        </g>
      </g>
      <g id="Grupo_113376" data-name="Grupo 113376" transform="translate(2492.451 1459.167)">
        <g id="Grupo_113375" data-name="Grupo 113375">
          <path id="Trazado_117760" data-name="Trazado 117760" d="M2549.332,1408.326h-87.537a1.549,1.549,0,0,1,0-3.1h87.537a1.549,1.549,0,1,1,0,3.1Z" transform="translate(-2460.247 -1405.228)" fill="#00003e"/>
        </g>
      </g>
      <g id="Grupo_113378" data-name="Grupo 113378" transform="translate(2596.796 1216.624)">
        <g id="Grupo_113377" data-name="Grupo 113377">
          <path id="Trazado_117761" data-name="Trazado 117761" d="M2552.782,1221.738a8.448,8.448,0,1,1,8.445-8.447A8.457,8.457,0,0,1,2552.782,1221.738Zm0-13.8a5.35,5.35,0,1,0,5.348,5.352A5.359,5.359,0,0,0,2552.782,1207.939Z" transform="translate(-2544.333 -1204.842)" fill="#00defc"/>
        </g>
      </g>
      <g id="Grupo_113380" data-name="Grupo 113380" transform="translate(2541.575 1417.053)">
        <g id="Grupo_113379" data-name="Grupo 113379">
          <circle id="Elipse_4788" data-name="Elipse 4788" cx="5.03" cy="5.03" r="5.03" fill="#00003e"/>
        </g>
      </g>
      <g id="Grupo_113382" data-name="Grupo 113382" transform="translate(3001.32 1439.697)">
        <g id="Grupo_113381" data-name="Grupo 113381" transform="translate(0)">
          <circle id="Elipse_4789" data-name="Elipse 4789" cx="5.03" cy="5.03" r="5.03" transform="matrix(0.925, -0.379, 0.379, 0.925, 0, 3.814)" fill="#00003e"/>
        </g>
      </g>
      <g id="Grupo_113384" data-name="Grupo 113384" transform="translate(2798.519 1260.253)">
        <g id="Grupo_113383" data-name="Grupo 113383">
          <circle id="Elipse_4790" data-name="Elipse 4790" cx="5.03" cy="5.03" r="5.03" fill="#00003e"/>
        </g>
      </g>
      <g id="Grupo_113386" data-name="Grupo 113386" transform="translate(2757.595 1561.52)">
        <g id="Grupo_113385" data-name="Grupo 113385" transform="translate(0)">
          <circle id="Elipse_4791" data-name="Elipse 4791" cx="5.03" cy="5.03" r="5.03" transform="translate(0 9.303) rotate(-67.637)" fill="#00003e"/>
        </g>
      </g>
      <g id="Grupo_113388" data-name="Grupo 113388" transform="translate(2870.604 1238.869)">
        <g id="Grupo_113387" data-name="Grupo 113387">
          <circle id="Elipse_4792" data-name="Elipse 4792" cx="5.03" cy="5.03" r="5.03" fill="#00003e"/>
        </g>
      </g>
      <g id="Grupo_113390" data-name="Grupo 113390" transform="translate(2655.826 1253.922)">
        <g id="Grupo_113389" data-name="Grupo 113389">
          <circle id="Elipse_4793" data-name="Elipse 4793" cx="5.03" cy="5.03" r="5.03" fill="#00003e"/>
        </g>
      </g>
      <g id="Grupo_113397" data-name="Grupo 113397" transform="translate(2787.586 1182.518)">
        <g id="Grupo_113392" data-name="Grupo 113392" transform="translate(21.444 18.25)">
          <g id="Grupo_113391" data-name="Grupo 113391">
            <path id="Trazado_117762" data-name="Trazado 117762" d="M2727.889,1202.629a1.546,1.546,0,0,1-.887-.279l-9.6-6.7a1.55,1.55,0,0,1,1.773-2.542l9.6,6.7a1.549,1.549,0,0,1-.885,2.819Z" transform="translate(-2716.735 -1192.828)" fill="#00003e"/>
          </g>
        </g>
        <g id="Grupo_113394" data-name="Grupo 113394" transform="translate(15.525)">
          <g id="Grupo_113393" data-name="Grupo 113393">
            <path id="Trazado_117763" data-name="Trazado 117763" d="M2713.8,1192.42a1.546,1.546,0,0,1-1.548-1.548v-10.322a1.549,1.549,0,1,1,3.1,0v10.322A1.547,1.547,0,0,1,2713.8,1192.42Z" transform="translate(-2712.25 -1179)" fill="#00003e"/>
          </g>
        </g>
        <g id="Grupo_113396" data-name="Grupo 113396" transform="translate(0 18.25)">
          <g id="Grupo_113395" data-name="Grupo 113395">
            <path id="Trazado_117764" data-name="Trazado 117764" d="M2702.037,1202.629a1.549,1.549,0,0,1-.887-2.819l9.6-6.7a1.549,1.549,0,0,1,1.772,2.542l-9.6,6.7A1.545,1.545,0,0,1,2702.037,1202.629Z" transform="translate(-2700.487 -1192.828)" fill="#00003e"/>
          </g>
        </g>
      </g>
      <g id="Grupo_113399" data-name="Grupo 113399" transform="translate(2889.542 1388.107)">
        <g id="Grupo_113398" data-name="Grupo 113398">
          <path id="Trazado_117765" data-name="Trazado 117765" d="M2872.266,1438.745a1.547,1.547,0,0,1-1.548-1.548V1421.71a1.549,1.549,0,1,1,3.1,0V1437.2A1.548,1.548,0,0,1,2872.266,1438.745Zm0-30.976a1.547,1.547,0,0,1-1.548-1.55v-15.488a1.549,1.549,0,0,1,3.1,0v15.488A1.549,1.549,0,0,1,2872.266,1407.77Zm0-30.976a1.547,1.547,0,0,1-1.548-1.549v-15.488a1.549,1.549,0,0,1,3.1,0v15.488A1.548,1.548,0,0,1,2872.266,1376.794Zm-7.226-23.75h-15.488a1.549,1.549,0,1,1,0-3.1h15.488a1.549,1.549,0,0,1,0,3.1Zm-30.977,0h-15.488a1.549,1.549,0,0,1,0-3.1h15.488a1.549,1.549,0,1,1,0,3.1Zm-30.976,0H2787.6a1.549,1.549,0,0,1,0-3.1h15.488a1.549,1.549,0,1,1,0,3.1Z" transform="translate(-2786.052 -1349.947)" fill="#00003e"/>
        </g>
      </g>
      <g id="Grupo_113401" data-name="Grupo 113401" transform="translate(2720.431 1203.712)">
        <g id="Grupo_113400" data-name="Grupo 113400">
          <path id="Trazado_117766" data-name="Trazado 117766" d="M2691.3,1262.831a1.548,1.548,0,0,1-1.549-1.55v-15.488a1.549,1.549,0,0,1,3.1,0v15.488A1.547,1.547,0,0,1,2691.3,1262.831Zm0-30.976a1.548,1.548,0,0,1-1.549-1.549v-15.488a1.549,1.549,0,0,1,3.1,0v15.488A1.547,1.547,0,0,1,2691.3,1231.855Zm0-30.975a1.548,1.548,0,0,1-1.549-1.55v-1.173h-11.216a1.549,1.549,0,1,1,0-3.1H2691.3a1.547,1.547,0,0,1,1.548,1.548v2.723A1.547,1.547,0,0,1,2691.3,1200.879Zm-28.253-2.723h-15.488a1.549,1.549,0,1,1,0-3.1h15.488a1.549,1.549,0,0,1,0,3.1Z" transform="translate(-2646.013 -1195.059)" fill="#00003e"/>
        </g>
      </g>
      <g id="Grupo_113436" data-name="Grupo 113436" transform="translate(2546.173 1538.167)">
        <g id="Grupo_113403" data-name="Grupo 113403" transform="translate(21.803)">
          <g id="Grupo_113402" data-name="Grupo 113402">
            <path id="Trazado_117767" data-name="Trazado 117767" d="M2590.4,1606.8h-61.227a7.731,7.731,0,0,1-7.723-7.724V1484.559a7.73,7.73,0,0,1,7.723-7.722H2590.4a7.73,7.73,0,0,1,7.723,7.722v114.513A7.731,7.731,0,0,1,2590.4,1606.8Zm-61.227-126.761a4.53,4.53,0,0,0-4.524,4.524v114.513a4.53,4.53,0,0,0,4.524,4.526H2590.4a4.53,4.53,0,0,0,4.525-4.526V1484.559a4.53,4.53,0,0,0-4.525-4.524Z" transform="translate(-2521.452 -1476.837)" fill="#00003e"/>
          </g>
        </g>
        <g id="Grupo_113405" data-name="Grupo 113405" transform="translate(69.346 104.963)">
          <g id="Grupo_113404" data-name="Grupo 113404">
            <path id="Trazado_117768" data-name="Trazado 117768" d="M2563.4,1568.225a5.929,5.929,0,1,1,5.93-5.931A5.936,5.936,0,0,1,2563.4,1568.225Zm0-8.661a2.731,2.731,0,1,0,2.731,2.729A2.732,2.732,0,0,0,2563.4,1559.565Z" transform="translate(-2557.475 -1556.367)" fill="#00003e"/>
          </g>
        </g>
        <g id="Grupo_113412" data-name="Grupo 113412" transform="translate(46.813 17.647)">
          <g id="Grupo_113407" data-name="Grupo 113407">
            <g id="Grupo_113406" data-name="Grupo 113406">
              <path id="Trazado_117769" data-name="Trazado 117769" d="M2545.229,1492.621a2.413,2.413,0,1,1-2.413-2.413A2.413,2.413,0,0,1,2545.229,1492.621Z" transform="translate(-2540.402 -1490.208)" fill="#00003e"/>
            </g>
          </g>
          <g id="Grupo_113409" data-name="Grupo 113409" transform="translate(10.199)">
            <g id="Grupo_113408" data-name="Grupo 113408">
              <path id="Trazado_117770" data-name="Trazado 117770" d="M2552.955,1492.621a2.413,2.413,0,1,1-2.412-2.413A2.412,2.412,0,0,1,2552.955,1492.621Z" transform="translate(-2548.13 -1490.208)" fill="#00003e"/>
            </g>
          </g>
          <g id="Grupo_113411" data-name="Grupo 113411" transform="translate(20.397)">
            <g id="Grupo_113410" data-name="Grupo 113410">
              <path id="Trazado_117771" data-name="Trazado 117771" d="M2560.683,1492.621a2.413,2.413,0,1,1-2.412-2.413A2.413,2.413,0,0,1,2560.683,1492.621Z" transform="translate(-2555.857 -1490.208)" fill="#00003e"/>
            </g>
          </g>
        </g>
        <g id="Grupo_113425" data-name="Grupo 113425" transform="translate(42.351 31.589)">
          <g id="Grupo_113414" data-name="Grupo 113414">
            <g id="Grupo_113413" data-name="Grupo 113413">
              <path id="Trazado_117772" data-name="Trazado 117772" d="M2571,1503.97h-32.38a1.6,1.6,0,0,1,0-3.2H2571a1.6,1.6,0,0,1,0,3.2Z" transform="translate(-2537.021 -1500.772)" fill="#00003e"/>
            </g>
          </g>
          <g id="Grupo_113416" data-name="Grupo 113416" transform="translate(0 12.506)">
            <g id="Grupo_113415" data-name="Grupo 113415">
              <path id="Trazado_117773" data-name="Trazado 117773" d="M2571,1513.446h-32.38a1.6,1.6,0,0,1,0-3.2H2571a1.6,1.6,0,0,1,0,3.2Z" transform="translate(-2537.021 -1510.248)" fill="#00003e"/>
            </g>
          </g>
          <g id="Grupo_113418" data-name="Grupo 113418" transform="translate(0 25.017)">
            <g id="Grupo_113417" data-name="Grupo 113417">
              <path id="Trazado_117774" data-name="Trazado 117774" d="M2571,1522.925h-32.38a1.6,1.6,0,0,1,0-3.2H2571a1.6,1.6,0,0,1,0,3.2Z" transform="translate(-2537.021 -1519.727)" fill="#00003e"/>
            </g>
          </g>
          <g id="Grupo_113420" data-name="Grupo 113420" transform="translate(0 37.523)">
            <g id="Grupo_113419" data-name="Grupo 113419">
              <path id="Trazado_117775" data-name="Trazado 117775" d="M2571,1532.4h-32.38a1.6,1.6,0,0,1,0-3.2H2571a1.6,1.6,0,0,1,0,3.2Z" transform="translate(-2537.021 -1529.203)" fill="#00003e"/>
            </g>
          </g>
          <g id="Grupo_113422" data-name="Grupo 113422" transform="translate(0 50.032)">
            <g id="Grupo_113421" data-name="Grupo 113421">
              <path id="Trazado_117776" data-name="Trazado 117776" d="M2571,1541.879h-32.38a1.6,1.6,0,0,1,0-3.2H2571a1.6,1.6,0,0,1,0,3.2Z" transform="translate(-2537.021 -1538.681)" fill="#00003e"/>
            </g>
          </g>
          <g id="Grupo_113424" data-name="Grupo 113424" transform="translate(0 62.538)">
            <g id="Grupo_113423" data-name="Grupo 113423">
              <path id="Trazado_117777" data-name="Trazado 117777" d="M2571,1551.355h-32.38a1.6,1.6,0,0,1,0-3.2H2571a1.6,1.6,0,0,1,0,3.2Z" transform="translate(-2537.021 -1548.157)" fill="#00003e"/>
            </g>
          </g>
        </g>
        <g id="Grupo_113430" data-name="Grupo 113430" transform="translate(0 16.55)">
          <g id="Grupo_113427" data-name="Grupo 113427">
            <g id="Grupo_113426" data-name="Grupo 113426">
              <path id="Trazado_117778" data-name="Trazado 117778" d="M2526.429,1590.538h-15.816a5.687,5.687,0,0,1-5.681-5.68v-89.8a5.688,5.688,0,0,1,5.681-5.681h16.582a1.6,1.6,0,0,1,0,3.2h-16.582a2.487,2.487,0,0,0-2.483,2.483v89.8a2.487,2.487,0,0,0,2.483,2.482h15.816a1.6,1.6,0,0,1,0,3.2Z" transform="translate(-2504.932 -1489.377)" fill="#00003e"/>
            </g>
          </g>
          <g id="Grupo_113429" data-name="Grupo 113429" transform="translate(8.762 15.139)">
            <g id="Grupo_113428" data-name="Grupo 113428">
              <path id="Trazado_117779" data-name="Trazado 117779" d="M2516.4,1503.261a2.413,2.413,0,1,1-2.414-2.413A2.413,2.413,0,0,1,2516.4,1503.261Z" transform="translate(-2511.571 -1500.848)" fill="#00003e"/>
            </g>
          </g>
        </g>
        <g id="Grupo_113435" data-name="Grupo 113435" transform="translate(96.417 16.55)">
          <g id="Grupo_113432" data-name="Grupo 113432">
            <g id="Grupo_113431" data-name="Grupo 113431">
              <path id="Trazado_117780" data-name="Trazado 117780" d="M2596.17,1590.538h-15.819a1.6,1.6,0,1,1,0-3.2h15.819a2.487,2.487,0,0,0,2.483-2.482v-89.8a2.487,2.487,0,0,0-2.483-2.483h-16.584a1.6,1.6,0,1,1,0-3.2h16.584a5.688,5.688,0,0,1,5.681,5.681v89.8A5.687,5.687,0,0,1,2596.17,1590.538Z" transform="translate(-2577.986 -1489.377)" fill="#00003e"/>
            </g>
          </g>
          <g id="Grupo_113434" data-name="Grupo 113434" transform="translate(10.274 15.139)">
            <g id="Grupo_113433" data-name="Grupo 113433">
              <path id="Trazado_117781" data-name="Trazado 117781" d="M2585.771,1503.261a2.413,2.413,0,1,0,2.413-2.413A2.412,2.412,0,0,0,2585.771,1503.261Z" transform="translate(-2585.771 -1500.848)" fill="#00003e"/>
            </g>
          </g>
        </g>
      </g>
      <g id="Grupo_113445" data-name="Grupo 113445" transform="translate(2916.902 1553.25)">
        <g id="Grupo_113438" data-name="Grupo 113438" transform="translate(0 9.543)">
          <g id="Grupo_113437" data-name="Grupo 113437">
            <path id="Trazado_117782" data-name="Trazado 117782" d="M2918.577,1516.591H2815.5a5.687,5.687,0,0,1-5.68-5.678v-14.585a5.871,5.871,0,0,1,.1-1.028,5.676,5.676,0,0,1,5.58-4.652h103.072a5.717,5.717,0,0,1,5.576,4.65l0,0a5.848,5.848,0,0,1,.1,1.028v14.585A5.687,5.687,0,0,1,2918.577,1516.591ZM2815.5,1493.844a2.477,2.477,0,0,0-2.432,2.034,2.354,2.354,0,0,0-.05.45v14.585a2.484,2.484,0,0,0,2.482,2.48h103.072a2.484,2.484,0,0,0,2.482-2.48v-14.585a2.431,2.431,0,0,0-.05-.454,2.526,2.526,0,0,0-2.432-2.03Zm92.039,14.493a5.736,5.736,0,1,1,5.737-5.736A5.742,5.742,0,0,1,2907.543,1508.337Zm0-8.275a2.539,2.539,0,1,0,2.539,2.539A2.543,2.543,0,0,0,2907.543,1500.062Z" transform="translate(-2809.824 -1490.648)" fill="#00003e"/>
          </g>
        </g>
        <g id="Grupo_113440" data-name="Grupo 113440" transform="translate(0.009 0)">
          <g id="Grupo_113439" data-name="Grupo 113439">
            <path id="Trazado_117783" data-name="Trazado 117783" d="M2811.5,1499.5a1.675,1.675,0,0,1-1.334-.661,1.616,1.616,0,0,1-.259-1.44l4.262-12.881a1.6,1.6,0,1,1,3.036,1.006l-4.153,12.547A1.559,1.559,0,0,1,2811.5,1499.5Z" transform="translate(-2809.831 -1483.417)" fill="#00003e"/>
          </g>
        </g>
        <g id="Grupo_113442" data-name="Grupo 113442" transform="translate(107.577)">
          <g id="Grupo_113441" data-name="Grupo 113441">
            <path id="Trazado_117784" data-name="Trazado 117784" d="M2896.591,1499.5a1.6,1.6,0,0,1-1.539-1.162l-3.657-12.881a1.6,1.6,0,0,1,3.079-.875l3.657,12.881a1.6,1.6,0,0,1-1.54,2.037Z" transform="translate(-2891.334 -1483.417)" fill="#00003e"/>
          </g>
        </g>
        <g id="Grupo_113444" data-name="Grupo 113444" transform="translate(91.983 15.761)">
          <g id="Grupo_113443" data-name="Grupo 113443">
            <path id="Trazado_117785" data-name="Trazado 117785" d="M2885.255,1506.831a5.736,5.736,0,1,1,5.737-5.736A5.742,5.742,0,0,1,2885.255,1506.831Zm0-8.275a2.539,2.539,0,1,0,2.539,2.539A2.543,2.543,0,0,0,2885.255,1498.556Z" transform="translate(-2879.519 -1495.359)" fill="#00003e"/>
          </g>
        </g>
      </g>
      <g id="Grupo_113454" data-name="Grupo 113454" transform="translate(2916.902 1493.447)">
        <g id="Grupo_113447" data-name="Grupo 113447" transform="translate(0 39.812)">
          <g id="Grupo_113446" data-name="Grupo 113446">
            <path id="Trazado_117786" data-name="Trazado 117786" d="M2918.577,1491.946H2815.5a5.687,5.687,0,0,1-5.68-5.681v-14.586a5.865,5.865,0,0,1,.1-1.027,5.676,5.676,0,0,1,5.58-4.65h103.072a5.707,5.707,0,0,1,5.576,4.647l0,0a5.842,5.842,0,0,1,.1,1.027v14.586A5.687,5.687,0,0,1,2918.577,1491.946ZM2815.5,1469.2a2.473,2.473,0,0,0-2.432,2.03,2.351,2.351,0,0,0-.05.449v14.586a2.487,2.487,0,0,0,2.482,2.483h103.072a2.487,2.487,0,0,0,2.482-2.483v-14.586a2.429,2.429,0,0,0-.05-.453,2.517,2.517,0,0,0-2.432-2.026Zm92.039,14.489a5.737,5.737,0,1,1,5.737-5.736A5.743,5.743,0,0,1,2907.543,1483.69Zm0-8.275a2.539,2.539,0,1,0,2.539,2.539A2.543,2.543,0,0,0,2907.543,1475.415Z" transform="translate(-2809.824 -1466.003)" fill="#00003e"/>
          </g>
        </g>
        <g id="Grupo_113449" data-name="Grupo 113449" transform="translate(0.009)">
          <g id="Grupo_113448" data-name="Grupo 113448">
            <path id="Trazado_117787" data-name="Trazado 117787" d="M2922.655,1482.185a1.6,1.6,0,0,1-1.539-1.161l-11.4-40.184a2.491,2.491,0,0,0-2.389-1.8h-78.673a2.48,2.48,0,0,0-2.359,1.7l-13.247,40.021a1.558,1.558,0,0,1-1.551,1.427,1.673,1.673,0,0,1-1.334-.662,1.612,1.612,0,0,1-.259-1.438l13.357-40.353a5.668,5.668,0,0,1,5.393-3.893h78.673a5.706,5.706,0,0,1,5.465,4.128l11.4,40.183a1.6,1.6,0,0,1-1.54,2.036Z" transform="translate(-2809.831 -1435.838)" fill="#00003e"/>
          </g>
        </g>
        <g id="Grupo_113451" data-name="Grupo 113451" transform="translate(91.983 46.025)">
          <g id="Grupo_113450" data-name="Grupo 113450">
            <path id="Trazado_117788" data-name="Trazado 117788" d="M2885.255,1482.184a5.737,5.737,0,1,1,5.737-5.736A5.743,5.743,0,0,1,2885.255,1482.184Zm0-8.275a2.539,2.539,0,1,0,2.539,2.539A2.543,2.543,0,0,0,2885.255,1473.909Z" transform="translate(-2879.519 -1470.711)" fill="#00003e"/>
          </g>
        </g>
        <g id="Grupo_113453" data-name="Grupo 113453" transform="translate(37.573 13.034)">
          <g id="Grupo_113452" data-name="Grupo 113452">
            <path id="Trazado_117789" data-name="Trazado 117789" d="M2861.12,1463.819c-11.345,0-22.827-3.132-22.827-9.121,0-11.979,45.651-11.979,45.651,0C2883.944,1460.687,2872.461,1463.819,2861.12,1463.819Zm0-15.048c-11.982,0-19.629,3.511-19.629,5.927s7.647,5.925,19.629,5.925,19.625-3.511,19.625-5.925S2873.1,1448.771,2861.12,1448.771Z" transform="translate(-2838.293 -1445.714)" fill="#00003e"/>
          </g>
        </g>
      </g>
      <text id="DDL" transform="translate(2373.644 1406.256)" fill="#fff" font-size="74" font-family="Roboto-Bold, Roboto" font-weight="700"><tspan x="0" y="0">DDL</tspan></text>
      <text id="DML" transform="translate(2990.298 1406.256)" fill="#fff" font-size="74" font-family="Roboto-Bold, Roboto" font-weight="700"><tspan x="0" y="0">DML</tspan></text>
    </g>
  </g>
</svg>
