<svg xmlns="http://www.w3.org/2000/svg" width="85" height="85" viewBox="0 0 85 85">
  <g id="Grupo_113829" data-name="Grupo 113829" transform="translate(-180 -6181)">
    <g id="database_server" data-name="database server" transform="translate(180 6181)">
      <rect id="Rectángulo_293608" data-name="Rectángulo 293608" width="57" height="17" rx="2" transform="translate(1 24)" fill="#7eedfc"/>
      <path id="Trazado_118539" data-name="Trazado 118539" d="M45.5,21.833V33.167A2.842,2.842,0,0,1,42.667,36H37a2.842,2.842,0,0,0,2.833-2.833V21.833A2.842,2.842,0,0,0,37,19h5.667A2.842,2.842,0,0,1,45.5,21.833Z" transform="translate(12.583 5.083)" fill="#00defc"/>
      <path id="Trazado_118540" data-name="Trazado 118540" d="M33,31h8.5v5.667H33Z" transform="translate(10.917 10.083)" fill="#acabb1"/>
      <path id="Trazado_118541" data-name="Trazado 118541" d="M33,15h8.5v5.667H33Z" transform="translate(10.917 3.417)" fill="#d2e1f1"/>
      <path id="Trazado_118542" data-name="Trazado 118542" d="M36,15h4.25v5.667H36Z" transform="translate(12.167 3.417)" fill="#b0c0d2"/>
      <path id="Trazado_118543" data-name="Trazado 118543" d="M36,31h4.25v5.667H36Z" transform="translate(12.167 10.083)" fill="#898890"/>
      <rect id="Rectángulo_293609" data-name="Rectángulo 293609" width="57" height="17" rx="2" transform="translate(1 47)" fill="#7eedfc"/>
      <path id="Trazado_118544" data-name="Trazado 118544" d="M45.5,37.833V49.167A2.842,2.842,0,0,1,42.667,52H37a2.842,2.842,0,0,0,2.833-2.833V37.833A2.842,2.842,0,0,0,37,35h5.667A2.842,2.842,0,0,1,45.5,37.833Z" transform="translate(12.583 11.75)" fill="#2488ff"/>
      <path id="Trazado_118545" data-name="Trazado 118545" d="M15,39h5.667v5.667H15Z" transform="translate(3.417 13.417)" fill="#b9ddfc"/>
      <path id="Trazado_118546" data-name="Trazado 118546" d="M15,23h5.667v5.667H15Z" transform="translate(3.417 6.75)" fill="#b9ddfc"/>
      <rect id="Rectángulo_293610" data-name="Rectángulo 293610" width="57" height="17" rx="2" transform="translate(1 1)" fill="#7eedfc"/>
      <path id="Trazado_118547" data-name="Trazado 118547" d="M45.5,5.833V17.167A2.842,2.842,0,0,1,42.667,20H37a2.842,2.842,0,0,0,2.833-2.833V5.833A2.842,2.842,0,0,0,37,3h5.667A2.842,2.842,0,0,1,45.5,5.833Z" transform="translate(12.583 -1.583)" fill="#00defc"/>
      <path id="Trazado_118548" data-name="Trazado 118548" d="M15,7h5.667v5.667H15Z" transform="translate(3.417 0.083)" fill="#b9ddfc"/>
      <path id="Trazado_118549" data-name="Trazado 118549" d="M7,31h8.5v5.667H7Z" transform="translate(0.083 10.083)" fill="#d2e1f1"/>
      <path id="Trazado_118550" data-name="Trazado 118550" d="M7,15h8.5v5.667H7Z" transform="translate(0.083 3.417)" fill="#d2e1f1"/>
      <path id="Trazado_118551" data-name="Trazado 118551" d="M10,15h4.25v5.667H10Z" transform="translate(1.333 3.417)" fill="#b0c0d2"/>
      <path id="Trazado_118552" data-name="Trazado 118552" d="M10,31h4.25v5.667H10Z" transform="translate(1.333 10.083)" fill="#b0c0d2"/>
      <path id="Trazado_118553" data-name="Trazado 118553" d="M7,39h5.667v5.667H7Z" transform="translate(0.083 13.417)" fill="#ffb30b"/>
      <path id="Trazado_118554" data-name="Trazado 118554" d="M7,23h5.667v5.667H7Z" transform="translate(0.083 6.75)" fill="#ffb30b"/>
      <path id="Trazado_118555" data-name="Trazado 118555" d="M7,7h5.667v5.667H7Z" transform="translate(0.083 0.083)" fill="#ffb30b"/>
      <path id="Trazado_118556" data-name="Trazado 118556" d="M76,46V60.167c0,3.91-11.418,7.083-25.5,7.083S25,64.077,25,60.167V46c0,3.91,11.418,7.083,25.5,7.083S76,49.91,76,46Z" transform="translate(7.583 16.333)" fill="#ffd67a"/>
      <path id="Trazado_118557" data-name="Trazado 118557" d="M76,36V50.167c0,3.91-11.418,7.083-25.5,7.083S25,54.077,25,50.167V36c0,3.91,11.418,7.083,25.5,7.083S76,39.91,76,36Z" transform="translate(7.583 12.167)" fill="#ffd67a"/>
      <path id="Trazado_118558" data-name="Trazado 118558" d="M76,26V40.167c0,3.91-11.418,7.083-25.5,7.083S25,44.077,25,40.167V26c0,3.91,11.418,7.083,25.5,7.083S76,29.91,76,26Z" transform="translate(7.583 8)" fill="#ffd67a"/>
      <g id="Grupo_113812" data-name="Grupo 113812" transform="translate(32.583 26.917)">
        <ellipse id="Elipse_4797" data-name="Elipse 4797" cx="25.5" cy="7" rx="25.5" ry="7" transform="translate(0.417 0.083)" fill="#ffb30b"/>
        <path id="Trazado_118559" data-name="Trazado 118559" d="M69.333,46V60.167c0,3.91-11.418,7.083-25.5,7.083-.963,0-1.9-.014-2.833-.057,12.75-.382,22.667-3.386,22.667-7.027V50.448C67.208,49.23,69.333,47.686,69.333,46Z" transform="translate(-18.333 -10.583)" fill="#ffb30b"/>
        <path id="Trazado_118560" data-name="Trazado 118560" d="M69.333,36V50.167c0,1.686-2.125,3.23-5.667,4.448A65.322,65.322,0,0,1,43.833,57.25c-.963,0-1.9-.014-2.833-.057,12.75-.382,22.667-3.386,22.667-7.027V40.448C67.208,39.23,69.333,37.686,69.333,36Z" transform="translate(-18.333 -14.75)" fill="#ffb30b"/>
        <path id="Trazado_118561" data-name="Trazado 118561" d="M69.333,26V40.167c0,1.686-2.125,3.23-5.667,4.448A65.321,65.321,0,0,1,43.833,47.25c-.963,0-1.9-.014-2.833-.057,12.75-.383,22.667-3.386,22.667-7.027V30.448C67.208,29.23,69.333,27.686,69.333,26Z" transform="translate(-18.333 -18.917)" fill="#ffb30b"/>
      </g>
      <path id="Trazado_118562" data-name="Trazado 118562" d="M69.333,28.083c0,1.686-2.125,3.23-5.667,4.448a65.321,65.321,0,0,1-19.833,2.635c-.963,0-1.9-.014-2.833-.057,12.75-.382,22.667-3.386,22.667-7.027S53.75,21.439,41,21.057c.935-.043,1.87-.057,2.833-.057C57.915,21,69.333,24.173,69.333,28.083Z" transform="translate(14.25 5.917)" fill="#ffd67a"/>
      <path id="Trazado_118563" data-name="Trazado 118563" d="M63.667,46v4.448a65.322,65.322,0,0,1-19.833,2.635c-.963,0-1.9-.014-2.833-.057C53.75,52.644,63.667,49.641,63.667,46Z" transform="translate(14.25 16.333)" fill="#ffde55"/>
      <path id="Trazado_118564" data-name="Trazado 118564" d="M63.667,36v4.448a65.321,65.321,0,0,1-19.833,2.635c-.963,0-1.9-.014-2.833-.057C53.75,42.644,63.667,39.641,63.667,36Z" transform="translate(14.25 12.167)" fill="#ffde55"/>
      <path id="Trazado_118565" data-name="Trazado 118565" d="M61.245,27.514a4.23,4.23,0,0,0-3.995-2.848H55.833V21.833H57.25a4.263,4.263,0,0,0,4.25-4.25V6.25A4.263,4.263,0,0,0,57.25,2h-51A4.263,4.263,0,0,0,2,6.25V17.583a4.263,4.263,0,0,0,4.25,4.25H7.667v2.833H6.25A4.263,4.263,0,0,0,2,28.917V40.25A4.263,4.263,0,0,0,6.25,44.5H7.667v2.833H6.25A4.263,4.263,0,0,0,2,51.583V62.917a4.263,4.263,0,0,0,4.25,4.25H33.167V78.5c0,5.582,13.543,8.5,26.917,8.5S87,84.082,87,78.5V36C87,30.574,74.236,27.684,61.245,27.514ZM6.25,19a1.417,1.417,0,0,1-1.417-1.417V6.25A1.417,1.417,0,0,1,6.25,4.833h51A1.417,1.417,0,0,1,58.667,6.25V17.583A1.417,1.417,0,0,1,57.25,19ZM53,21.833v2.833H47.333V21.833Zm-8.5,0v2.833H19V21.833Zm-28.333,0v2.833H10.5V21.833Zm17,42.5H6.25a1.417,1.417,0,0,1-1.417-1.417V51.583A1.417,1.417,0,0,1,6.25,50.167H33.167Zm-22.667-17V44.5h5.667v2.833Zm22.667,0H19V44.5H33.167Zm0-11.333v5.667H6.25A1.417,1.417,0,0,1,4.833,40.25V28.917A1.417,1.417,0,0,1,6.25,27.5h51a.992.992,0,0,1,.2.043C44.982,27.9,33.167,30.787,33.167,36Zm51,42.5c0,1.927-8.5,5.667-24.083,5.667S36,80.427,36,78.5V68.328c4.661,2.961,14.393,4.5,24.083,4.5s19.422-1.544,24.083-4.5Zm0-14.167c0,1.927-8.5,5.667-24.083,5.667S36,66.26,36,64.333V54.162c4.661,2.961,14.393,4.505,24.083,4.505s19.422-1.544,24.083-4.505Zm0-14.167c0,1.927-8.5,5.667-24.083,5.667S36,52.093,36,50.167V39.995C40.661,42.956,50.393,44.5,60.083,44.5s19.422-1.544,24.083-4.505Zm-24.083-8.5C44.5,41.667,36,37.927,36,36s8.5-5.667,24.083-5.667S84.167,34.073,84.167,36,75.667,41.667,60.083,41.667Z" transform="translate(-2 -2)"/>
      <path id="Trazado_118566" data-name="Trazado 118566" d="M42,35h2.833v2.833H42Z" transform="translate(14.667 11.75)"/>
      <path id="Trazado_118567" data-name="Trazado 118567" d="M42,46h2.833v2.833H42Z" transform="translate(14.667 16.333)"/>
      <path id="Trazado_118568" data-name="Trazado 118568" d="M42,55h2.833v2.833H42Z" transform="translate(14.667 20.083)"/>
      <path id="Trazado_118569" data-name="Trazado 118569" d="M13.083,22H7.417A1.417,1.417,0,0,0,6,23.417v5.667A1.417,1.417,0,0,0,7.417,30.5h5.667A1.417,1.417,0,0,0,14.5,29.083V23.417A1.417,1.417,0,0,0,13.083,22Zm-1.417,5.667H8.833V24.833h2.833Z" transform="translate(-0.333 6.333)"/>
      <path id="Trazado_118570" data-name="Trazado 118570" d="M21.083,22H15.417A1.417,1.417,0,0,0,14,23.417v5.667A1.417,1.417,0,0,0,15.417,30.5h5.667A1.417,1.417,0,0,0,22.5,29.083V23.417A1.417,1.417,0,0,0,21.083,22Zm-1.417,5.667H16.833V24.833h2.833Z" transform="translate(3 6.333)"/>
      <path id="Trazado_118571" data-name="Trazado 118571" d="M13.083,6H7.417A1.417,1.417,0,0,0,6,7.417v5.667A1.417,1.417,0,0,0,7.417,14.5h5.667A1.417,1.417,0,0,0,14.5,13.083V7.417A1.417,1.417,0,0,0,13.083,6Zm-1.417,5.667H8.833V8.833h2.833Z" transform="translate(-0.333 -0.333)"/>
      <path id="Trazado_118572" data-name="Trazado 118572" d="M21.083,6H15.417A1.417,1.417,0,0,0,14,7.417v5.667A1.417,1.417,0,0,0,15.417,14.5h5.667A1.417,1.417,0,0,0,22.5,13.083V7.417A1.417,1.417,0,0,0,21.083,6Zm-1.417,5.667H16.833V8.833h2.833Z" transform="translate(3 -0.333)"/>
      <path id="Trazado_118573" data-name="Trazado 118573" d="M22,6H41.833V8.833H22Z" transform="translate(6.333 -0.333)"/>
      <path id="Trazado_118574" data-name="Trazado 118574" d="M38,6h2.833V8.833H38Z" transform="translate(13 -0.333)"/>
      <path id="Trazado_118575" data-name="Trazado 118575" d="M22,10H41.833v2.833H22Z" transform="translate(6.333 1.333)"/>
      <path id="Trazado_118576" data-name="Trazado 118576" d="M38,10h2.833v2.833H38Z" transform="translate(13 1.333)"/>
      <path id="Trazado_118577" data-name="Trazado 118577" d="M13.083,38H7.417A1.417,1.417,0,0,0,6,39.417v5.667A1.417,1.417,0,0,0,7.417,46.5h5.667A1.417,1.417,0,0,0,14.5,45.083V39.417A1.417,1.417,0,0,0,13.083,38Zm-1.417,5.667H8.833V40.833h2.833Z" transform="translate(-0.333 13)"/>
      <path id="Trazado_118578" data-name="Trazado 118578" d="M21.083,38H15.417A1.417,1.417,0,0,0,14,39.417v5.667A1.417,1.417,0,0,0,15.417,46.5h5.667A1.417,1.417,0,0,0,22.5,45.083V39.417A1.417,1.417,0,0,0,21.083,38Zm-1.417,5.667H16.833V40.833h2.833Z" transform="translate(3 13)"/>
    </g>
  </g>
</svg>
