<svg xmlns="http://www.w3.org/2000/svg" width="977.142" height="644" viewBox="0 0 977.142 644">
  <g id="sintesis" transform="translate(-311.334 -388)">
    <path id="Trazado_116030" data-name="Trazado 116030" d="M4579.447,1499.342h156.612c2.04,0,3.694,2.4,3.694,5.349v35.3c0,2.954-1.654,5.349-3.694,5.349H4579.447c-2.04,0-3.694-2.393-3.694-5.347v-35.3C4575.753,1501.737,4577.407,1499.342,4579.447,1499.342Z" transform="translate(-3875.98 -1111.342)" fill="#084a93"/>
    <g id="Bases_de_datos" data-name="Bases de datos" transform="translate(-3875.98 -1111.342)" style="isolation: isolate">
      <text id="Bases_de_datos-2" data-name="Bases de datos" transform="translate(4596.159 1528.342)" fill="#fff" font-size="18" font-family="Roboto-Bold, Roboto" font-weight="700" style="isolation: isolate"><tspan x="0" y="0">Bases de datos</tspan></text>
    </g>
    <path id="Trazado_116256" data-name="Trazado 116256" d="M4872.835,1654.342h83.96c1.668,0,3.02,2.239,3.02,5v33c0,2.761-1.352,5-3.02,5h-83.96c-1.668,0-3.02-2.239-3.02-5v-33C4869.815,1656.581,4871.167,1654.342,4872.835,1654.342Z" transform="translate(-3875.98 -1111.342)" fill="#9aeae2"/>
    <path id="Trazado_118628" data-name="Trazado 118628" d="M10.266,0H7.922L3.359-7.484V0H1.016V-11.375H3.359l4.57,7.5v-7.5h2.336Zm1.547-4.3A5.013,5.013,0,0,1,12.3-6.547,3.546,3.546,0,0,1,13.691-8.07,4.069,4.069,0,0,1,15.8-8.609,3.849,3.849,0,0,1,18.6-7.562,4.2,4.2,0,0,1,19.8-4.719l.016.578A4.418,4.418,0,0,1,18.734-1.02,3.775,3.775,0,0,1,15.82.156,3.793,3.793,0,0,1,12.9-1.016,4.5,4.5,0,0,1,11.813-4.2Zm2.258.16A3.16,3.16,0,0,0,14.523-2.3a1.5,1.5,0,0,0,1.3.638,1.5,1.5,0,0,0,1.281-.63,3.457,3.457,0,0,0,.461-2.015A3.128,3.128,0,0,0,17.1-6.14a1.5,1.5,0,0,0-1.3-.649,1.474,1.474,0,0,0-1.281.646A3.516,3.516,0,0,0,14.07-4.144Zm13.188,1.16A1.2,1.2,0,0,0,26.789-4a6.148,6.148,0,0,0-1.687-.75,11.963,11.963,0,0,1-1.93-.777,3.153,3.153,0,0,1-1.937-2.82A2.747,2.747,0,0,1,21.754-10a3.389,3.389,0,0,1,1.492-1.129,5.616,5.616,0,0,1,2.184-.406,5.112,5.112,0,0,1,2.172.441,3.458,3.458,0,0,1,1.48,1.246,3.261,3.261,0,0,1,.527,1.828H27.266a1.534,1.534,0,0,0-.492-1.215,2.023,2.023,0,0,0-1.383-.434,2.162,2.162,0,0,0-1.336.363,1.146,1.146,0,0,0-.477.957,1.1,1.1,0,0,0,.559.93,6.311,6.311,0,0,0,1.645.7A7.106,7.106,0,0,1,28.7-5.219,2.972,2.972,0,0,1,29.609-3,2.737,2.737,0,0,1,28.492-.684a4.891,4.891,0,0,1-3.008.84,5.808,5.808,0,0,1-2.391-.48,3.783,3.783,0,0,1-1.645-1.316,3.371,3.371,0,0,1-.566-1.937h2.352q0,1.883,2.25,1.883a2.189,2.189,0,0,0,1.3-.34A1.106,1.106,0,0,0,27.258-2.984ZM40.523-5.43a6.853,6.853,0,0,1-.516,2.77,4.754,4.754,0,0,1-1.43,1.887L40.469.711l-1.492,1.32L36.555.086a5.126,5.126,0,0,1-.859.07,4.732,4.732,0,0,1-2.523-.68,4.515,4.515,0,0,1-1.719-1.941,6.67,6.67,0,0,1-.617-2.9V-5.93a6.831,6.831,0,0,1,.605-2.957,4.508,4.508,0,0,1,1.711-1.961,4.706,4.706,0,0,1,2.527-.684,4.706,4.706,0,0,1,2.527.684,4.508,4.508,0,0,1,1.711,1.961,6.811,6.811,0,0,1,.605,2.949Zm-2.375-.516a4.787,4.787,0,0,0-.641-2.719,2.088,2.088,0,0,0-1.828-.93,2.088,2.088,0,0,0-1.82.918,4.732,4.732,0,0,0-.648,2.691v.555a4.847,4.847,0,0,0,.641,2.7,2.082,2.082,0,0,0,1.844.961,2.064,2.064,0,0,0,1.813-.926,4.819,4.819,0,0,0,.641-2.7Zm6.438,4.063h4.977V0h-7.32V-11.375h2.344Z" transform="translate(1013.655 570)" fill="#12263f"/>
    <g id="Rectángulo_40686" data-name="Rectángulo 40686" transform="translate(-3875.98 -1111.342)">
      <rect id="Rectángulo_293559" data-name="Rectángulo 293559" width="36" height="29" rx="5" transform="translate(4640.753 1596.342)" fill="none"/>
      <rect id="Rectángulo_293560" data-name="Rectángulo 293560" width="35" height="28" rx="4.5" transform="translate(4641.253 1596.842)" fill="none" stroke="#707070" stroke-width="1"/>
    </g>
    <g id="es" transform="translate(-3875.98 -1111.342)" style="isolation: isolate">
      <text id="es-2" data-name="es" transform="translate(4650.382 1616.342)" fill="#12263f" font-size="16" font-family="Roboto-Regular, Roboto" style="isolation: isolate"><tspan x="0" y="0">es</tspan></text>
    </g>
    <path id="Trazado_116256-2" data-name="Trazado 116256-2" d="M4374.393,1654.342h65.3c1.3,0,2.351,2.239,2.351,5v33c0,2.761-1.052,5-2.349,5h-65.3c-1.3,0-2.349-2.239-2.349-5v-33C4372.044,1656.581,4373.1,1654.342,4374.393,1654.342Z" transform="translate(-3875.98 -1111.342)" fill="#75e3d9"/>
    <g id="SQL" transform="translate(-3875.98 -1111.342)" style="isolation: isolate">
      <text id="SQL-2" data-name="SQL" transform="translate(4392.024 1681.342)" fill="#12263f" font-size="16" font-family="Roboto-Bold, Roboto" font-weight="700" style="isolation: isolate"><tspan x="0" y="0">SQL</tspan></text>
    </g>
    <path id="Rectángulo_40686-2" data-name="Rectángulo 40686-2" d="M5,0H180a5,5,0,0,1,5,5V56a5,5,0,0,1-5,5H5a5,5,0,0,1-5-5V5A5,5,0,0,1,5,0Z" transform="translate(438.563 664)" fill="#b9ddfc"/>
    <path id="Trazado_118629" data-name="Trazado 118629" d="M2.828-1.227H8.219V0H1.32V-11.375H2.828ZM13.211.156a3.693,3.693,0,0,1-2.8-1.129,4.19,4.19,0,0,1-1.078-3.02v-.266A5.073,5.073,0,0,1,9.816-6.5,3.748,3.748,0,0,1,11.16-8.051a3.378,3.378,0,0,1,1.871-.559,3.166,3.166,0,0,1,2.563,1.086,4.7,4.7,0,0,1,.914,3.109v.6H10.781a3,3,0,0,0,.73,2.02,2.3,2.3,0,0,0,1.777.77,2.517,2.517,0,0,0,1.3-.312,3.259,3.259,0,0,0,.93-.828l.883.688A3.55,3.55,0,0,1,13.211.156Zm-.18-7.578a1.928,1.928,0,0,0-1.469.637A3.1,3.1,0,0,0,10.828-5h4.234v-.109a2.753,2.753,0,0,0-.594-1.707A1.815,1.815,0,0,0,13.031-7.422Zm6.516-1.031.047,1.063a3.08,3.08,0,0,1,2.531-1.219q2.68,0,2.7,3.023V0H23.383V-5.594a1.946,1.946,0,0,0-.418-1.352,1.675,1.675,0,0,0-1.277-.437,2.086,2.086,0,0,0-1.234.375,2.546,2.546,0,0,0-.828.984V0H18.18V-8.453ZM26.664-4.3a4.968,4.968,0,0,1,.914-3.145A2.923,2.923,0,0,1,30-8.609a2.908,2.908,0,0,1,2.414,1.094l.07-.937H33.8V-.2a3.439,3.439,0,0,1-.973,2.586,3.589,3.589,0,0,1-2.613.945,4.348,4.348,0,0,1-1.789-.391,3.08,3.08,0,0,1-1.336-1.07L27.844,1a2.826,2.826,0,0,0,2.273,1.148,2.214,2.214,0,0,0,1.645-.594,2.269,2.269,0,0,0,.59-1.672V-.844a2.971,2.971,0,0,1-2.367,1,2.887,2.887,0,0,1-2.4-1.2A5.224,5.224,0,0,1,26.664-4.3Zm1.453.164A3.79,3.79,0,0,0,28.7-1.887a1.9,1.9,0,0,0,1.641.816,2.117,2.117,0,0,0,2.008-1.242V-6.172a2.142,2.142,0,0,0-1.992-1.211,1.921,1.921,0,0,0-1.648.82A4.128,4.128,0,0,0,28.117-4.133ZM41.2-.836a3.07,3.07,0,0,1-2.477.992,2.628,2.628,0,0,1-2.059-.785,3.4,3.4,0,0,1-.715-2.324v-5.5H37.4v5.461q0,1.922,1.563,1.922a2.163,2.163,0,0,0,2.2-1.234V-8.453h1.445V0H41.234ZM50.023,0a3.036,3.036,0,0,1-.2-.891A3.225,3.225,0,0,1,47.414.156a2.984,2.984,0,0,1-2.051-.707,2.287,2.287,0,0,1-.8-1.793,2.39,2.39,0,0,1,1-2.051,4.733,4.733,0,0,1,2.824-.73H49.8v-.664A1.623,1.623,0,0,0,49.344-7a1.821,1.821,0,0,0-1.336-.449,2.107,2.107,0,0,0-1.3.391,1.151,1.151,0,0,0-.523.945H44.734a2,2,0,0,1,.449-1.223A3.066,3.066,0,0,1,46.4-8.266a4.1,4.1,0,0,1,1.691-.344,3.342,3.342,0,0,1,2.289.73,2.635,2.635,0,0,1,.859,2.012v3.891a4.757,4.757,0,0,0,.3,1.852V0Zm-2.4-1.1a2.54,2.54,0,0,0,1.289-.352,2.127,2.127,0,0,0,.883-.914V-4.1H48.664q-2.656,0-2.656,1.555a1.316,1.316,0,0,0,.453,1.063A1.742,1.742,0,0,0,47.625-1.1ZM55-8.453V.977q0,2.437-2.211,2.438a2.7,2.7,0,0,1-.883-.14V2.125a2.794,2.794,0,0,0,.656.063.982.982,0,0,0,.738-.262,1.3,1.3,0,0,0,.254-.911V-8.453ZM53.406-10.7a.867.867,0,0,1,.215-.59.79.79,0,0,1,.629-.246.819.819,0,0,1,.641.242.854.854,0,0,1,.219.594.826.826,0,0,1-.219.586.834.834,0,0,1-.641.234.808.808,0,0,1-.633-.234A.843.843,0,0,1,53.406-10.7ZM60.836.156a3.693,3.693,0,0,1-2.8-1.129,4.19,4.19,0,0,1-1.078-3.02v-.266a5.073,5.073,0,0,1,.48-2.246,3.748,3.748,0,0,1,1.344-1.547,3.378,3.378,0,0,1,1.871-.559,3.166,3.166,0,0,1,2.563,1.086,4.7,4.7,0,0,1,.914,3.109v.6H58.406a3,3,0,0,0,.73,2.02,2.3,2.3,0,0,0,1.777.77,2.517,2.517,0,0,0,1.3-.312,3.259,3.259,0,0,0,.93-.828l.883.688A3.55,3.55,0,0,1,60.836.156Zm-.18-7.578a1.928,1.928,0,0,0-1.469.637A3.1,3.1,0,0,0,58.453-5h4.234v-.109a2.753,2.753,0,0,0-.594-1.707A1.815,1.815,0,0,0,60.656-7.422ZM69.414-4.3a4.952,4.952,0,0,1,.922-3.129A2.915,2.915,0,0,1,72.75-8.609,2.932,2.932,0,0,1,75.1-7.594V-12h1.445V0H75.219l-.07-.906A2.943,2.943,0,0,1,72.734.156a2.887,2.887,0,0,1-2.395-1.2,5.008,5.008,0,0,1-.926-3.141Zm1.445.164a3.749,3.749,0,0,0,.594,2.25,1.92,1.92,0,0,0,1.641.813A2.109,2.109,0,0,0,75.1-2.3V-6.187a2.125,2.125,0,0,0-1.992-1.2,1.929,1.929,0,0,0-1.656.82A4.128,4.128,0,0,0,70.859-4.133ZM82.3.156A3.693,3.693,0,0,1,79.5-.973a4.19,4.19,0,0,1-1.078-3.02v-.266A5.073,5.073,0,0,1,78.9-6.5a3.748,3.748,0,0,1,1.344-1.547,3.378,3.378,0,0,1,1.871-.559A3.166,3.166,0,0,1,84.68-7.523a4.7,4.7,0,0,1,.914,3.109v.6H79.867a3,3,0,0,0,.73,2.02,2.3,2.3,0,0,0,1.777.77,2.517,2.517,0,0,0,1.3-.312,3.259,3.259,0,0,0,.93-.828l.883.688A3.55,3.55,0,0,1,82.3.156Zm-.18-7.578a1.928,1.928,0,0,0-1.469.637A3.1,3.1,0,0,0,79.914-5h4.234v-.109a2.753,2.753,0,0,0-.594-1.707A1.815,1.815,0,0,0,82.117-7.422Zm12.5,6.4a2.082,2.082,0,0,0,1.352-.469,1.649,1.649,0,0,0,.641-1.172h1.367a2.621,2.621,0,0,1-.5,1.383,3.293,3.293,0,0,1-1.23,1.047,3.55,3.55,0,0,1-1.629.391A3.482,3.482,0,0,1,91.871-1a4.59,4.59,0,0,1-1.02-3.152v-.242a5.089,5.089,0,0,1,.453-2.2,3.451,3.451,0,0,1,1.3-1.492,3.7,3.7,0,0,1,2-.531,3.39,3.39,0,0,1,2.363.852,3.043,3.043,0,0,1,1,2.211H96.609a1.992,1.992,0,0,0-.621-1.348,1.932,1.932,0,0,0-1.379-.527,2.023,2.023,0,0,0-1.707.793A3.724,3.724,0,0,0,92.3-4.336v.273a3.65,3.65,0,0,0,.6,2.25A2.033,2.033,0,0,0,94.617-1.023Zm4.6-3.281a4.993,4.993,0,0,1,.488-2.234,3.643,3.643,0,0,1,1.359-1.531,3.7,3.7,0,0,1,1.988-.539,3.565,3.565,0,0,1,2.793,1.2,4.6,4.6,0,0,1,1.066,3.18v.1a5.036,5.036,0,0,1-.473,2.215A3.589,3.589,0,0,1,105.09-.391a3.743,3.743,0,0,1-2.02.547,3.556,3.556,0,0,1-2.785-1.2A4.575,4.575,0,0,1,99.219-4.2Zm1.453.172a3.616,3.616,0,0,0,.652,2.258,2.088,2.088,0,0,0,1.746.852,2.075,2.075,0,0,0,1.75-.863,3.955,3.955,0,0,0,.648-2.418,3.61,3.61,0,0,0-.66-2.254,2.1,2.1,0,0,0-1.754-.863,2.075,2.075,0,0,0-1.727.852A3.925,3.925,0,0,0,100.672-4.133Zm9.422-4.32.047,1.063a3.08,3.08,0,0,1,2.531-1.219q2.68,0,2.7,3.023V0H113.93V-5.594a1.946,1.946,0,0,0-.418-1.352,1.675,1.675,0,0,0-1.277-.437A2.086,2.086,0,0,0,111-7.008a2.546,2.546,0,0,0-.828.984V0h-1.445V-8.453Zm12.383,6.211a1.064,1.064,0,0,0-.441-.91,4.249,4.249,0,0,0-1.539-.559,7.277,7.277,0,0,1-1.742-.562,2.479,2.479,0,0,1-.953-.781,1.869,1.869,0,0,1-.309-1.078,2.193,2.193,0,0,1,.879-1.758,3.432,3.432,0,0,1,2.246-.719,3.532,3.532,0,0,1,2.332.742,2.357,2.357,0,0,1,.895,1.9h-1.453a1.3,1.3,0,0,0-.5-1.023,1.888,1.888,0,0,0-1.27-.43,1.976,1.976,0,0,0-1.234.344,1.082,1.082,0,0,0-.445.9.877.877,0,0,0,.414.789,5.1,5.1,0,0,0,1.5.508A7.8,7.8,0,0,1,122.6-4.3a2.558,2.558,0,0,1,1,.809,1.988,1.988,0,0,1,.324,1.152,2.163,2.163,0,0,1-.906,1.816,3.8,3.8,0,0,1-2.352.684,4.257,4.257,0,0,1-1.8-.359,2.922,2.922,0,0,1-1.223-1A2.42,2.42,0,0,1,117.2-2.6h1.445a1.5,1.5,0,0,0,.582,1.152,2.258,2.258,0,0,0,1.434.426,2.331,2.331,0,0,0,1.316-.332A1.02,1.02,0,0,0,122.477-2.242Zm8.547,1.406a3.07,3.07,0,0,1-2.477.992,2.628,2.628,0,0,1-2.059-.785,3.4,3.4,0,0,1-.715-2.324v-5.5h1.445v5.461q0,1.922,1.563,1.922a2.163,2.163,0,0,0,2.2-1.234V-8.453h1.445V0h-1.375ZM136.2,0H134.75V-12H136.2Zm4.273-10.5v2.047h1.578v1.117h-1.578v5.249a1.173,1.173,0,0,0,.211.763.888.888,0,0,0,.719.254,3.5,3.5,0,0,0,.688-.094V0a4.215,4.215,0,0,1-1.109.155,1.8,1.8,0,0,1-1.461-.586,2.517,2.517,0,0,1-.492-1.664V-7.336h-1.539V-8.453h1.539V-10.5ZM148.953,0a3.036,3.036,0,0,1-.2-.891A3.225,3.225,0,0,1,146.344.156a2.984,2.984,0,0,1-2.051-.707,2.287,2.287,0,0,1-.8-1.793,2.39,2.39,0,0,1,1-2.051,4.733,4.733,0,0,1,2.824-.73h1.406v-.664A1.623,1.623,0,0,0,148.273-7a1.821,1.821,0,0,0-1.336-.449,2.107,2.107,0,0,0-1.3.391,1.151,1.151,0,0,0-.523.945h-1.453a2,2,0,0,1,.449-1.223,3.066,3.066,0,0,1,1.219-.934,4.1,4.1,0,0,1,1.691-.344,3.342,3.342,0,0,1,2.289.73,2.635,2.635,0,0,1,.859,2.012v3.891a4.757,4.757,0,0,0,.3,1.852V0Zm-2.4-1.1a2.54,2.54,0,0,0,1.289-.352,2.127,2.127,0,0,0,.883-.914V-4.1h-1.133q-2.656,0-2.656,1.555a1.316,1.316,0,0,0,.453,1.063A1.742,1.742,0,0,0,146.555-1.1Z" transform="translate(452.36 688)" fill="#12263f"/>
    <path id="Trazado_118630" data-name="Trazado 118630" d="M4.6.156A3.693,3.693,0,0,1,1.8-.973,4.19,4.19,0,0,1,.727-3.992v-.266A5.073,5.073,0,0,1,1.207-6.5,3.748,3.748,0,0,1,2.551-8.051a3.378,3.378,0,0,1,1.871-.559A3.166,3.166,0,0,1,6.984-7.523,4.7,4.7,0,0,1,7.9-4.414v.6H2.172a3,3,0,0,0,.73,2.02,2.3,2.3,0,0,0,1.777.77,2.517,2.517,0,0,0,1.3-.312,3.259,3.259,0,0,0,.93-.828l.883.688A3.55,3.55,0,0,1,4.6.156Zm-.18-7.578a1.928,1.928,0,0,0-1.469.637A3.1,3.1,0,0,0,2.219-5H6.453v-.109a2.753,2.753,0,0,0-.594-1.707A1.815,1.815,0,0,0,4.422-7.422Zm10.07,5.18a1.064,1.064,0,0,0-.441-.91,4.249,4.249,0,0,0-1.539-.559,7.277,7.277,0,0,1-1.742-.562,2.479,2.479,0,0,1-.953-.781,1.869,1.869,0,0,1-.309-1.078,2.193,2.193,0,0,1,.879-1.758,3.432,3.432,0,0,1,2.246-.719,3.532,3.532,0,0,1,2.332.742,2.357,2.357,0,0,1,.895,1.9H14.406a1.3,1.3,0,0,0-.5-1.023,1.888,1.888,0,0,0-1.27-.43,1.976,1.976,0,0,0-1.234.344,1.082,1.082,0,0,0-.445.9.877.877,0,0,0,.414.789,5.1,5.1,0,0,0,1.5.508,7.8,7.8,0,0,1,1.754.578,2.558,2.558,0,0,1,1,.809,1.988,1.988,0,0,1,.324,1.152,2.163,2.163,0,0,1-.906,1.816A3.8,3.8,0,0,1,12.68.156a4.257,4.257,0,0,1-1.8-.359,2.922,2.922,0,0,1-1.223-1A2.42,2.42,0,0,1,9.219-2.6h1.445a1.5,1.5,0,0,0,.582,1.152,2.258,2.258,0,0,0,1.434.426A2.331,2.331,0,0,0,14-1.355,1.02,1.02,0,0,0,14.492-2.242ZM19.781-10.5v2.047h1.578v1.117H19.781v5.249a1.173,1.173,0,0,0,.211.763.888.888,0,0,0,.719.254,3.5,3.5,0,0,0,.688-.094V0a4.215,4.215,0,0,1-1.109.155A1.8,1.8,0,0,1,18.828-.43a2.517,2.517,0,0,1-.492-1.664V-7.336H16.8V-8.453h1.539V-10.5Zm7.352,3.344a4.331,4.331,0,0,0-.711-.055A1.9,1.9,0,0,0,24.492-6V0H23.047V-8.453h1.406l.023.977a2.251,2.251,0,0,1,2.016-1.133,1.477,1.477,0,0,1,.641.109ZM33.68-.836A3.07,3.07,0,0,1,31.2.156a2.628,2.628,0,0,1-2.059-.785,3.4,3.4,0,0,1-.715-2.324v-5.5h1.445v5.461q0,1.922,1.563,1.922a2.163,2.163,0,0,0,2.2-1.234V-8.453h1.445V0H33.711Zm6.992-.187a2.082,2.082,0,0,0,1.352-.469,1.649,1.649,0,0,0,.641-1.172h1.367a2.621,2.621,0,0,1-.5,1.383A3.293,3.293,0,0,1,42.3-.234a3.55,3.55,0,0,1-1.629.391A3.482,3.482,0,0,1,37.926-1a4.59,4.59,0,0,1-1.02-3.152v-.242a5.089,5.089,0,0,1,.453-2.2,3.451,3.451,0,0,1,1.3-1.492,3.7,3.7,0,0,1,2-.531,3.39,3.39,0,0,1,2.363.852,3.043,3.043,0,0,1,1,2.211H42.664a1.992,1.992,0,0,0-.621-1.348,1.932,1.932,0,0,0-1.379-.527,2.023,2.023,0,0,0-1.707.793,3.724,3.724,0,0,0-.605,2.293v.273a3.65,3.65,0,0,0,.6,2.25A2.033,2.033,0,0,0,40.672-1.023ZM47.617-10.5v2.047H49.2v1.117H47.617v5.249a1.173,1.173,0,0,0,.211.763.888.888,0,0,0,.719.254,3.5,3.5,0,0,0,.688-.094V0a4.215,4.215,0,0,1-1.109.155A1.8,1.8,0,0,1,46.664-.43a2.517,2.517,0,0,1-.492-1.664V-7.336H44.633V-8.453h1.539V-10.5ZM56.1-.836a3.07,3.07,0,0,1-2.477.992,2.628,2.628,0,0,1-2.059-.785,3.4,3.4,0,0,1-.715-2.324v-5.5H52.3v5.461q0,1.922,1.563,1.922a2.163,2.163,0,0,0,2.2-1.234V-8.453h1.445V0H56.133Zm7.688-6.32a4.331,4.331,0,0,0-.711-.055A1.9,1.9,0,0,0,61.148-6V0H59.7V-8.453h1.406l.023.977a2.251,2.251,0,0,1,2.016-1.133,1.477,1.477,0,0,1,.641.109ZM70.023,0a3.036,3.036,0,0,1-.2-.891A3.225,3.225,0,0,1,67.414.156a2.984,2.984,0,0,1-2.051-.707,2.288,2.288,0,0,1-.8-1.793,2.39,2.39,0,0,1,1-2.051,4.733,4.733,0,0,1,2.824-.73H69.8v-.664A1.623,1.623,0,0,0,69.344-7a1.821,1.821,0,0,0-1.336-.449,2.108,2.108,0,0,0-1.3.391,1.151,1.151,0,0,0-.523.945H64.734a2,2,0,0,1,.449-1.223A3.066,3.066,0,0,1,66.4-8.266a4.1,4.1,0,0,1,1.691-.344,3.342,3.342,0,0,1,2.289.73,2.635,2.635,0,0,1,.859,2.012v3.891a4.757,4.757,0,0,0,.3,1.852V0Zm-2.4-1.1a2.54,2.54,0,0,0,1.289-.352,2.127,2.127,0,0,0,.883-.914V-4.1H68.664q-2.656,0-2.656,1.555a1.316,1.316,0,0,0,.453,1.063A1.742,1.742,0,0,0,67.625-1.1Zm5.531-3.2a4.952,4.952,0,0,1,.922-3.129,2.915,2.915,0,0,1,2.414-1.184,2.932,2.932,0,0,1,2.352,1.016V-12h1.445V0H78.961l-.07-.906A2.943,2.943,0,0,1,76.477.156a2.887,2.887,0,0,1-2.395-1.2,5.008,5.008,0,0,1-.926-3.141Zm1.445.164a3.749,3.749,0,0,0,.594,2.25,1.92,1.92,0,0,0,1.641.813A2.109,2.109,0,0,0,78.844-2.3V-6.187a2.125,2.125,0,0,0-1.992-1.2,1.929,1.929,0,0,0-1.656.82A4.128,4.128,0,0,0,74.6-4.133ZM82.148-4.3a4.993,4.993,0,0,1,.488-2.234A3.643,3.643,0,0,1,84-8.07a3.7,3.7,0,0,1,1.988-.539,3.565,3.565,0,0,1,2.793,1.2,4.6,4.6,0,0,1,1.066,3.18v.1a5.036,5.036,0,0,1-.473,2.215A3.589,3.589,0,0,1,88.02-.391,3.743,3.743,0,0,1,86,.156a3.556,3.556,0,0,1-2.785-1.2A4.575,4.575,0,0,1,82.148-4.2Zm1.453.172a3.616,3.616,0,0,0,.652,2.258A2.088,2.088,0,0,0,86-1.023a2.075,2.075,0,0,0,1.75-.863A3.955,3.955,0,0,0,88.4-4.3a3.61,3.61,0,0,0-.66-2.254,2.1,2.1,0,0,0-1.754-.863,2.075,2.075,0,0,0-1.727.852A3.925,3.925,0,0,0,83.6-4.133Z" transform="translate(482.938 712)" fill="#12263f"/>
    <path id="Rectángulo_40686-3" data-name="Rectángulo 40686-3" d="M5,0H180a5,5,0,0,1,5,5V56a5,5,0,0,1-5,5H5a5,5,0,0,1-5-5V5A5,5,0,0,1,5,0Z" transform="translate(946.334 664)" fill="#b9ddfc"/>
    <path id="Trazado_118631" data-name="Trazado 118631" d="M2.82-4.453V0H1.32V-11.375h4.2a4.215,4.215,0,0,1,2.926.953A3.231,3.231,0,0,1,9.5-7.9,3.189,3.189,0,0,1,8.465-5.348,4.4,4.4,0,0,1,5.5-4.453Zm0-1.227h2.7a2.7,2.7,0,0,0,1.844-.567A2.075,2.075,0,0,0,8-7.887a2.143,2.143,0,0,0-.641-1.628A2.525,2.525,0,0,0,5.6-10.148H2.82ZM16.32,0a3.036,3.036,0,0,1-.2-.891A3.225,3.225,0,0,1,13.711.156,2.984,2.984,0,0,1,11.66-.551a2.287,2.287,0,0,1-.8-1.793,2.39,2.39,0,0,1,1-2.051,4.733,4.733,0,0,1,2.824-.73h1.406v-.664A1.623,1.623,0,0,0,15.641-7,1.821,1.821,0,0,0,14.3-7.445a2.107,2.107,0,0,0-1.3.391,1.151,1.151,0,0,0-.523.945H11.031a2,2,0,0,1,.449-1.223A3.066,3.066,0,0,1,12.7-8.266a4.1,4.1,0,0,1,1.691-.344,3.342,3.342,0,0,1,2.289.73,2.635,2.635,0,0,1,.859,2.012v3.891a4.757,4.757,0,0,0,.3,1.852V0Zm-2.4-1.1a2.54,2.54,0,0,0,1.289-.352,2.127,2.127,0,0,0,.883-.914V-4.1H14.961Q12.3-4.1,12.3-2.547a1.316,1.316,0,0,0,.453,1.063A1.742,1.742,0,0,0,13.922-1.1Zm9.969-6.055a4.331,4.331,0,0,0-.711-.055A1.9,1.9,0,0,0,21.25-6V0H19.8V-8.453h1.406l.023.977A2.251,2.251,0,0,1,23.25-8.609a1.477,1.477,0,0,1,.641.109ZM30.125,0a3.036,3.036,0,0,1-.2-.891A3.225,3.225,0,0,1,27.516.156a2.984,2.984,0,0,1-2.051-.707,2.287,2.287,0,0,1-.8-1.793,2.39,2.39,0,0,1,1-2.051,4.733,4.733,0,0,1,2.824-.73H29.9v-.664A1.623,1.623,0,0,0,29.445-7a1.821,1.821,0,0,0-1.336-.449,2.108,2.108,0,0,0-1.3.391,1.151,1.151,0,0,0-.523.945H24.836a2,2,0,0,1,.449-1.223A3.066,3.066,0,0,1,26.5-8.266,4.1,4.1,0,0,1,28.2-8.609a3.342,3.342,0,0,1,2.289.73,2.635,2.635,0,0,1,.859,2.012v3.891a4.757,4.757,0,0,0,.3,1.852V0Zm-2.4-1.1a2.54,2.54,0,0,0,1.289-.352,2.127,2.127,0,0,0,.883-.914V-4.1H28.766q-2.656,0-2.656,1.555a1.316,1.316,0,0,0,.453,1.063A1.742,1.742,0,0,0,27.727-1.1Zm5.531-3.2a4.952,4.952,0,0,1,.922-3.129,2.915,2.915,0,0,1,2.414-1.184,2.932,2.932,0,0,1,2.352,1.016V-12h1.445V0H39.063l-.07-.906A2.943,2.943,0,0,1,36.578.156a2.887,2.887,0,0,1-2.395-1.2,5.008,5.008,0,0,1-.926-3.141Zm1.445.164a3.749,3.749,0,0,0,.594,2.25,1.92,1.92,0,0,0,1.641.813A2.108,2.108,0,0,0,38.945-2.3V-6.187a2.125,2.125,0,0,0-1.992-1.2,1.929,1.929,0,0,0-1.656.82A4.128,4.128,0,0,0,34.7-4.133ZM44.2,0H42.758V-8.453H44.2ZM42.641-10.7a.863.863,0,0,1,.215-.594.807.807,0,0,1,.637-.242.819.819,0,0,1,.641.242.854.854,0,0,1,.219.594.826.826,0,0,1-.219.586.834.834,0,0,1-.641.234.821.821,0,0,1-.637-.234A.834.834,0,0,1,42.641-10.7Zm3.531,6.4a4.968,4.968,0,0,1,.914-3.145,2.923,2.923,0,0,1,2.422-1.168,2.908,2.908,0,0,1,2.414,1.094l.07-.937h1.32V-.2a3.439,3.439,0,0,1-.973,2.586,3.589,3.589,0,0,1-2.613.945,4.348,4.348,0,0,1-1.789-.391A3.08,3.08,0,0,1,46.6,1.867L47.352,1a2.826,2.826,0,0,0,2.273,1.148,2.214,2.214,0,0,0,1.645-.594,2.269,2.269,0,0,0,.59-1.672V-.844a2.971,2.971,0,0,1-2.367,1,2.887,2.887,0,0,1-2.4-1.2A5.224,5.224,0,0,1,46.172-4.3Zm1.453.164a3.79,3.79,0,0,0,.586,2.246,1.9,1.9,0,0,0,1.641.816,2.117,2.117,0,0,0,2.008-1.242V-6.172a2.142,2.142,0,0,0-1.992-1.211,1.921,1.921,0,0,0-1.648.82A4.128,4.128,0,0,0,47.625-4.133Zm9.227-4.32.039.938A3.122,3.122,0,0,1,59.4-8.609,2.417,2.417,0,0,1,61.813-7.25a3.2,3.2,0,0,1,1.1-.984,3.242,3.242,0,0,1,1.6-.375q2.781,0,2.828,2.945V0H65.891V-5.578a1.941,1.941,0,0,0-.414-1.355,1.823,1.823,0,0,0-1.391-.449,1.917,1.917,0,0,0-1.336.48,1.949,1.949,0,0,0-.617,1.293V0H60.68V-5.539a1.613,1.613,0,0,0-1.8-1.844A1.934,1.934,0,0,0,56.93-6.172V0H55.484V-8.453ZM74.734,0a3.036,3.036,0,0,1-.2-.891A3.225,3.225,0,0,1,72.125.156a2.984,2.984,0,0,1-2.051-.707,2.288,2.288,0,0,1-.8-1.793,2.39,2.39,0,0,1,1-2.051,4.733,4.733,0,0,1,2.824-.73h1.406v-.664A1.623,1.623,0,0,0,74.055-7a1.821,1.821,0,0,0-1.336-.449,2.108,2.108,0,0,0-1.3.391,1.151,1.151,0,0,0-.523.945H69.445a2,2,0,0,1,.449-1.223,3.066,3.066,0,0,1,1.219-.934A4.1,4.1,0,0,1,72.8-8.609a3.342,3.342,0,0,1,2.289.73,2.635,2.635,0,0,1,.859,2.012v3.891a4.757,4.757,0,0,0,.3,1.852V0Zm-2.4-1.1a2.54,2.54,0,0,0,1.289-.352,2.127,2.127,0,0,0,.883-.914V-4.1H73.375q-2.656,0-2.656,1.555a1.316,1.316,0,0,0,.453,1.063A1.742,1.742,0,0,0,72.336-1.1ZM89.32-4.133a5.062,5.062,0,0,1-.883,3.109A2.829,2.829,0,0,1,86.047.156,3.1,3.1,0,0,1,83.625-.82V3.25H82.18v-11.7H83.5l.07.938a2.977,2.977,0,0,1,2.453-1.094,2.882,2.882,0,0,1,2.41,1.148,5.117,5.117,0,0,1,.887,3.2ZM87.875-4.3a3.735,3.735,0,0,0-.609-2.258,1.963,1.963,0,0,0-1.672-.828,2.125,2.125,0,0,0-1.969,1.164V-2.18a2.129,2.129,0,0,0,1.984,1.156,1.954,1.954,0,0,0,1.652-.824A4.077,4.077,0,0,0,87.875-4.3Zm8.5,4.3a3.036,3.036,0,0,1-.2-.891A3.225,3.225,0,0,1,93.766.156a2.984,2.984,0,0,1-2.051-.707,2.288,2.288,0,0,1-.8-1.793,2.39,2.39,0,0,1,1-2.051,4.733,4.733,0,0,1,2.824-.73h1.406v-.664A1.623,1.623,0,0,0,95.7-7a1.821,1.821,0,0,0-1.336-.449,2.108,2.108,0,0,0-1.3.391,1.151,1.151,0,0,0-.523.945H91.086a2,2,0,0,1,.449-1.223,3.066,3.066,0,0,1,1.219-.934,4.1,4.1,0,0,1,1.691-.344,3.342,3.342,0,0,1,2.289.73,2.635,2.635,0,0,1,.859,2.012v3.891a4.757,4.757,0,0,0,.3,1.852V0Zm-2.4-1.1a2.54,2.54,0,0,0,1.289-.352,2.127,2.127,0,0,0,.883-.914V-4.1H95.016q-2.656,0-2.656,1.555a1.316,1.316,0,0,0,.453,1.063A1.742,1.742,0,0,0,93.977-1.1Zm9.969-6.055a4.331,4.331,0,0,0-.711-.055A1.9,1.9,0,0,0,101.3-6V0H99.859V-8.453h1.406l.023.977A2.251,2.251,0,0,1,103.3-8.609a1.477,1.477,0,0,1,.641.109ZM110.18,0a3.036,3.036,0,0,1-.2-.891A3.225,3.225,0,0,1,107.57.156a2.984,2.984,0,0,1-2.051-.707,2.288,2.288,0,0,1-.8-1.793,2.39,2.39,0,0,1,1-2.051,4.733,4.733,0,0,1,2.824-.73h1.406v-.664A1.623,1.623,0,0,0,109.5-7a1.821,1.821,0,0,0-1.336-.449,2.108,2.108,0,0,0-1.3.391,1.151,1.151,0,0,0-.523.945h-1.453a2,2,0,0,1,.449-1.223,3.066,3.066,0,0,1,1.219-.934,4.1,4.1,0,0,1,1.691-.344,3.342,3.342,0,0,1,2.289.73,2.635,2.635,0,0,1,.859,2.012v3.891a4.757,4.757,0,0,0,.3,1.852V0Zm-2.4-1.1a2.54,2.54,0,0,0,1.289-.352,2.127,2.127,0,0,0,.883-.914V-4.1H108.82q-2.656,0-2.656,1.555a1.316,1.316,0,0,0,.453,1.063A1.742,1.742,0,0,0,107.781-1.1Zm11.578-.125h5.391V0h-6.9V-11.375h1.508ZM131.453,0a3.036,3.036,0,0,1-.2-.891A3.225,3.225,0,0,1,128.844.156a2.984,2.984,0,0,1-2.051-.707,2.288,2.288,0,0,1-.8-1.793,2.39,2.39,0,0,1,1-2.051,4.733,4.733,0,0,1,2.824-.73h1.406v-.664A1.623,1.623,0,0,0,130.773-7a1.821,1.821,0,0,0-1.336-.449,2.107,2.107,0,0,0-1.3.391,1.151,1.151,0,0,0-.523.945h-1.453a2,2,0,0,1,.449-1.223,3.066,3.066,0,0,1,1.219-.934,4.1,4.1,0,0,1,1.691-.344,3.342,3.342,0,0,1,2.289.73,2.635,2.635,0,0,1,.859,2.012v3.891a4.757,4.757,0,0,0,.3,1.852V0Zm-2.4-1.1a2.54,2.54,0,0,0,1.289-.352,2.127,2.127,0,0,0,.883-.914V-4.1h-1.133q-2.656,0-2.656,1.555a1.316,1.316,0,0,0,.453,1.063A1.742,1.742,0,0,0,129.055-1.1Z" transform="translate(970.775 688)" fill="#12263f"/>
    <path id="Trazado_118632" data-name="Trazado 118632" d="M6.313,0a3.036,3.036,0,0,1-.2-.891A3.225,3.225,0,0,1,3.7.156,2.984,2.984,0,0,1,1.652-.551a2.287,2.287,0,0,1-.8-1.793,2.39,2.39,0,0,1,1-2.051,4.733,4.733,0,0,1,2.824-.73H6.086v-.664A1.623,1.623,0,0,0,5.633-7,1.821,1.821,0,0,0,4.3-7.445,2.107,2.107,0,0,0,3-7.055a1.151,1.151,0,0,0-.523.945H1.023a2,2,0,0,1,.449-1.223,3.066,3.066,0,0,1,1.219-.934,4.1,4.1,0,0,1,1.691-.344,3.342,3.342,0,0,1,2.289.73,2.635,2.635,0,0,1,.859,2.012v3.891a4.757,4.757,0,0,0,.3,1.852V0Zm-2.4-1.1A2.54,2.54,0,0,0,5.2-1.453a2.127,2.127,0,0,0,.883-.914V-4.1H4.953Q2.3-4.1,2.3-2.547A1.316,1.316,0,0,0,2.75-1.484,1.742,1.742,0,0,0,3.914-1.1ZM9.445-4.3a4.952,4.952,0,0,1,.922-3.129,2.915,2.915,0,0,1,2.414-1.184,2.932,2.932,0,0,1,2.352,1.016V-12h1.445V0H15.25l-.07-.906A2.943,2.943,0,0,1,12.766.156a2.887,2.887,0,0,1-2.395-1.2,5.008,5.008,0,0,1-.926-3.141Zm1.445.164a3.749,3.749,0,0,0,.594,2.25,1.92,1.92,0,0,0,1.641.813A2.108,2.108,0,0,0,15.133-2.3V-6.187a2.125,2.125,0,0,0-1.992-1.2,1.929,1.929,0,0,0-1.656.82A4.128,4.128,0,0,0,10.891-4.133Zm9.289-4.32.039.938a3.122,3.122,0,0,1,2.508-1.094A2.417,2.417,0,0,1,25.141-7.25a3.2,3.2,0,0,1,1.1-.984,3.242,3.242,0,0,1,1.6-.375q2.781,0,2.828,2.945V0H29.219V-5.578A1.941,1.941,0,0,0,28.8-6.934a1.823,1.823,0,0,0-1.391-.449,1.916,1.916,0,0,0-1.336.48,1.949,1.949,0,0,0-.617,1.293V0H24.008V-5.539a1.613,1.613,0,0,0-1.8-1.844,1.934,1.934,0,0,0-1.945,1.211V0H18.813V-8.453ZM34.414,0H32.969V-8.453h1.445ZM32.852-10.7a.863.863,0,0,1,.215-.594.807.807,0,0,1,.637-.242.819.819,0,0,1,.641.242.854.854,0,0,1,.219.594.826.826,0,0,1-.219.586.834.834,0,0,1-.641.234.821.821,0,0,1-.637-.234A.834.834,0,0,1,32.852-10.7Zm5.242,2.242.047,1.063a3.08,3.08,0,0,1,2.531-1.219q2.68,0,2.7,3.023V0H41.93V-5.594a1.946,1.946,0,0,0-.418-1.352,1.675,1.675,0,0,0-1.277-.437A2.086,2.086,0,0,0,39-7.008a2.546,2.546,0,0,0-.828.984V0H36.727V-8.453ZM47.125,0H45.68V-8.453h1.445ZM45.563-10.7a.863.863,0,0,1,.215-.594.807.807,0,0,1,.637-.242.819.819,0,0,1,.641.242.854.854,0,0,1,.219.594.826.826,0,0,1-.219.586.834.834,0,0,1-.641.234.821.821,0,0,1-.637-.234A.834.834,0,0,1,45.563-10.7Zm8.8,8.453a1.064,1.064,0,0,0-.441-.91,4.249,4.249,0,0,0-1.539-.559,7.277,7.277,0,0,1-1.742-.562,2.479,2.479,0,0,1-.953-.781,1.869,1.869,0,0,1-.309-1.078,2.193,2.193,0,0,1,.879-1.758A3.432,3.432,0,0,1,52.5-8.609a3.532,3.532,0,0,1,2.332.742,2.357,2.357,0,0,1,.895,1.9H54.273a1.3,1.3,0,0,0-.5-1.023,1.888,1.888,0,0,0-1.27-.43,1.976,1.976,0,0,0-1.234.344,1.082,1.082,0,0,0-.445.9.877.877,0,0,0,.414.789,5.1,5.1,0,0,0,1.5.508,7.8,7.8,0,0,1,1.754.578,2.558,2.558,0,0,1,1,.809A1.988,1.988,0,0,1,55.8-2.344,2.163,2.163,0,0,1,54.9-.527a3.8,3.8,0,0,1-2.352.684A4.257,4.257,0,0,1,50.75-.2a2.922,2.922,0,0,1-1.223-1A2.42,2.42,0,0,1,49.086-2.6h1.445a1.5,1.5,0,0,0,.582,1.152,2.258,2.258,0,0,0,1.434.426,2.331,2.331,0,0,0,1.316-.332A1.02,1.02,0,0,0,54.359-2.242ZM59.648-10.5v2.047h1.578v1.117H59.648v5.249a1.173,1.173,0,0,0,.211.763.888.888,0,0,0,.719.254,3.5,3.5,0,0,0,.688-.094V0a4.215,4.215,0,0,1-1.109.155A1.8,1.8,0,0,1,58.7-.43,2.517,2.517,0,0,1,58.2-2.094V-7.336H56.664V-8.453H58.2V-10.5ZM67-7.156a4.331,4.331,0,0,0-.711-.055A1.9,1.9,0,0,0,64.359-6V0H62.914V-8.453H64.32l.023.977a2.251,2.251,0,0,1,2.016-1.133A1.477,1.477,0,0,1,67-8.5ZM73.234,0a3.036,3.036,0,0,1-.2-.891A3.225,3.225,0,0,1,70.625.156a2.984,2.984,0,0,1-2.051-.707,2.288,2.288,0,0,1-.8-1.793,2.39,2.39,0,0,1,1-2.051,4.733,4.733,0,0,1,2.824-.73h1.406v-.664A1.623,1.623,0,0,0,72.555-7a1.821,1.821,0,0,0-1.336-.449,2.108,2.108,0,0,0-1.3.391,1.151,1.151,0,0,0-.523.945H67.945a2,2,0,0,1,.449-1.223,3.066,3.066,0,0,1,1.219-.934A4.1,4.1,0,0,1,71.3-8.609a3.342,3.342,0,0,1,2.289.73,2.635,2.635,0,0,1,.859,2.012v3.891a4.757,4.757,0,0,0,.3,1.852V0Zm-2.4-1.1a2.54,2.54,0,0,0,1.289-.352,2.127,2.127,0,0,0,.883-.914V-4.1H71.875q-2.656,0-2.656,1.555a1.316,1.316,0,0,0,.453,1.063A1.742,1.742,0,0,0,70.836-1.1Zm9.273.078a2.082,2.082,0,0,0,1.352-.469A1.649,1.649,0,0,0,82.1-2.664h1.367a2.621,2.621,0,0,1-.5,1.383,3.293,3.293,0,0,1-1.23,1.047,3.55,3.55,0,0,1-1.629.391A3.482,3.482,0,0,1,77.363-1a4.59,4.59,0,0,1-1.02-3.152v-.242a5.089,5.089,0,0,1,.453-2.2,3.451,3.451,0,0,1,1.3-1.492,3.7,3.7,0,0,1,2-.531,3.39,3.39,0,0,1,2.363.852,3.043,3.043,0,0,1,1,2.211H82.1a1.992,1.992,0,0,0-.621-1.348A1.932,1.932,0,0,0,80.1-7.422a2.023,2.023,0,0,0-1.707.793,3.724,3.724,0,0,0-.605,2.293v.273a3.65,3.65,0,0,0,.6,2.25A2.033,2.033,0,0,0,80.109-1.023ZM86.664,0H85.219V-8.453h1.445ZM85.1-10.7a.863.863,0,0,1,.215-.594.807.807,0,0,1,.637-.242.819.819,0,0,1,.641.242.854.854,0,0,1,.219.594.826.826,0,0,1-.219.586.834.834,0,0,1-.641.234.821.821,0,0,1-.637-.234A.834.834,0,0,1,85.1-10.7ZM88.594-4.3a4.993,4.993,0,0,1,.488-2.234A3.643,3.643,0,0,1,90.441-8.07a3.7,3.7,0,0,1,1.988-.539,3.565,3.565,0,0,1,2.793,1.2,4.6,4.6,0,0,1,1.066,3.18v.1a5.036,5.036,0,0,1-.473,2.215A3.589,3.589,0,0,1,94.465-.391a3.743,3.743,0,0,1-2.02.547,3.556,3.556,0,0,1-2.785-1.2A4.575,4.575,0,0,1,88.594-4.2Zm1.453.172A3.616,3.616,0,0,0,90.7-1.875a2.088,2.088,0,0,0,1.746.852,2.075,2.075,0,0,0,1.75-.863A3.955,3.955,0,0,0,94.844-4.3a3.61,3.61,0,0,0-.66-2.254,2.1,2.1,0,0,0-1.754-.863A2.075,2.075,0,0,0,90.7-6.57,3.925,3.925,0,0,0,90.047-4.133ZM93.086-12h1.75L92.742-9.7l-1.164,0Zm6.383,3.547.047,1.063a3.08,3.08,0,0,1,2.531-1.219q2.68,0,2.7,3.023V0H103.3V-5.594a1.946,1.946,0,0,0-.418-1.352,1.675,1.675,0,0,0-1.277-.437,2.086,2.086,0,0,0-1.234.375,2.546,2.546,0,0,0-.828.984V0H98.1V-8.453ZM110.539-4.3a4.952,4.952,0,0,1,.922-3.129,2.915,2.915,0,0,1,2.414-1.184,2.932,2.932,0,0,1,2.352,1.016V-12h1.445V0h-1.328l-.07-.906A2.943,2.943,0,0,1,113.859.156a2.887,2.887,0,0,1-2.395-1.2,5.008,5.008,0,0,1-.926-3.141Zm1.445.164a3.749,3.749,0,0,0,.594,2.25,1.92,1.92,0,0,0,1.641.813A2.109,2.109,0,0,0,116.227-2.3V-6.187a2.125,2.125,0,0,0-1.992-1.2,1.929,1.929,0,0,0-1.656.82A4.128,4.128,0,0,0,111.984-4.133ZM123.422.156a3.693,3.693,0,0,1-2.8-1.129,4.19,4.19,0,0,1-1.078-3.02v-.266a5.073,5.073,0,0,1,.48-2.246,3.748,3.748,0,0,1,1.344-1.547,3.378,3.378,0,0,1,1.871-.559A3.166,3.166,0,0,1,125.8-7.523a4.7,4.7,0,0,1,.914,3.109v.6h-5.727a3,3,0,0,0,.73,2.02,2.3,2.3,0,0,0,1.777.77,2.517,2.517,0,0,0,1.3-.312,3.259,3.259,0,0,0,.93-.828l.883.688A3.55,3.55,0,0,1,123.422.156Zm-.18-7.578a1.928,1.928,0,0,0-1.469.637A3.1,3.1,0,0,0,121.039-5h4.234v-.109a2.753,2.753,0,0,0-.594-1.707A1.815,1.815,0,0,0,123.242-7.422ZM132.578,0V-11.375H136.3a4.317,4.317,0,0,1,2.785.766,2.759,2.759,0,0,1,.934,2.266,2.31,2.31,0,0,1-.453,1.41,2.937,2.937,0,0,1-1.234.949,2.638,2.638,0,0,1,1.457.98,2.814,2.814,0,0,1,.535,1.723,3.042,3.042,0,0,1-.992,2.406,4.1,4.1,0,0,1-2.8.875Zm1.5-5.32v4.094h2.477a2.385,2.385,0,0,0,1.652-.543,1.907,1.907,0,0,0,.605-1.5q0-2.055-2.234-2.055Zm0-1.2h2.266a2.375,2.375,0,0,0,1.574-.493,1.654,1.654,0,0,0,.59-1.339,1.626,1.626,0,0,0-.547-1.366,2.686,2.686,0,0,0-1.664-.427h-2.219ZM142.539,0V-11.375h3.211a5.169,5.169,0,0,1,2.625.656,4.438,4.438,0,0,1,1.762,1.867,6.077,6.077,0,0,1,.629,2.781v.727a6.1,6.1,0,0,1-.621,2.82,4.369,4.369,0,0,1-1.773,1.859A5.5,5.5,0,0,1,145.688,0Zm1.5-10.148v8.922h1.578a3.434,3.434,0,0,0,2.7-1.079,4.458,4.458,0,0,0,.965-3.073v-.665a4.529,4.529,0,0,0-.91-3.014,3.239,3.239,0,0,0-2.582-1.091Z" transform="translate(961.729 712)" fill="#12263f"/>
    <path id="Trazado_118633" data-name="Trazado 118633" d="M5,0H57a5,5,0,0,1,5,5V24a5,5,0,0,1-5,5H5a5,5,0,0,1-5-5V5A5,5,0,0,1,5,0Z" transform="translate(500.063 611)" fill="none"/>
    <path id="Trazado_118634" data-name="Trazado 118634" d="M4.5,0h52A4.5,4.5,0,0,1,61,4.5v19A4.5,4.5,0,0,1,56.5,28H4.5A4.5,4.5,0,0,1,0,23.5V4.5A4.5,4.5,0,0,1,4.5,0Z" transform="translate(500.563 611.5)" fill="none" stroke="#707070" stroke-width="1"/>
    <path id="Trazado_118635" data-name="Trazado 118635" d="M4.6.156A3.693,3.693,0,0,1,1.8-.973,4.19,4.19,0,0,1,.727-3.992v-.266A5.073,5.073,0,0,1,1.207-6.5,3.748,3.748,0,0,1,2.551-8.051a3.378,3.378,0,0,1,1.871-.559A3.166,3.166,0,0,1,6.984-7.523,4.7,4.7,0,0,1,7.9-4.414v.6H2.172a3,3,0,0,0,.73,2.02,2.3,2.3,0,0,0,1.777.77,2.517,2.517,0,0,0,1.3-.312,3.259,3.259,0,0,0,.93-.828l.883.688A3.55,3.55,0,0,1,4.6.156Zm-.18-7.578a1.928,1.928,0,0,0-1.469.637A3.1,3.1,0,0,0,2.219-5H6.453v-.109a2.753,2.753,0,0,0-.594-1.707A1.815,1.815,0,0,0,4.422-7.422Zm10.07,5.18a1.064,1.064,0,0,0-.441-.91,4.249,4.249,0,0,0-1.539-.559,7.277,7.277,0,0,1-1.742-.562,2.479,2.479,0,0,1-.953-.781,1.869,1.869,0,0,1-.309-1.078,2.193,2.193,0,0,1,.879-1.758,3.432,3.432,0,0,1,2.246-.719,3.532,3.532,0,0,1,2.332.742,2.357,2.357,0,0,1,.895,1.9H14.406a1.3,1.3,0,0,0-.5-1.023,1.888,1.888,0,0,0-1.27-.43,1.976,1.976,0,0,0-1.234.344,1.082,1.082,0,0,0-.445.9.877.877,0,0,0,.414.789,5.1,5.1,0,0,0,1.5.508,7.8,7.8,0,0,1,1.754.578,2.558,2.558,0,0,1,1,.809,1.988,1.988,0,0,1,.324,1.152,2.163,2.163,0,0,1-.906,1.816A3.8,3.8,0,0,1,12.68.156a4.257,4.257,0,0,1-1.8-.359,2.922,2.922,0,0,1-1.223-1A2.42,2.42,0,0,1,9.219-2.6h1.445a1.5,1.5,0,0,0,.582,1.152,2.258,2.258,0,0,0,1.434.426A2.331,2.331,0,0,0,14-1.355,1.02,1.02,0,0,0,14.492-2.242Z" transform="translate(522.692 631)" fill="#12263f"/>
    <path id="Trazado_118636" data-name="Trazado 118636" d="M5,0H57a5,5,0,0,1,5,5V24a5,5,0,0,1-5,5H5a5,5,0,0,1-5-5V5A5,5,0,0,1,5,0Z" transform="translate(1007.835 611)" fill="none"/>
    <path id="Trazado_118637" data-name="Trazado 118637" d="M4.5,0h52A4.5,4.5,0,0,1,61,4.5v19A4.5,4.5,0,0,1,56.5,28H4.5A4.5,4.5,0,0,1,0,23.5V4.5A4.5,4.5,0,0,1,4.5,0Z" transform="translate(1008.335 611.5)" fill="none" stroke="#707070" stroke-width="1"/>
    <path id="Trazado_118638" data-name="Trazado 118638" d="M4.6.156A3.693,3.693,0,0,1,1.8-.973,4.19,4.19,0,0,1,.727-3.992v-.266A5.073,5.073,0,0,1,1.207-6.5,3.748,3.748,0,0,1,2.551-8.051a3.378,3.378,0,0,1,1.871-.559A3.166,3.166,0,0,1,6.984-7.523,4.7,4.7,0,0,1,7.9-4.414v.6H2.172a3,3,0,0,0,.73,2.02,2.3,2.3,0,0,0,1.777.77,2.517,2.517,0,0,0,1.3-.312,3.259,3.259,0,0,0,.93-.828l.883.688A3.55,3.55,0,0,1,4.6.156Zm-.18-7.578a1.928,1.928,0,0,0-1.469.637A3.1,3.1,0,0,0,2.219-5H6.453v-.109a2.753,2.753,0,0,0-.594-1.707A1.815,1.815,0,0,0,4.422-7.422Zm10.07,5.18a1.064,1.064,0,0,0-.441-.91,4.249,4.249,0,0,0-1.539-.559,7.277,7.277,0,0,1-1.742-.562,2.479,2.479,0,0,1-.953-.781,1.869,1.869,0,0,1-.309-1.078,2.193,2.193,0,0,1,.879-1.758,3.432,3.432,0,0,1,2.246-.719,3.532,3.532,0,0,1,2.332.742,2.357,2.357,0,0,1,.895,1.9H14.406a1.3,1.3,0,0,0-.5-1.023,1.888,1.888,0,0,0-1.27-.43,1.976,1.976,0,0,0-1.234.344,1.082,1.082,0,0,0-.445.9.877.877,0,0,0,.414.789,5.1,5.1,0,0,0,1.5.508,7.8,7.8,0,0,1,1.754.578,2.558,2.558,0,0,1,1,.809,1.988,1.988,0,0,1,.324,1.152,2.163,2.163,0,0,1-.906,1.816A3.8,3.8,0,0,1,12.68.156a4.257,4.257,0,0,1-1.8-.359,2.922,2.922,0,0,1-1.223-1A2.42,2.42,0,0,1,9.219-2.6h1.445a1.5,1.5,0,0,0,.582,1.152,2.258,2.258,0,0,0,1.434.426A2.331,2.331,0,0,0,14-1.355,1.02,1.02,0,0,0,14.492-2.242Z" transform="translate(1030.463 631)" fill="#12263f"/>
    <path id="Rectángulo_40686-2-2" data-name="Rectángulo 40686-2" d="M5,0H180a5,5,0,0,1,5,5V153a5,5,0,0,1-5,5H5a5,5,0,0,1-5-5V5A5,5,0,0,1,5,0Z" transform="translate(311.334 808.658)" fill="#b9ddfc"/>
    <path id="Rectángulo_40686-2-3" data-name="Rectángulo 40686-2" d="M5,0H210a5,5,0,0,1,5,5V153a5,5,0,0,1-5,5H5a5,5,0,0,1-5-5V5A5,5,0,0,1,5,0Z" transform="translate(535.792 808.658)" fill="#b9ddfc"/>
    <g id="Lenguaje_de_consulta_estructurado" data-name="Lenguaje de consulta estructurado" transform="translate(-3875.98 -1111.342)" style="isolation: isolate">
      <text id="ORACLE_SQL_MySQL_MariaDB_" data-name="ORACLE

SQL

MySQL

MariaDB
" transform="translate(4279.815 1947.342)" fill="#12263f" font-size="16" font-family="Roboto-Regular, Roboto" style="isolation: isolate"><tspan x="-29.66" y="0">ORACLE</tspan><tspan x="0" y="19.2"></tspan><tspan x="-14.551" y="38.4">SQL</tspan><tspan x="0" y="57.6"></tspan><tspan x="-21.383" y="76.8">MySQL</tspan><tspan x="0" y="96"></tspan><tspan x="-30.563" y="115.2">MariaDB</tspan><tspan font-family="Roboto-Regular"><tspan x="0" y="134.4"></tspan></tspan></text>
    </g>
    <g id="Lenguaje_de_consulta_estructurado-2" data-name="Lenguaje de consulta estructurado" transform="translate(-3875.98 -1111.342)" style="isolation: isolate">
      <text id="Conformadas_por_tablas._Relacionales_entre_tablas._Solvencia_y_consistencia_en_el_almacenamiento_y_consulta_de_datos." data-name="Conformadas por tablas.

Relacionales entre tablas.

Solvencia y consistencia
en el almacenamiento y
consulta de datos." transform="translate(4428.941 1947.342)" fill="#12263f" font-size="16" font-family="Roboto-Regular, Roboto" style="isolation: isolate"><tspan x="0" y="0">Conformadas por tablas.</tspan><tspan x="0" y="19.2"></tspan><tspan x="0" y="38.4">Relacionales entre tablas.</tspan><tspan x="0" y="57.6"></tspan><tspan x="0" y="76.8">Solvencia y consistencia</tspan><tspan x="0" y="96">en el almacenamiento y</tspan><tspan x="0" y="115.2">consulta de datos.</tspan></text>
    </g>
    <g id="Rectángulo_40686-4" data-name="Rectángulo 40686-4" transform="translate(-3875.98 -1111.342)">
      <rect id="Rectángulo_293565" data-name="Rectángulo 293565" width="142" height="29" rx="5" transform="translate(4208.815 1870.342)" fill="none"/>
      <rect id="Rectángulo_293566" data-name="Rectángulo 293566" width="141" height="28" rx="4.5" transform="translate(4209.315 1870.842)" fill="none" stroke="#707070" stroke-width="1"/>
    </g>
    <g id="es-2-2" data-name="es-2" transform="translate(-3875.98 -1111.342)" style="isolation: isolate">
      <text id="Los_gestores_son" data-name="Los gestores son" transform="translate(4279.815 1890.342)" fill="#12263f" font-size="16" font-family="Roboto-Regular, Roboto" style="isolation: isolate"><tspan x="-61" y="0">Los gestores son</tspan></text>
    </g>
    <g id="Rectángulo_40686-4-2" data-name="Rectángulo 40686-4" transform="translate(-3875.98 -1111.342)">
      <rect id="Rectángulo_293567" data-name="Rectángulo 293567" width="172" height="29" rx="5" transform="translate(4433.273 1870.342)" fill="none"/>
      <rect id="Rectángulo_293568" data-name="Rectángulo 293568" width="171" height="28" rx="4.5" transform="translate(4433.773 1870.842)" fill="none" stroke="#707070" stroke-width="1"/>
    </g>
    <g id="es-2-3" data-name="es-2" transform="translate(-3875.98 -1111.342)" style="isolation: isolate">
      <text id="Sus_características" data-name="Sus características" transform="translate(4519.273 1890.342)" fill="#12263f" font-size="16" font-family="Roboto-Regular, Roboto" style="isolation: isolate"><tspan x="-67.77" y="0">Sus características</tspan></text>
    </g>
    <path id="Rectángulo_40686-2-4" data-name="Rectángulo 40686-2" d="M5,0H180a5,5,0,0,1,5,5V123a5,5,0,0,1-5,5H5a5,5,0,0,1-5-5V5A5,5,0,0,1,5,0Z" transform="translate(819.334 808.658)" fill="#b9ddfc"/>
    <path id="Rectángulo_40686-2-5" data-name="Rectángulo 40686-2" d="M5,0H250a5,5,0,0,1,5,5V218.342a5,5,0,0,1-5,5H5a5,5,0,0,1-5-5V5A5,5,0,0,1,5,0Z" transform="translate(1033.476 808.658)" fill="#b9ddfc"/>
    <g id="Lenguaje_de_consulta_estructurado-3" data-name="Lenguaje de consulta estructurado" transform="translate(-3875.98 -1111.342)" style="isolation: isolate">
      <text id="MongoDB_Redis_Cassandra" data-name="MongoDB

Redis

Cassandra" transform="translate(4787.815 1947.342)" fill="#12263f" font-size="16" font-family="Roboto-Regular, Roboto" style="isolation: isolate"><tspan x="-35.238" y="0">MongoDB</tspan><tspan x="0" y="19.2"></tspan><tspan x="-19.742" y="38.4">Redis</tspan><tspan x="0" y="57.6"></tspan><tspan x="-37.988" y="76.8">Cassandra</tspan></text>
    </g>
    <g id="Lenguaje_de_consulta_estructurado-4" data-name="Lenguaje de consulta estructurado" transform="translate(-3875.98 -1111.342)" style="isolation: isolate">
      <text id="Los_datos_no_se_almacenan_en_tablas._Arquitectura_distribuida._Eficiencia_en_el_procesamiento_de_datos._Su_almacenamiento_se_hace_en_documentos._" data-name="Los datos no se almacenan
en tablas.

Arquitectura distribuida.

Eficiencia en el procesamiento
de datos.

Su almacenamiento se hace en
documentos.
" transform="translate(4927.89 1947.342)" fill="#12263f" font-size="16" font-family="Roboto-Regular, Roboto" style="isolation: isolate"><tspan x="0" y="0">Los datos no se almacenan</tspan><tspan x="0" y="19.2">en tablas.</tspan><tspan x="0" y="38.4"></tspan><tspan x="0" y="57.6">Arquitectura distribuida.</tspan><tspan x="0" y="76.8"></tspan><tspan x="0" y="96">Eficiencia en el procesamiento</tspan><tspan x="0" y="115.2">de datos.</tspan><tspan x="0" y="134.4"></tspan><tspan x="0" y="153.6">Su almacenamiento se hace en </tspan><tspan x="0" y="172.8">documentos.</tspan><tspan font-family="Roboto-Regular"><tspan x="0" y="192"></tspan></tspan></text>
    </g>
    <g id="Rectángulo_40686-4-3" data-name="Rectángulo 40686-4" transform="translate(-3875.98 -1111.342)">
      <rect id="Rectángulo_293569" data-name="Rectángulo 293569" width="142" height="29" rx="5" transform="translate(4716.815 1870.342)" fill="none"/>
      <rect id="Rectángulo_293570" data-name="Rectángulo 293570" width="141" height="28" rx="4.5" transform="translate(4717.315 1870.842)" fill="none" stroke="#707070" stroke-width="1"/>
    </g>
    <g id="es-2-4" data-name="es-2" transform="translate(-3875.98 -1111.342)" style="isolation: isolate">
      <text id="Los_gestores_son-2" data-name="Los gestores son" transform="translate(4787.815 1890.342)" fill="#12263f" font-size="16" font-family="Roboto-Regular, Roboto" style="isolation: isolate"><tspan x="-61" y="0">Los gestores son</tspan></text>
    </g>
    <g id="Rectángulo_40686-4-4" data-name="Rectángulo 40686-4" transform="translate(-3875.98 -1111.342)">
      <rect id="Rectángulo_293571" data-name="Rectángulo 293571" width="172" height="29" rx="5" transform="translate(4950.957 1870.342)" fill="none"/>
      <rect id="Rectángulo_293572" data-name="Rectángulo 293572" width="171" height="28" rx="4.5" transform="translate(4951.457 1870.842)" fill="none" stroke="#707070" stroke-width="1"/>
    </g>
    <g id="es-2-5" data-name="es-2" transform="translate(-3875.98 -1111.342)" style="isolation: isolate">
      <text id="Sus_características-2" data-name="Sus características" transform="translate(5036.956 1890.342)" fill="#12263f" font-size="16" font-family="Roboto-Regular, Roboto" style="isolation: isolate"><tspan x="-67.77" y="0">Sus características</tspan></text>
    </g>
    <path id="Trazado_118619" data-name="Trazado 118619" d="M0,0V51" transform="translate(782.772 433.998)" fill="none" stroke="#707070" stroke-width="2"/>
    <path id="Trazado_117905" data-name="Trazado 117905" d="M4640.753,1610.842H4407.044v43.5" transform="translate(-3875.98 -1111.342)" fill="none" stroke="#707070" stroke-width="2"/>
    <path id="Trazado_117906" data-name="Trazado 117906" d="M4676.753,1610.842h238.063v43.5" transform="translate(-3875.98 -1111.342)" fill="none" stroke="#707070" stroke-width="2"/>
    <path id="Trazado_118620" data-name="Trazado 118620" d="M0,0V25" transform="translate(1038.834 586)" fill="none" stroke="#707070" stroke-width="2"/>
    <path id="Trazado_118621" data-name="Trazado 118621" d="M0,0V24" transform="translate(1038.834 640)" fill="none" stroke="#707070" stroke-width="2"/>
    <path id="Trazado_117907" data-name="Trazado 117907" d="M4914.815,1836.342v13.515h-127v20.485" transform="translate(-3875.98 -1111.342)" fill="none" stroke="#707070" stroke-width="2"/>
    <path id="Trazado_118622" data-name="Trazado 118622" d="M0,0V20.658" transform="translate(911.834 788)" fill="none" stroke="#707070" stroke-width="2"/>
    <path id="Trazado_117908" data-name="Trazado 117908" d="M4914.815,1849.857h122.141v20.985" transform="translate(-3875.98 -1111.342)" fill="none" stroke="#707070" stroke-width="2"/>
    <path id="Trazado_118623" data-name="Trazado 118623" d="M0,0V20.658" transform="translate(1160.976 788)" fill="none" stroke="#707070" stroke-width="2"/>
    <path id="Trazado_117909" data-name="Trazado 117909" d="M4407.044,1836.342v17h112.229v17" transform="translate(-3875.98 -1111.342)" fill="none" stroke="#707070" stroke-width="2"/>
    <path id="Trazado_118624" data-name="Trazado 118624" d="M0,0V20.658" transform="translate(643.292 788)" fill="none" stroke="#707070" stroke-width="2"/>
    <path id="Trazado_117910" data-name="Trazado 117910" d="M4407.044,1853.342H4279.815v17.5" transform="translate(-3875.98 -1111.342)" fill="none" stroke="#707070" stroke-width="2"/>
    <path id="Trazado_118625" data-name="Trazado 118625" d="M0,0V20.658" transform="translate(403.834 788)" fill="none" stroke="#707070" stroke-width="2"/>
    <path id="Trazado_118626" data-name="Trazado 118626" d="M0,0V25.5" transform="translate(531.063 586)" fill="none" stroke="#707070" stroke-width="2"/>
    <path id="Trazado_118627" data-name="Trazado 118627" d="M0,0V24" transform="translate(531.063 640)" fill="none" stroke="#707070" stroke-width="2"/>
  </g>
</svg>
